<svg width="272" height="120" viewBox="0 0 272 120" fill="none" xmlns="http://www.w3.org/2000/svg">
<g clip-path="url(#clip0_228_393)">
<rect width="272" height="120" fill="#8AC2FF"/>
<path d="M43.2102 41V39.3636C43.2102 38.8807 43.3011 38.3722 43.483 37.8381C43.6648 37.304 43.9176 36.7926 44.2415 36.304C44.5653 35.8153 44.946 35.3977 45.3835 35.0511L46.6449 35.9545C46.2983 36.4602 46.0028 36.9886 45.7585 37.5398C45.5142 38.0909 45.392 38.6903 45.392 39.3381V41H43.2102ZM47.5568 41V39.3636C47.5568 38.8807 47.6477 38.3722 47.8295 37.8381C48.0114 37.304 48.2642 36.7926 48.5881 36.304C48.9119 35.8153 49.2926 35.3977 49.7301 35.0511L50.9915 35.9545C50.6449 36.4602 50.3494 36.9886 50.1051 37.5398C49.8608 38.0909 49.7386 38.6903 49.7386 39.3381V41H47.5568ZM52.5256 37.8125V35.5455H66.0341V37.8125H60.5881V53H57.9631V37.8125H52.5256ZM71.3629 45.2273V53H68.8146V35.5455H71.3288V42.0398H71.4908C71.7976 41.3352 72.2663 40.7756 72.897 40.3608C73.5277 39.946 74.3516 39.7386 75.3686 39.7386C76.2663 39.7386 77.0504 39.9233 77.7209 40.2926C78.397 40.6619 78.9197 41.2131 79.2891 41.946C79.6641 42.6733 79.8516 43.5824 79.8516 44.6733V53H77.3033V44.9801C77.3033 44.0199 77.0561 43.2756 76.5618 42.7472C76.0675 42.2131 75.38 41.946 74.4993 41.946C73.897 41.946 73.3572 42.0739 72.88 42.3295C72.4084 42.5852 72.0362 42.9602 71.7635 43.4545C71.4964 43.9432 71.3629 44.5341 71.3629 45.2273ZM83.2521 53V39.9091H85.8004V53H83.2521ZM84.5391 37.8892C84.0959 37.8892 83.7152 37.7415 83.397 37.446C83.0845 37.1449 82.9283 36.7869 82.9283 36.3722C82.9283 35.9517 83.0845 35.5937 83.397 35.2983C83.7152 34.9972 84.0959 34.8466 84.5391 34.8466C84.9822 34.8466 85.3601 34.9972 85.6726 35.2983C85.9908 35.5937 86.1499 35.9517 86.1499 36.3722C86.1499 36.7869 85.9908 37.1449 85.6726 37.446C85.3601 37.7415 84.9822 37.8892 84.5391 37.8892ZM99.0384 43.1051L96.7287 43.5142C96.6321 43.2187 96.4787 42.9375 96.2685 42.6705C96.0639 42.4034 95.7855 42.1847 95.4332 42.0142C95.081 41.8437 94.6406 41.7585 94.1122 41.7585C93.3906 41.7585 92.7884 41.9205 92.3054 42.2443C91.8224 42.5625 91.581 42.9744 91.581 43.4801C91.581 43.9176 91.7429 44.2699 92.0668 44.5369C92.3906 44.804 92.9134 45.0227 93.6349 45.1932L95.7145 45.6705C96.919 45.9489 97.8168 46.3778 98.4077 46.9574C98.9986 47.5369 99.294 48.2898 99.294 49.2159C99.294 50 99.0668 50.6989 98.6122 51.3125C98.1634 51.9205 97.5355 52.3977 96.7287 52.7443C95.9276 53.0909 94.9986 53.2642 93.9418 53.2642C92.4759 53.2642 91.2798 52.9517 90.3537 52.3267C89.4276 51.696 88.8594 50.8011 88.6491 49.642L91.1122 49.267C91.2656 49.9091 91.581 50.3949 92.0582 50.7244C92.5355 51.0483 93.1577 51.2102 93.9247 51.2102C94.7599 51.2102 95.4276 51.0369 95.9276 50.6903C96.4276 50.3381 96.6776 49.9091 96.6776 49.4034C96.6776 48.9943 96.5241 48.6506 96.2173 48.3722C95.9162 48.0937 95.4531 47.8835 94.8281 47.7415L92.6122 47.2557C91.3906 46.9773 90.4872 46.5341 89.902 45.9261C89.3224 45.3182 89.0327 44.5483 89.0327 43.6165C89.0327 42.8437 89.2486 42.1676 89.6804 41.5881C90.1122 41.0085 90.7088 40.5568 91.4702 40.233C92.2315 39.9034 93.1037 39.7386 94.0866 39.7386C95.5014 39.7386 96.6151 40.0455 97.4276 40.6591C98.2401 41.267 98.777 42.0824 99.0384 43.1051ZM108.447 53V39.9091H110.996V53H108.447ZM109.734 37.8892C109.291 37.8892 108.911 37.7415 108.592 37.446C108.28 37.1449 108.124 36.7869 108.124 36.3722C108.124 35.9517 108.28 35.5937 108.592 35.2983C108.911 34.9972 109.291 34.8466 109.734 34.8466C110.178 34.8466 110.555 34.9972 110.868 35.2983C111.186 35.5937 111.345 35.9517 111.345 36.3722C111.345 36.7869 111.186 37.1449 110.868 37.446C110.555 37.7415 110.178 37.8892 109.734 37.8892ZM124.234 43.1051L121.924 43.5142C121.827 43.2187 121.674 42.9375 121.464 42.6705C121.259 42.4034 120.981 42.1847 120.629 42.0142C120.276 41.8437 119.836 41.7585 119.308 41.7585C118.586 41.7585 117.984 41.9205 117.501 42.2443C117.018 42.5625 116.776 42.9744 116.776 43.4801C116.776 43.9176 116.938 44.2699 117.262 44.5369C117.586 44.804 118.109 45.0227 118.83 45.1932L120.91 45.6705C122.114 45.9489 123.012 46.3778 123.603 46.9574C124.194 47.5369 124.489 48.2898 124.489 49.2159C124.489 50 124.262 50.6989 123.808 51.3125C123.359 51.9205 122.731 52.3977 121.924 52.7443C121.123 53.0909 120.194 53.2642 119.137 53.2642C117.671 53.2642 116.475 52.9517 115.549 52.3267C114.623 51.696 114.055 50.8011 113.844 49.642L116.308 49.267C116.461 49.9091 116.776 50.3949 117.254 50.7244C117.731 51.0483 118.353 51.2102 119.12 51.2102C119.955 51.2102 120.623 51.0369 121.123 50.6903C121.623 50.3381 121.873 49.9091 121.873 49.4034C121.873 48.9943 121.719 48.6506 121.413 48.3722C121.112 48.0937 120.648 47.8835 120.023 47.7415L117.808 47.2557C116.586 46.9773 115.683 46.5341 115.097 45.9261C114.518 45.3182 114.228 44.5483 114.228 43.6165C114.228 42.8437 114.444 42.1676 114.876 41.5881C115.308 41.0085 115.904 40.5568 116.665 40.233C117.427 39.9034 118.299 39.7386 119.282 39.7386C120.697 39.7386 121.81 40.0455 122.623 40.6591C123.435 41.267 123.972 42.0824 124.234 43.1051ZM137.452 53.2898C136.623 53.2898 135.873 53.1364 135.202 52.8295C134.532 52.517 134.001 52.0653 133.609 51.4744C133.222 50.8835 133.029 50.1591 133.029 49.3011C133.029 48.5625 133.171 47.9545 133.455 47.4773C133.739 47 134.123 46.6222 134.606 46.3438C135.089 46.0653 135.629 45.8551 136.225 45.7131C136.822 45.571 137.43 45.4631 138.049 45.3892C138.833 45.2983 139.469 45.2244 139.958 45.1676C140.447 45.1051 140.802 45.0057 141.023 44.8693C141.245 44.733 141.356 44.5114 141.356 44.2045V44.1449C141.356 43.4006 141.146 42.8239 140.725 42.4148C140.31 42.0057 139.691 41.8011 138.867 41.8011C138.009 41.8011 137.333 41.9915 136.839 42.3722C136.35 42.7472 136.012 43.1648 135.825 43.625L133.43 43.0795C133.714 42.2841 134.129 41.642 134.674 41.1534C135.225 40.6591 135.859 40.3011 136.575 40.0795C137.29 39.8523 138.043 39.7386 138.833 39.7386C139.356 39.7386 139.91 39.8011 140.495 39.9261C141.086 40.0455 141.637 40.267 142.148 40.5909C142.665 40.9148 143.089 41.3778 143.418 41.9801C143.748 42.5767 143.913 43.3523 143.913 44.3068V53H141.424V51.2102H141.322C141.157 51.5398 140.91 51.8636 140.58 52.1818C140.251 52.5 139.827 52.7642 139.31 52.9744C138.793 53.1847 138.174 53.2898 137.452 53.2898ZM138.006 51.2443C138.711 51.2443 139.313 51.1051 139.813 50.8267C140.319 50.5483 140.702 50.1847 140.964 49.7358C141.231 49.2812 141.364 48.7955 141.364 48.2784V46.5909C141.273 46.6818 141.097 46.767 140.836 46.8466C140.58 46.9205 140.288 46.9858 139.958 47.0426C139.629 47.0937 139.308 47.142 138.995 47.1875C138.683 47.2273 138.421 47.2614 138.211 47.2898C137.717 47.3523 137.265 47.4574 136.856 47.6051C136.452 47.7528 136.129 47.9659 135.884 48.2443C135.646 48.517 135.526 48.8807 135.526 49.3352C135.526 49.9659 135.759 50.4432 136.225 50.767C136.691 51.0852 137.285 51.2443 138.006 51.2443ZM162.496 57.9091V50.9631H162.343C162.19 51.2415 161.968 51.5597 161.678 51.9176C161.394 52.2756 161.002 52.5881 160.502 52.8551C160.002 53.1222 159.354 53.2557 158.559 53.2557C157.502 53.2557 156.559 52.9858 155.729 52.446C154.906 51.9006 154.258 51.125 153.786 50.1193C153.32 49.108 153.087 47.8949 153.087 46.4801C153.087 45.0653 153.323 43.8551 153.795 42.8494C154.272 41.8437 154.925 41.0739 155.755 40.5398C156.585 40.0057 157.525 39.7386 158.576 39.7386C159.388 39.7386 160.042 39.875 160.536 40.1477C161.036 40.4148 161.423 40.7273 161.695 41.0852C161.974 41.4432 162.19 41.7585 162.343 42.0312H162.556V39.9091H165.045V57.9091H162.496ZM159.121 51.0824C159.854 51.0824 160.474 50.8892 160.979 50.5028C161.491 50.1108 161.877 49.5682 162.138 48.875C162.406 48.1818 162.539 47.375 162.539 46.4545C162.539 45.5455 162.408 44.75 162.147 44.0682C161.886 43.3864 161.502 42.8551 160.996 42.4744C160.491 42.0937 159.866 41.9034 159.121 41.9034C158.354 41.9034 157.715 42.1023 157.204 42.5C156.692 42.8977 156.306 43.4403 156.045 44.1278C155.789 44.8153 155.661 45.5909 155.661 46.4545C155.661 47.3295 155.792 48.1165 156.053 48.8153C156.315 49.5142 156.701 50.0682 157.212 50.4773C157.729 50.8807 158.366 51.0824 159.121 51.0824ZM176.763 47.571V39.9091H179.32V53H176.815V50.733H176.678C176.377 51.4318 175.894 52.0142 175.229 52.4801C174.57 52.9403 173.749 53.1705 172.766 53.1705C171.925 53.1705 171.181 52.9858 170.533 52.6165C169.891 52.2415 169.386 51.6875 169.016 50.9545C168.653 50.2216 168.471 49.3153 168.471 48.2358V39.9091H171.019V47.929C171.019 48.821 171.266 49.5312 171.761 50.0597C172.255 50.5881 172.897 50.8523 173.687 50.8523C174.164 50.8523 174.638 50.733 175.11 50.4943C175.587 50.2557 175.982 49.8949 176.295 49.4119C176.613 48.929 176.769 48.3153 176.763 47.571ZM188.259 53.2642C187.031 53.2642 185.96 52.983 185.045 52.4205C184.131 51.858 183.42 51.071 182.915 50.0597C182.409 49.0483 182.156 47.8665 182.156 46.5142C182.156 45.1562 182.409 43.9687 182.915 42.9517C183.42 41.9347 184.131 41.1449 185.045 40.5824C185.96 40.0199 187.031 39.7386 188.259 39.7386C189.486 39.7386 190.557 40.0199 191.472 40.5824C192.386 41.1449 193.097 41.9347 193.602 42.9517C194.108 43.9687 194.361 45.1562 194.361 46.5142C194.361 47.8665 194.108 49.0483 193.602 50.0597C193.097 51.071 192.386 51.858 191.472 52.4205C190.557 52.983 189.486 53.2642 188.259 53.2642ZM188.267 51.125C189.063 51.125 189.722 50.9148 190.244 50.4943C190.767 50.0739 191.153 49.5142 191.403 48.8153C191.659 48.1165 191.787 47.3466 191.787 46.5057C191.787 45.6705 191.659 44.9034 191.403 44.2045C191.153 43.5 190.767 42.9347 190.244 42.5085C189.722 42.0824 189.063 41.8693 188.267 41.8693C187.466 41.8693 186.801 42.0824 186.273 42.5085C185.75 42.9347 185.361 43.5 185.105 44.2045C184.855 44.9034 184.73 45.6705 184.73 46.5057C184.73 47.3466 184.855 48.1165 185.105 48.8153C185.361 49.5142 185.75 50.0739 186.273 50.4943C186.801 50.9148 187.466 51.125 188.267 51.125ZM203.316 39.9091V41.9545H196.165V39.9091H203.316ZM198.083 36.7727H200.631V49.1562C200.631 49.6506 200.705 50.0227 200.853 50.2727C201.001 50.517 201.191 50.6847 201.424 50.7756C201.663 50.8608 201.921 50.9034 202.2 50.9034C202.404 50.9034 202.583 50.8892 202.737 50.8608C202.89 50.8324 203.009 50.8097 203.094 50.7926L203.555 52.8977C203.407 52.9545 203.197 53.0114 202.924 53.0682C202.651 53.1307 202.31 53.1648 201.901 53.1705C201.231 53.1818 200.606 53.0625 200.026 52.8125C199.447 52.5625 198.978 52.1761 198.62 51.6534C198.262 51.1307 198.083 50.4744 198.083 49.6847V36.7727ZM211.636 53.2642C210.347 53.2642 209.236 52.9886 208.304 52.4375C207.378 51.8807 206.662 51.0994 206.156 50.0938C205.656 49.0824 205.406 47.8977 205.406 46.5398C205.406 45.1989 205.656 44.017 206.156 42.9943C206.662 41.9716 207.366 41.1733 208.27 40.5994C209.179 40.0256 210.241 39.7386 211.457 39.7386C212.196 39.7386 212.912 39.8608 213.605 40.1051C214.298 40.3494 214.92 40.733 215.472 41.2557C216.023 41.7784 216.457 42.4574 216.776 43.2926C217.094 44.1222 217.253 45.1307 217.253 46.3182V47.2216H206.847V45.3125H214.756C214.756 44.642 214.619 44.0483 214.347 43.5312C214.074 43.0085 213.69 42.5966 213.196 42.2955C212.707 41.9943 212.134 41.8438 211.474 41.8438C210.759 41.8438 210.134 42.0199 209.599 42.3722C209.071 42.7187 208.662 43.1733 208.372 43.7358C208.088 44.2926 207.946 44.8977 207.946 45.5511V47.0426C207.946 47.9176 208.099 48.6619 208.406 49.2756C208.719 49.8892 209.153 50.358 209.71 50.6818C210.267 51 210.918 51.1591 211.662 51.1591C212.145 51.1591 212.585 51.0909 212.983 50.9545C213.381 50.8125 213.724 50.6023 214.014 50.3239C214.304 50.0455 214.526 49.7017 214.679 49.2926L217.091 49.7273C216.898 50.4375 216.551 51.0597 216.051 51.5938C215.557 52.1222 214.935 52.5341 214.185 52.8295C213.44 53.1193 212.591 53.2642 211.636 53.2642ZM232.662 39.9091V41.9545H225.264V39.9091H232.662ZM227.293 53V38.392C227.293 37.5739 227.472 36.8949 227.83 36.3551C228.188 35.8097 228.662 35.4034 229.253 35.1364C229.844 34.8636 230.486 34.7273 231.179 34.7273C231.69 34.7273 232.128 34.7699 232.491 34.8551C232.855 34.9347 233.125 35.0085 233.301 35.0767L232.705 37.1392C232.585 37.1051 232.432 37.0653 232.244 37.0199C232.057 36.9687 231.83 36.9432 231.562 36.9432C230.943 36.9432 230.5 37.0966 230.233 37.4034C229.972 37.7102 229.841 38.1534 229.841 38.733V53H227.293ZM235.291 53V39.9091H237.754V41.9886H237.891C238.129 41.2841 238.55 40.7301 239.152 40.3267C239.76 39.9176 240.447 39.7131 241.214 39.7131C241.374 39.7131 241.561 39.7187 241.777 39.7301C241.999 39.7415 242.172 39.7557 242.297 39.7727V42.2102C242.195 42.1818 242.013 42.1506 241.751 42.1165C241.49 42.0767 241.229 42.0568 240.967 42.0568C240.365 42.0568 239.828 42.1847 239.357 42.4403C238.891 42.6903 238.521 43.0398 238.249 43.4886C237.976 43.9318 237.839 44.4375 237.839 45.0057V53H235.291ZM249.548 53.2642C248.32 53.2642 247.249 52.983 246.335 52.4205C245.42 51.858 244.71 51.071 244.204 50.0597C243.698 49.0483 243.445 47.8665 243.445 46.5142C243.445 45.1562 243.698 43.9687 244.204 42.9517C244.71 41.9347 245.42 41.1449 246.335 40.5824C247.249 40.0199 248.32 39.7386 249.548 39.7386C250.775 39.7386 251.846 40.0199 252.761 40.5824C253.675 41.1449 254.386 41.9347 254.891 42.9517C255.397 43.9687 255.65 45.1562 255.65 46.5142C255.65 47.8665 255.397 49.0483 254.891 50.0597C254.386 51.071 253.675 51.858 252.761 52.4205C251.846 52.983 250.775 53.2642 249.548 53.2642ZM249.556 51.125C250.352 51.125 251.011 50.9148 251.533 50.4943C252.056 50.0739 252.442 49.5142 252.692 48.8153C252.948 48.1165 253.076 47.3466 253.076 46.5057C253.076 45.6705 252.948 44.9034 252.692 44.2045C252.442 43.5 252.056 42.9347 251.533 42.5085C251.011 42.0824 250.352 41.8693 249.556 41.8693C248.755 41.8693 248.09 42.0824 247.562 42.5085C247.039 42.9347 246.65 43.5 246.394 44.2045C246.144 44.9034 246.019 45.6705 246.019 46.5057C246.019 47.3466 246.144 48.1165 246.394 48.8153C246.65 49.5142 247.039 50.0739 247.562 50.4943C248.09 50.9148 248.755 51.125 249.556 51.125ZM258.494 53V39.9091H260.94V42.0398H261.102C261.375 41.3182 261.821 40.7557 262.44 40.3523C263.06 39.9432 263.801 39.7386 264.665 39.7386C265.54 39.7386 266.273 39.9432 266.864 40.3523C267.46 40.7614 267.901 41.3239 268.185 42.0398H268.321C268.634 41.3409 269.131 40.7841 269.812 40.3693C270.494 39.9489 271.307 39.7386 272.25 39.7386C273.438 39.7386 274.406 40.1108 275.156 40.8551C275.912 41.5994 276.29 42.7216 276.29 44.2216V53H273.741V44.4602C273.741 43.5739 273.5 42.9318 273.017 42.5341C272.534 42.1364 271.957 41.9375 271.287 41.9375C270.457 41.9375 269.812 42.1932 269.352 42.7045C268.892 43.2102 268.662 43.8608 268.662 44.6562V53H266.122V44.2983C266.122 43.5881 265.901 43.017 265.457 42.5852C265.014 42.1534 264.438 41.9375 263.727 41.9375C263.244 41.9375 262.798 42.0653 262.389 42.321C261.986 42.571 261.659 42.9205 261.409 43.3693C261.165 43.8182 261.043 44.3381 261.043 44.929V53H258.494ZM53.5227 74.1051L51.2131 74.5142C51.1165 74.2187 50.9631 73.9375 50.7528 73.6705C50.5483 73.4034 50.2699 73.1847 49.9176 73.0142C49.5653 72.8437 49.125 72.7585 48.5966 72.7585C47.875 72.7585 47.2727 72.9205 46.7898 73.2443C46.3068 73.5625 46.0653 73.9744 46.0653 74.4801C46.0653 74.9176 46.2273 75.2699 46.5511 75.5369C46.875 75.804 47.3977 76.0227 48.1193 76.1932L50.1989 76.6705C51.4034 76.9489 52.3011 77.3778 52.892 77.9574C53.483 78.5369 53.7784 79.2898 53.7784 80.2159C53.7784 81 53.5511 81.6989 53.0966 82.3125C52.6477 82.9205 52.0199 83.3977 51.2131 83.7443C50.4119 84.0909 49.483 84.2642 48.4261 84.2642C46.9602 84.2642 45.7642 83.9517 44.8381 83.3267C43.9119 82.696 43.3438 81.8011 43.1335 80.642L45.5966 80.267C45.75 80.9091 46.0653 81.3949 46.5426 81.7244C47.0199 82.0483 47.642 82.2102 48.4091 82.2102C49.2443 82.2102 49.9119 82.0369 50.4119 81.6903C50.9119 81.3381 51.1619 80.9091 51.1619 80.4034C51.1619 79.9943 51.0085 79.6506 50.7017 79.3722C50.4006 79.0937 49.9375 78.8835 49.3125 78.7415L47.0966 78.2557C45.875 77.9773 44.9716 77.5341 44.3864 76.9261C43.8068 76.3182 43.517 75.5483 43.517 74.6165C43.517 73.8437 43.733 73.1676 44.1648 72.5881C44.5966 72.0085 45.1932 71.5568 45.9545 71.233C46.7159 70.9034 47.5881 70.7386 48.571 70.7386C49.9858 70.7386 51.0994 71.0455 51.9119 71.6591C52.7244 72.267 53.2614 73.0824 53.5227 74.1051ZM62.0945 84.2642C60.8672 84.2642 59.7962 83.983 58.8814 83.4205C57.9666 82.858 57.2564 82.071 56.7507 81.0597C56.245 80.0483 55.9922 78.8665 55.9922 77.5142C55.9922 76.1562 56.245 74.9687 56.7507 73.9517C57.2564 72.9347 57.9666 72.1449 58.8814 71.5824C59.7962 71.0199 60.8672 70.7386 62.0945 70.7386C63.3217 70.7386 64.3928 71.0199 65.3075 71.5824C66.2223 72.1449 66.9325 72.9347 67.4382 73.9517C67.9439 74.9687 68.1967 76.1562 68.1967 77.5142C68.1967 78.8665 67.9439 80.0483 67.4382 81.0597C66.9325 82.071 66.2223 82.858 65.3075 83.4205C64.3928 83.983 63.3217 84.2642 62.0945 84.2642ZM62.103 82.125C62.8984 82.125 63.5575 81.9148 64.0803 81.4943C64.603 81.0739 64.9893 80.5142 65.2393 79.8153C65.495 79.1165 65.6229 78.3466 65.6229 77.5057C65.6229 76.6705 65.495 75.9034 65.2393 75.2045C64.9893 74.5 64.603 73.9347 64.0803 73.5085C63.5575 73.0824 62.8984 72.8693 62.103 72.8693C61.3018 72.8693 60.6371 73.0824 60.1087 73.5085C59.5859 73.9347 59.1967 74.5 58.9411 75.2045C58.6911 75.9034 58.5661 76.6705 58.5661 77.5057C58.5661 78.3466 58.6911 79.1165 58.9411 79.8153C59.1967 80.5142 59.5859 81.0739 60.1087 81.4943C60.6371 81.9148 61.3018 82.125 62.103 82.125ZM71.0412 84V70.9091H73.4872V73.0398H73.6491C73.9219 72.3182 74.3679 71.7557 74.9872 71.3523C75.6065 70.9432 76.348 70.7386 77.2116 70.7386C78.0866 70.7386 78.8196 70.9432 79.4105 71.3523C80.0071 71.7614 80.4474 72.3239 80.7315 73.0398H80.8679C81.1804 72.3409 81.6776 71.7841 82.3594 71.3693C83.0412 70.9489 83.8537 70.7386 84.7969 70.7386C85.9844 70.7386 86.9531 71.1108 87.7031 71.8551C88.4588 72.5994 88.8366 73.7216 88.8366 75.2216V84H86.2884V75.4602C86.2884 74.5739 86.0469 73.9318 85.5639 73.5341C85.081 73.1364 84.5043 72.9375 83.8338 72.9375C83.0043 72.9375 82.3594 73.1932 81.8991 73.7045C81.4389 74.2102 81.2088 74.8608 81.2088 75.6562V84H78.669V75.2983C78.669 74.5881 78.4474 74.017 78.0043 73.5852C77.5611 73.1534 76.9844 72.9375 76.2741 72.9375C75.7912 72.9375 75.3452 73.0653 74.9361 73.321C74.5327 73.571 74.206 73.9205 73.956 74.3693C73.7116 74.8182 73.5895 75.3381 73.5895 75.929V84H71.0412ZM97.8942 84.2642C96.6044 84.2642 95.4936 83.9886 94.5618 83.4375C93.6357 82.8807 92.9197 82.0994 92.4141 81.0938C91.9141 80.0824 91.6641 78.8977 91.6641 77.5398C91.6641 76.1989 91.9141 75.017 92.4141 73.9943C92.9197 72.9716 93.6243 72.1733 94.5277 71.5994C95.4368 71.0256 96.4993 70.7386 97.7152 70.7386C98.4538 70.7386 99.1697 70.8608 99.8629 71.1051C100.556 71.3494 101.178 71.733 101.729 72.2557C102.281 72.7784 102.715 73.4574 103.033 74.2926C103.352 75.1222 103.511 76.1307 103.511 77.3182V78.2216H93.1044V76.3125H101.013C101.013 75.642 100.877 75.0483 100.604 74.5312C100.332 74.0085 99.9482 73.5966 99.4538 73.2955C98.9652 72.9943 98.3913 72.8438 97.7322 72.8438C97.0163 72.8438 96.3913 73.0199 95.8572 73.3722C95.3288 73.7187 94.9197 74.1733 94.63 74.7358C94.3459 75.2926 94.2038 75.8977 94.2038 76.5511V78.0426C94.2038 78.9176 94.3572 79.6619 94.6641 80.2756C94.9766 80.8892 95.4112 81.358 95.968 81.6818C96.5249 82 97.1754 82.1591 97.9197 82.1591C98.4027 82.1591 98.843 82.0909 99.2408 81.9545C99.6385 81.8125 99.9822 81.6023 100.272 81.3239C100.562 81.0455 100.783 80.7017 100.937 80.2926L103.349 80.7273C103.156 81.4375 102.809 82.0597 102.309 82.5938C101.815 83.1222 101.192 83.5341 100.442 83.8295C99.6982 84.1193 98.8487 84.2642 97.8942 84.2642ZM111.852 84.2642C110.625 84.2642 109.554 83.983 108.639 83.4205C107.724 82.858 107.014 82.071 106.509 81.0597C106.003 80.0483 105.75 78.8665 105.75 77.5142C105.75 76.1562 106.003 74.9687 106.509 73.9517C107.014 72.9347 107.724 72.1449 108.639 71.5824C109.554 71.0199 110.625 70.7386 111.852 70.7386C113.08 70.7386 114.151 71.0199 115.065 71.5824C115.98 72.1449 116.69 72.9347 117.196 73.9517C117.702 74.9687 117.955 76.1562 117.955 77.5142C117.955 78.8665 117.702 80.0483 117.196 81.0597C116.69 82.071 115.98 82.858 115.065 83.4205C114.151 83.983 113.08 84.2642 111.852 84.2642ZM111.861 82.125C112.656 82.125 113.315 81.9148 113.838 81.4943C114.361 81.0739 114.747 80.5142 114.997 79.8153C115.253 79.1165 115.381 78.3466 115.381 77.5057C115.381 76.6705 115.253 75.9034 114.997 75.2045C114.747 74.5 114.361 73.9347 113.838 73.5085C113.315 73.0824 112.656 72.8693 111.861 72.8693C111.06 72.8693 110.395 73.0824 109.866 73.5085C109.344 73.9347 108.955 74.5 108.699 75.2045C108.449 75.9034 108.324 76.6705 108.324 77.5057C108.324 78.3466 108.449 79.1165 108.699 79.8153C108.955 80.5142 109.344 81.0739 109.866 81.4943C110.395 81.9148 111.06 82.125 111.861 82.125ZM123.347 76.2273V84H120.799V70.9091H123.245V73.0398H123.407C123.708 72.3466 124.18 71.7898 124.822 71.3693C125.469 70.9489 126.285 70.7386 127.268 70.7386C128.16 70.7386 128.941 70.9261 129.612 71.3011C130.282 71.6705 130.802 72.2216 131.171 72.9545C131.54 73.6875 131.725 74.5937 131.725 75.6733V84H129.177V75.9801C129.177 75.0312 128.93 74.2898 128.435 73.7557C127.941 73.2159 127.262 72.946 126.398 72.946C125.808 72.946 125.282 73.0739 124.822 73.3295C124.367 73.5852 124.006 73.9602 123.739 74.4545C123.478 74.9432 123.347 75.5341 123.347 76.2273ZM140.785 84.2642C139.495 84.2642 138.384 83.9886 137.452 83.4375C136.526 82.8807 135.81 82.0994 135.305 81.0938C134.805 80.0824 134.555 78.8977 134.555 77.5398C134.555 76.1989 134.805 75.017 135.305 73.9943C135.81 72.9716 136.515 72.1733 137.418 71.5994C138.327 71.0256 139.39 70.7386 140.606 70.7386C141.344 70.7386 142.06 70.8608 142.754 71.1051C143.447 71.3494 144.069 71.733 144.62 72.2557C145.171 72.7784 145.606 73.4574 145.924 74.2926C146.242 75.1222 146.401 76.1307 146.401 77.3182V78.2216H135.995V76.3125H143.904C143.904 75.642 143.768 75.0483 143.495 74.5312C143.222 74.0085 142.839 73.5966 142.344 73.2955C141.856 72.9943 141.282 72.8438 140.623 72.8438C139.907 72.8438 139.282 73.0199 138.748 73.3722C138.219 73.7187 137.81 74.1733 137.521 74.7358C137.237 75.2926 137.094 75.8977 137.094 76.5511V78.0426C137.094 78.9176 137.248 79.6619 137.555 80.2756C137.867 80.8892 138.302 81.358 138.859 81.6818C139.415 82 140.066 82.1591 140.81 82.1591C141.293 82.1591 141.734 82.0909 142.131 81.9545C142.529 81.8125 142.873 81.6023 143.163 81.3239C143.452 81.0455 143.674 80.7017 143.827 80.2926L146.239 80.7273C146.046 81.4375 145.7 82.0597 145.2 82.5938C144.705 83.1222 144.083 83.5341 143.333 83.8295C142.589 84.1193 141.739 84.2642 140.785 84.2642ZM165.39 74.1051L163.08 74.5142C162.984 74.2187 162.83 73.9375 162.62 73.6705C162.415 73.4034 162.137 73.1847 161.785 73.0142C161.433 72.8437 160.992 72.7585 160.464 72.7585C159.742 72.7585 159.14 72.9205 158.657 73.2443C158.174 73.5625 157.933 73.9744 157.933 74.4801C157.933 74.9176 158.094 75.2699 158.418 75.5369C158.742 75.804 159.265 76.0227 159.987 76.1932L162.066 76.6705C163.271 76.9489 164.168 77.3778 164.759 77.9574C165.35 78.5369 165.646 79.2898 165.646 80.2159C165.646 81 165.418 81.6989 164.964 82.3125C164.515 82.9205 163.887 83.3977 163.08 83.7443C162.279 84.0909 161.35 84.2642 160.293 84.2642C158.827 84.2642 157.631 83.9517 156.705 83.3267C155.779 82.696 155.211 81.8011 155.001 80.642L157.464 80.267C157.617 80.9091 157.933 81.3949 158.41 81.7244C158.887 82.0483 159.509 82.2102 160.276 82.2102C161.112 82.2102 161.779 82.0369 162.279 81.6903C162.779 81.3381 163.029 80.9091 163.029 80.4034C163.029 79.9943 162.876 79.6506 162.569 79.3722C162.268 79.0937 161.805 78.8835 161.18 78.7415L158.964 78.2557C157.742 77.9773 156.839 77.5341 156.254 76.9261C155.674 76.3182 155.384 75.5483 155.384 74.6165C155.384 73.8437 155.6 73.1676 156.032 72.5881C156.464 72.0085 157.06 71.5568 157.822 71.233C158.583 70.9034 159.455 70.7386 160.438 70.7386C161.853 70.7386 162.967 71.0455 163.779 71.6591C164.592 72.267 165.129 73.0824 165.39 74.1051ZM172.257 84.2898C171.428 84.2898 170.678 84.1364 170.007 83.8295C169.337 83.517 168.805 83.0653 168.413 82.4744C168.027 81.8835 167.834 81.1591 167.834 80.3011C167.834 79.5625 167.976 78.9545 168.26 78.4773C168.544 78 168.928 77.6222 169.411 77.3438C169.893 77.0653 170.433 76.8551 171.03 76.7131C171.626 76.571 172.234 76.4631 172.854 76.3892C173.638 76.2983 174.274 76.2244 174.763 76.1676C175.251 76.1051 175.607 76.0057 175.828 75.8693C176.05 75.733 176.161 75.5114 176.161 75.2045V75.1449C176.161 74.4006 175.95 73.8239 175.53 73.4148C175.115 73.0057 174.496 72.8011 173.672 72.8011C172.814 72.8011 172.138 72.9915 171.643 73.3722C171.155 73.7472 170.817 74.1648 170.629 74.625L168.234 74.0795C168.518 73.2841 168.933 72.642 169.479 72.1534C170.03 71.6591 170.663 71.3011 171.379 71.0795C172.095 70.8523 172.848 70.7386 173.638 70.7386C174.161 70.7386 174.714 70.8011 175.3 70.9261C175.891 71.0455 176.442 71.267 176.953 71.5909C177.47 71.9148 177.893 72.3778 178.223 72.9801C178.553 73.5767 178.717 74.3523 178.717 75.3068V84H176.229V82.2102H176.126C175.962 82.5398 175.714 82.8636 175.385 83.1818C175.055 83.5 174.632 83.7642 174.115 83.9744C173.598 84.1847 172.979 84.2898 172.257 84.2898ZM172.811 82.2443C173.516 82.2443 174.118 82.1051 174.618 81.8267C175.124 81.5483 175.507 81.1847 175.768 80.7358C176.036 80.2812 176.169 79.7955 176.169 79.2784V77.5909C176.078 77.6818 175.902 77.767 175.641 77.8466C175.385 77.9205 175.092 77.9858 174.763 78.0426C174.433 78.0937 174.112 78.142 173.8 78.1875C173.487 78.2273 173.226 78.2614 173.016 78.2898C172.521 78.3523 172.07 78.4574 171.661 78.6051C171.257 78.7528 170.933 78.9659 170.689 79.2443C170.45 79.517 170.331 79.8807 170.331 80.3352C170.331 80.9659 170.564 81.4432 171.03 81.767C171.496 82.0852 172.089 82.2443 172.811 82.2443ZM183.254 88.9091C182.873 88.9091 182.526 88.8778 182.214 88.8153C181.901 88.7585 181.668 88.696 181.515 88.6278L182.129 86.5398C182.594 86.6648 183.009 86.7188 183.373 86.7017C183.737 86.6847 184.058 86.5483 184.336 86.2926C184.62 86.0369 184.87 85.6193 185.086 85.0398L185.401 84.1705L180.612 70.9091H183.339L186.654 81.0682H186.79L190.106 70.9091H192.842L187.447 85.7472C187.197 86.429 186.879 87.0057 186.492 87.4773C186.106 87.9545 185.646 88.3125 185.112 88.5511C184.577 88.7898 183.958 88.9091 183.254 88.9091ZM195.237 84V70.9091H197.785V84H195.237ZM196.523 68.8892C196.08 68.8892 195.7 68.7415 195.381 68.446C195.069 68.1449 194.913 67.7869 194.913 67.3722C194.913 66.9517 195.069 66.5937 195.381 66.2983C195.7 65.9972 196.08 65.8466 196.523 65.8466C196.967 65.8466 197.344 65.9972 197.657 66.2983C197.975 66.5937 198.134 66.9517 198.134 67.3722C198.134 67.7869 197.975 68.1449 197.657 68.446C197.344 68.7415 196.967 68.8892 196.523 68.8892ZM203.761 76.2273V84H201.213V70.9091H203.659V73.0398H203.821C204.122 72.3466 204.594 71.7898 205.236 71.3693C205.884 70.9489 206.699 70.7386 207.682 70.7386C208.574 70.7386 209.355 70.9261 210.026 71.3011C210.696 71.6705 211.216 72.2216 211.585 72.9545C211.955 73.6875 212.139 74.5937 212.139 75.6733V84H209.591V75.9801C209.591 75.0312 209.344 74.2898 208.849 73.7557C208.355 73.2159 207.676 72.946 206.812 72.946C206.222 72.946 205.696 73.0739 205.236 73.3295C204.781 73.5852 204.42 73.9602 204.153 74.4545C203.892 74.9432 203.761 75.5341 203.761 76.2273ZM221.045 89.1818C220.006 89.1818 219.111 89.0455 218.361 88.7727C217.616 88.5 217.009 88.1392 216.537 87.6903C216.065 87.2415 215.713 86.75 215.48 86.2159L217.67 85.3125C217.824 85.5625 218.028 85.8267 218.284 86.1051C218.545 86.3892 218.898 86.6307 219.341 86.8295C219.79 87.0284 220.366 87.1278 221.071 87.1278C222.037 87.1278 222.835 86.892 223.466 86.4205C224.097 85.9545 224.412 85.2102 224.412 84.1875V81.6136H224.25C224.097 81.892 223.875 82.2017 223.585 82.5426C223.301 82.8835 222.909 83.179 222.409 83.429C221.909 83.679 221.259 83.804 220.457 83.804C219.423 83.804 218.491 83.5625 217.662 83.0795C216.838 82.5909 216.185 81.8722 215.702 80.9233C215.224 79.9687 214.986 78.7955 214.986 77.4034C214.986 76.0114 215.222 74.8182 215.693 73.8239C216.17 72.8295 216.824 72.0682 217.653 71.5398C218.483 71.0057 219.423 70.7386 220.474 70.7386C221.287 70.7386 221.943 70.875 222.443 71.1477C222.943 71.4148 223.332 71.7273 223.611 72.0852C223.895 72.4432 224.114 72.7585 224.267 73.0312H224.455V70.9091H226.952V84.2898C226.952 85.4148 226.69 86.3381 226.168 87.0597C225.645 87.7813 224.938 88.3153 224.045 88.6619C223.159 89.0085 222.159 89.1818 221.045 89.1818ZM221.02 81.6903C221.753 81.6903 222.372 81.5199 222.878 81.179C223.389 80.8324 223.776 80.3381 224.037 79.696C224.304 79.0483 224.438 78.2727 224.438 77.3693C224.438 76.4886 224.307 75.7131 224.045 75.0426C223.784 74.3722 223.401 73.8494 222.895 73.4744C222.389 73.0937 221.764 72.9034 221.02 72.9034C220.253 72.9034 219.614 73.1023 219.102 73.5C218.591 73.892 218.205 74.4261 217.943 75.1023C217.688 75.7784 217.56 76.5341 217.56 77.3693C217.56 78.2273 217.69 78.9801 217.952 79.6278C218.213 80.2756 218.599 80.7812 219.111 81.1449C219.628 81.5085 220.264 81.6903 221.02 81.6903ZM53.5227 105.105L51.2131 105.514C51.1165 105.219 50.9631 104.937 50.7528 104.67C50.5483 104.403 50.2699 104.185 49.9176 104.014C49.5653 103.844 49.125 103.759 48.5966 103.759C47.875 103.759 47.2727 103.92 46.7898 104.244C46.3068 104.562 46.0653 104.974 46.0653 105.48C46.0653 105.918 46.2273 106.27 46.5511 106.537C46.875 106.804 47.3977 107.023 48.1193 107.193L50.1989 107.67C51.4034 107.949 52.3011 108.378 52.892 108.957C53.483 109.537 53.7784 110.29 53.7784 111.216C53.7784 112 53.5511 112.699 53.0966 113.312C52.6477 113.92 52.0199 114.398 51.2131 114.744C50.4119 115.091 49.483 115.264 48.4261 115.264C46.9602 115.264 45.7642 114.952 44.8381 114.327C43.9119 113.696 43.3438 112.801 43.1335 111.642L45.5966 111.267C45.75 111.909 46.0653 112.395 46.5426 112.724C47.0199 113.048 47.642 113.21 48.4091 113.21C49.2443 113.21 49.9119 113.037 50.4119 112.69C50.9119 112.338 51.1619 111.909 51.1619 111.403C51.1619 110.994 51.0085 110.651 50.7017 110.372C50.4006 110.094 49.9375 109.884 49.3125 109.741L47.0966 109.256C45.875 108.977 44.9716 108.534 44.3864 107.926C43.8068 107.318 43.517 106.548 43.517 105.616C43.517 104.844 43.733 104.168 44.1648 103.588C44.5966 103.009 45.1932 102.557 45.9545 102.233C46.7159 101.903 47.5881 101.739 48.571 101.739C49.9858 101.739 51.0994 102.045 51.9119 102.659C52.7244 103.267 53.2614 104.082 53.5227 105.105ZM62.0945 115.264C60.8672 115.264 59.7962 114.983 58.8814 114.42C57.9666 113.858 57.2564 113.071 56.7507 112.06C56.245 111.048 55.9922 109.866 55.9922 108.514C55.9922 107.156 56.245 105.969 56.7507 104.952C57.2564 103.935 57.9666 103.145 58.8814 102.582C59.7962 102.02 60.8672 101.739 62.0945 101.739C63.3217 101.739 64.3928 102.02 65.3075 102.582C66.2223 103.145 66.9325 103.935 67.4382 104.952C67.9439 105.969 68.1967 107.156 68.1967 108.514C68.1967 109.866 67.9439 111.048 67.4382 112.06C66.9325 113.071 66.2223 113.858 65.3075 114.42C64.3928 114.983 63.3217 115.264 62.0945 115.264ZM62.103 113.125C62.8984 113.125 63.5575 112.915 64.0803 112.494C64.603 112.074 64.9893 111.514 65.2393 110.815C65.495 110.116 65.6229 109.347 65.6229 108.506C65.6229 107.67 65.495 106.903 65.2393 106.205C64.9893 105.5 64.603 104.935 64.0803 104.509C63.5575 104.082 62.8984 103.869 62.103 103.869C61.3018 103.869 60.6371 104.082 60.1087 104.509C59.5859 104.935 59.1967 105.5 58.9411 106.205C58.6911 106.903 58.5661 107.67 58.5661 108.506C58.5661 109.347 58.6911 110.116 58.9411 110.815C59.1967 111.514 59.5859 112.074 60.1087 112.494C60.6371 112.915 61.3018 113.125 62.103 113.125ZM71.0412 115V101.909H73.4872V104.04H73.6491C73.9219 103.318 74.3679 102.756 74.9872 102.352C75.6065 101.943 76.348 101.739 77.2116 101.739C78.0866 101.739 78.8196 101.943 79.4105 102.352C80.0071 102.761 80.4474 103.324 80.7315 104.04H80.8679C81.1804 103.341 81.6776 102.784 82.3594 102.369C83.0412 101.949 83.8537 101.739 84.7969 101.739C85.9844 101.739 86.9531 102.111 87.7031 102.855C88.4588 103.599 88.8366 104.722 88.8366 106.222V115H86.2884V106.46C86.2884 105.574 86.0469 104.932 85.5639 104.534C85.081 104.136 84.5043 103.938 83.8338 103.938C83.0043 103.938 82.3594 104.193 81.8991 104.705C81.4389 105.21 81.2088 105.861 81.2088 106.656V115H78.669V106.298C78.669 105.588 78.4474 105.017 78.0043 104.585C77.5611 104.153 76.9844 103.938 76.2741 103.938C75.7912 103.938 75.3452 104.065 74.9361 104.321C74.5327 104.571 74.206 104.92 73.956 105.369C73.7116 105.818 73.5895 106.338 73.5895 106.929V115H71.0412ZM97.8942 115.264C96.6044 115.264 95.4936 114.989 94.5618 114.438C93.6357 113.881 92.9197 113.099 92.4141 112.094C91.9141 111.082 91.6641 109.898 91.6641 108.54C91.6641 107.199 91.9141 106.017 92.4141 104.994C92.9197 103.972 93.6243 103.173 94.5277 102.599C95.4368 102.026 96.4993 101.739 97.7152 101.739C98.4538 101.739 99.1697 101.861 99.8629 102.105C100.556 102.349 101.178 102.733 101.729 103.256C102.281 103.778 102.715 104.457 103.033 105.293C103.352 106.122 103.511 107.131 103.511 108.318V109.222H93.1044V107.312H101.013C101.013 106.642 100.877 106.048 100.604 105.531C100.332 105.009 99.9482 104.597 99.4538 104.295C98.9652 103.994 98.3913 103.844 97.7322 103.844C97.0163 103.844 96.3913 104.02 95.8572 104.372C95.3288 104.719 94.9197 105.173 94.63 105.736C94.3459 106.293 94.2038 106.898 94.2038 107.551V109.043C94.2038 109.918 94.3572 110.662 94.6641 111.276C94.9766 111.889 95.4112 112.358 95.968 112.682C96.5249 113 97.1754 113.159 97.9197 113.159C98.4027 113.159 98.843 113.091 99.2408 112.955C99.6385 112.812 99.9822 112.602 100.272 112.324C100.562 112.045 100.783 111.702 100.937 111.293L103.349 111.727C103.156 112.437 102.809 113.06 102.309 113.594C101.815 114.122 101.192 114.534 100.442 114.83C99.6982 115.119 98.8487 115.264 97.8942 115.264ZM112.449 101.909V103.955H105.298V101.909H112.449ZM107.216 98.7727H109.764V111.156C109.764 111.651 109.838 112.023 109.986 112.273C110.134 112.517 110.324 112.685 110.557 112.776C110.795 112.861 111.054 112.903 111.332 112.903C111.537 112.903 111.716 112.889 111.869 112.861C112.023 112.832 112.142 112.81 112.227 112.793L112.688 114.898C112.54 114.955 112.33 115.011 112.057 115.068C111.784 115.131 111.443 115.165 111.034 115.17C110.364 115.182 109.739 115.062 109.159 114.812C108.58 114.562 108.111 114.176 107.753 113.653C107.395 113.131 107.216 112.474 107.216 111.685V98.7727ZM118.097 107.227V115H115.549V97.5455H118.063V104.04H118.225C118.532 103.335 119.001 102.776 119.631 102.361C120.262 101.946 121.086 101.739 122.103 101.739C123.001 101.739 123.785 101.923 124.455 102.293C125.131 102.662 125.654 103.213 126.023 103.946C126.398 104.673 126.586 105.582 126.586 106.673V115H124.038V106.98C124.038 106.02 123.79 105.276 123.296 104.747C122.802 104.213 122.114 103.946 121.234 103.946C120.631 103.946 120.092 104.074 119.614 104.33C119.143 104.585 118.771 104.96 118.498 105.455C118.231 105.943 118.097 106.534 118.097 107.227ZM129.987 115V101.909H132.535V115H129.987ZM131.273 99.8892C130.83 99.8892 130.45 99.7415 130.131 99.446C129.819 99.1449 129.663 98.7869 129.663 98.3722C129.663 97.9517 129.819 97.5937 130.131 97.2983C130.45 96.9972 130.83 96.8466 131.273 96.8466C131.717 96.8466 132.094 96.9972 132.407 97.2983C132.725 97.5937 132.884 97.9517 132.884 98.3722C132.884 98.7869 132.725 99.1449 132.407 99.446C132.094 99.7415 131.717 99.8892 131.273 99.8892ZM138.511 107.227V115H135.963V101.909H138.409V104.04H138.571C138.872 103.347 139.344 102.79 139.986 102.369C140.634 101.949 141.449 101.739 142.432 101.739C143.324 101.739 144.105 101.926 144.776 102.301C145.446 102.67 145.966 103.222 146.335 103.955C146.705 104.687 146.889 105.594 146.889 106.673V115H144.341V106.98C144.341 106.031 144.094 105.29 143.599 104.756C143.105 104.216 142.426 103.946 141.562 103.946C140.972 103.946 140.446 104.074 139.986 104.33C139.531 104.585 139.17 104.96 138.903 105.455C138.642 105.943 138.511 106.534 138.511 107.227ZM155.795 120.182C154.756 120.182 153.861 120.045 153.111 119.773C152.366 119.5 151.759 119.139 151.287 118.69C150.815 118.241 150.463 117.75 150.23 117.216L152.42 116.312C152.574 116.562 152.778 116.827 153.034 117.105C153.295 117.389 153.648 117.631 154.091 117.83C154.54 118.028 155.116 118.128 155.821 118.128C156.787 118.128 157.585 117.892 158.216 117.42C158.847 116.955 159.162 116.21 159.162 115.188V112.614H159C158.847 112.892 158.625 113.202 158.335 113.543C158.051 113.884 157.659 114.179 157.159 114.429C156.659 114.679 156.009 114.804 155.207 114.804C154.173 114.804 153.241 114.562 152.412 114.08C151.588 113.591 150.935 112.872 150.452 111.923C149.974 110.969 149.736 109.795 149.736 108.403C149.736 107.011 149.972 105.818 150.443 104.824C150.92 103.83 151.574 103.068 152.403 102.54C153.233 102.006 154.173 101.739 155.224 101.739C156.037 101.739 156.693 101.875 157.193 102.148C157.693 102.415 158.082 102.727 158.361 103.085C158.645 103.443 158.864 103.759 159.017 104.031H159.205V101.909H161.702V115.29C161.702 116.415 161.44 117.338 160.918 118.06C160.395 118.781 159.688 119.315 158.795 119.662C157.909 120.009 156.909 120.182 155.795 120.182ZM155.77 112.69C156.503 112.69 157.122 112.52 157.628 112.179C158.139 111.832 158.526 111.338 158.787 110.696C159.054 110.048 159.188 109.273 159.188 108.369C159.188 107.489 159.057 106.713 158.795 106.043C158.534 105.372 158.151 104.849 157.645 104.474C157.139 104.094 156.514 103.903 155.77 103.903C155.003 103.903 154.364 104.102 153.852 104.5C153.341 104.892 152.955 105.426 152.693 106.102C152.438 106.778 152.31 107.534 152.31 108.369C152.31 109.227 152.44 109.98 152.702 110.628C152.963 111.276 153.349 111.781 153.861 112.145C154.378 112.509 155.014 112.69 155.77 112.69ZM167.31 97.5455V99.1818C167.31 99.6648 167.219 100.173 167.037 100.707C166.861 101.236 166.611 101.744 166.287 102.233C165.963 102.722 165.582 103.142 165.145 103.494L163.884 102.591C164.219 102.102 164.509 101.582 164.753 101.031C165.003 100.48 165.128 99.8722 165.128 99.2074V97.5455H167.31ZM171.648 97.5455V99.1818C171.648 99.6648 171.557 100.173 171.375 100.707C171.199 101.236 170.949 101.744 170.625 102.233C170.301 102.722 169.92 103.142 169.483 103.494L168.222 102.591C168.557 102.102 168.847 101.582 169.091 101.031C169.341 100.48 169.466 99.8722 169.466 99.2074V97.5455H171.648Z" fill="#171717"/>
<path d="M26 130V21H10V130H26Z" fill="#F5F5F5" mask="url(#path-1-inside-1_228_393)"/>
</g>
<defs>
<clipPath id="clip0_228_393">
<rect width="272" height="120" fill="white"/>
</clipPath>
</defs>
</svg>
