<svg width="272" height="120" viewBox="0 0 272 120" fill="none" xmlns="http://www.w3.org/2000/svg">
<rect width="272" height="120" fill="#8AC2FF"/>
<rect x="55.5" y="14.5" width="161" height="91" fill="#1E1E1E"/>
<circle cx="110" cy="54" r="28" fill="url(#paint0_radial_229_663)"/>
<circle cx="110" cy="54" r="28" fill="url(#paint1_radial_229_663)"/>
<path d="M156.317 33.6708L192.063 71.3892C192.063 71.3892 200.626 77.8836 168.166 85.3292C135.706 92.7748 140.582 83.1978 140.582 83.1978L156.317 33.6708Z" fill="url(#paint2_linear_229_663)"/>
<path d="M156.317 33.6708L192.063 71.3892C192.063 71.3892 200.626 77.8836 168.166 85.3292C135.706 92.7748 140.582 83.1978 140.582 83.1978L156.317 33.6708Z" fill="url(#paint3_linear_229_663)"/>
<path fill-rule="evenodd" clip-rule="evenodd" d="M140.765 85.8559C150.886 81.6374 158 71.6495 158 60C158 54.0742 156.159 48.5783 153.018 44.053L140.582 83.1977C140.582 83.1977 139.889 84.5589 140.765 85.8559Z" fill="url(#paint4_linear_229_663)"/>
<rect x="55.5" y="14.5" width="161" height="91" stroke="#6D6D6D" style="mix-blend-mode:multiply"/>
<defs>
<radialGradient id="paint0_radial_229_663" cx="0" cy="0" r="1" gradientUnits="userSpaceOnUse" gradientTransform="translate(94.5 40) rotate(56.8887) scale(41.1886)">
<stop stop-color="#D9D9D9"/>
<stop offset="1" stop-color="#D9D9D9" stop-opacity="0"/>
</radialGradient>
<radialGradient id="paint1_radial_229_663" cx="0" cy="0" r="1" gradientUnits="userSpaceOnUse" gradientTransform="translate(106.5 48) rotate(51.0542) scale(46.9308)">
<stop offset="0.609375" stop-color="#A583FC" stop-opacity="0"/>
<stop offset="1" stop-color="#A583FC"/>
</radialGradient>
<linearGradient id="paint2_linear_229_663" x1="135.762" y1="78.6643" x2="170.553" y2="76.1482" gradientUnits="userSpaceOnUse">
<stop stop-color="#D9D9D9"/>
<stop offset="1" stop-color="#D9D9D9" stop-opacity="0"/>
</linearGradient>
<linearGradient id="paint3_linear_229_663" x1="201.137" y1="72.9329" x2="177.249" y2="81.7758" gradientUnits="userSpaceOnUse">
<stop stop-color="#A583FC"/>
<stop offset="1" stop-color="#A583FC" stop-opacity="0"/>
</linearGradient>
<linearGradient id="paint4_linear_229_663" x1="135.762" y1="78.6643" x2="170.553" y2="76.1482" gradientUnits="userSpaceOnUse">
<stop stop-color="#212121"/>
<stop offset="1" stop-color="#212121" stop-opacity="0"/>
</linearGradient>
</defs>
</svg>
