<svg width="272" height="120" viewBox="0 0 272 120" fill="none" xmlns="http://www.w3.org/2000/svg">
<rect width="272" height="120" fill="#8AC2FF"/>
<rect x="72" y="30" width="128" height="60" rx="8" fill="#F5F5F5"/>
<path d="M84 45.5L80.5359 39.5L87.4641 39.5L84 45.5Z" fill="#171717"/>
<path d="M98.236 45L96.2164 37.6139H97.1252L98.6688 43.6295H98.7409L100.313 37.6139H101.323L102.896 43.6295H102.968L104.511 37.6139H105.42L103.4 45H102.477L100.847 39.1142H100.789L99.1593 45H98.236ZM108.124 45.1154C107.591 45.1154 107.13 44.9976 106.743 44.762C106.358 44.5239 106.061 44.1921 105.852 43.7666C105.646 43.3386 105.542 42.8409 105.542 42.2735C105.542 41.7061 105.646 41.206 105.852 40.7732C106.061 40.338 106.352 39.999 106.725 39.7562C107.1 39.5109 107.538 39.3883 108.038 39.3883C108.326 39.3883 108.611 39.4364 108.893 39.5326C109.174 39.6288 109.43 39.785 109.661 40.0014C109.892 40.2154 110.076 40.4991 110.213 40.8525C110.35 41.206 110.418 41.6412 110.418 42.1581V42.5187H106.148V41.783H109.553C109.553 41.4705 109.49 41.1916 109.365 40.9463C109.242 40.7011 109.067 40.5075 108.838 40.3657C108.612 40.2238 108.346 40.1529 108.038 40.1529C107.699 40.1529 107.406 40.237 107.158 40.4053C106.913 40.5712 106.724 40.7876 106.592 41.0545C106.459 41.3214 106.393 41.6075 106.393 41.9129V42.4033C106.393 42.8217 106.465 43.1763 106.61 43.4672C106.756 43.7558 106.96 43.9758 107.219 44.1272C107.479 44.2763 107.781 44.3508 108.124 44.3508C108.348 44.3508 108.55 44.3196 108.73 44.2571C108.913 44.1921 109.071 44.096 109.203 43.9685C109.335 43.8387 109.437 43.6776 109.509 43.4853L110.332 43.7161C110.245 43.995 110.1 44.2402 109.895 44.4518C109.691 44.661 109.438 44.8245 109.138 44.9423C108.837 45.0577 108.499 45.1154 108.124 45.1154ZM111.727 45V37.6139H112.578V40.3404H112.65C112.712 40.2443 112.799 40.1216 112.91 39.9726C113.023 39.8211 113.184 39.6865 113.393 39.5686C113.604 39.4484 113.891 39.3883 114.251 39.3883C114.718 39.3883 115.129 39.5049 115.485 39.7381C115.84 39.9714 116.118 40.302 116.318 40.7299C116.517 41.1579 116.617 41.6628 116.617 42.2447C116.617 42.8313 116.517 43.3398 116.318 43.7702C116.118 44.1982 115.842 44.53 115.488 44.7656C115.135 44.9988 114.727 45.1154 114.266 45.1154C113.91 45.1154 113.625 45.0565 113.411 44.9387C113.197 44.8185 113.032 44.6826 112.917 44.5312C112.801 44.3773 112.712 44.2499 112.65 44.1489H112.549V45H111.727ZM112.563 42.2302C112.563 42.6486 112.625 43.0176 112.747 43.3374C112.87 43.6548 113.049 43.9036 113.285 44.084C113.52 44.2619 113.809 44.3508 114.15 44.3508C114.506 44.3508 114.803 44.2571 115.041 44.0695C115.281 43.8796 115.462 43.6247 115.582 43.305C115.705 42.9828 115.766 42.6245 115.766 42.2302C115.766 41.8407 115.706 41.4897 115.586 41.1771C115.468 40.8622 115.289 40.6133 115.048 40.4306C114.81 40.2455 114.511 40.1529 114.15 40.1529C113.804 40.1529 113.513 40.2406 113.277 40.4162C113.042 40.5893 112.864 40.8321 112.744 41.1447C112.624 41.4548 112.563 41.8167 112.563 42.2302ZM120.284 39.4604V40.1817H117.298V39.4604H120.284ZM118.193 45V38.6959C118.193 38.3785 118.267 38.114 118.416 37.9024C118.565 37.6909 118.759 37.5322 118.997 37.4264C119.235 37.3206 119.486 37.2677 119.751 37.2677C119.96 37.2677 120.13 37.2845 120.263 37.3182C120.395 37.3519 120.493 37.3831 120.558 37.412L120.313 38.1477C120.27 38.1333 120.21 38.1152 120.133 38.0936C120.058 38.072 119.96 38.0611 119.837 38.0611C119.556 38.0611 119.353 38.1321 119.228 38.2739C119.105 38.4158 119.044 38.6237 119.044 38.8978V45H118.193ZM122.227 37.6139V45H121.376V37.6139H122.227ZM125.934 45.1154C125.434 45.1154 124.996 44.9964 124.618 44.7584C124.243 44.5203 123.95 44.1873 123.738 43.7594C123.529 43.3314 123.424 42.8313 123.424 42.2591C123.424 41.682 123.529 41.1783 123.738 40.748C123.95 40.3176 124.243 39.9834 124.618 39.7454C124.996 39.5073 125.434 39.3883 125.934 39.3883C126.435 39.3883 126.872 39.5073 127.247 39.7454C127.625 39.9834 127.918 40.3176 128.127 40.748C128.339 41.1783 128.445 41.682 128.445 42.2591C128.445 42.8313 128.339 43.3314 128.127 43.7594C127.918 44.1873 127.625 44.5203 127.247 44.7584C126.872 44.9964 126.435 45.1154 125.934 45.1154ZM125.934 44.3508C126.314 44.3508 126.627 44.2535 126.872 44.0587C127.117 43.864 127.299 43.6079 127.417 43.2905C127.535 42.9732 127.593 42.6293 127.593 42.2591C127.593 41.8888 127.535 41.5438 127.417 41.224C127.299 40.9042 127.117 40.6458 126.872 40.4486C126.627 40.2515 126.314 40.1529 125.934 40.1529C125.555 40.1529 125.242 40.2515 124.997 40.4486C124.752 40.6458 124.57 40.9042 124.452 41.224C124.334 41.5438 124.276 41.8888 124.276 42.2591C124.276 42.6293 124.334 42.9732 124.452 43.2905C124.57 43.6079 124.752 43.864 124.997 44.0587C125.242 44.2535 125.555 44.3508 125.934 44.3508ZM130.709 45L129.021 39.4604H129.915L131.113 43.7017H131.171L132.353 39.4604H133.262L134.431 43.6872H134.488L135.686 39.4604H136.58L134.892 45H134.056L132.844 40.7444H132.757L131.546 45H130.709Z" fill="black"/>
<path d="M200 52H72V54H200V52Z" fill="#BDBDBD" mask="url(#path-2-inside-1_228_416)"/>
<path d="M80.4905 61.4074V60.6139H86.03V61.4074H83.7075V68H82.8131V61.4074H80.4905ZM88.0446 64.6676V68H87.1934V60.6139H88.0446V63.326H88.1167C88.2465 63.0399 88.4413 62.8127 88.701 62.6444C88.963 62.4737 89.3117 62.3883 89.7468 62.3883C90.1243 62.3883 90.4549 62.4641 90.7386 62.6155C91.0223 62.7646 91.2423 62.9942 91.3986 63.3044C91.5573 63.6121 91.6366 64.004 91.6366 64.4801V68H90.7855V64.5378C90.7855 64.0978 90.6713 63.7576 90.4429 63.5171C90.2169 63.2743 89.9031 63.1529 89.5016 63.1529C89.2227 63.1529 88.9726 63.2118 88.7514 63.3296C88.5327 63.4474 88.3595 63.6193 88.2321 63.8453C88.1071 64.0713 88.0446 64.3454 88.0446 64.6676ZM95.4147 68.1154C94.881 68.1154 94.4206 67.9976 94.0335 67.762C93.6488 67.5239 93.3518 67.1921 93.1427 66.7666C92.9359 66.3386 92.8325 65.8409 92.8325 65.2735C92.8325 64.7061 92.9359 64.206 93.1427 63.7732C93.3518 63.338 93.6428 62.999 94.0154 62.7562C94.3905 62.5109 94.8281 62.3883 95.3282 62.3883C95.6167 62.3883 95.9016 62.4364 96.1829 62.5326C96.4642 62.6288 96.7203 62.785 96.9511 63.0014C97.1819 63.2154 97.3658 63.4991 97.5029 63.8525C97.6399 64.206 97.7085 64.6412 97.7085 65.1581V65.5187H93.4384V64.783H96.8429C96.8429 64.4705 96.7804 64.1916 96.6554 63.9463C96.5327 63.7011 96.3572 63.5075 96.1288 63.3657C95.9028 63.2238 95.6359 63.1529 95.3282 63.1529C94.9892 63.1529 94.6958 63.237 94.4482 63.4053C94.203 63.5712 94.0142 63.7876 93.882 64.0545C93.7497 64.3214 93.6836 64.6075 93.6836 64.9129V65.4033C93.6836 65.8217 93.7558 66.1763 93.9 66.4672C94.0467 66.7558 94.2498 66.9758 94.5095 67.1272C94.7692 67.2763 95.0709 67.3508 95.4147 67.3508C95.6383 67.3508 95.8403 67.3196 96.0206 67.2571C96.2034 67.1921 96.3608 67.096 96.4931 66.9685C96.6253 66.8387 96.7275 66.6776 96.7996 66.4853L97.6219 66.7161C97.5354 66.995 97.3899 67.2402 97.1855 67.4518C96.9812 67.661 96.7287 67.8245 96.4282 67.9423C96.1276 68.0577 95.7898 68.1154 95.4147 68.1154ZM101.772 68V60.6139H102.623V63.3404H102.695C102.758 63.2443 102.844 63.1216 102.955 62.9726C103.068 62.8211 103.229 62.6865 103.438 62.5686C103.65 62.4484 103.936 62.3883 104.296 62.3883C104.763 62.3883 105.174 62.5049 105.53 62.7381C105.886 62.9714 106.163 63.302 106.363 63.7299C106.562 64.1579 106.662 64.6628 106.662 65.2447C106.662 65.8313 106.562 66.3398 106.363 66.7702C106.163 67.1982 105.887 67.53 105.533 67.7656C105.18 67.9988 104.772 68.1154 104.311 68.1154C103.955 68.1154 103.67 68.0565 103.456 67.9387C103.242 67.8185 103.077 67.6826 102.962 67.5312C102.847 67.3773 102.758 67.2499 102.695 67.1489H102.594V68H101.772ZM102.609 65.2302C102.609 65.6486 102.67 66.0176 102.792 66.3374C102.915 66.6548 103.094 66.9036 103.33 67.084C103.565 67.2619 103.854 67.3508 104.195 67.3508C104.551 67.3508 104.848 67.2571 105.086 67.0695C105.327 66.8796 105.507 66.6247 105.627 66.305C105.75 65.9828 105.811 65.6245 105.811 65.2302C105.811 64.8407 105.751 64.4897 105.631 64.1771C105.513 63.8622 105.334 63.6133 105.093 63.4306C104.855 63.2455 104.556 63.1529 104.195 63.1529C103.849 63.1529 103.558 63.2406 103.323 63.4162C103.087 63.5893 102.909 63.8321 102.789 64.1447C102.669 64.4548 102.609 64.8167 102.609 65.2302ZM110.185 68.1154C109.651 68.1154 109.191 67.9976 108.804 67.762C108.419 67.5239 108.122 67.1921 107.913 66.7666C107.706 66.3386 107.603 65.8409 107.603 65.2735C107.603 64.7061 107.706 64.206 107.913 63.7732C108.122 63.338 108.413 62.999 108.786 62.7562C109.161 62.5109 109.598 62.3883 110.099 62.3883C110.387 62.3883 110.672 62.4364 110.953 62.5326C111.235 62.6288 111.491 62.785 111.722 63.0014C111.952 63.2154 112.136 63.4991 112.273 63.8525C112.41 64.206 112.479 64.6412 112.479 65.1581V65.5187H108.209V64.783H111.613C111.613 64.4705 111.551 64.1916 111.426 63.9463C111.303 63.7011 111.128 63.5075 110.899 63.3657C110.673 63.2238 110.406 63.1529 110.099 63.1529C109.76 63.1529 109.466 63.237 109.219 63.4053C108.973 63.5712 108.785 63.7876 108.652 64.0545C108.52 64.3214 108.454 64.6075 108.454 64.9129V65.4033C108.454 65.8217 108.526 66.1763 108.67 66.4672C108.817 66.7558 109.02 66.9758 109.28 67.1272C109.54 67.2763 109.841 67.3508 110.185 67.3508C110.409 67.3508 110.611 67.3196 110.791 67.2571C110.974 67.1921 111.131 67.096 111.263 66.9685C111.396 66.8387 111.498 66.6776 111.57 66.4853L112.392 66.7161C112.306 66.995 112.16 67.2402 111.956 67.4518C111.752 67.661 111.499 67.8245 111.199 67.9423C110.898 68.0577 110.56 68.1154 110.185 68.1154ZM117.596 63.7011L116.831 63.9175C116.783 63.79 116.712 63.6662 116.619 63.546C116.527 63.4234 116.402 63.3224 116.243 63.2431C116.085 63.1637 115.882 63.124 115.634 63.124C115.295 63.124 115.012 63.2022 114.786 63.3585C114.563 63.5123 114.451 63.7083 114.451 63.9463C114.451 64.1579 114.528 64.325 114.682 64.4476C114.836 64.5702 115.076 64.6724 115.403 64.7542L116.225 64.9561C116.721 65.0763 117.09 65.2603 117.333 65.5079C117.575 65.7532 117.697 66.0693 117.697 66.4564C117.697 66.7738 117.606 67.0575 117.423 67.3076C117.242 67.5576 116.99 67.7548 116.665 67.899C116.341 68.0433 115.963 68.1154 115.533 68.1154C114.968 68.1154 114.5 67.9928 114.13 67.7475C113.76 67.5023 113.525 67.1441 113.427 66.6728L114.235 66.4709C114.312 66.769 114.457 66.9926 114.671 67.1417C114.887 67.2907 115.17 67.3653 115.519 67.3653C115.915 67.3653 116.23 67.2811 116.463 67.1128C116.699 66.9421 116.817 66.7377 116.817 66.4997C116.817 66.3074 116.75 66.1463 116.615 66.0164C116.48 65.8842 116.274 65.7856 115.995 65.7207L115.071 65.5043C114.564 65.3841 114.191 65.1978 113.953 64.9453C113.718 64.6905 113.6 64.3719 113.6 63.9896C113.6 63.677 113.688 63.4005 113.863 63.1601C114.041 62.9197 114.283 62.7309 114.588 62.5939C114.896 62.4568 115.244 62.3883 115.634 62.3883C116.182 62.3883 116.613 62.5085 116.925 62.749C117.24 62.9894 117.464 63.3068 117.596 63.7011ZM121.286 62.4604V63.1817H118.415V62.4604H121.286ZM119.252 61.1333H120.103V66.4131C120.103 66.6536 120.138 66.8339 120.207 66.9541C120.279 67.0719 120.371 67.1513 120.481 67.1921C120.594 67.2306 120.713 67.2499 120.838 67.2499C120.932 67.2499 121.009 67.245 121.069 67.2354C121.129 67.2234 121.177 67.2138 121.214 67.2066L121.387 67.9711C121.329 67.9928 121.248 68.0144 121.145 68.0361C121.042 68.0601 120.911 68.0721 120.752 68.0721C120.511 68.0721 120.276 68.0204 120.045 67.9171C119.817 67.8137 119.627 67.6562 119.475 67.4446C119.326 67.233 119.252 66.9661 119.252 66.644V61.1333ZM126.07 64.6676V68H125.219V62.4604H126.041V63.326H126.114C126.243 63.0447 126.441 62.8187 126.705 62.648C126.969 62.4749 127.311 62.3883 127.729 62.3883C128.104 62.3883 128.433 62.4653 128.714 62.6191C128.995 62.7706 129.214 63.0014 129.37 63.3116C129.526 63.6193 129.605 64.0088 129.605 64.4801V68H128.754V64.5378C128.754 64.1026 128.64 63.7636 128.414 63.5208C128.188 63.2755 127.878 63.1529 127.484 63.1529C127.212 63.1529 126.969 63.2118 126.756 63.3296C126.544 63.4474 126.377 63.6193 126.254 63.8453C126.132 64.0713 126.07 64.3454 126.07 64.6676ZM133.309 68.1154C132.809 68.1154 132.37 67.9964 131.992 67.7584C131.617 67.5203 131.324 67.1873 131.112 66.7594C130.903 66.3314 130.799 65.8313 130.799 65.2591C130.799 64.682 130.903 64.1783 131.112 63.748C131.324 63.3176 131.617 62.9834 131.992 62.7454C132.37 62.5073 132.809 62.3883 133.309 62.3883C133.809 62.3883 134.246 62.5073 134.622 62.7454C134.999 62.9834 135.292 63.3176 135.502 63.748C135.713 64.1783 135.819 64.682 135.819 65.2591C135.819 65.8313 135.713 66.3314 135.502 66.7594C135.292 67.1873 134.999 67.5203 134.622 67.7584C134.246 67.9964 133.809 68.1154 133.309 68.1154ZM133.309 67.3508C133.689 67.3508 134.001 67.2535 134.246 67.0587C134.492 66.864 134.673 66.6079 134.791 66.2905C134.909 65.9732 134.968 65.6293 134.968 65.2591C134.968 64.8888 134.909 64.5438 134.791 64.224C134.673 63.9042 134.492 63.6458 134.246 63.4486C134.001 63.2515 133.689 63.1529 133.309 63.1529C132.929 63.1529 132.616 63.2515 132.371 63.4486C132.126 63.6458 131.944 63.9042 131.827 64.224C131.709 64.5438 131.65 64.8888 131.65 65.2591C131.65 65.6293 131.709 65.9732 131.827 66.2905C131.944 66.6079 132.126 66.864 132.371 67.0587C132.616 67.2535 132.929 67.3508 133.309 67.3508ZM142.022 68.1154C141.502 68.1154 141.055 67.9928 140.68 67.7475C140.305 67.5023 140.017 67.1645 139.815 66.7341C139.613 66.3038 139.512 65.8121 139.512 65.2591C139.512 64.6965 139.615 64.2 139.822 63.7696C140.031 63.3368 140.322 62.999 140.695 62.7562C141.07 62.5109 141.507 62.3883 142.007 62.3883C142.397 62.3883 142.748 62.4604 143.06 62.6047C143.373 62.749 143.629 62.9509 143.829 63.2106C144.028 63.4703 144.152 63.7732 144.2 64.1194H143.349C143.284 63.867 143.14 63.6434 142.916 63.4486C142.695 63.2515 142.397 63.1529 142.022 63.1529C141.69 63.1529 141.399 63.2394 141.149 63.4126C140.901 63.5833 140.708 63.8249 140.568 64.1375C140.431 64.4476 140.363 64.8119 140.363 65.2302C140.363 65.6582 140.43 66.0309 140.565 66.3482C140.702 66.6656 140.894 66.912 141.142 67.0876C141.392 67.2631 141.685 67.3508 142.022 67.3508C142.243 67.3508 142.444 67.3124 142.624 67.2354C142.804 67.1585 142.957 67.0479 143.082 66.9036C143.207 66.7594 143.296 66.5863 143.349 66.3843H144.2C144.152 66.7113 144.033 67.0058 143.843 67.2679C143.656 67.5276 143.407 67.7343 143.097 67.8882C142.789 68.0397 142.431 68.1154 142.022 68.1154ZM147.593 68.1154C147.093 68.1154 146.654 67.9964 146.277 67.7584C145.902 67.5203 145.608 67.1873 145.397 66.7594C145.188 66.3314 145.083 65.8313 145.083 65.2591C145.083 64.682 145.188 64.1783 145.397 63.748C145.608 63.3176 145.902 62.9834 146.277 62.7454C146.654 62.5073 147.093 62.3883 147.593 62.3883C148.093 62.3883 148.531 62.5073 148.906 62.7454C149.283 62.9834 149.577 63.3176 149.786 63.748C149.998 64.1783 150.103 64.682 150.103 65.2591C150.103 65.8313 149.998 66.3314 149.786 66.7594C149.577 67.1873 149.283 67.5203 148.906 67.7584C148.531 67.9964 148.093 68.1154 147.593 68.1154ZM147.593 67.3508C147.973 67.3508 148.286 67.2535 148.531 67.0587C148.776 66.864 148.958 66.6079 149.076 66.2905C149.193 65.9732 149.252 65.6293 149.252 65.2591C149.252 64.8888 149.193 64.5438 149.076 64.224C148.958 63.9042 148.776 63.6458 148.531 63.4486C148.286 63.2515 147.973 63.1529 147.593 63.1529C147.213 63.1529 146.901 63.2515 146.656 63.4486C146.41 63.6458 146.229 63.9042 146.111 64.224C145.993 64.5438 145.934 64.8888 145.934 65.2591C145.934 65.6293 145.993 65.9732 146.111 66.2905C146.229 66.6079 146.41 66.864 146.656 67.0587C146.901 67.2535 147.213 67.3508 147.593 67.3508ZM153.393 68.1154C152.931 68.1154 152.524 67.9988 152.17 67.7656C151.817 67.53 151.54 67.1982 151.341 66.7702C151.141 66.3398 151.041 65.8313 151.041 65.2447C151.041 64.6628 151.141 64.1579 151.341 63.7299C151.54 63.302 151.818 62.9714 152.174 62.7381C152.53 62.5049 152.941 62.3883 153.407 62.3883C153.768 62.3883 154.053 62.4484 154.262 62.5686C154.474 62.6865 154.635 62.8211 154.745 62.9726C154.858 63.1216 154.946 63.2443 155.008 63.3404H155.081V60.6139H155.932V68H155.109V67.1489H155.008C154.946 67.2499 154.857 67.3773 154.742 67.5312C154.626 67.6826 154.462 67.8185 154.248 67.9387C154.034 68.0565 153.749 68.1154 153.393 68.1154ZM153.508 67.3508C153.85 67.3508 154.138 67.2619 154.374 67.084C154.609 66.9036 154.788 66.6548 154.911 66.3374C155.034 66.0176 155.095 65.6486 155.095 65.2302C155.095 64.8167 155.035 64.4548 154.915 64.1447C154.795 63.8321 154.617 63.5893 154.381 63.4162C154.145 63.2406 153.854 63.1529 153.508 63.1529C153.148 63.1529 152.847 63.2455 152.607 63.4306C152.369 63.6133 152.189 63.8622 152.069 64.1771C151.951 64.4897 151.892 64.8407 151.892 65.2302C151.892 65.6245 151.953 65.9828 152.073 66.305C152.195 66.6247 152.376 66.8796 152.614 67.0695C152.854 67.2571 153.152 67.3508 153.508 67.3508ZM159.83 68.1154C159.296 68.1154 158.836 67.9976 158.448 67.762C158.064 67.5239 157.767 67.1921 157.558 66.7666C157.351 66.3386 157.248 65.8409 157.248 65.2735C157.248 64.7061 157.351 64.206 157.558 63.7732C157.767 63.338 158.058 62.999 158.43 62.7562C158.806 62.5109 159.243 62.3883 159.743 62.3883C160.032 62.3883 160.317 62.4364 160.598 62.5326C160.879 62.6288 161.135 62.785 161.366 63.0014C161.597 63.2154 161.781 63.4991 161.918 63.8525C162.055 64.206 162.123 64.6412 162.123 65.1581V65.5187H157.853V64.783H161.258C161.258 64.4705 161.195 64.1916 161.07 63.9463C160.948 63.7011 160.772 63.5075 160.544 63.3657C160.318 63.2238 160.051 63.1529 159.743 63.1529C159.404 63.1529 159.111 63.237 158.863 63.4053C158.618 63.5712 158.429 63.7876 158.297 64.0545C158.165 64.3214 158.099 64.6075 158.099 64.9129V65.4033C158.099 65.8217 158.171 66.1763 158.315 66.4672C158.462 66.7558 158.665 66.9758 158.925 67.1272C159.184 67.2763 159.486 67.3508 159.83 67.3508C160.053 67.3508 160.255 67.3196 160.436 67.2571C160.618 67.1921 160.776 67.096 160.908 66.9685C161.04 66.8387 161.143 66.6776 161.215 66.4853L162.037 66.7161C161.95 66.995 161.805 67.2402 161.601 67.4518C161.396 67.661 161.144 67.8245 160.843 67.9423C160.543 68.0577 160.205 68.1154 159.83 68.1154ZM168.481 62.4604V63.1817H165.61V62.4604H168.481ZM166.447 61.1333H167.298V66.4131C167.298 66.6536 167.332 66.8339 167.402 66.9541C167.474 67.0719 167.566 67.1513 167.676 67.1921C167.789 67.2306 167.908 67.2499 168.033 67.2499C168.127 67.2499 168.204 67.245 168.264 67.2354C168.324 67.2234 168.372 67.2138 168.408 67.2066L168.582 67.9711C168.524 67.9928 168.443 68.0144 168.34 68.0361C168.237 68.0601 168.105 68.0721 167.947 68.0721C167.706 68.0721 167.471 68.0204 167.24 67.9171C167.012 67.8137 166.822 67.6562 166.67 67.4446C166.521 67.233 166.447 66.9661 166.447 66.644V61.1333ZM171.85 68.1154C171.35 68.1154 170.911 67.9964 170.534 67.7584C170.159 67.5203 169.865 67.1873 169.654 66.7594C169.445 66.3314 169.34 65.8313 169.34 65.2591C169.34 64.682 169.445 64.1783 169.654 63.748C169.865 63.3176 170.159 62.9834 170.534 62.7454C170.911 62.5073 171.35 62.3883 171.85 62.3883C172.35 62.3883 172.788 62.5073 173.163 62.7454C173.54 62.9834 173.834 63.3176 174.043 63.748C174.255 64.1783 174.36 64.682 174.36 65.2591C174.36 65.8313 174.255 66.3314 174.043 66.7594C173.834 67.1873 173.54 67.5203 173.163 67.7584C172.788 67.9964 172.35 68.1154 171.85 68.1154ZM171.85 67.3508C172.23 67.3508 172.543 67.2535 172.788 67.0587C173.033 66.864 173.215 66.6079 173.332 66.2905C173.45 65.9732 173.509 65.6293 173.509 65.2591C173.509 64.8888 173.45 64.5438 173.332 64.224C173.215 63.9042 173.033 63.6458 172.788 63.4486C172.543 63.2515 172.23 63.1529 171.85 63.1529C171.47 63.1529 171.158 63.2515 170.913 63.4486C170.667 63.6458 170.486 63.9042 170.368 64.224C170.25 64.5438 170.191 64.8888 170.191 65.2591C170.191 65.6293 170.25 65.9732 170.368 66.2905C170.486 66.6079 170.667 66.864 170.913 67.0587C171.158 67.2535 171.47 67.3508 171.85 67.3508ZM177.808 68.1154C177.308 68.1154 176.87 67.9964 176.492 67.7584C176.117 67.5203 175.824 67.1873 175.612 66.7594C175.403 66.3314 175.298 65.8313 175.298 65.2591C175.298 64.682 175.403 64.1783 175.612 63.748C175.824 63.3176 176.117 62.9834 176.492 62.7454C176.87 62.5073 177.308 62.3883 177.808 62.3883C178.309 62.3883 178.746 62.5073 179.121 62.7454C179.499 62.9834 179.792 63.3176 180.001 63.748C180.213 64.1783 180.319 64.682 180.319 65.2591C180.319 65.8313 180.213 66.3314 180.001 66.7594C179.792 67.1873 179.499 67.5203 179.121 67.7584C178.746 67.9964 178.309 68.1154 177.808 68.1154ZM177.808 67.3508C178.188 67.3508 178.501 67.2535 178.746 67.0587C178.991 66.864 179.173 66.6079 179.291 66.2905C179.409 65.9732 179.467 65.6293 179.467 65.2591C179.467 64.8888 179.409 64.5438 179.291 64.224C179.173 63.9042 178.991 63.6458 178.746 63.4486C178.501 63.2515 178.188 63.1529 177.808 63.1529C177.429 63.1529 177.116 63.2515 176.871 63.4486C176.626 63.6458 176.444 63.9042 176.326 64.224C176.208 64.5438 176.149 64.8888 176.149 65.2591C176.149 65.6293 176.208 65.9732 176.326 66.2905C176.444 66.6079 176.626 66.864 176.871 67.0587C177.116 67.2535 177.429 67.3508 177.808 67.3508ZM182.367 60.6139V68H181.516V60.6139H182.367ZM83.1881 76.4604V77.1817H80.3174V76.4604H83.1881ZM81.1541 75.1333H82.0052V80.4131C82.0052 80.6536 82.0401 80.8339 82.1098 80.9541C82.1819 81.0719 82.2733 81.1513 82.3839 81.1921C82.4969 81.2306 82.6159 81.2499 82.7409 81.2499C82.8347 81.2499 82.9116 81.245 82.9717 81.2354C83.0318 81.2234 83.0799 81.2138 83.116 81.2066L83.2891 81.9711C83.2314 81.9928 83.1509 82.0144 83.0475 82.0361C82.9441 82.0601 82.8131 82.0721 82.6544 82.0721C82.4139 82.0721 82.1783 82.0204 81.9475 81.9171C81.7191 81.8137 81.5291 81.6562 81.3777 81.4446C81.2286 81.233 81.1541 80.9661 81.1541 80.644V75.1333ZM86.5578 82.1154C86.0577 82.1154 85.6189 81.9964 85.2414 81.7584C84.8664 81.5203 84.573 81.1873 84.3615 80.7594C84.1523 80.3314 84.0477 79.8313 84.0477 79.2591C84.0477 78.682 84.1523 78.1783 84.3615 77.748C84.573 77.3176 84.8664 76.9834 85.2414 76.7454C85.6189 76.5073 86.0577 76.3883 86.5578 76.3883C87.0579 76.3883 87.4955 76.5073 87.8706 76.7454C88.248 76.9834 88.5414 77.3176 88.7505 77.748C88.9621 78.1783 89.0679 78.682 89.0679 79.2591C89.0679 79.8313 88.9621 80.3314 88.7505 80.7594C88.5414 81.1873 88.248 81.5203 87.8706 81.7584C87.4955 81.9964 87.0579 82.1154 86.5578 82.1154ZM86.5578 81.3508C86.9377 81.3508 87.2502 81.2535 87.4955 81.0587C87.7407 80.864 87.9223 80.6079 88.0401 80.2905C88.1579 79.9732 88.2168 79.6293 88.2168 79.2591C88.2168 78.8888 88.1579 78.5438 88.0401 78.224C87.9223 77.9042 87.7407 77.6458 87.4955 77.4486C87.2502 77.2515 86.9377 77.1529 86.5578 77.1529C86.1779 77.1529 85.8654 77.2515 85.6201 77.4486C85.3749 77.6458 85.1934 77.9042 85.0755 78.224C84.9577 78.5438 84.8988 78.8888 84.8988 79.2591C84.8988 79.6293 84.9577 79.9732 85.0755 80.2905C85.1934 80.6079 85.3749 80.864 85.6201 81.0587C85.8654 81.2535 86.1779 81.3508 86.5578 81.3508ZM93.1358 82V74.6139H93.9869V77.3404H94.059C94.1215 77.2443 94.2081 77.1216 94.3187 76.9726C94.4317 76.8211 94.5928 76.6865 94.802 76.5686C95.0135 76.4484 95.2997 76.3883 95.6603 76.3883C96.1267 76.3883 96.5379 76.5049 96.8937 76.7381C97.2496 76.9714 97.5273 77.302 97.7268 77.7299C97.9264 78.1579 98.0262 78.6628 98.0262 79.2447C98.0262 79.8313 97.9264 80.3398 97.7268 80.7702C97.5273 81.1982 97.2508 81.53 96.8973 81.7656C96.5439 81.9988 96.1364 82.1154 95.6747 82.1154C95.3189 82.1154 95.034 82.0565 94.82 81.9387C94.606 81.8185 94.4413 81.6826 94.3259 81.5312C94.2105 81.3773 94.1215 81.2499 94.059 81.1489H93.958V82H93.1358ZM93.9725 79.2302C93.9725 79.6486 94.0338 80.0176 94.1564 80.3374C94.279 80.6548 94.4581 80.9036 94.6938 81.084C94.9294 81.2619 95.2179 81.3508 95.5593 81.3508C95.9152 81.3508 96.2121 81.2571 96.4501 81.0695C96.6906 80.8796 96.8709 80.6247 96.9911 80.305C97.1137 79.9828 97.175 79.6245 97.175 79.2302C97.175 78.8407 97.1149 78.4897 96.9947 78.1771C96.8769 77.8622 96.6978 77.6133 96.4573 77.4306C96.2193 77.2455 95.92 77.1529 95.5593 77.1529C95.2131 77.1529 94.9222 77.2406 94.6866 77.4162C94.4509 77.5893 94.273 77.8321 94.1528 78.1447C94.0326 78.4548 93.9725 78.8167 93.9725 79.2302ZM102.718 79.7351V76.4604H103.569V82H102.718V81.0623H102.66C102.53 81.3436 102.328 81.5829 102.054 81.78C101.78 81.9748 101.434 82.0721 101.015 82.0721C100.669 82.0721 100.361 81.9964 100.092 81.8449C99.8228 81.691 99.6112 81.4602 99.4574 81.1525C99.3035 80.8423 99.2265 80.4516 99.2265 79.9804V76.4604H100.078V79.9227C100.078 80.3266 100.191 80.6488 100.417 80.8892C100.645 81.1296 100.936 81.2499 101.289 81.2499C101.501 81.2499 101.716 81.1958 101.935 81.0876C102.156 80.9794 102.341 80.8135 102.49 80.5899C102.642 80.3663 102.718 80.0814 102.718 79.7351ZM105.026 82V76.4604H105.877V82H105.026ZM105.459 75.5372C105.293 75.5372 105.15 75.4807 105.03 75.3677C104.912 75.2547 104.853 75.1188 104.853 74.9602C104.853 74.8015 104.912 74.6656 105.03 74.5526C105.15 74.4396 105.293 74.3831 105.459 74.3831C105.625 74.3831 105.767 74.4396 105.884 74.5526C106.005 74.6656 106.065 74.8015 106.065 74.9602C106.065 75.1188 106.005 75.2547 105.884 75.3677C105.767 75.4807 105.625 75.5372 105.459 75.5372ZM108.186 74.6139V82H107.335V74.6139H108.186ZM111.735 82.1154C111.273 82.1154 110.866 81.9988 110.512 81.7656C110.159 81.53 109.882 81.1982 109.683 80.7702C109.483 80.3398 109.383 79.8313 109.383 79.2447C109.383 78.6628 109.483 78.1579 109.683 77.7299C109.882 77.302 110.16 76.9714 110.516 76.7381C110.872 76.5049 111.283 76.3883 111.749 76.3883C112.11 76.3883 112.395 76.4484 112.604 76.5686C112.816 76.6865 112.977 76.8211 113.087 76.9726C113.2 77.1216 113.288 77.2443 113.35 77.3404H113.423V74.6139H114.274V82H113.451V81.1489H113.35C113.288 81.2499 113.199 81.3773 113.084 81.5312C112.968 81.6826 112.803 81.8185 112.59 81.9387C112.376 82.0565 112.091 82.1154 111.735 82.1154ZM111.85 81.3508C112.192 81.3508 112.48 81.2619 112.716 81.084C112.951 80.9036 113.13 80.6548 113.253 80.3374C113.376 80.0176 113.437 79.6486 113.437 79.2302C113.437 78.8167 113.377 78.4548 113.257 78.1447C113.136 77.8321 112.959 77.5893 112.723 77.4162C112.487 77.2406 112.196 77.1529 111.85 77.1529C111.49 77.1529 111.189 77.2455 110.949 77.4306C110.711 77.6133 110.531 77.8622 110.411 78.1771C110.293 78.4897 110.234 78.8407 110.234 79.2302C110.234 79.6245 110.295 79.9828 110.415 80.305C110.537 80.6247 110.718 80.8796 110.956 81.0695C111.196 81.2571 111.494 81.3508 111.85 81.3508ZM119.859 82L118.171 76.4604H119.066L120.263 80.7017H120.321L121.504 76.4604H122.412L123.581 80.6872H123.639L124.836 76.4604H125.73L124.043 82H123.206L121.994 77.7444H121.908L120.696 82H119.859ZM128.888 82.1154C128.354 82.1154 127.894 81.9976 127.507 81.762C127.122 81.5239 126.825 81.1921 126.616 80.7666C126.409 80.3386 126.306 79.8409 126.306 79.2735C126.306 78.7061 126.409 78.206 126.616 77.7732C126.825 77.338 127.116 76.999 127.489 76.7562C127.864 76.5109 128.302 76.3883 128.802 76.3883C129.09 76.3883 129.375 76.4364 129.656 76.5326C129.938 76.6288 130.194 76.785 130.425 77.0014C130.655 77.2154 130.839 77.4991 130.976 77.8525C131.113 78.206 131.182 78.6412 131.182 79.1581V79.5187H126.912V78.783H130.316C130.316 78.4705 130.254 78.1916 130.129 77.9463C130.006 77.7011 129.831 77.5075 129.602 77.3657C129.376 77.2238 129.109 77.1529 128.802 77.1529C128.463 77.1529 128.169 77.237 127.922 77.4053C127.676 77.5712 127.488 77.7876 127.355 78.0545C127.223 78.3214 127.157 78.6075 127.157 78.9129V79.4033C127.157 79.8217 127.229 80.1763 127.373 80.4672C127.52 80.7558 127.723 80.9758 127.983 81.1272C128.243 81.2763 128.544 81.3508 128.888 81.3508C129.112 81.3508 129.314 81.3196 129.494 81.2571C129.677 81.1921 129.834 81.096 129.967 80.9685C130.099 80.8387 130.201 80.6776 130.273 80.4853L131.095 80.7161C131.009 80.995 130.863 81.2402 130.659 81.4518C130.455 81.661 130.202 81.8245 129.902 81.9423C129.601 82.0577 129.263 82.1154 128.888 82.1154ZM132.49 82V74.6139H133.342V77.3404H133.414C133.476 77.2443 133.563 77.1216 133.673 76.9726C133.786 76.8211 133.947 76.6865 134.157 76.5686C134.368 76.4484 134.654 76.3883 135.015 76.3883C135.481 76.3883 135.893 76.5049 136.248 76.7381C136.604 76.9714 136.882 77.302 137.082 77.7299C137.281 78.1579 137.381 78.6628 137.381 79.2447C137.381 79.8313 137.281 80.3398 137.082 80.7702C136.882 81.1982 136.605 81.53 136.252 81.7656C135.899 81.9988 135.491 82.1154 135.029 82.1154C134.674 82.1154 134.389 82.0565 134.175 81.9387C133.961 81.8185 133.796 81.6826 133.681 81.5312C133.565 81.3773 133.476 81.2499 133.414 81.1489H133.313V82H132.49ZM133.327 79.2302C133.327 79.6486 133.388 80.0176 133.511 80.3374C133.634 80.6548 133.813 80.9036 134.048 81.084C134.284 81.2619 134.573 81.3508 134.914 81.3508C135.27 81.3508 135.567 81.2571 135.805 81.0695C136.045 80.8796 136.226 80.6247 136.346 80.305C136.468 79.9828 136.53 79.6245 136.53 79.2302C136.53 78.8407 136.47 78.4897 136.349 78.1771C136.232 77.8622 136.052 77.6133 135.812 77.4306C135.574 77.2455 135.275 77.1529 134.914 77.1529C134.568 77.1529 134.277 77.2406 134.041 77.4162C133.806 77.5893 133.628 77.8321 133.507 78.1447C133.387 78.4548 133.327 78.8167 133.327 79.2302ZM142.505 77.7011L141.741 77.9175C141.692 77.79 141.621 77.6662 141.528 77.546C141.436 77.4234 141.311 77.3224 141.153 77.2431C140.994 77.1637 140.791 77.124 140.543 77.124C140.204 77.124 139.922 77.2022 139.696 77.3585C139.472 77.5123 139.36 77.7083 139.36 77.9463C139.36 78.1579 139.437 78.325 139.591 78.4476C139.745 78.5702 139.985 78.6724 140.312 78.7542L141.135 78.9561C141.63 79.0763 141.999 79.2603 142.242 79.5079C142.485 79.7532 142.606 80.0693 142.606 80.4564C142.606 80.7738 142.515 81.0575 142.332 81.3076C142.152 81.5576 141.899 81.7548 141.575 81.899C141.25 82.0433 140.873 82.1154 140.442 82.1154C139.877 82.1154 139.41 81.9928 139.039 81.7475C138.669 81.5023 138.435 81.1441 138.336 80.6728L139.144 80.4709C139.221 80.769 139.366 80.9926 139.58 81.1417C139.797 81.2907 140.079 81.3653 140.428 81.3653C140.824 81.3653 141.139 81.2811 141.373 81.1128C141.608 80.9421 141.726 80.7377 141.726 80.4997C141.726 80.3074 141.659 80.1463 141.524 80.0164C141.389 79.8842 141.183 79.7856 140.904 79.7207L139.981 79.5043C139.473 79.3841 139.101 79.1978 138.863 78.9453C138.627 78.6905 138.509 78.3719 138.509 77.9896C138.509 77.677 138.597 77.4005 138.772 77.1601C138.95 76.9197 139.192 76.7309 139.497 76.5939C139.805 76.4568 140.154 76.3883 140.543 76.3883C141.091 76.3883 141.522 76.5085 141.834 76.749C142.149 76.9894 142.373 77.3068 142.505 77.7011ZM143.786 82V76.4604H144.637V82H143.786ZM144.218 75.5372C144.053 75.5372 143.91 75.4807 143.789 75.3677C143.671 75.2547 143.613 75.1188 143.613 74.9602C143.613 74.8015 143.671 74.6656 143.789 74.5526C143.91 74.4396 144.053 74.3831 144.218 74.3831C144.384 74.3831 144.526 74.4396 144.644 74.5526C144.764 74.6656 144.824 74.8015 144.824 74.9602C144.824 75.1188 144.764 75.2547 144.644 75.3677C144.526 75.4807 144.384 75.5372 144.218 75.5372ZM148.503 76.4604V77.1817H145.633V76.4604H148.503ZM146.469 75.1333H147.32V80.4131C147.32 80.6536 147.355 80.8339 147.425 80.9541C147.497 81.0719 147.588 81.1513 147.699 81.1921C147.812 81.2306 147.931 81.2499 148.056 81.2499C148.15 81.2499 148.227 81.245 148.287 81.2354C148.347 81.2234 148.395 81.2138 148.431 81.2066L148.604 81.9711C148.547 81.9928 148.466 82.0144 148.363 82.0361C148.259 82.0601 148.128 82.0721 147.97 82.0721C147.729 82.0721 147.493 82.0204 147.263 81.9171C147.034 81.8137 146.844 81.6562 146.693 81.4446C146.544 81.233 146.469 80.9661 146.469 80.644V75.1333ZM151.945 82.1154C151.411 82.1154 150.951 81.9976 150.564 81.762C150.179 81.5239 149.882 81.1921 149.673 80.7666C149.466 80.3386 149.363 79.8409 149.363 79.2735C149.363 78.7061 149.466 78.206 149.673 77.7732C149.882 77.338 150.173 76.999 150.546 76.7562C150.921 76.5109 151.358 76.3883 151.859 76.3883C152.147 76.3883 152.432 76.4364 152.713 76.5326C152.995 76.6288 153.251 76.785 153.481 77.0014C153.712 77.2154 153.896 77.4991 154.033 77.8525C154.17 78.206 154.239 78.6412 154.239 79.1581V79.5187H149.969V78.783H153.373C153.373 78.4705 153.311 78.1916 153.186 77.9463C153.063 77.7011 152.888 77.5075 152.659 77.3657C152.433 77.2238 152.166 77.1529 151.859 77.1529C151.52 77.1529 151.226 77.237 150.979 77.4053C150.733 77.5712 150.545 77.7876 150.412 78.0545C150.28 78.3214 150.214 78.6075 150.214 78.9129V79.4033C150.214 79.8217 150.286 80.1763 150.43 80.4672C150.577 80.7558 150.78 80.9758 151.04 81.1272C151.3 81.2763 151.601 81.3508 151.945 81.3508C152.169 81.3508 152.371 81.3196 152.551 81.2571C152.734 81.1921 152.891 81.096 153.023 80.9685C153.156 80.8387 153.258 80.6776 153.33 80.4853L154.152 80.7161C154.066 80.995 153.92 81.2402 153.716 81.4518C153.512 81.661 153.259 81.8245 152.959 81.9423C152.658 82.0577 152.32 82.1154 151.945 82.1154ZM159.356 77.7011L158.591 77.9175C158.543 77.79 158.472 77.6662 158.378 77.546C158.287 77.4234 158.162 77.3224 158.003 77.2431C157.845 77.1637 157.642 77.124 157.394 77.124C157.055 77.124 156.772 77.2022 156.546 77.3585C156.323 77.5123 156.211 77.7083 156.211 77.9463C156.211 78.1579 156.288 78.325 156.442 78.4476C156.596 78.5702 156.836 78.6724 157.163 78.7542L157.985 78.9561C158.481 79.0763 158.85 79.2603 159.093 79.5079C159.335 79.7532 159.457 80.0693 159.457 80.4564C159.457 80.7738 159.365 81.0575 159.183 81.3076C159.002 81.5576 158.75 81.7548 158.425 81.899C158.101 82.0433 157.723 82.1154 157.293 82.1154C156.728 82.1154 156.26 81.9928 155.89 81.7475C155.52 81.5023 155.285 81.1441 155.187 80.6728L155.995 80.4709C156.072 80.769 156.217 80.9926 156.431 81.1417C156.647 81.2907 156.93 81.3653 157.279 81.3653C157.675 81.3653 157.99 81.2811 158.223 81.1128C158.459 80.9421 158.577 80.7377 158.577 80.4997C158.577 80.3074 158.51 80.1463 158.375 80.0164C158.24 79.8842 158.033 79.7856 157.755 79.7207L156.831 79.5043C156.324 79.3841 155.951 79.1978 155.713 78.9453C155.478 78.6905 155.36 78.3719 155.36 77.9896C155.36 77.677 155.448 77.4005 155.623 77.1601C155.801 76.9197 156.043 76.7309 156.348 76.5939C156.656 76.4568 157.004 76.3883 157.394 76.3883C157.942 76.3883 158.372 76.5085 158.685 76.749C159 76.9894 159.224 77.3068 159.356 77.7011Z" fill="black"/>
</svg>
