<svg width="272" height="120" viewBox="0 0 272 120" fill="none" xmlns="http://www.w3.org/2000/svg">
<g clip-path="url(#clip0_228_436)">
<rect width="272" height="120" fill="#8AC2FF"/>
<path d="M53.8967 28V18.9091H55.5435V22.7576H59.756V18.9091H61.4073V28H59.756V24.1381H55.5435V28H53.8967ZM62.7989 20.2896V18.9091H70.0521V20.2896H67.2423V28H65.6088V20.2896H62.7989ZM71.4504 18.9091H73.4656L76.1645 25.4964H76.271L78.9699 18.9091H80.9852V28H79.4049V21.7544H79.3206L76.8081 27.9734H75.6274L73.115 21.7411H73.0306V28H71.4504V18.9091ZM82.7785 28V18.9091H84.4253V26.6195H88.4292V28H82.7785Z" fill="#171717"/>
<path d="M70.0128 43V34.6364H71.0256V38.3608H75.4851V34.6364H76.4979V43H75.4851V39.2592H71.0256V43H70.0128ZM78.9005 45.3523C78.7372 45.3523 78.5915 45.3387 78.4636 45.3114C78.3356 45.2869 78.2471 45.2624 78.1981 45.2379L78.4432 44.3885C78.6773 44.4484 78.8842 44.4702 79.0639 44.4538C79.2436 44.4375 79.4028 44.3572 79.5417 44.2129C79.6833 44.0713 79.8126 43.8413 79.9297 43.5227L80.1093 43.0327L77.7897 36.7273H78.8352L80.5667 41.7259H80.6321L82.3636 36.7273H83.4091L80.7464 43.9148C80.6266 44.2388 80.4782 44.5069 80.3013 44.7193C80.1243 44.9344 79.9188 45.0936 79.6846 45.1971C79.4532 45.3005 79.1918 45.3523 78.9005 45.3523ZM84.5662 45.3523V36.7273H85.4973V37.7237H85.6116C85.6824 37.6148 85.7804 37.476 85.9057 37.3072C86.0336 37.1357 86.216 36.9832 86.4529 36.8498C86.6925 36.7137 87.0164 36.6456 87.4248 36.6456C87.953 36.6456 88.4186 36.7776 88.8215 37.0417C89.2244 37.3058 89.5389 37.6802 89.7649 38.1648C89.9908 38.6494 90.1038 39.2211 90.1038 39.88C90.1038 40.5443 89.9908 41.1201 89.7649 41.6074C89.5389 42.092 89.2258 42.4677 88.8256 42.7346C88.4254 42.9986 87.9639 43.1307 87.4412 43.1307C87.0382 43.1307 86.7156 43.064 86.4733 42.9306C86.231 42.7944 86.0445 42.6406 85.9138 42.4691C85.7831 42.2949 85.6824 42.1506 85.6116 42.0362H85.5299V45.3523H84.5662ZM85.5136 39.8636C85.5136 40.3374 85.583 40.7553 85.7219 41.1174C85.8607 41.4767 86.0636 41.7585 86.3304 41.9627C86.5972 42.1642 86.9239 42.2649 87.3105 42.2649C87.7134 42.2649 88.0497 42.1587 88.3192 41.9464C88.5914 41.7313 88.7956 41.4427 88.9318 41.0806C89.0706 40.7158 89.14 40.3101 89.14 39.8636C89.14 39.4226 89.072 39.0251 88.9358 38.6712C88.8024 38.3145 88.5996 38.0327 88.3274 37.8258C88.0578 37.6162 87.7189 37.5114 87.3105 37.5114C86.9184 37.5114 86.589 37.6107 86.3222 37.8095C86.0554 38.0055 85.8539 38.2805 85.7178 38.6344C85.5817 38.9856 85.5136 39.3954 85.5136 39.8636ZM94.0889 43.1307C93.4845 43.1307 92.9632 42.9973 92.5249 42.7305C92.0892 42.4609 91.753 42.0852 91.5162 41.6033C91.282 41.1187 91.1649 40.5552 91.1649 39.9126C91.1649 39.2701 91.282 38.7038 91.5162 38.2138C91.753 37.721 92.0824 37.3371 92.5044 37.0621C92.9291 36.7844 93.4247 36.6456 93.9909 36.6456C94.3176 36.6456 94.6403 36.7 94.9588 36.8089C95.2773 36.9179 95.5673 37.0948 95.8287 37.3398C96.09 37.5821 96.2983 37.9034 96.4535 38.3036C96.6087 38.7038 96.6863 39.1966 96.6863 39.782V40.1903H91.851V39.3572H95.7061C95.7061 39.0033 95.6354 38.6875 95.4938 38.4098C95.3549 38.1321 95.1562 37.9129 94.8975 37.7523C94.6416 37.5917 94.3394 37.5114 93.9909 37.5114C93.6071 37.5114 93.2749 37.6067 92.9945 37.7972C92.7168 37.9851 92.5031 38.2301 92.3533 38.5323C92.2036 38.8345 92.1287 39.1585 92.1287 39.5043V40.0597C92.1287 40.5334 92.2104 40.935 92.3738 41.2644C92.5398 41.5911 92.7699 41.8402 93.0639 42.0117C93.3579 42.1805 93.6996 42.2649 94.0889 42.2649C94.3421 42.2649 94.5708 42.2295 94.775 42.1587C94.9819 42.0852 95.1603 41.9763 95.31 41.832C95.4597 41.685 95.5755 41.5026 95.6571 41.2848L96.5882 41.5462C96.4902 41.862 96.3255 42.1397 96.0941 42.3793C95.8627 42.6161 95.5768 42.8013 95.2365 42.9347C94.8962 43.0653 94.5137 43.1307 94.0889 43.1307ZM98.0373 43V36.7273H98.9684V37.6747H99.0338C99.1481 37.3643 99.355 37.1125 99.6545 36.9192C99.954 36.7259 100.292 36.6293 100.667 36.6293C100.738 36.6293 100.827 36.6306 100.933 36.6333C101.039 36.6361 101.119 36.6402 101.174 36.6456V37.6257C101.141 37.6175 101.066 37.6053 100.949 37.589C100.835 37.5699 100.714 37.5604 100.586 37.5604C100.281 37.5604 100.008 37.6243 99.7689 37.7523C99.532 37.8775 99.3442 38.0518 99.2053 38.275C99.0692 38.4956 99.0011 38.7474 99.0011 39.0305V43H98.0373ZM105.322 36.7273V37.544H102.071V36.7273H105.322ZM103.019 35.2244H103.983V41.2031C103.983 41.4754 104.022 41.6796 104.101 41.8157C104.183 41.9491 104.286 42.0389 104.412 42.0852C104.539 42.1288 104.674 42.1506 104.816 42.1506C104.922 42.1506 105.009 42.1451 105.077 42.1342C105.145 42.1206 105.2 42.1097 105.241 42.1016L105.437 42.9673C105.371 42.9918 105.28 43.0163 105.163 43.0408C105.046 43.0681 104.897 43.0817 104.718 43.0817C104.446 43.0817 104.179 43.0231 103.917 42.9061C103.659 42.789 103.444 42.6107 103.272 42.3711C103.103 42.1315 103.019 41.8293 103.019 41.4645V35.2244ZM109.22 43.1307C108.615 43.1307 108.094 42.9973 107.655 42.7305C107.22 42.4609 106.884 42.0852 106.647 41.6033C106.413 41.1187 106.296 40.5552 106.296 39.9126C106.296 39.2701 106.413 38.7038 106.647 38.2138C106.884 37.721 107.213 37.3371 107.635 37.0621C108.06 36.7844 108.555 36.6456 109.122 36.6456C109.448 36.6456 109.771 36.7 110.089 36.8089C110.408 36.9179 110.698 37.0948 110.959 37.3398C111.221 37.5821 111.429 37.9034 111.584 38.3036C111.739 38.7038 111.817 39.1966 111.817 39.782V40.1903H106.982V39.3572H110.837C110.837 39.0033 110.766 38.6875 110.624 38.4098C110.486 38.1321 110.287 37.9129 110.028 37.7523C109.772 37.5917 109.47 37.5114 109.122 37.5114C108.738 37.5114 108.405 37.6067 108.125 37.7972C107.847 37.9851 107.634 38.2301 107.484 38.5323C107.334 38.8345 107.259 39.1585 107.259 39.5043V40.0597C107.259 40.5334 107.341 40.935 107.504 41.2644C107.67 41.5911 107.9 41.8402 108.195 42.0117C108.489 42.1805 108.83 42.2649 109.22 42.2649C109.473 42.2649 109.701 42.2295 109.906 42.1587C110.113 42.0852 110.291 41.9763 110.441 41.832C110.59 41.685 110.706 41.5026 110.788 41.2848L111.719 41.5462C111.621 41.862 111.456 42.1397 111.225 42.3793C110.993 42.6161 110.707 42.8013 110.367 42.9347C110.027 43.0653 109.644 43.1307 109.22 43.1307ZM113.718 36.7273L115.221 39.2919L116.724 36.7273H117.835L115.809 39.8636L117.835 43H116.724L115.221 40.5661L113.718 43H112.607L114.6 39.8636L112.607 36.7273H113.718ZM121.823 36.7273V37.544H118.572V36.7273H121.823ZM119.52 35.2244H120.483V41.2031C120.483 41.4754 120.523 41.6796 120.602 41.8157C120.684 41.9491 120.787 42.0389 120.912 42.0852C121.04 42.1288 121.175 42.1506 121.317 42.1506C121.423 42.1506 121.51 42.1451 121.578 42.1342C121.646 42.1206 121.7 42.1097 121.741 42.1016L121.937 42.9673C121.872 42.9918 121.781 43.0163 121.664 43.0408C121.547 43.0681 121.398 43.0817 121.218 43.0817C120.946 43.0817 120.679 43.0231 120.418 42.9061C120.159 42.789 119.944 42.6107 119.773 42.3711C119.604 42.1315 119.52 41.8293 119.52 41.4645V35.2244ZM126.408 34.6364H127.617L130.459 41.5788H130.557L133.399 34.6364H134.608V43H133.661V36.6456H133.579L130.965 43H130.05L127.437 36.6456H127.355V43H126.408V34.6364ZM138.239 43.147C137.841 43.147 137.481 43.0721 137.157 42.9224C136.833 42.7699 136.575 42.5508 136.385 42.2649C136.194 41.9763 136.099 41.6278 136.099 41.2195C136.099 40.8601 136.17 40.5688 136.311 40.3455C136.453 40.1196 136.642 39.9426 136.879 39.8146C137.116 39.6867 137.377 39.5914 137.663 39.5288C137.952 39.4634 138.242 39.4117 138.533 39.3736C138.914 39.3246 139.223 39.2878 139.46 39.2633C139.7 39.2361 139.874 39.1912 139.983 39.1286C140.094 39.0659 140.15 38.957 140.15 38.8018V38.7692C140.15 38.3662 140.04 38.0531 139.819 37.8299C139.601 37.6067 139.271 37.495 138.827 37.495C138.367 37.495 138.006 37.5958 137.745 37.7972C137.483 37.9987 137.3 38.2138 137.193 38.4425L136.279 38.1158C136.442 37.7346 136.66 37.4379 136.932 37.2255C137.207 37.0104 137.506 36.8607 137.83 36.7763C138.157 36.6892 138.478 36.6456 138.794 36.6456C138.996 36.6456 139.227 36.6701 139.489 36.7191C139.753 36.7654 140.007 36.862 140.252 37.0091C140.5 37.1561 140.705 37.378 140.869 37.6747C141.032 37.9715 141.114 38.369 141.114 38.8672V43H140.15V42.1506H140.101C140.036 42.2867 139.927 42.4324 139.774 42.5875C139.622 42.7427 139.419 42.8748 139.166 42.9837C138.913 43.0926 138.604 43.147 138.239 43.147ZM138.386 42.2812C138.767 42.2812 139.088 42.2064 139.35 42.0566C139.614 41.9069 139.812 41.7136 139.946 41.4767C140.082 41.2399 140.15 40.9908 140.15 40.7294V39.8473C140.109 39.8963 140.019 39.9412 139.881 39.9821C139.744 40.0202 139.587 40.0542 139.407 40.0842C139.23 40.1114 139.057 40.1359 138.888 40.1577C138.722 40.1767 138.587 40.1931 138.484 40.2067C138.233 40.2393 137.999 40.2924 137.781 40.3659C137.566 40.4367 137.392 40.5443 137.259 40.6886C137.128 40.8301 137.063 41.0234 137.063 41.2685C137.063 41.6033 137.187 41.8565 137.434 42.0281C137.685 42.1969 138.002 42.2812 138.386 42.2812ZM142.758 43V36.7273H143.689V37.6747H143.754C143.869 37.3643 144.076 37.1125 144.375 36.9192C144.675 36.7259 145.012 36.6293 145.388 36.6293C145.459 36.6293 145.547 36.6306 145.653 36.6333C145.76 36.6361 145.84 36.6402 145.894 36.6456V37.6257C145.862 37.6175 145.787 37.6053 145.67 37.589C145.555 37.5699 145.434 37.5604 145.306 37.5604C145.001 37.5604 144.729 37.6243 144.489 37.7523C144.253 37.8775 144.065 38.0518 143.926 38.275C143.79 38.4956 143.722 38.7474 143.722 39.0305V43H142.758ZM147.82 40.7131L147.804 39.5206H148L150.744 36.7273H151.937L149.013 39.6839H148.931L147.82 40.7131ZM146.922 43V34.6364H147.886V43H146.922ZM150.908 43L148.457 39.8963L149.143 39.2266L152.133 43H150.908ZM157.015 40.4354V36.7273H157.979V43H157.015V41.9382H156.95C156.803 42.2567 156.574 42.5276 156.264 42.7509C155.953 42.9714 155.561 43.0817 155.088 43.0817C154.696 43.0817 154.347 42.9959 154.042 42.8244C153.737 42.6502 153.498 42.3888 153.324 42.0403C153.149 41.6891 153.062 41.2467 153.062 40.7131V36.7273H154.026V40.6477C154.026 41.1051 154.154 41.4699 154.41 41.7422C154.668 42.0144 154.998 42.1506 155.398 42.1506C155.638 42.1506 155.881 42.0893 156.129 41.9668C156.38 41.8443 156.589 41.6564 156.758 41.4032C156.93 41.15 157.015 40.8274 157.015 40.4354ZM159.629 45.3523V36.7273H160.56V37.7237H160.675C160.746 37.6148 160.844 37.476 160.969 37.3072C161.097 37.1357 161.279 36.9832 161.516 36.8498C161.756 36.7137 162.08 36.6456 162.488 36.6456C163.016 36.6456 163.482 36.7776 163.885 37.0417C164.288 37.3058 164.602 37.6802 164.828 38.1648C165.054 38.6494 165.167 39.2211 165.167 39.88C165.167 40.5443 165.054 41.1201 164.828 41.6074C164.602 42.092 164.289 42.4677 163.889 42.7346C163.488 42.9986 163.027 43.1307 162.504 43.1307C162.101 43.1307 161.779 43.064 161.536 42.9306C161.294 42.7944 161.108 42.6406 160.977 42.4691C160.846 42.2949 160.746 42.1506 160.675 42.0362H160.593V45.3523H159.629ZM160.577 39.8636C160.577 40.3374 160.646 40.7553 160.785 41.1174C160.924 41.4767 161.127 41.7585 161.393 41.9627C161.66 42.1642 161.987 42.2649 162.374 42.2649C162.777 42.2649 163.113 42.1587 163.382 41.9464C163.655 41.7313 163.859 41.4427 163.995 41.0806C164.134 40.7158 164.203 40.3101 164.203 39.8636C164.203 39.4226 164.135 39.0251 163.999 38.6712C163.866 38.3145 163.663 38.0327 163.39 37.8258C163.121 37.6162 162.782 37.5114 162.374 37.5114C161.982 37.5114 161.652 37.6107 161.385 37.8095C161.119 38.0055 160.917 38.2805 160.781 38.6344C160.645 38.9856 160.577 39.3954 160.577 39.8636ZM169.772 43V34.6364H170.785V42.1016H174.673V43H169.772ZM177.841 43.147C177.444 43.147 177.083 43.0721 176.759 42.9224C176.435 42.7699 176.178 42.5508 175.987 42.2649C175.796 41.9763 175.701 41.6278 175.701 41.2195C175.701 40.8601 175.772 40.5688 175.914 40.3455C176.055 40.1196 176.244 39.9426 176.481 39.8146C176.718 39.6867 176.979 39.5914 177.265 39.5288C177.554 39.4634 177.844 39.4117 178.135 39.3736C178.516 39.3246 178.825 39.2878 179.062 39.2633C179.302 39.2361 179.476 39.1912 179.585 39.1286C179.696 39.0659 179.752 38.957 179.752 38.8018V38.7692C179.752 38.3662 179.642 38.0531 179.422 37.8299C179.204 37.6067 178.873 37.495 178.429 37.495C177.969 37.495 177.608 37.5958 177.347 37.7972C177.086 37.9987 176.902 38.2138 176.796 38.4425L175.881 38.1158C176.044 37.7346 176.262 37.4379 176.534 37.2255C176.809 37.0104 177.109 36.8607 177.433 36.7763C177.759 36.6892 178.081 36.6456 178.396 36.6456C178.598 36.6456 178.829 36.6701 179.091 36.7191C179.355 36.7654 179.609 36.862 179.854 37.0091C180.102 37.1561 180.308 37.378 180.471 37.6747C180.634 37.9715 180.716 38.369 180.716 38.8672V43H179.752V42.1506H179.703C179.638 42.2867 179.529 42.4324 179.377 42.5875C179.224 42.7427 179.021 42.8748 178.768 42.9837C178.515 43.0926 178.206 43.147 177.841 43.147ZM177.988 42.2812C178.369 42.2812 178.691 42.2064 178.952 42.0566C179.216 41.9069 179.415 41.7136 179.548 41.4767C179.684 41.2399 179.752 40.9908 179.752 40.7294V39.8473C179.711 39.8963 179.622 39.9412 179.483 39.9821C179.347 40.0202 179.189 40.0542 179.009 40.0842C178.832 40.1114 178.659 40.1359 178.49 40.1577C178.324 40.1767 178.19 40.1931 178.086 40.2067C177.836 40.2393 177.602 40.2924 177.384 40.3659C177.169 40.4367 176.994 40.5443 176.861 40.6886C176.73 40.8301 176.665 41.0234 176.665 41.2685C176.665 41.6033 176.789 41.8565 177.037 42.0281C177.287 42.1969 177.604 42.2812 177.988 42.2812ZM183.324 39.2266V43H182.36V36.7273H183.291V37.7074H183.373C183.52 37.3888 183.743 37.1329 184.043 36.9396C184.342 36.7436 184.729 36.6456 185.203 36.6456C185.627 36.6456 185.999 36.7327 186.317 36.907C186.636 37.0785 186.884 37.3398 187.061 37.6911C187.238 38.0395 187.326 38.4806 187.326 39.0142V43H186.362V39.0795C186.362 38.5868 186.234 38.2029 185.978 37.9279C185.723 37.6502 185.371 37.5114 184.925 37.5114C184.617 37.5114 184.342 37.5781 184.1 37.7115C183.86 37.8449 183.671 38.0395 183.532 38.2955C183.393 38.5514 183.324 38.8617 183.324 39.2266ZM191.504 45.483C191.039 45.483 190.638 45.4231 190.304 45.3033C189.969 45.1862 189.69 45.031 189.466 44.8377C189.246 44.6471 189.07 44.4429 188.94 44.2251L189.707 43.6861C189.794 43.8004 189.905 43.9311 190.038 44.0781C190.172 44.2279 190.354 44.3572 190.585 44.4661C190.819 44.5777 191.126 44.6335 191.504 44.6335C192.011 44.6335 192.428 44.511 192.758 44.266C193.087 44.021 193.252 43.6371 193.252 43.1143V41.8402H193.17C193.1 41.9545 192.999 42.0961 192.868 42.2649C192.74 42.431 192.555 42.5794 192.313 42.71C192.073 42.838 191.749 42.902 191.341 42.902C190.834 42.902 190.38 42.7822 189.977 42.5426C189.577 42.303 189.259 41.9545 189.025 41.4972C188.794 41.0398 188.678 40.4844 188.678 39.831C188.678 39.1884 188.791 38.629 189.017 38.1525C189.243 37.6734 189.558 37.3031 189.961 37.0417C190.363 36.7776 190.829 36.6456 191.357 36.6456C191.766 36.6456 192.09 36.7137 192.329 36.8498C192.571 36.9832 192.757 37.1357 192.885 37.3072C193.015 37.476 193.116 37.6148 193.187 37.7237H193.285V36.7273H194.216V43.1797C194.216 43.7188 194.093 44.1571 193.848 44.4947C193.606 44.835 193.279 45.0841 192.868 45.242C192.46 45.4026 192.005 45.483 191.504 45.483ZM191.472 42.0362C191.858 42.0362 192.185 41.9477 192.452 41.7708C192.718 41.5938 192.921 41.3393 193.06 41.0071C193.199 40.675 193.268 40.2775 193.268 39.8146C193.268 39.3627 193.2 38.9638 193.064 38.6181C192.928 38.2723 192.727 38.0014 192.46 37.8054C192.193 37.6094 191.864 37.5114 191.472 37.5114C191.063 37.5114 190.723 37.6148 190.451 37.8217C190.181 38.0286 189.978 38.3063 189.842 38.6548C189.709 39.0033 189.642 39.3899 189.642 39.8146C189.642 40.2502 189.71 40.6355 189.846 40.9703C189.985 41.3025 190.189 41.5639 190.459 41.7544C190.731 41.9423 191.069 42.0362 191.472 42.0362ZM199.818 40.4354V36.7273H200.782V43H199.818V41.9382H199.753C199.606 42.2567 199.377 42.5276 199.067 42.7509C198.756 42.9714 198.364 43.0817 197.891 43.0817C197.499 43.0817 197.15 42.9959 196.845 42.8244C196.54 42.6502 196.301 42.3888 196.126 42.0403C195.952 41.6891 195.865 41.2467 195.865 40.7131V36.7273H196.829V40.6477C196.829 41.1051 196.957 41.4699 197.213 41.7422C197.471 42.0144 197.801 42.1506 198.201 42.1506C198.441 42.1506 198.684 42.0893 198.932 41.9668C199.182 41.8443 199.392 41.6564 199.561 41.4032C199.732 41.15 199.818 40.8274 199.818 40.4354ZM204.278 43.147C203.881 43.147 203.52 43.0721 203.196 42.9224C202.872 42.7699 202.615 42.5508 202.424 42.2649C202.233 41.9763 202.138 41.6278 202.138 41.2195C202.138 40.8601 202.209 40.5688 202.351 40.3455C202.492 40.1196 202.681 39.9426 202.918 39.8146C203.155 39.6867 203.416 39.5914 203.702 39.5288C203.991 39.4634 204.281 39.4117 204.572 39.3736C204.953 39.3246 205.262 39.2878 205.499 39.2633C205.739 39.2361 205.913 39.1912 206.022 39.1286C206.133 39.0659 206.189 38.957 206.189 38.8018V38.7692C206.189 38.3662 206.079 38.0531 205.858 37.8299C205.641 37.6067 205.31 37.495 204.866 37.495C204.406 37.495 204.045 37.5958 203.784 37.7972C203.523 37.9987 203.339 38.2138 203.233 38.4425L202.318 38.1158C202.481 37.7346 202.699 37.4379 202.971 37.2255C203.246 37.0104 203.546 36.8607 203.87 36.7763C204.196 36.6892 204.518 36.6456 204.833 36.6456C205.035 36.6456 205.266 36.6701 205.528 36.7191C205.792 36.7654 206.046 36.862 206.291 37.0091C206.539 37.1561 206.745 37.378 206.908 37.6747C207.071 37.9715 207.153 38.369 207.153 38.8672V43H206.189V42.1506H206.14C206.075 42.2867 205.966 42.4324 205.814 42.5875C205.661 42.7427 205.458 42.8748 205.205 42.9837C204.952 43.0926 204.643 43.147 204.278 43.147ZM204.425 42.2812C204.806 42.2812 205.127 42.2064 205.389 42.0566C205.653 41.9069 205.852 41.7136 205.985 41.4767C206.121 41.2399 206.189 40.9908 206.189 40.7294V39.8473C206.148 39.8963 206.059 39.9412 205.92 39.9821C205.784 40.0202 205.626 40.0542 205.446 40.0842C205.269 40.1114 205.096 40.1359 204.927 40.1577C204.761 40.1767 204.627 40.1931 204.523 40.2067C204.273 40.2393 204.038 40.2924 203.821 40.3659C203.606 40.4367 203.431 40.5443 203.298 40.6886C203.167 40.8301 203.102 41.0234 203.102 41.2685C203.102 41.6033 203.226 41.8565 203.474 42.0281C203.724 42.1969 204.041 42.2812 204.425 42.2812ZM211.329 45.483C210.864 45.483 210.463 45.4231 210.128 45.3033C209.794 45.1862 209.515 45.031 209.291 44.8377C209.071 44.6471 208.895 44.4429 208.764 44.2251L209.532 43.6861C209.619 43.8004 209.73 43.9311 209.863 44.0781C209.996 44.2279 210.179 44.3572 210.41 44.4661C210.644 44.5777 210.951 44.6335 211.329 44.6335C211.836 44.6335 212.253 44.511 212.583 44.266C212.912 44.021 213.077 43.6371 213.077 43.1143V41.8402H212.995C212.925 41.9545 212.824 42.0961 212.693 42.2649C212.565 42.431 212.38 42.5794 212.138 42.71C211.898 42.838 211.574 42.902 211.166 42.902C210.659 42.902 210.205 42.7822 209.802 42.5426C209.402 42.303 209.084 41.9545 208.85 41.4972C208.619 41.0398 208.503 40.4844 208.503 39.831C208.503 39.1884 208.616 38.629 208.842 38.1525C209.068 37.6734 209.383 37.3031 209.785 37.0417C210.188 36.7776 210.654 36.6456 211.182 36.6456C211.59 36.6456 211.914 36.7137 212.154 36.8498C212.396 36.9832 212.581 37.1357 212.709 37.3072C212.84 37.476 212.941 37.6148 213.012 37.7237H213.11V36.7273H214.041V43.1797C214.041 43.7188 213.918 44.1571 213.673 44.4947C213.431 44.835 213.104 45.0841 212.693 45.242C212.285 45.4026 211.83 45.483 211.329 45.483ZM211.296 42.0362C211.683 42.0362 212.01 41.9477 212.277 41.7708C212.543 41.5938 212.746 41.3393 212.885 41.0071C213.024 40.675 213.093 40.2775 213.093 39.8146C213.093 39.3627 213.025 38.9638 212.889 38.6181C212.753 38.2723 212.552 38.0014 212.285 37.8054C212.018 37.6094 211.688 37.5114 211.296 37.5114C210.888 37.5114 210.548 37.6148 210.275 37.8217C210.006 38.0286 209.803 38.3063 209.667 38.6548C209.534 39.0033 209.467 39.3899 209.467 39.8146C209.467 40.2502 209.535 40.6355 209.671 40.9703C209.81 41.3025 210.014 41.5639 210.284 41.7544C210.556 41.9423 210.894 42.0362 211.296 42.0362ZM218.32 43.1307C217.716 43.1307 217.194 42.9973 216.756 42.7305C216.32 42.4609 215.984 42.0852 215.747 41.6033C215.513 41.1187 215.396 40.5552 215.396 39.9126C215.396 39.2701 215.513 38.7038 215.747 38.2138C215.984 37.721 216.313 37.3371 216.735 37.0621C217.16 36.7844 217.656 36.6456 218.222 36.6456C218.549 36.6456 218.871 36.7 219.19 36.8089C219.508 36.9179 219.798 37.0948 220.06 37.3398C220.321 37.5821 220.529 37.9034 220.684 38.3036C220.84 38.7038 220.917 39.1966 220.917 39.782V40.1903H216.082V39.3572H219.937C219.937 39.0033 219.866 38.6875 219.725 38.4098C219.586 38.1321 219.387 37.9129 219.129 37.7523C218.873 37.5917 218.57 37.5114 218.222 37.5114C217.838 37.5114 217.506 37.6067 217.225 37.7972C216.948 37.9851 216.734 38.2301 216.584 38.5323C216.435 38.8345 216.36 39.1585 216.36 39.5043V40.0597C216.36 40.5334 216.441 40.935 216.605 41.2644C216.771 41.5911 217.001 41.8402 217.295 42.0117C217.589 42.1805 217.931 42.2649 218.32 42.2649C218.573 42.2649 218.802 42.2295 219.006 42.1587C219.213 42.0852 219.391 41.9763 219.541 41.832C219.691 41.685 219.806 41.5026 219.888 41.2848L220.819 41.5462C220.721 41.862 220.557 42.1397 220.325 42.3793C220.094 42.6161 219.808 42.8013 219.468 42.9347C219.127 43.0653 218.745 43.1307 218.32 43.1307Z" fill="#171717"/>
<path d="M61.6781 61.9764H60.0179C59.9706 61.7041 59.8833 61.4629 59.756 61.2528C59.6288 61.0398 59.4705 60.8593 59.2811 60.7113C59.0917 60.5633 58.8757 60.4524 58.633 60.3784C58.3933 60.3014 58.1344 60.263 57.8562 60.263C57.362 60.263 56.924 60.3873 56.5423 60.6358C56.1605 60.8815 55.8616 61.2425 55.6456 61.7189C55.4296 62.1924 55.3216 62.771 55.3216 63.4545C55.3216 64.15 55.4296 64.7359 55.6456 65.2124C55.8646 65.6858 56.1635 66.0439 56.5423 66.2866C56.924 66.5263 57.3605 66.6461 57.8517 66.6461C58.124 66.6461 58.3785 66.6106 58.6152 66.5396C58.8549 66.4656 59.0695 66.3576 59.2589 66.2156C59.4512 66.0735 59.6125 65.8989 59.7427 65.6918C59.8759 65.4846 59.9676 65.2479 60.0179 64.9815L61.6781 64.9904C61.6159 65.4225 61.4813 65.8279 61.2741 66.2067C61.07 66.5855 60.8021 66.9199 60.4707 67.2099C60.1393 67.4969 59.7516 67.7218 59.3077 67.8846C58.8638 68.0444 58.3711 68.1243 57.8295 68.1243C57.0305 68.1243 56.3174 67.9393 55.69 67.5694C55.0626 67.1995 54.5684 66.6654 54.2074 65.967C53.8464 65.2686 53.6658 64.4311 53.6658 63.4545C53.6658 62.475 53.8478 61.6375 54.2118 60.9421C54.5758 60.2437 55.0715 59.7096 55.6989 59.3397C56.3262 58.9698 57.0365 58.7848 57.8295 58.7848C58.3356 58.7848 58.8061 58.8558 59.2411 58.9979C59.6761 59.1399 60.0638 59.3485 60.4041 59.6238C60.7444 59.896 61.0241 60.2304 61.2431 60.627C61.465 61.0205 61.61 61.4703 61.6781 61.9764ZM68.1267 61.4082C68.0853 61.0205 67.9107 60.7187 67.6029 60.5027C67.2981 60.2866 66.9016 60.1786 66.4133 60.1786C66.07 60.1786 65.7756 60.2304 65.53 60.334C65.2843 60.4376 65.0964 60.5781 64.9662 60.7557C64.836 60.9332 64.7694 61.1359 64.7665 61.3638C64.7665 61.5532 64.8094 61.7174 64.8952 61.8565C64.984 61.9956 65.1038 62.114 65.2547 62.2116C65.4057 62.3063 65.5729 62.3862 65.7563 62.4513C65.9398 62.5165 66.1248 62.5712 66.3112 62.6156L67.1635 62.8287C67.5068 62.9086 67.8367 63.0166 68.1534 63.1527C68.473 63.2888 68.7585 63.4605 69.0101 63.6676C69.2646 63.8748 69.4658 64.1248 69.6138 64.4178C69.7617 64.7108 69.8357 65.054 69.8357 65.4476C69.8357 65.9803 69.6996 66.4493 69.4273 66.8548C69.1551 67.2572 68.7615 67.5724 68.2466 67.8002C67.7346 68.0252 67.1147 68.1376 66.3867 68.1376C65.6794 68.1376 65.0654 68.0281 64.5445 67.8091C64.0266 67.5901 63.6212 67.2705 63.3283 66.8503C63.0382 66.4301 62.8814 65.9181 62.8577 65.3145H64.4779C64.5016 65.6311 64.5993 65.8945 64.7709 66.1046C64.9425 66.3147 65.166 66.4715 65.4412 66.5751C65.7194 66.6787 66.0301 66.7305 66.3734 66.7305C66.7314 66.7305 67.0451 66.6772 67.3144 66.5707C67.5867 66.4612 67.7997 66.3103 67.9536 66.1179C68.1075 65.9226 68.1859 65.6947 68.1889 65.4343C68.1859 65.1976 68.1164 65.0022 67.9802 64.8484C67.8441 64.6915 67.6532 64.5613 67.4076 64.4577C67.165 64.3512 66.8809 64.2565 66.5554 64.1737L65.5211 63.9073C64.7724 63.715 64.1805 63.4235 63.7455 63.0328C63.3135 62.6393 63.0974 62.117 63.0974 61.4659C63.0974 60.9303 63.2424 60.4612 63.5324 60.0588C63.8254 59.6563 64.2234 59.3441 64.7265 59.1222C65.2296 58.8973 65.7993 58.7848 66.4355 58.7848C67.0806 58.7848 67.6458 58.8973 68.1312 59.1222C68.6195 59.3441 69.0027 59.6533 69.2809 60.0499C69.559 60.4435 69.7025 60.8962 69.7114 61.4082H68.1267ZM76.2444 61.4082C76.203 61.0205 76.0284 60.7187 75.7206 60.5027C75.4158 60.2866 75.0193 60.1786 74.531 60.1786C74.1877 60.1786 73.8933 60.2304 73.6476 60.334C73.402 60.4376 73.2141 60.5781 73.0839 60.7557C72.9537 60.9332 72.8871 61.1359 72.8841 61.3638C72.8841 61.5532 72.9271 61.7174 73.0129 61.8565C73.1017 61.9956 73.2215 62.114 73.3724 62.2116C73.5233 62.3063 73.6905 62.3862 73.874 62.4513C74.0575 62.5165 74.2425 62.5712 74.4289 62.6156L75.2812 62.8287C75.6244 62.9086 75.9544 63.0166 76.271 63.1527C76.5906 63.2888 76.8762 63.4605 77.1278 63.6676C77.3823 63.8748 77.5835 64.1248 77.7314 64.4178C77.8794 64.7108 77.9534 65.054 77.9534 65.4476C77.9534 65.9803 77.8173 66.4493 77.545 66.8548C77.2728 67.2572 76.8792 67.5724 76.3643 67.8002C75.8523 68.0252 75.2323 68.1376 74.5044 68.1376C73.7971 68.1376 73.183 68.0281 72.6622 67.8091C72.1443 67.5901 71.7389 67.2705 71.4459 66.8503C71.1559 66.4301 70.9991 65.9181 70.9754 65.3145H72.5956C72.6193 65.6311 72.7169 65.8945 72.8886 66.1046C73.0602 66.3147 73.2836 66.4715 73.5589 66.5751C73.837 66.6787 74.1478 66.7305 74.491 66.7305C74.8491 66.7305 75.1628 66.6772 75.4321 66.5707C75.7043 66.4612 75.9174 66.3103 76.0713 66.1179C76.2252 65.9226 76.3036 65.6947 76.3066 65.4343C76.3036 65.1976 76.234 65.0022 76.0979 64.8484C75.9618 64.6915 75.7709 64.5613 75.5253 64.4577C75.2826 64.3512 74.9986 64.2565 74.673 64.1737L73.6388 63.9073C72.8901 63.715 72.2982 63.4235 71.8632 63.0328C71.4311 62.6393 71.2151 62.117 71.2151 61.4659C71.2151 60.9303 71.3601 60.4612 71.6501 60.0588C71.9431 59.6563 72.3411 59.3441 72.8442 59.1222C73.3473 58.8973 73.9169 58.7848 74.5532 58.7848C75.1983 58.7848 75.7635 58.8973 76.2488 59.1222C76.7371 59.3441 77.1204 59.6533 77.3985 60.0499C77.6767 60.4435 77.8202 60.8962 77.8291 61.4082H76.2444Z" fill="#171717"/>
<path d="M76.7429 77.25H75.7301C75.6702 76.9587 75.5654 76.7028 75.4157 76.4822C75.2686 76.2617 75.089 76.0766 74.8766 75.9268C74.667 75.7744 74.4342 75.66 74.1783 75.5838C73.9223 75.5076 73.6555 75.4695 73.3778 75.4695C72.8714 75.4695 72.4127 75.5974 72.0016 75.8533C71.5932 76.1093 71.2679 76.4863 71.0256 76.9846C70.786 77.4828 70.6662 78.094 70.6662 78.8182C70.6662 79.5424 70.786 80.1536 71.0256 80.6518C71.2679 81.15 71.5932 81.5271 72.0016 81.783C72.4127 82.0389 72.8714 82.1669 73.3778 82.1669C73.6555 82.1669 73.9223 82.1288 74.1783 82.0526C74.4342 81.9763 74.667 81.8633 74.8766 81.7136C75.089 81.5611 75.2686 81.3746 75.4157 81.1541C75.5654 80.9309 75.6702 80.675 75.7301 80.3864H76.7429C76.6667 80.8138 76.5278 81.1963 76.3263 81.5339C76.1249 81.8715 75.8744 82.1587 75.5749 82.3956C75.2755 82.6297 74.9392 82.8081 74.5662 82.9306C74.196 83.0531 73.7998 83.1143 73.3778 83.1143C72.6645 83.1143 72.0302 82.9401 71.4748 82.5916C70.9194 82.2431 70.4824 81.7476 70.1639 81.1051C69.8453 80.4626 69.6861 79.7003 69.6861 78.8182C69.6861 77.9361 69.8453 77.1738 70.1639 76.5312C70.4824 75.8887 70.9194 75.3932 71.4748 75.0447C72.0302 74.6963 72.6645 74.522 73.3778 74.522C73.7998 74.522 74.196 74.5833 74.5662 74.7058C74.9392 74.8283 75.2755 75.008 75.5749 75.2449C75.8744 75.479 76.1249 75.7649 76.3263 76.1025C76.5278 76.4373 76.6667 76.8198 76.7429 77.25ZM79.9797 83.147C79.5822 83.147 79.2215 83.0721 78.8975 82.9224C78.5735 82.7699 78.3162 82.5508 78.1256 82.2649C77.9351 81.9763 77.8398 81.6278 77.8398 81.2195C77.8398 80.8601 77.9106 80.5688 78.0521 80.3455C78.1937 80.1196 78.3829 79.9426 78.6198 79.8146C78.8566 79.6867 79.118 79.5914 79.4039 79.5288C79.6925 79.4634 79.9824 79.4117 80.2737 79.3736C80.6549 79.3246 80.9639 79.2878 81.2007 79.2633C81.4403 79.2361 81.6146 79.1912 81.7235 79.1286C81.8351 79.0659 81.8909 78.957 81.8909 78.8018V78.7692C81.8909 78.3662 81.7806 78.0531 81.5601 77.8299C81.3423 77.6067 81.0115 77.495 80.5678 77.495C80.1076 77.495 79.7469 77.5958 79.4855 77.7972C79.2242 77.9987 79.0404 78.2138 78.9342 78.4425L78.0195 78.1158C78.1828 77.7346 78.4006 77.4379 78.6729 77.2255C78.9478 77.0104 79.2473 76.8607 79.5713 76.7763C79.898 76.6892 80.2193 76.6456 80.5351 76.6456C80.7365 76.6456 80.968 76.6701 81.2293 76.7191C81.4934 76.7654 81.748 76.862 81.993 77.0091C82.2408 77.1561 82.4463 77.378 82.6097 77.6747C82.773 77.9715 82.8547 78.369 82.8547 78.8672V83H81.8909V82.1506H81.8419C81.7766 82.2867 81.6677 82.4324 81.5152 82.5875C81.3627 82.7427 81.1599 82.8748 80.9067 82.9837C80.6535 83.0926 80.3445 83.147 79.9797 83.147ZM80.1267 82.2812C80.5079 82.2812 80.8291 82.2064 81.0905 82.0566C81.3546 81.9069 81.5533 81.7136 81.6867 81.4767C81.8228 81.2399 81.8909 80.9908 81.8909 80.7294V79.8473C81.8501 79.8963 81.7602 79.9412 81.6214 79.9821C81.4852 80.0202 81.3273 80.0542 81.1477 80.0842C80.9707 80.1114 80.7978 80.1359 80.629 80.1577C80.4629 80.1767 80.3282 80.1931 80.2247 80.2067C79.9742 80.2393 79.7401 80.2924 79.5223 80.3659C79.3072 80.4367 79.133 80.5443 78.9996 80.6886C78.8689 80.8301 78.8035 81.0234 78.8035 81.2685C78.8035 81.6033 78.9274 81.8565 79.1752 82.0281C79.4256 82.1969 79.7428 82.2812 80.1267 82.2812ZM88.942 78.1321L88.0762 78.3771C88.0217 78.2328 87.9414 78.0926 87.8353 77.9565C87.7318 77.8176 87.5902 77.7033 87.4105 77.6135C87.2308 77.5236 87.0008 77.4787 86.7204 77.4787C86.3365 77.4787 86.0166 77.5672 85.7607 77.7441C85.5075 77.9184 85.3809 78.1403 85.3809 78.4098C85.3809 78.6494 85.468 78.8386 85.6422 78.9775C85.8165 79.1163 86.0887 79.232 86.459 79.3246L87.3901 79.5533C87.951 79.6894 88.3689 79.8977 88.6438 80.1781C88.9188 80.4558 89.0563 80.8138 89.0563 81.2521C89.0563 81.6115 88.9529 81.9328 88.7459 82.2159C88.5418 82.4991 88.2559 82.7223 87.8883 82.8857C87.5208 83.049 87.0934 83.1307 86.606 83.1307C85.9662 83.1307 85.4367 82.9918 85.0174 82.7141C84.5982 82.4364 84.3327 82.0308 84.2211 81.4972L85.1359 81.2685C85.223 81.6061 85.3877 81.8593 85.63 82.0281C85.875 82.1969 86.1949 82.2812 86.5897 82.2812C87.0389 82.2812 87.3956 82.186 87.6596 81.9954C87.9265 81.8021 88.0599 81.5707 88.0599 81.3011C88.0599 81.0833 87.9836 80.9009 87.8312 80.7539C87.6787 80.6042 87.4446 80.4925 87.1288 80.419L86.0833 80.174C85.5088 80.0379 85.0869 79.8269 84.8173 79.541C84.5505 79.2524 84.4171 78.8917 84.4171 78.4588C84.4171 78.1049 84.5165 77.7918 84.7152 77.5195C84.9167 77.2473 85.1903 77.0336 85.5361 76.8784C85.8846 76.7232 86.2793 76.6456 86.7204 76.6456C87.3411 76.6456 87.8284 76.7817 88.1824 77.054C88.539 77.3262 88.7922 77.6856 88.942 78.1321ZM92.9404 83.1307C92.3523 83.1307 91.8459 82.9918 91.4212 82.7141C90.9965 82.4364 90.6698 82.0539 90.4411 81.5666C90.2124 81.0792 90.098 80.5225 90.098 79.8963C90.098 79.2592 90.2151 78.697 90.4493 78.2097C90.6861 77.7196 91.0155 77.3371 91.4375 77.0621C91.8623 76.7844 92.3578 76.6456 92.924 76.6456C93.3651 76.6456 93.7626 76.7273 94.1165 76.8906C94.4704 77.054 94.7604 77.2827 94.9864 77.5767C95.2123 77.8707 95.3525 78.2138 95.407 78.6058H94.4432C94.3697 78.32 94.2064 78.0668 93.9532 77.8462C93.7027 77.623 93.3651 77.5114 92.9404 77.5114C92.5647 77.5114 92.2352 77.6094 91.9521 77.8054C91.6717 77.9987 91.4525 78.2723 91.2946 78.6262C91.1394 78.9775 91.0618 79.3899 91.0618 79.8636C91.0618 80.3482 91.1381 80.7702 91.2905 81.1296C91.4457 81.489 91.6635 81.7681 91.9439 81.9668C92.2271 82.1655 92.5592 82.2649 92.9404 82.2649C93.1909 82.2649 93.4182 82.2214 93.6224 82.1342C93.8266 82.0471 93.9994 81.9219 94.141 81.7585C94.2826 81.5952 94.3833 81.3991 94.4432 81.1705H95.407C95.3525 81.5407 95.2178 81.8742 95.0027 82.171C94.7903 82.465 94.5086 82.6992 94.1574 82.8734C93.8089 83.0449 93.4032 83.1307 92.9404 83.1307ZM98.5468 83.147C98.1493 83.147 97.7886 83.0721 97.4646 82.9224C97.1406 82.7699 96.8833 82.5508 96.6927 82.2649C96.5022 81.9763 96.4069 81.6278 96.4069 81.2195C96.4069 80.8601 96.4777 80.5688 96.6192 80.3455C96.7608 80.1196 96.95 79.9426 97.1869 79.8146C97.4237 79.6867 97.6851 79.5914 97.971 79.5288C98.2596 79.4634 98.5495 79.4117 98.8408 79.3736C99.222 79.3246 99.531 79.2878 99.7679 79.2633C100.007 79.2361 100.182 79.1912 100.291 79.1286C100.402 79.0659 100.458 78.957 100.458 78.8018V78.7692C100.458 78.3662 100.348 78.0531 100.127 77.8299C99.9094 77.6067 99.5786 77.495 99.1349 77.495C98.6748 77.495 98.314 77.5958 98.0527 77.7972C97.7913 77.9987 97.6075 78.2138 97.5013 78.4425L96.5866 78.1158C96.7499 77.7346 96.9677 77.4379 97.24 77.2255C97.515 77.0104 97.8144 76.8607 98.1384 76.7763C98.4651 76.6892 98.7864 76.6456 99.1022 76.6456C99.3037 76.6456 99.5351 76.6701 99.7964 76.7191C100.061 76.7654 100.315 76.862 100.56 77.0091C100.808 77.1561 101.013 77.378 101.177 77.6747C101.34 77.9715 101.422 78.369 101.422 78.8672V83H100.458V82.1506H100.409C100.344 82.2867 100.235 82.4324 100.082 82.5875C99.9298 82.7427 99.727 82.8748 99.4738 82.9837C99.2206 83.0926 98.9116 83.147 98.5468 83.147ZM98.6938 82.2812C99.075 82.2812 99.3962 82.2064 99.6576 82.0566C99.9217 81.9069 100.12 81.7136 100.254 81.4767C100.39 81.2399 100.458 80.9908 100.458 80.7294V79.8473C100.417 79.8963 100.327 79.9412 100.188 79.9821C100.052 80.0202 99.8944 80.0542 99.7148 80.0842C99.5378 80.1114 99.3649 80.1359 99.1961 80.1577C99.03 80.1767 98.8953 80.1931 98.7918 80.2067C98.5413 80.2393 98.3072 80.2924 98.0894 80.3659C97.8743 80.4367 97.7001 80.5443 97.5667 80.6886C97.436 80.8301 97.3707 81.0234 97.3707 81.2685C97.3707 81.6033 97.4945 81.8565 97.7423 82.0281C97.9928 82.1969 98.3099 82.2812 98.6938 82.2812ZM105.434 83.1307C104.912 83.1307 104.45 82.9986 104.05 82.7346C103.65 82.4677 103.337 82.092 103.111 81.6074C102.885 81.1201 102.772 80.5443 102.772 79.88C102.772 79.2211 102.885 78.6494 103.111 78.1648C103.337 77.6802 103.651 77.3058 104.054 77.0417C104.457 76.7776 104.923 76.6456 105.451 76.6456C105.859 76.6456 106.182 76.7137 106.419 76.8498C106.658 76.9832 106.841 77.1357 106.966 77.3072C107.094 77.476 107.193 77.6148 107.264 77.7237H107.346V74.6364H108.309V83H107.378V82.0362H107.264C107.193 82.1506 107.093 82.2949 106.962 82.4691C106.831 82.6406 106.645 82.7944 106.402 82.9306C106.16 83.064 105.837 83.1307 105.434 83.1307ZM105.565 82.2649C105.952 82.2649 106.278 82.1642 106.545 81.9627C106.812 81.7585 107.015 81.4767 107.154 81.1174C107.293 80.7553 107.362 80.3374 107.362 79.8636C107.362 79.3954 107.294 78.9856 107.158 78.6344C107.022 78.2805 106.82 78.0055 106.553 77.8095C106.287 77.6107 105.957 77.5114 105.565 77.5114C105.157 77.5114 104.816 77.6162 104.544 77.8258C104.275 78.0327 104.072 78.3145 103.936 78.6712C103.802 79.0251 103.736 79.4226 103.736 79.8636C103.736 80.3101 103.804 80.7158 103.94 81.0806C104.079 81.4427 104.283 81.7313 104.552 81.9464C104.825 82.1587 105.162 82.2649 105.565 82.2649ZM110.093 83V76.7273H111.057V83H110.093ZM110.584 75.6818C110.396 75.6818 110.234 75.6178 110.098 75.4899C109.964 75.3619 109.897 75.2081 109.897 75.0284C109.897 74.8487 109.964 74.6949 110.098 74.5669C110.234 74.439 110.396 74.375 110.584 74.375C110.771 74.375 110.932 74.439 111.065 74.5669C111.202 74.6949 111.27 74.8487 111.27 75.0284C111.27 75.2081 111.202 75.3619 111.065 75.4899C110.932 75.6178 110.771 75.6818 110.584 75.6818ZM113.671 79.2266V83H112.707V76.7273H113.639V77.7074H113.72C113.867 77.3888 114.091 77.1329 114.39 76.9396C114.689 76.7436 115.076 76.6456 115.55 76.6456C115.975 76.6456 116.346 76.7327 116.665 76.907C116.983 77.0785 117.231 77.3398 117.408 77.6911C117.585 78.0395 117.673 78.4806 117.673 79.0142V83H116.71V79.0795C116.71 78.5868 116.582 78.2029 116.326 77.9279C116.07 77.6502 115.719 77.5114 115.272 77.5114C114.964 77.5114 114.689 77.5781 114.447 77.7115C114.208 77.8449 114.018 78.0395 113.88 78.2955C113.741 78.5514 113.671 78.8617 113.671 79.2266ZM121.851 85.483C121.386 85.483 120.986 85.4231 120.651 85.3033C120.316 85.1862 120.037 85.031 119.814 84.8377C119.593 84.6471 119.418 84.4429 119.287 84.2251L120.055 83.6861C120.142 83.8004 120.252 83.9311 120.385 84.0781C120.519 84.2279 120.701 84.3572 120.933 84.4661C121.167 84.5777 121.473 84.6335 121.851 84.6335C122.358 84.6335 122.776 84.511 123.105 84.266C123.435 84.021 123.599 83.6371 123.599 83.1143V81.8402H123.518C123.447 81.9545 123.346 82.0961 123.215 82.2649C123.088 82.431 122.902 82.5794 122.66 82.71C122.42 82.838 122.097 82.902 121.688 82.902C121.182 82.902 120.727 82.7822 120.324 82.5426C119.924 82.303 119.607 81.9545 119.373 81.4972C119.141 81.0398 119.025 80.4844 119.025 79.831C119.025 79.1884 119.138 78.629 119.364 78.1525C119.59 77.6734 119.905 77.3031 120.308 77.0417C120.711 76.7776 121.176 76.6456 121.704 76.6456C122.113 76.6456 122.437 76.7137 122.676 76.8498C122.919 76.9832 123.104 77.1357 123.232 77.3072C123.362 77.476 123.463 77.6148 123.534 77.7237H123.632V76.7273H124.563V83.1797C124.563 83.7188 124.441 84.1571 124.196 84.4947C123.953 84.835 123.627 85.0841 123.215 85.242C122.807 85.4026 122.352 85.483 121.851 85.483ZM121.819 82.0362C122.205 82.0362 122.532 81.9477 122.799 81.7708C123.066 81.5938 123.269 81.3393 123.407 81.0071C123.546 80.675 123.616 80.2775 123.616 79.8146C123.616 79.3627 123.548 78.9638 123.412 78.6181C123.275 78.2723 123.074 78.0014 122.807 77.8054C122.54 77.6094 122.211 77.5114 121.819 77.5114C121.41 77.5114 121.07 77.6148 120.798 77.8217C120.528 78.0286 120.326 78.3063 120.189 78.6548C120.056 79.0033 119.989 79.3899 119.989 79.8146C119.989 80.2502 120.057 80.6355 120.193 80.9703C120.332 81.3025 120.537 81.5639 120.806 81.7544C121.078 81.9423 121.416 82.0362 121.819 82.0362ZM134.036 76.7273C133.987 76.3134 133.789 75.9922 133.44 75.7635C133.092 75.5348 132.664 75.4205 132.158 75.4205C131.787 75.4205 131.463 75.4804 131.186 75.6001C130.911 75.7199 130.696 75.8846 130.541 76.0943C130.388 76.3039 130.312 76.5421 130.312 76.8089C130.312 77.0322 130.365 77.2241 130.471 77.3848C130.58 77.5427 130.719 77.6747 130.888 77.7809C131.056 77.8844 131.233 77.9701 131.419 78.0382C131.604 78.1035 131.774 78.1566 131.929 78.1974L132.778 78.4261C132.996 78.4833 133.239 78.5623 133.505 78.663C133.775 78.7637 134.032 78.9012 134.277 79.0755C134.525 79.247 134.729 79.4675 134.89 79.737C135.05 80.0066 135.131 80.3374 135.131 80.7294C135.131 81.1813 135.012 81.5897 134.775 81.9545C134.541 82.3194 134.198 82.6093 133.746 82.8244C133.297 83.0395 132.751 83.147 132.109 83.147C131.51 83.147 130.991 83.0504 130.553 82.8571C130.117 82.6638 129.774 82.3942 129.524 82.0485C129.276 81.7027 129.136 81.3011 129.103 80.8438H130.148C130.176 81.1596 130.282 81.4209 130.467 81.6278C130.655 81.832 130.892 81.9845 131.178 82.0852C131.466 82.1832 131.777 82.2322 132.109 82.2322C132.495 82.2322 132.842 82.1696 133.15 82.0444C133.458 81.9164 133.701 81.7395 133.881 81.5135C134.061 81.2848 134.151 81.018 134.151 80.7131C134.151 80.4354 134.073 80.2094 133.918 80.0352C133.763 79.8609 133.558 79.7193 133.305 79.6104C133.052 79.5015 132.778 79.4062 132.484 79.3246L131.455 79.0305C130.802 78.8427 130.285 78.5745 129.903 78.226C129.522 77.8775 129.332 77.4215 129.332 76.858C129.332 76.3897 129.458 75.9813 129.712 75.6328C129.967 75.2816 130.31 75.0094 130.741 74.8161C131.174 74.62 131.657 74.522 132.19 74.522C132.729 74.522 133.209 74.6187 133.628 74.812C134.047 75.0025 134.379 75.2639 134.624 75.5961C134.872 75.9282 135.003 76.3053 135.016 76.7273H134.036ZM139.278 76.7273V77.544H136.027V76.7273H139.278ZM136.975 75.2244H137.939V81.2031C137.939 81.4754 137.978 81.6796 138.057 81.8157C138.139 81.9491 138.242 82.0389 138.368 82.0852C138.495 82.1288 138.63 82.1506 138.772 82.1506C138.878 82.1506 138.965 82.1451 139.033 82.1342C139.101 82.1206 139.156 82.1097 139.197 82.1016L139.393 82.9673C139.327 82.9918 139.236 83.0163 139.119 83.0408C139.002 83.0681 138.853 83.0817 138.674 83.0817C138.402 83.0817 138.135 83.0231 137.873 82.9061C137.615 82.789 137.4 82.6107 137.228 82.3711C137.059 82.1315 136.975 81.8293 136.975 81.4645V75.2244ZM141.234 85.3523C141.07 85.3523 140.925 85.3387 140.797 85.3114C140.669 85.2869 140.58 85.2624 140.531 85.2379L140.776 84.3885C141.01 84.4484 141.217 84.4702 141.397 84.4538C141.577 84.4375 141.736 84.3572 141.875 84.2129C142.016 84.0713 142.146 83.8413 142.263 83.5227L142.442 83.0327L140.123 76.7273H141.168L142.9 81.7259H142.965L144.697 76.7273H145.742L143.08 83.9148C142.96 84.2388 142.811 84.5069 142.634 84.7193C142.457 84.9344 142.252 85.0936 142.018 85.1971C141.786 85.3005 141.525 85.3523 141.234 85.3523ZM147.863 74.6364V83H146.899V74.6364H147.863ZM152.143 83.1307C151.539 83.1307 151.018 82.9973 150.579 82.7305C150.144 82.4609 149.807 82.0852 149.57 81.6033C149.336 81.1187 149.219 80.5552 149.219 79.9126C149.219 79.2701 149.336 78.7038 149.57 78.2138C149.807 77.721 150.137 77.3371 150.559 77.0621C150.983 76.7844 151.479 76.6456 152.045 76.6456C152.372 76.6456 152.695 76.7 153.013 76.8089C153.332 76.9179 153.622 77.0948 153.883 77.3398C154.144 77.5821 154.353 77.9034 154.508 78.3036C154.663 78.7038 154.741 79.1966 154.741 79.782V80.1903H149.905V79.3572H153.76C153.76 79.0033 153.69 78.6875 153.548 78.4098C153.409 78.1321 153.211 77.9129 152.952 77.7523C152.696 77.5917 152.394 77.5114 152.045 77.5114C151.661 77.5114 151.329 77.6067 151.049 77.7972C150.771 77.9851 150.557 78.2301 150.408 78.5323C150.258 78.8345 150.183 79.1585 150.183 79.5043V80.0597C150.183 80.5334 150.265 80.935 150.428 81.2644C150.594 81.5911 150.824 81.8402 151.118 82.0117C151.412 82.1805 151.754 82.2649 152.143 82.2649C152.396 82.2649 152.625 82.2295 152.829 82.1587C153.036 82.0852 153.215 81.9763 153.364 81.832C153.514 81.685 153.63 81.5026 153.711 81.2848L154.643 81.5462C154.545 81.862 154.38 82.1397 154.148 82.3793C153.917 82.6161 153.631 82.8013 153.291 82.9347C152.951 83.0653 152.568 83.1307 152.143 83.1307ZM160.535 78.1321L159.669 78.3771C159.615 78.2328 159.534 78.0926 159.428 77.9565C159.325 77.8176 159.183 77.7033 159.003 77.6135C158.824 77.5236 158.594 77.4787 158.313 77.4787C157.929 77.4787 157.609 77.5672 157.354 77.7441C157.1 77.9184 156.974 78.1403 156.974 78.4098C156.974 78.6494 157.061 78.8386 157.235 78.9775C157.409 79.1163 157.682 79.232 158.052 79.3246L158.983 79.5533C159.544 79.6894 159.962 79.8977 160.237 80.1781C160.512 80.4558 160.649 80.8138 160.649 81.2521C160.649 81.6115 160.546 81.9328 160.339 82.2159C160.135 82.4991 159.849 82.7223 159.481 82.8857C159.114 83.049 158.686 83.1307 158.199 83.1307C157.559 83.1307 157.03 82.9918 156.61 82.7141C156.191 82.4364 155.926 82.0308 155.814 81.4972L156.729 81.2685C156.816 81.6061 156.981 81.8593 157.223 82.0281C157.468 82.1969 157.788 82.2812 158.183 82.2812C158.632 82.2812 158.988 82.186 159.253 81.9954C159.519 81.8021 159.653 81.5707 159.653 81.3011C159.653 81.0833 159.577 80.9009 159.424 80.7539C159.272 80.6042 159.037 80.4925 158.722 80.419L157.676 80.174C157.102 80.0379 156.68 79.8269 156.41 79.541C156.143 79.2524 156.01 78.8917 156.01 78.4588C156.01 78.1049 156.109 77.7918 156.308 77.5195C156.51 77.2473 156.783 77.0336 157.129 76.8784C157.477 76.7232 157.872 76.6456 158.313 76.6456C158.934 76.6456 159.421 76.7817 159.775 77.054C160.132 77.3262 160.385 77.6856 160.535 78.1321ZM162.949 79.2266V83H161.985V74.6364H162.949V77.7074H163.03C163.177 77.3834 163.398 77.1261 163.692 76.9355C163.989 76.7422 164.384 76.6456 164.876 76.6456C165.304 76.6456 165.678 76.7314 165.999 76.9029C166.321 77.0717 166.57 77.3317 166.747 77.6829C166.926 78.0314 167.016 78.4751 167.016 79.0142V83H166.052V79.0795C166.052 78.5813 165.923 78.1961 165.664 77.9238C165.409 77.6489 165.053 77.5114 164.599 77.5114C164.283 77.5114 164 77.5781 163.749 77.7115C163.501 77.8449 163.305 78.0395 163.161 78.2955C163.02 78.5514 162.949 78.8617 162.949 79.2266ZM171.294 83.1307C170.69 83.1307 170.169 82.9973 169.73 82.7305C169.295 82.4609 168.958 82.0852 168.722 81.6033C168.487 81.1187 168.37 80.5552 168.37 79.9126C168.37 79.2701 168.487 78.7038 168.722 78.2138C168.958 77.721 169.288 77.3371 169.71 77.0621C170.135 76.7844 170.63 76.6456 171.196 76.6456C171.523 76.6456 171.846 76.7 172.164 76.8089C172.483 76.9179 172.773 77.0948 173.034 77.3398C173.295 77.5821 173.504 77.9034 173.659 78.3036C173.814 78.7038 173.892 79.1966 173.892 79.782V80.1903H169.056V79.3572H172.912C172.912 79.0033 172.841 78.6875 172.699 78.4098C172.56 78.1321 172.362 77.9129 172.103 77.7523C171.847 77.5917 171.545 77.5114 171.196 77.5114C170.812 77.5114 170.48 77.6067 170.2 77.7972C169.922 77.9851 169.708 78.2301 169.559 78.5323C169.409 78.8345 169.334 79.1585 169.334 79.5043V80.0597C169.334 80.5334 169.416 80.935 169.579 81.2644C169.745 81.5911 169.975 81.8402 170.269 82.0117C170.563 82.1805 170.905 82.2649 171.294 82.2649C171.548 82.2649 171.776 82.2295 171.98 82.1587C172.187 82.0852 172.366 81.9763 172.515 81.832C172.665 81.685 172.781 81.5026 172.863 81.2848L173.794 81.5462C173.696 81.862 173.531 82.1397 173.3 82.3793C173.068 82.6161 172.782 82.8013 172.442 82.9347C172.102 83.0653 171.719 83.1307 171.294 83.1307ZM177.873 83.1307C177.268 83.1307 176.747 82.9973 176.309 82.7305C175.873 82.4609 175.537 82.0852 175.3 81.6033C175.066 81.1187 174.949 80.5552 174.949 79.9126C174.949 79.2701 175.066 78.7038 175.3 78.2138C175.537 77.721 175.866 77.3371 176.288 77.0621C176.713 76.7844 177.208 76.6456 177.775 76.6456C178.101 76.6456 178.424 76.7 178.743 76.8089C179.061 76.9179 179.351 77.0948 179.612 77.3398C179.874 77.5821 180.082 77.9034 180.237 78.3036C180.392 78.7038 180.47 79.1966 180.47 79.782V80.1903H175.635V79.3572H179.49C179.49 79.0033 179.419 78.6875 179.278 78.4098C179.139 78.1321 178.94 77.9129 178.681 77.7523C178.425 77.5917 178.123 77.5114 177.775 77.5114C177.391 77.5114 177.059 77.6067 176.778 77.7972C176.501 77.9851 176.287 78.2301 176.137 78.5323C175.987 78.8345 175.913 79.1585 175.913 79.5043V80.0597C175.913 80.5334 175.994 80.935 176.158 81.2644C176.324 81.5911 176.554 81.8402 176.848 82.0117C177.142 82.1805 177.483 82.2649 177.873 82.2649C178.126 82.2649 178.355 82.2295 178.559 82.1587C178.766 82.0852 178.944 81.9763 179.094 81.832C179.244 81.685 179.359 81.5026 179.441 81.2848L180.372 81.5462C180.274 81.862 180.109 82.1397 179.878 82.3793C179.646 82.6161 179.361 82.8013 179.02 82.9347C178.68 83.0653 178.297 83.1307 177.873 83.1307ZM184.549 76.7273V77.544H181.298V76.7273H184.549ZM182.246 75.2244H183.21V81.2031C183.21 81.4754 183.249 81.6796 183.328 81.8157C183.41 81.9491 183.513 82.0389 183.638 82.0852C183.766 82.1288 183.901 82.1506 184.043 82.1506C184.149 82.1506 184.236 82.1451 184.304 82.1342C184.372 82.1206 184.427 82.1097 184.467 82.1016L184.663 82.9673C184.598 82.9918 184.507 83.0163 184.39 83.0408C184.273 83.0681 184.124 83.0817 183.945 83.0817C183.672 83.0817 183.406 83.0231 183.144 82.9061C182.886 82.789 182.671 82.6107 182.499 82.3711C182.33 82.1315 182.246 81.8293 182.246 81.4645V75.2244Z" fill="#171717"/>
<path d="M57.4833 98.9091H59.1168V105.301C59.1139 105.887 58.9896 106.392 58.744 106.815C58.4983 107.235 58.1551 107.559 57.7141 107.787C57.2762 108.012 56.7657 108.124 56.1827 108.124C55.65 108.124 55.1706 108.03 54.7445 107.84C54.3213 107.648 53.9854 107.364 53.7369 106.988C53.4883 106.612 53.364 106.145 53.364 105.585H55.002C55.0049 105.831 55.0582 106.042 55.1618 106.22C55.2683 106.398 55.4148 106.534 55.6012 106.628C55.7876 106.723 56.0022 106.77 56.2449 106.77C56.5082 106.77 56.7317 106.716 56.9151 106.606C57.0986 106.494 57.2377 106.328 57.3324 106.109C57.43 105.89 57.4804 105.621 57.4833 105.301V98.9091ZM65.844 101.408C65.8026 101.021 65.628 100.719 65.3202 100.503C65.0154 100.287 64.6189 100.179 64.1306 100.179C63.7873 100.179 63.4929 100.23 63.2472 100.334C63.0016 100.438 62.8137 100.578 62.6835 100.756C62.5533 100.933 62.4867 101.136 62.4838 101.364C62.4838 101.553 62.5267 101.717 62.6125 101.857C62.7013 101.996 62.8211 102.114 62.972 102.212C63.123 102.306 63.2902 102.386 63.4736 102.451C63.6571 102.516 63.8421 102.571 64.0285 102.616L64.8808 102.829C65.224 102.909 65.554 103.017 65.8706 103.153C66.1903 103.289 66.4758 103.46 66.7274 103.668C66.9819 103.875 67.1831 104.125 67.3311 104.418C67.479 104.711 67.553 105.054 67.553 105.448C67.553 105.98 67.4169 106.449 67.1446 106.855C66.8724 107.257 66.4788 107.572 65.9639 107.8C65.4519 108.025 64.8319 108.138 64.104 108.138C63.3967 108.138 62.7826 108.028 62.2618 107.809C61.7439 107.59 61.3385 107.271 61.0455 106.85C60.7555 106.43 60.5987 105.918 60.575 105.314H62.1952C62.2189 105.631 62.3166 105.894 62.4882 106.105C62.6598 106.315 62.8833 106.472 63.1585 106.575C63.4366 106.679 63.7474 106.73 64.0906 106.73C64.4487 106.73 64.7624 106.677 65.0317 106.571C65.3039 106.461 65.517 106.31 65.6709 106.118C65.8248 105.923 65.9032 105.695 65.9062 105.434C65.9032 105.198 65.8337 105.002 65.6975 104.848C65.5614 104.692 65.3705 104.561 65.1249 104.458C64.8823 104.351 64.5982 104.257 64.2726 104.174L63.2384 103.907C62.4897 103.715 61.8978 103.423 61.4628 103.033C61.0307 102.639 60.8147 102.117 60.8147 101.466C60.8147 100.93 60.9597 100.461 61.2497 100.059C61.5427 99.6563 61.9407 99.3441 62.4438 99.1222C62.9469 98.8973 63.5165 98.7848 64.1528 98.7848C64.7979 98.7848 65.3631 98.8973 65.8485 99.1222C66.3367 99.3441 66.72 99.6533 66.9981 100.05C67.2763 100.443 67.4198 100.896 67.4287 101.408H65.844Z" fill="#171717"/>
<path d="M73.2145 114.636H74.2273V120.615C74.2273 121.149 74.1293 121.602 73.9332 121.975C73.7372 122.348 73.4609 122.631 73.1042 122.824C72.7476 123.018 72.3269 123.114 71.8423 123.114C71.3849 123.114 70.9779 123.031 70.6213 122.865C70.2646 122.696 69.9842 122.457 69.78 122.146C69.5758 121.836 69.4737 121.467 69.4737 121.04H70.4702C70.4702 121.277 70.5287 121.484 70.6458 121.661C70.7656 121.835 70.9289 121.971 71.1358 122.069C71.3427 122.167 71.5782 122.216 71.8423 122.216C72.1336 122.216 72.3814 122.155 72.5856 122.032C72.7898 121.91 72.945 121.73 73.0511 121.493C73.16 121.253 73.2145 120.961 73.2145 120.615V114.636ZM77.8571 123.147C77.4596 123.147 77.0989 123.072 76.7749 122.922C76.4509 122.77 76.1937 122.551 76.0031 122.265C75.8125 121.976 75.7172 121.628 75.7172 121.219C75.7172 120.86 75.788 120.569 75.9296 120.346C76.0711 120.12 76.2604 119.943 76.4972 119.815C76.7341 119.687 76.9954 119.591 77.2813 119.529C77.5699 119.463 77.8598 119.412 78.1512 119.374C78.5323 119.325 78.8413 119.288 79.0782 119.263C79.3178 119.236 79.492 119.191 79.6009 119.129C79.7125 119.066 79.7683 118.957 79.7683 118.802V118.769C79.7683 118.366 79.6581 118.053 79.4376 117.83C79.2198 117.607 78.889 117.495 78.4452 117.495C77.9851 117.495 77.6243 117.596 77.363 117.797C77.1016 117.999 76.9178 118.214 76.8117 118.442L75.8969 118.116C76.0602 117.735 76.2781 117.438 76.5503 117.225C76.8253 117.01 77.1248 116.861 77.4487 116.776C77.7754 116.689 78.0967 116.646 78.4125 116.646C78.614 116.646 78.8454 116.67 79.1068 116.719C79.3709 116.765 79.6254 116.862 79.8704 117.009C80.1182 117.156 80.3237 117.378 80.4871 117.675C80.6504 117.971 80.7321 118.369 80.7321 118.867V123H79.7683V122.151H79.7193C79.654 122.287 79.5451 122.432 79.3926 122.588C79.2402 122.743 79.0373 122.875 78.7841 122.984C78.531 123.093 78.2219 123.147 77.8571 123.147ZM78.0041 122.281C78.3853 122.281 78.7066 122.206 78.9679 122.057C79.232 121.907 79.4308 121.714 79.5642 121.477C79.7003 121.24 79.7683 120.991 79.7683 120.729V119.847C79.7275 119.896 79.6377 119.941 79.4988 119.982C79.3627 120.02 79.2048 120.054 79.0251 120.084C78.8481 120.111 78.6752 120.136 78.5064 120.158C78.3404 120.177 78.2056 120.193 78.1022 120.207C77.8517 120.239 77.6175 120.292 77.3997 120.366C77.1847 120.437 77.0104 120.544 76.877 120.689C76.7463 120.83 76.681 121.023 76.681 121.268C76.681 121.603 76.8049 121.857 77.0526 122.028C77.3031 122.197 77.6203 122.281 78.0041 122.281ZM87.2809 116.727L84.9613 123H83.9812L81.6616 116.727H82.707L84.4385 121.726H84.5039L86.2354 116.727H87.2809ZM90.0929 123.147C89.6955 123.147 89.3347 123.072 89.0107 122.922C88.6868 122.77 88.4295 122.551 88.2389 122.265C88.0483 121.976 87.953 121.628 87.953 121.219C87.953 120.86 88.0238 120.569 88.1654 120.346C88.307 120.12 88.4962 119.943 88.733 119.815C88.9699 119.687 89.2313 119.591 89.5171 119.529C89.8057 119.463 90.0957 119.412 90.387 119.374C90.7681 119.325 91.0771 119.288 91.314 119.263C91.5536 119.236 91.7278 119.191 91.8367 119.129C91.9484 119.066 92.0042 118.957 92.0042 118.802V118.769C92.0042 118.366 91.8939 118.053 91.6734 117.83C91.4556 117.607 91.1248 117.495 90.681 117.495C90.2209 117.495 89.8602 117.596 89.5988 117.797C89.3374 117.999 89.1537 118.214 89.0475 118.442L88.1327 118.116C88.2961 117.735 88.5139 117.438 88.7861 117.225C89.0611 117.01 89.3606 116.861 89.6846 116.776C90.0113 116.689 90.3325 116.646 90.6483 116.646C90.8498 116.646 91.0812 116.67 91.3426 116.719C91.6067 116.765 91.8612 116.862 92.1063 117.009C92.354 117.156 92.5596 117.378 92.7229 117.675C92.8863 117.971 92.9679 118.369 92.9679 118.867V123H92.0042V122.151H91.9552C91.8898 122.287 91.7809 122.432 91.6285 122.588C91.476 122.743 91.2732 122.875 91.02 122.984C90.7668 123.093 90.4578 123.147 90.0929 123.147ZM90.24 122.281C90.6211 122.281 90.9424 122.206 91.2037 122.057C91.4678 121.907 91.6666 121.714 91.8 121.477C91.9361 121.24 92.0042 120.991 92.0042 120.729V119.847C91.9633 119.896 91.8735 119.941 91.7346 119.982C91.5985 120.02 91.4406 120.054 91.2609 120.084C91.0839 120.111 90.9111 120.136 90.7423 120.158C90.5762 120.177 90.4414 120.193 90.338 120.207C90.0875 120.239 89.8534 120.292 89.6356 120.366C89.4205 120.437 89.2462 120.544 89.1128 120.689C88.9821 120.83 88.9168 121.023 88.9168 121.268C88.9168 121.603 89.0407 121.857 89.2884 122.028C89.5389 122.197 89.8561 122.281 90.24 122.281ZM99.3166 116.727C99.2676 116.313 99.0688 115.992 98.7204 115.763C98.3719 115.535 97.9444 115.42 97.438 115.42C97.0678 115.42 96.7438 115.48 96.4661 115.6C96.1911 115.72 95.976 115.885 95.8209 116.094C95.6684 116.304 95.5922 116.542 95.5922 116.809C95.5922 117.032 95.6452 117.224 95.7514 117.385C95.8603 117.543 95.9992 117.675 96.168 117.781C96.3368 117.884 96.5137 117.97 96.6989 118.038C96.884 118.104 97.0542 118.157 97.2093 118.197L98.0588 118.426C98.2766 118.483 98.5189 118.562 98.7857 118.663C99.0552 118.764 99.3125 118.901 99.5575 119.075C99.8053 119.247 100.009 119.468 100.17 119.737C100.331 120.007 100.411 120.337 100.411 120.729C100.411 121.181 100.293 121.59 100.056 121.955C99.8216 122.319 99.4786 122.609 99.0266 122.824C98.5774 123.039 98.0316 123.147 97.389 123.147C96.7901 123.147 96.2714 123.05 95.8331 122.857C95.3975 122.664 95.0545 122.394 94.804 122.048C94.5562 121.703 94.416 121.301 94.3834 120.844H95.4288C95.456 121.16 95.5622 121.421 95.7473 121.628C95.9352 121.832 96.1721 121.984 96.4579 122.085C96.7465 122.183 97.0569 122.232 97.389 122.232C97.7756 122.232 98.1228 122.17 98.4304 122.044C98.7381 121.916 98.9817 121.739 99.1614 121.513C99.3411 121.285 99.4309 121.018 99.4309 120.713C99.4309 120.435 99.3533 120.209 99.1982 120.035C99.043 119.861 98.8388 119.719 98.5856 119.61C98.3324 119.502 98.0588 119.406 97.7647 119.325L96.7356 119.031C96.0822 118.843 95.5649 118.575 95.1838 118.226C94.8026 117.878 94.612 117.422 94.612 116.858C94.612 116.39 94.7386 115.981 94.9918 115.633C95.2478 115.282 95.5908 115.009 96.021 114.816C96.4538 114.62 96.9371 114.522 97.4707 114.522C98.0098 114.522 98.4889 114.619 98.9082 114.812C99.3275 115.003 99.6596 115.264 99.9047 115.596C100.152 115.928 100.283 116.305 100.297 116.727H99.3166ZM104.379 123.131C103.791 123.131 103.284 122.992 102.86 122.714C102.435 122.436 102.108 122.054 101.88 121.567C101.651 121.079 101.537 120.522 101.537 119.896C101.537 119.259 101.654 118.697 101.888 118.21C102.125 117.72 102.454 117.337 102.876 117.062C103.301 116.784 103.796 116.646 104.362 116.646C104.804 116.646 105.201 116.727 105.555 116.891C105.909 117.054 106.199 117.283 106.425 117.577C106.651 117.871 106.791 118.214 106.845 118.606H105.882C105.808 118.32 105.645 118.067 105.392 117.846C105.141 117.623 104.804 117.511 104.379 117.511C104.003 117.511 103.674 117.609 103.391 117.805C103.11 117.999 102.891 118.272 102.733 118.626C102.578 118.977 102.5 119.39 102.5 119.864C102.5 120.348 102.577 120.77 102.729 121.13C102.884 121.489 103.102 121.768 103.382 121.967C103.666 122.166 103.998 122.265 104.379 122.265C104.629 122.265 104.857 122.221 105.061 122.134C105.265 122.047 105.438 121.922 105.579 121.759C105.721 121.595 105.822 121.399 105.882 121.17H106.845C106.791 121.541 106.656 121.874 106.441 122.171C106.229 122.465 105.947 122.699 105.596 122.873C105.247 123.045 104.842 123.131 104.379 123.131ZM108.139 123V116.727H109.07V117.675H109.136C109.25 117.364 109.457 117.113 109.757 116.919C110.056 116.726 110.394 116.629 110.769 116.629C110.84 116.629 110.929 116.631 111.035 116.633C111.141 116.636 111.221 116.64 111.276 116.646V117.626C111.243 117.618 111.168 117.605 111.051 117.589C110.937 117.57 110.816 117.56 110.688 117.56C110.383 117.56 110.11 117.624 109.871 117.752C109.634 117.878 109.446 118.052 109.307 118.275C109.171 118.496 109.103 118.747 109.103 119.031V123H108.139ZM112.303 123V116.727H113.267V123H112.303ZM112.793 115.682C112.605 115.682 112.443 115.618 112.307 115.49C112.174 115.362 112.107 115.208 112.107 115.028C112.107 114.849 112.174 114.695 112.307 114.567C112.443 114.439 112.605 114.375 112.793 114.375C112.981 114.375 113.142 114.439 113.275 114.567C113.411 114.695 113.479 114.849 113.479 115.028C113.479 115.208 113.411 115.362 113.275 115.49C113.142 115.618 112.981 115.682 112.793 115.682ZM114.917 125.352V116.727H115.848V117.724H115.963C116.033 117.615 116.131 117.476 116.257 117.307C116.385 117.136 116.567 116.983 116.804 116.85C117.043 116.714 117.367 116.646 117.776 116.646C118.304 116.646 118.77 116.778 119.173 117.042C119.575 117.306 119.89 117.68 120.116 118.165C120.342 118.649 120.455 119.221 120.455 119.88C120.455 120.544 120.342 121.12 120.116 121.607C119.89 122.092 119.577 122.468 119.177 122.735C118.776 122.999 118.315 123.131 117.792 123.131C117.389 123.131 117.067 123.064 116.824 122.931C116.582 122.794 116.396 122.641 116.265 122.469C116.134 122.295 116.033 122.151 115.963 122.036H115.881V125.352H114.917ZM115.865 119.864C115.865 120.337 115.934 120.755 116.073 121.117C116.212 121.477 116.415 121.759 116.681 121.963C116.948 122.164 117.275 122.265 117.662 122.265C118.064 122.265 118.401 122.159 118.67 121.946C118.942 121.731 119.147 121.443 119.283 121.081C119.422 120.716 119.491 120.31 119.491 119.864C119.491 119.423 119.423 119.025 119.287 118.671C119.153 118.315 118.951 118.033 118.678 117.826C118.409 117.616 118.07 117.511 117.662 117.511C117.269 117.511 116.94 117.611 116.673 117.809C116.406 118.006 116.205 118.28 116.069 118.634C115.933 118.986 115.865 119.395 115.865 119.864ZM124.538 116.727V117.544H121.287V116.727H124.538ZM122.235 115.224H123.198V121.203C123.198 121.475 123.238 121.68 123.317 121.816C123.399 121.949 123.502 122.039 123.627 122.085C123.755 122.129 123.89 122.151 124.032 122.151C124.138 122.151 124.225 122.145 124.293 122.134C124.361 122.121 124.415 122.11 124.456 122.102L124.652 122.967C124.587 122.992 124.496 123.016 124.379 123.041C124.262 123.068 124.113 123.082 123.934 123.082C123.661 123.082 123.395 123.023 123.133 122.906C122.875 122.789 122.659 122.611 122.488 122.371C122.319 122.132 122.235 121.829 122.235 121.464V115.224Z" fill="#171717"/>
</g>
<defs>
<clipPath id="clip0_228_436">
<rect width="272" height="120" fill="white"/>
</clipPath>
</defs>
</svg>
