<svg width="272" height="120" viewBox="0 0 272 120" fill="none" xmlns="http://www.w3.org/2000/svg">
<g clip-path="url(#clip0_228_85)">
<rect width="272" height="120" fill="#8AC2FF"/>
<rect width="272" height="148.364" transform="translate(0 -3)" fill="#444444"/>
<rect width="211.948" height="148.364" transform="translate(60.052 -3)" fill="#1E1E1E"/>
<path d="M67.6074 40.2644V39.471H73.147V40.2644H70.8244V46.8571H69.93V40.2644H67.6074ZM75.1868 46.9869C74.8357 46.9869 74.5172 46.9208 74.231 46.7885C73.9449 46.6539 73.7177 46.4603 73.5494 46.2079C73.3811 45.953 73.297 45.6453 73.297 45.2846C73.297 44.9673 73.3595 44.71 73.4845 44.5128C73.6095 44.3133 73.7766 44.157 73.9858 44.044C74.195 43.931 74.4258 43.8468 74.6783 43.7915C74.9331 43.7338 75.1892 43.6882 75.4464 43.6545C75.783 43.6112 76.0559 43.5788 76.2651 43.5571C76.4767 43.5331 76.6306 43.4934 76.7267 43.4381C76.8253 43.3828 76.8746 43.2866 76.8746 43.1496V43.1207C76.8746 42.7649 76.7772 42.4884 76.5825 42.2913C76.3901 42.0941 76.098 41.9955 75.7061 41.9955C75.2998 41.9955 74.9812 42.0845 74.7504 42.2624C74.5196 42.4403 74.3573 42.6303 74.2635 42.8322L73.4557 42.5437C73.5999 42.2071 73.7923 41.945 74.0327 41.7575C74.2755 41.5676 74.54 41.4353 74.8261 41.3608C75.1146 41.2838 75.3983 41.2454 75.6772 41.2454C75.8552 41.2454 76.0595 41.267 76.2903 41.3103C76.5236 41.3512 76.7484 41.4365 76.9648 41.5664C77.1836 41.6962 77.3651 41.8921 77.5093 42.1542C77.6536 42.4163 77.7257 42.7673 77.7257 43.2073V46.8571H76.8746V46.1069H76.8313C76.7736 46.2271 76.6774 46.3558 76.5428 46.4928C76.4082 46.6298 76.229 46.7465 76.0054 46.8426C75.7818 46.9388 75.5089 46.9869 75.1868 46.9869ZM75.3166 46.2223C75.6532 46.2223 75.9369 46.1562 76.1677 46.024C76.4009 45.8917 76.5765 45.721 76.6943 45.5118C76.8145 45.3027 76.8746 45.0827 76.8746 44.8519V44.0729C76.8385 44.1161 76.7592 44.1558 76.6366 44.1919C76.5164 44.2255 76.3769 44.2556 76.2182 44.282C76.0619 44.3061 75.9093 44.3277 75.7602 44.3469C75.6135 44.3638 75.4945 44.3782 75.4032 44.3902C75.182 44.4191 74.9752 44.466 74.7828 44.5309C74.5929 44.5934 74.439 44.6884 74.3212 44.8158C74.2058 44.9408 74.1481 45.1115 74.1481 45.3279C74.1481 45.6236 74.2575 45.8472 74.4763 45.9987C74.6975 46.1478 74.9776 46.2223 75.3166 46.2223ZM81.4137 49.0498C81.0025 49.0498 80.6491 48.9969 80.3534 48.8911C80.0576 48.7877 79.8112 48.6507 79.614 48.48C79.4193 48.3117 79.2642 48.1313 79.1488 47.939L79.8268 47.4629C79.9038 47.5639 80.0011 47.6793 80.1189 47.8092C80.2368 47.9414 80.3979 48.0556 80.6022 48.1518C80.809 48.2504 81.0795 48.2996 81.4137 48.2996C81.8609 48.2996 82.2299 48.1915 82.5209 47.9751C82.8118 47.7587 82.9572 47.4197 82.9572 46.958V45.8328H82.8851C82.8226 45.9338 82.7336 46.0588 82.6182 46.2079C82.5052 46.3546 82.3417 46.4856 82.1278 46.601C81.9162 46.714 81.6301 46.7705 81.2694 46.7705C80.8222 46.7705 80.4207 46.6647 80.0649 46.4531C79.7114 46.2415 79.4313 45.9338 79.2245 45.5299C79.0202 45.1259 78.918 44.6355 78.918 44.0584C78.918 43.491 79.0178 42.9969 79.2173 42.5762C79.4169 42.153 79.6946 41.826 80.0504 41.5952C80.4063 41.362 80.8174 41.2454 81.2838 41.2454C81.6445 41.2454 81.9306 41.3055 82.1422 41.4257C82.3562 41.5435 82.5197 41.6782 82.6327 41.8296C82.7481 41.9787 82.837 42.1013 82.8995 42.1975H82.9861V41.3175H83.8084V47.0157C83.8084 47.4918 83.7002 47.8789 83.4838 48.177C83.2698 48.4776 82.9813 48.6976 82.6182 48.837C82.2576 48.9789 81.8561 49.0498 81.4137 49.0498ZM81.3848 46.0059C81.7262 46.0059 82.0148 45.9278 82.2504 45.7715C82.486 45.6152 82.6651 45.3904 82.7877 45.0971C82.9104 44.8038 82.9717 44.4527 82.9717 44.044C82.9717 43.6449 82.9116 43.2927 82.7914 42.9873C82.6711 42.682 82.4932 42.4427 82.2576 42.2696C82.022 42.0965 81.731 42.0099 81.3848 42.0099C81.0242 42.0099 80.7236 42.1013 80.4832 42.284C80.2452 42.4668 80.0661 42.712 79.9458 43.0198C79.828 43.3275 79.7691 43.6689 79.7691 44.044C79.7691 44.4287 79.8292 44.7689 79.9494 45.0646C80.0721 45.358 80.2524 45.5888 80.4904 45.7571C80.7308 45.923 81.029 46.0059 81.3848 46.0059Z" fill="white"/>
<g clip-path="url(#clip1_228_85)">
<path d="M113.039 35.8571C113.039 33.9061 114.621 32.3246 116.572 32.3246H260.52C262.471 32.3246 264.052 33.9061 264.052 35.8571V50.8571C264.052 52.808 262.471 54.3895 260.52 54.3895H116.572C114.621 54.3895 113.039 52.808 113.039 50.8571V35.8571Z" fill="black" fill-opacity="0.15"/>
</g>
<path d="M116.572 32.7661H260.52C262.227 32.7661 263.61 34.15 263.61 35.8571V50.8571C263.61 52.5641 262.227 53.948 260.52 53.948H116.572C114.864 53.948 113.481 52.5641 113.481 50.8571V35.8571C113.481 34.15 114.864 32.7661 116.572 32.7661Z" stroke="white" stroke-opacity="0.14" stroke-width="0.883117"/>
<g clip-path="url(#clip2_228_85)">
<path d="M159.033 92.6988V100.727H158.092L153.717 94.4237H153.639V100.727H152.666V92.6988H153.607L157.998 99.018H158.076V92.6988H159.033ZM163.299 100.853C162.755 100.853 162.278 100.723 161.868 100.465C161.46 100.206 161.141 99.8438 160.911 99.3787C160.684 98.9135 160.57 98.3699 160.57 97.7479C160.57 97.1207 160.684 96.5732 160.911 96.1054C161.141 95.6376 161.46 95.2743 161.868 95.0156C162.278 94.7569 162.755 94.6275 163.299 94.6275C163.842 94.6275 164.318 94.7569 164.725 95.0156C165.136 95.2743 165.455 95.6376 165.682 96.1054C165.912 96.5732 166.027 97.1207 166.027 97.7479C166.027 98.3699 165.912 98.9135 165.682 99.3787C165.455 99.8438 165.136 100.206 164.725 100.465C164.318 100.723 163.842 100.853 163.299 100.853ZM163.299 100.022C163.711 100.022 164.051 99.9157 164.318 99.704C164.584 99.4923 164.782 99.214 164.91 98.8691C165.038 98.5241 165.102 98.1504 165.102 97.7479C165.102 97.3454 165.038 96.9704 164.91 96.6228C164.782 96.2753 164.584 95.9943 164.318 95.78C164.051 95.5657 163.711 95.4586 163.299 95.4586C162.886 95.4586 162.546 95.5657 162.279 95.78C162.013 95.9943 161.815 96.2753 161.687 96.6228C161.559 96.9704 161.495 97.3454 161.495 97.7479C161.495 98.1504 161.559 98.5241 161.687 98.8691C161.815 99.214 162.013 99.4923 162.279 99.704C162.546 99.9157 162.886 100.022 163.299 100.022ZM168.364 97.105V100.727H167.439V94.7059H168.333V95.6467H168.411C168.552 95.341 168.767 95.0953 169.054 94.9098C169.342 94.7216 169.713 94.6275 170.168 94.6275C170.575 94.6275 170.932 94.7111 171.238 94.8784C171.543 95.043 171.781 95.2939 171.951 95.6311C172.121 95.9656 172.206 96.3889 172.206 96.9012V100.727H171.281V96.9639C171.281 96.4909 171.158 96.1224 170.912 95.8584C170.667 95.5919 170.33 95.4586 169.901 95.4586C169.606 95.4586 169.342 95.5226 169.109 95.6507C168.879 95.7787 168.698 95.9656 168.564 96.2112C168.431 96.4569 168.364 96.7548 168.364 97.105ZM176.421 100.853C175.841 100.853 175.34 100.725 174.92 100.468C174.502 100.21 174.179 99.8491 173.951 99.3865C173.727 98.9213 173.614 98.3803 173.614 97.7636C173.614 97.1468 173.727 96.6032 173.951 96.1328C174.179 95.6598 174.495 95.2913 174.9 95.0274C175.308 94.7608 175.783 94.6275 176.327 94.6275C176.641 94.6275 176.95 94.6798 177.256 94.7843C177.562 94.8889 177.84 95.0587 178.091 95.2939C178.342 95.5265 178.542 95.8349 178.691 96.2191C178.84 96.6032 178.914 97.0763 178.914 97.6381V98.0302H174.273V97.2305H177.973C177.973 96.8907 177.905 96.5876 177.77 96.321C177.636 96.0544 177.446 95.8441 177.197 95.6899C176.952 95.5357 176.661 95.4586 176.327 95.4586C175.958 95.4586 175.64 95.55 175.37 95.733C175.104 95.9133 174.899 96.1485 174.755 96.4386C174.611 96.7287 174.539 97.0397 174.539 97.3716V97.9047C174.539 98.3594 174.618 98.7449 174.775 99.0611C174.934 99.3747 175.155 99.6139 175.437 99.7785C175.719 99.9405 176.047 100.022 176.421 100.022C176.664 100.022 176.884 99.9876 177.08 99.9196C177.278 99.8491 177.449 99.7445 177.593 99.606C177.737 99.4649 177.848 99.2898 177.926 99.0807L178.82 99.3316C178.726 99.6348 178.568 99.9013 178.346 100.131C178.124 100.359 177.849 100.536 177.523 100.664C177.196 100.79 176.829 100.853 176.421 100.853Z" fill="#F5F5F5"/>
</g>
<path d="M70.6494 86.6363H260.52C262.227 86.6363 263.61 88.0201 263.61 89.7272V104.727C263.61 106.434 262.227 107.818 260.52 107.818H70.6494C68.9424 107.818 67.5585 106.434 67.5585 104.727V89.7272C67.5585 88.0201 68.9423 86.6363 70.6494 86.6363Z" stroke="white" stroke-opacity="0.14" stroke-width="0.883117"/>
<path fill-rule="evenodd" clip-rule="evenodd" d="M258.091 15.9856L255.882 14.022L255.442 14.517L258.091 16.8718L260.739 14.517L260.299 14.022L258.091 15.9856Z" fill="#F5F5F5"/>
<path d="M254.007 75.0454V78.3571H254.669V75.0454H257.981V74.3831H254.669V71.0714H254.007V74.3831H250.695V75.0454H254.007Z" fill="#F5F5F5"/>
<path d="M68.3143 76.8831H67.3766L70.0887 69.497H71.0119L73.724 76.8831H72.7863L70.5792 70.6655H70.5215L68.3143 76.8831ZM68.6605 73.9979H72.4401V74.7913H68.6605V73.9979ZM76.7195 71.3435V72.0648H73.8488V71.3435H76.7195ZM74.6855 70.0163H75.5366V75.2962C75.5366 75.5366 75.5715 75.717 75.6412 75.8372C75.7133 75.955 75.8047 76.0343 75.9153 76.0752C76.0283 76.1137 76.1473 76.1329 76.2723 76.1329C76.3661 76.1329 76.443 76.1281 76.5031 76.1185C76.5632 76.1065 76.6113 76.0968 76.6474 76.0896L76.8205 76.8542C76.7628 76.8758 76.6823 76.8975 76.5789 76.9191C76.4755 76.9432 76.3444 76.9552 76.1858 76.9552C75.9453 76.9552 75.7097 76.9035 75.4789 76.8001C75.2505 76.6967 75.0605 76.5392 74.9091 76.3277C74.76 76.1161 74.6855 75.8492 74.6855 75.527V70.0163ZM80.3074 71.3435V72.0648H77.4366V71.3435H80.3074ZM78.2733 70.0163H79.1245V75.2962C79.1245 75.5366 79.1593 75.717 79.2291 75.8372C79.3012 75.955 79.3925 76.0343 79.5031 76.0752C79.6161 76.1137 79.7352 76.1329 79.8602 76.1329C79.954 76.1329 80.0309 76.1281 80.091 76.1185C80.1511 76.1065 80.1992 76.0968 80.2353 76.0896L80.4084 76.8542C80.3507 76.8758 80.2701 76.8975 80.1667 76.9191C80.0633 76.9432 79.9323 76.9552 79.7736 76.9552C79.5332 76.9552 79.2976 76.9035 79.0668 76.8001C78.8383 76.6967 78.6484 76.5392 78.4969 76.3277C78.3479 76.1161 78.2733 75.8492 78.2733 75.527V70.0163ZM81.4861 76.8831V71.3435H82.3084V72.1802H82.3661C82.4671 71.9061 82.6498 71.6837 82.9143 71.513C83.1788 71.3423 83.4769 71.2569 83.8087 71.2569C83.8712 71.2569 83.9494 71.2582 84.0431 71.2606C84.1369 71.263 84.2078 71.2666 84.2559 71.2714V72.1369C84.2271 72.1297 84.1609 72.1189 84.0575 72.1045C83.9566 72.0876 83.8496 72.0792 83.7366 72.0792C83.4673 72.0792 83.2269 72.1357 83.0153 72.2487C82.8061 72.3593 82.6402 72.5132 82.5176 72.7104C82.3974 72.9051 82.3373 73.1275 82.3373 73.3776V76.8831H81.4861ZM85.1633 76.8831V71.3435H86.0144V76.8831H85.1633ZM85.596 70.4202C85.4301 70.4202 85.2871 70.3637 85.1669 70.2507C85.0491 70.1377 84.9901 70.0019 84.9901 69.8432C84.9901 69.6845 85.0491 69.5487 85.1669 69.4357C85.2871 69.3227 85.4301 69.2662 85.596 69.2662C85.7619 69.2662 85.9038 69.3227 86.0216 69.4357C86.1418 69.5487 86.2019 69.6845 86.2019 69.8432C86.2019 70.0019 86.1418 70.1377 86.0216 70.2507C85.9038 70.3637 85.7619 70.4202 85.596 70.4202ZM87.5871 76.8831V69.497H88.4383V72.2235H88.5104C88.5729 72.1273 88.6595 72.0047 88.7701 71.8556C88.8831 71.7042 89.0442 71.5695 89.2533 71.4517C89.4649 71.3315 89.751 71.2714 90.1117 71.2714C90.5781 71.2714 90.9892 71.388 91.3451 71.6212C91.7009 71.8544 91.9786 72.185 92.1782 72.613C92.3777 73.041 92.4775 73.5459 92.4775 74.1277C92.4775 74.7144 92.3777 75.2229 92.1782 75.6532C91.9786 76.0812 91.7021 76.413 91.3487 76.6486C90.9953 76.8819 90.5877 76.9985 90.1261 76.9985C89.7703 76.9985 89.4853 76.9396 89.2714 76.8217C89.0574 76.7015 88.8927 76.5657 88.7773 76.4142C88.6619 76.2603 88.5729 76.1329 88.5104 76.0319H88.4094V76.8831H87.5871ZM88.4238 74.1133C88.4238 74.5316 88.4852 74.9007 88.6078 75.2205C88.7304 75.5378 88.9095 75.7867 89.1451 75.967C89.3808 76.1449 89.6693 76.2339 90.0107 76.2339C90.3665 76.2339 90.6635 76.1401 90.9015 75.9526C91.1419 75.7626 91.3222 75.5078 91.4425 75.188C91.5651 74.8658 91.6264 74.5076 91.6264 74.1133C91.6264 73.7238 91.5663 73.3728 91.4461 73.0602C91.3283 72.7452 91.1491 72.4964 90.9087 72.3136C90.6707 72.1285 90.3713 72.0359 90.0107 72.0359C89.6645 72.0359 89.3735 72.1237 89.1379 72.2992C88.9023 72.4723 88.7244 72.7152 88.6042 73.0277C88.4839 73.3379 88.4238 73.6997 88.4238 74.1133ZM97.169 74.6182V71.3435H98.0201V76.8831H97.169V75.9454H97.1113C96.9814 76.2267 96.7795 76.4659 96.5054 76.6631C96.2313 76.8578 95.8851 76.9552 95.4667 76.9552C95.1205 76.9552 94.8127 76.8795 94.5435 76.728C94.2742 76.5741 94.0626 76.3433 93.9087 76.0355C93.7548 75.7254 93.6779 75.3347 93.6779 74.8634V71.3435H94.529V74.8057C94.529 75.2097 94.642 75.5318 94.868 75.7723C95.0965 76.0127 95.3874 76.1329 95.7408 76.1329C95.9524 76.1329 96.1676 76.0788 96.3864 75.9706C96.6076 75.8624 96.7927 75.6965 96.9418 75.4729C97.0932 75.2493 97.169 74.9644 97.169 74.6182ZM101.887 71.3435V72.0648H99.0158V71.3435H101.887ZM99.8525 70.0163H100.704V75.2962C100.704 75.5366 100.739 75.717 100.808 75.8372C100.88 75.955 100.972 76.0343 101.082 76.0752C101.195 76.1137 101.314 76.1329 101.439 76.1329C101.533 76.1329 101.61 76.1281 101.67 76.1185C101.73 76.1065 101.778 76.0968 101.814 76.0896L101.988 76.8542C101.93 76.8758 101.849 76.8975 101.746 76.9191C101.643 76.9432 101.512 76.9552 101.353 76.9552C101.112 76.9552 100.877 76.9035 100.646 76.8001C100.418 76.6967 100.228 76.5392 100.076 76.3277C99.9271 76.1161 99.8525 75.8492 99.8525 75.527V70.0163ZM105.328 76.9985C104.795 76.9985 104.334 76.8807 103.947 76.645C103.562 76.407 103.265 76.0752 103.056 75.6496C102.85 75.2217 102.746 74.724 102.746 74.1566C102.746 73.5891 102.85 73.089 103.056 72.6563C103.265 72.2211 103.556 71.8821 103.929 71.6392C104.304 71.394 104.742 71.2714 105.242 71.2714C105.53 71.2714 105.815 71.3195 106.097 71.4156C106.378 71.5118 106.634 71.6681 106.865 71.8845C107.096 72.0985 107.279 72.3822 107.417 72.7356C107.554 73.089 107.622 73.5242 107.622 74.0412V74.4018H103.352V73.6661H106.757C106.757 73.3535 106.694 73.0746 106.569 72.8294C106.446 72.5841 106.271 72.3906 106.042 72.2487C105.816 72.1069 105.55 72.0359 105.242 72.0359C104.903 72.0359 104.609 72.1201 104.362 72.2884C104.117 72.4543 103.928 72.6707 103.796 72.9376C103.663 73.2044 103.597 73.4906 103.597 73.7959V74.2864C103.597 74.7047 103.669 75.0594 103.814 75.3503C103.96 75.6388 104.163 75.8588 104.423 76.0103C104.683 76.1594 104.985 76.2339 105.328 76.2339C105.552 76.2339 105.754 76.2026 105.934 76.1401C106.117 76.0752 106.274 75.979 106.407 75.8516C106.539 75.7218 106.641 75.5607 106.713 75.3683L107.536 75.5992C107.449 75.8781 107.304 76.1233 107.099 76.3349C106.895 76.544 106.642 76.7075 106.342 76.8254C106.041 76.9408 105.703 76.9985 105.328 76.9985ZM112.739 72.5841L111.975 72.8005C111.926 72.6731 111.856 72.5493 111.762 72.4291C111.67 72.3064 111.545 72.2055 111.387 72.1261C111.228 72.0468 111.025 72.0071 110.777 72.0071C110.438 72.0071 110.156 72.0852 109.93 72.2415C109.706 72.3954 109.594 72.5913 109.594 72.8294C109.594 73.041 109.671 73.2081 109.825 73.3307C109.979 73.4533 110.219 73.5555 110.546 73.6372L111.369 73.8392C111.864 73.9594 112.233 74.1433 112.476 74.391C112.719 74.6362 112.84 74.9524 112.84 75.3395C112.84 75.6569 112.749 75.9406 112.566 76.1906C112.386 76.4407 112.133 76.6378 111.809 76.7821C111.484 76.9263 111.107 76.9985 110.676 76.9985C110.111 76.9985 109.644 76.8758 109.273 76.6306C108.903 76.3854 108.669 76.0271 108.57 75.5559L109.378 75.3539C109.455 75.652 109.6 75.8756 109.814 76.0247C110.031 76.1738 110.313 76.2483 110.662 76.2483C111.058 76.2483 111.373 76.1642 111.607 75.9959C111.842 75.8252 111.96 75.6208 111.96 75.3828C111.96 75.1904 111.893 75.0293 111.758 74.8995C111.624 74.7673 111.417 74.6687 111.138 74.6038L110.215 74.3874C109.707 74.2672 109.335 74.0808 109.097 73.8284C108.861 73.5735 108.743 73.2549 108.743 72.8727C108.743 72.5601 108.831 72.2836 109.006 72.0432C109.184 71.8027 109.426 71.614 109.731 71.4769C110.039 71.3399 110.388 71.2714 110.777 71.2714C111.325 71.2714 111.756 71.3916 112.068 71.632C112.383 71.8725 112.607 72.1898 112.739 72.5841Z" fill="white"/>
<path d="M70.2906 16.8311H68.0114V9.44499H70.3916C71.1081 9.44499 71.7212 9.59285 72.2309 9.88858C72.7406 10.1819 73.1313 10.6039 73.403 11.1545C73.6747 11.7026 73.8106 12.359 73.8106 13.1236C73.8106 13.893 73.6735 14.5554 73.3994 15.1108C73.1253 15.6638 72.7262 16.0893 72.2021 16.3875C71.6779 16.6832 71.0408 16.8311 70.2906 16.8311ZM68.9058 16.0376H70.2329C70.8436 16.0376 71.3497 15.9198 71.7513 15.6842C72.1528 15.4486 72.4521 15.1132 72.6493 14.678C72.8464 14.2428 72.945 13.7247 72.945 13.1236C72.945 12.5273 72.8476 12.014 72.6529 11.5836C72.4581 11.1509 72.1672 10.8191 71.7801 10.5882C71.393 10.355 70.911 10.2384 70.3339 10.2384H68.9058V16.0376ZM81.4413 13.138C81.4413 13.917 81.3006 14.5902 81.0193 15.1576C80.738 15.7251 80.3521 16.1627 79.8617 16.4704C79.3712 16.7782 78.811 16.932 78.181 16.932C77.5511 16.932 76.9909 16.7782 76.5004 16.4704C76.0099 16.1627 75.6241 15.7251 75.3427 15.1576C75.0614 14.5902 74.9208 13.917 74.9208 13.138C74.9208 12.359 75.0614 11.6858 75.3427 11.1184C75.6241 10.551 76.0099 10.1134 76.5004 9.80563C76.9909 9.49788 77.5511 9.344 78.181 9.344C78.811 9.344 79.3712 9.49788 79.8617 9.80563C80.3521 10.1134 80.738 10.551 81.0193 11.1184C81.3006 11.6858 81.4413 12.359 81.4413 13.138ZM80.5757 13.138C80.5757 12.4985 80.4688 11.9587 80.2548 11.5187C80.0432 11.0787 79.7559 10.7457 79.3928 10.5197C79.0322 10.2937 78.6282 10.1807 78.181 10.1807C77.7338 10.1807 77.3287 10.2937 76.9657 10.5197C76.605 10.7457 76.3177 11.0787 76.1037 11.5187C75.8921 11.9587 75.7863 12.4985 75.7863 13.138C75.7863 13.7776 75.8921 14.3173 76.1037 14.7573C76.3177 15.1973 76.605 15.5303 76.9657 15.7563C77.3287 15.9823 77.7338 16.0953 78.181 16.0953C78.6282 16.0953 79.0322 15.9823 79.3928 15.7563C79.7559 15.5303 80.0432 15.1973 80.2548 14.7573C80.4688 14.3173 80.5757 13.7776 80.5757 13.138ZM82.8436 9.44499H83.9112L86.4213 15.576H86.5078L89.0179 9.44499H90.0855V16.8311H89.2488V11.2194H89.1766L86.8685 16.8311H86.0606L83.7525 11.2194H83.6803V16.8311H82.8436V9.44499ZM98.3404 12.5321L97.5759 12.7485C97.5278 12.6211 97.4568 12.4973 97.3631 12.3771C97.2717 12.2544 97.1467 12.1535 96.988 12.0741C96.8293 11.9948 96.6262 11.9551 96.3785 11.9551C96.0395 11.9551 95.757 12.0332 95.531 12.1895C95.3074 12.3434 95.1956 12.5393 95.1956 12.7774C95.1956 12.989 95.2725 13.1561 95.4264 13.2787C95.5803 13.4013 95.8207 13.5035 96.1477 13.5852L96.97 13.7872C97.4653 13.9074 97.8343 14.0913 98.0772 14.339C98.32 14.5842 98.4414 14.9004 98.4414 15.2875C98.4414 15.6049 98.35 15.8886 98.1673 16.1386C97.987 16.3887 97.7345 16.5858 97.41 16.7301C97.0854 16.8743 96.7079 16.9465 96.2775 16.9465C95.7125 16.9465 95.2449 16.8238 94.8746 16.5786C94.5043 16.3334 94.2699 15.9751 94.1713 15.5039L94.9792 15.3019C95.0561 15.6 95.2016 15.8236 95.4156 15.9727C95.632 16.1218 95.9145 16.1963 96.2631 16.1963C96.6598 16.1963 96.9748 16.1122 97.208 15.9439C97.4436 15.7732 97.5614 15.5688 97.5614 15.3308C97.5614 15.1384 97.4941 14.9773 97.3595 14.8475C97.2248 14.7153 97.0181 14.6167 96.7392 14.5518L95.8159 14.3354C95.3086 14.2152 94.9359 14.0288 94.6979 13.7764C94.4623 13.5215 94.3445 13.2029 94.3445 12.8206C94.3445 12.5081 94.4322 12.2316 94.6077 11.9912C94.7856 11.7507 95.0273 11.562 95.3326 11.4249C95.6404 11.2879 95.989 11.2194 96.3785 11.2194C96.9267 11.2194 97.3571 11.3396 97.6696 11.58C97.9846 11.8205 98.2082 12.1378 98.3404 12.5321ZM101.944 16.9465C101.41 16.9465 100.949 16.8287 100.562 16.593C100.178 16.355 99.8807 16.0232 99.6715 15.5976C99.4648 15.1697 99.3614 14.672 99.3614 14.1046C99.3614 13.5371 99.4648 13.037 99.6715 12.6043C99.8807 12.1691 100.172 11.8301 100.544 11.5872C100.919 11.342 101.357 11.2194 101.857 11.2194C102.146 11.2194 102.431 11.2675 102.712 11.3636C102.993 11.4598 103.249 11.6161 103.48 11.8325C103.711 12.0465 103.895 12.3302 104.032 12.6836C104.169 13.037 104.237 13.4722 104.237 13.9891V14.3498H99.9673V13.6141H103.372C103.372 13.3015 103.309 13.0226 103.184 12.7774C103.062 12.5321 102.886 12.3386 102.658 12.1967C102.432 12.0549 102.165 11.9839 101.857 11.9839C101.518 11.9839 101.225 12.0681 100.977 12.2364C100.732 12.4023 100.543 12.6187 100.411 12.8856C100.279 13.1524 100.213 13.4386 100.213 13.7439V14.2344C100.213 14.6527 100.285 15.0074 100.429 15.2983C100.576 15.5868 100.779 15.8068 101.038 15.9583C101.298 16.1074 101.6 16.1819 101.944 16.1819C102.167 16.1819 102.369 16.1506 102.55 16.0881C102.732 16.0232 102.89 15.927 103.022 15.7996C103.154 15.6698 103.256 15.5087 103.329 15.3163L104.151 15.5471C104.064 15.826 103.919 16.0713 103.714 16.2829C103.51 16.492 103.258 16.6555 102.957 16.7734C102.657 16.8888 102.319 16.9465 101.944 16.9465ZM107.84 11.2915V12.0128H104.969V11.2915H107.84ZM105.806 9.96432H106.657V15.2442C106.657 15.4846 106.692 15.665 106.761 15.7852C106.833 15.903 106.925 15.9823 107.035 16.0232C107.148 16.0617 107.267 16.0809 107.392 16.0809C107.486 16.0809 107.563 16.0761 107.623 16.0665C107.683 16.0545 107.731 16.0448 107.768 16.0376L107.941 16.8022C107.883 16.8238 107.802 16.8455 107.699 16.8671C107.596 16.8912 107.465 16.9032 107.306 16.9032C107.065 16.9032 106.83 16.8515 106.599 16.7481C106.371 16.6447 106.181 16.4872 106.029 16.2757C105.88 16.0641 105.806 15.7972 105.806 15.475V9.96432ZM111.428 11.2915V12.0128H108.557V11.2915H111.428ZM109.393 9.96432H110.245V15.2442C110.245 15.4846 110.279 15.665 110.349 15.7852C110.421 15.903 110.513 15.9823 110.623 16.0232C110.736 16.0617 110.855 16.0809 110.98 16.0809C111.074 16.0809 111.151 16.0761 111.211 16.0665C111.271 16.0545 111.319 16.0448 111.355 16.0376L111.528 16.8022C111.471 16.8238 111.39 16.8455 111.287 16.8671C111.183 16.8912 111.052 16.9032 110.894 16.9032C110.653 16.9032 110.418 16.8515 110.187 16.7481C109.958 16.6447 109.769 16.4872 109.617 16.2757C109.468 16.0641 109.393 15.7972 109.393 15.475V9.96432ZM112.606 16.8311V11.2915H113.457V16.8311H112.606ZM113.039 10.3682C112.873 10.3682 112.73 10.3117 112.61 10.1987C112.492 10.0857 112.433 9.94989 112.433 9.79121C112.433 9.63252 112.492 9.49668 112.61 9.38368C112.73 9.27067 112.873 9.21417 113.039 9.21417C113.205 9.21417 113.347 9.27067 113.465 9.38368C113.585 9.49668 113.645 9.63252 113.645 9.79121C113.645 9.94989 113.585 10.0857 113.465 10.1987C113.347 10.3117 113.205 10.3682 113.039 10.3682ZM115.766 13.4987V16.8311H114.915V11.2915H115.737V12.1571H115.809C115.939 11.8758 116.136 11.6497 116.401 11.479C116.665 11.3059 117.006 11.2194 117.425 11.2194C117.8 11.2194 118.128 11.2963 118.409 11.4502C118.691 11.6017 118.91 11.8325 119.066 12.1426C119.222 12.4504 119.3 12.8399 119.3 13.3111V16.8311H118.449V13.3688C118.449 12.9337 118.336 12.5946 118.11 12.3518C117.884 12.1066 117.574 11.9839 117.18 11.9839C116.908 11.9839 116.665 12.0429 116.451 12.1607C116.24 12.2785 116.072 12.4504 115.95 12.6764C115.827 12.9024 115.766 13.1765 115.766 13.4987ZM122.99 19.0238C122.579 19.0238 122.225 18.9709 121.93 18.8651C121.634 18.7617 121.387 18.6247 121.19 18.454C120.996 18.2857 120.84 18.1053 120.725 17.913L121.403 17.4369C121.48 17.5379 121.577 17.6533 121.695 17.7832C121.813 17.9154 121.974 18.0296 122.178 18.1258C122.385 18.2244 122.656 18.2736 122.99 18.2736C123.437 18.2736 123.806 18.1655 124.097 17.9491C124.388 17.7327 124.534 17.3937 124.534 16.932V15.8068H124.461C124.399 15.9078 124.31 16.0328 124.195 16.1819C124.082 16.3286 123.918 16.4596 123.704 16.575C123.492 16.688 123.206 16.7445 122.846 16.7445C122.398 16.7445 121.997 16.6387 121.641 16.4271C121.288 16.2155 121.008 15.9078 120.801 15.5039C120.596 15.0999 120.494 14.6095 120.494 14.0324C120.494 13.465 120.594 12.9709 120.794 12.5502C120.993 12.127 121.271 11.8 121.627 11.5692C121.983 11.336 122.394 11.2194 122.86 11.2194C123.221 11.2194 123.507 11.2795 123.718 11.3997C123.932 11.5175 124.096 11.6522 124.209 11.8036C124.324 11.9527 124.413 12.0753 124.476 12.1715H124.562V11.2915H125.385V16.9897C125.385 17.4658 125.276 17.8529 125.06 18.151C124.846 18.4516 124.558 18.6716 124.195 18.811C123.834 18.9529 123.432 19.0238 122.99 19.0238ZM122.961 15.9799C123.303 15.9799 123.591 15.9018 123.827 15.7455C124.062 15.5892 124.241 15.3644 124.364 15.0711C124.487 14.7778 124.548 14.4267 124.548 14.018C124.548 13.6189 124.488 13.2667 124.368 12.9613C124.247 12.656 124.069 12.4167 123.834 12.2436C123.598 12.0705 123.307 11.9839 122.961 11.9839C122.6 11.9839 122.3 12.0753 122.059 12.258C121.821 12.4408 121.642 12.686 121.522 12.9938C121.404 13.3015 121.345 13.6429 121.345 14.018C121.345 14.4027 121.406 14.7429 121.526 15.0386C121.648 15.332 121.829 15.5628 122.067 15.7311C122.307 15.897 122.605 15.9799 122.961 15.9799ZM130.765 12.5321L130 12.7485C129.952 12.6211 129.881 12.4973 129.788 12.3771C129.696 12.2544 129.571 12.1535 129.413 12.0741C129.254 11.9948 129.051 11.9551 128.803 11.9551C128.464 11.9551 128.182 12.0332 127.956 12.1895C127.732 12.3434 127.62 12.5393 127.62 12.7774C127.62 12.989 127.697 13.1561 127.851 13.2787C128.005 13.4013 128.245 13.5035 128.572 13.5852L129.394 13.7872C129.89 13.9074 130.259 14.0913 130.502 14.339C130.745 14.5842 130.866 14.9004 130.866 15.2875C130.866 15.6049 130.775 15.8886 130.592 16.1386C130.412 16.3887 130.159 16.5858 129.834 16.7301C129.51 16.8743 129.132 16.9465 128.702 16.9465C128.137 16.9465 127.669 16.8238 127.299 16.5786C126.929 16.3334 126.694 15.9751 126.596 15.5039L127.404 15.3019C127.481 15.6 127.626 15.8236 127.84 15.9727C128.056 16.1218 128.339 16.1963 128.688 16.1963C129.084 16.1963 129.399 16.1122 129.633 15.9439C129.868 15.7732 129.986 15.5688 129.986 15.3308C129.986 15.1384 129.919 14.9773 129.784 14.8475C129.649 14.7153 129.443 14.6167 129.164 14.5518L128.24 14.3354C127.733 14.2152 127.36 14.0288 127.122 13.7764C126.887 13.5215 126.769 13.2029 126.769 12.8206C126.769 12.5081 126.857 12.2316 127.032 11.9912C127.21 11.7507 127.452 11.562 127.757 11.4249C128.065 11.2879 128.414 11.2194 128.803 11.2194C129.351 11.2194 129.782 11.3396 130.094 11.58C130.409 11.8205 130.633 12.1378 130.765 12.5321Z" fill="white"/>
<g clip-path="url(#clip3_228_85)">
<path d="M113.039 119.753C113.039 117.802 114.621 116.221 116.572 116.221H260.52C262.471 116.221 264.052 117.802 264.052 119.753V134.753C264.052 136.704 262.471 138.286 260.52 138.286H116.572C114.621 138.286 113.039 136.704 113.039 134.753V119.753Z" fill="black" fill-opacity="0.15"/>
</g>
<path d="M116.572 116.662H260.52C262.227 116.662 263.61 118.046 263.61 119.753V134.753C263.61 136.46 262.227 137.844 260.52 137.844H116.572C114.864 137.844 113.481 136.46 113.481 134.753V119.753C113.481 118.046 114.864 116.662 116.572 116.662Z" stroke="white" stroke-opacity="0.14" stroke-width="0.883117"/>
</g>
<defs>
<clipPath id="clip0_228_85">
<rect width="272" height="120" fill="white"/>
</clipPath>
<clipPath id="clip1_228_85">
<path d="M113.039 35.8571C113.039 33.9061 114.621 32.3246 116.572 32.3246H260.52C262.471 32.3246 264.052 33.9061 264.052 35.8571V50.8571C264.052 52.808 262.471 54.3895 260.52 54.3895H116.572C114.621 54.3895 113.039 52.808 113.039 50.8571V35.8571Z" fill="white"/>
</clipPath>
<clipPath id="clip2_228_85">
<path d="M67.1169 89.7272C67.1169 87.7762 68.6985 86.1947 70.6494 86.1947H260.52C262.47 86.1947 264.052 87.7762 264.052 89.7272V104.727C264.052 106.678 262.47 108.26 260.52 108.26H70.6494C68.6985 108.26 67.1169 106.678 67.1169 104.727V89.7272Z" fill="white"/>
</clipPath>
<clipPath id="clip3_228_85">
<path d="M113.039 119.753C113.039 117.802 114.621 116.221 116.572 116.221H260.52C262.471 116.221 264.052 117.802 264.052 119.753V134.753C264.052 136.704 262.471 138.286 260.52 138.286H116.572C114.621 138.286 113.039 136.704 113.039 134.753V119.753Z" fill="white"/>
</clipPath>
</defs>
</svg>
