<svg width="272" height="120" viewBox="0 0 272 120" fill="none" xmlns="http://www.w3.org/2000/svg">
<rect width="272" height="120" fill="#8AC2FF"/>
<path d="M22.9545 46.196V43.5455H36.8807V46.196H31.4858V61H28.3494V46.196H22.9545ZM42.5142 53.3295V61H39.429V43.5455H42.446V50.1335H42.5994C42.9063 49.3949 43.3807 48.8125 44.0227 48.3864C44.6705 47.9545 45.4943 47.7386 46.4943 47.7386C47.4034 47.7386 48.196 47.929 48.8722 48.3097C49.5483 48.6903 50.071 49.2472 50.4403 49.9801C50.8153 50.7131 51.0028 51.608 51.0028 52.6648V61H47.9176V53.142C47.9176 52.2614 47.6903 51.5767 47.2358 51.0881C46.7869 50.5937 46.1562 50.3466 45.3438 50.3466C44.7983 50.3466 44.3097 50.4659 43.8778 50.7045C43.4517 50.9375 43.1165 51.2756 42.8722 51.7188C42.6335 52.1619 42.5142 52.6989 42.5142 53.3295ZM54.1477 61V47.9091H57.233V61H54.1477ZM55.6989 46.0511C55.2102 46.0511 54.7898 45.8892 54.4375 45.5653C54.0852 45.2358 53.9091 44.8409 53.9091 44.3807C53.9091 43.9148 54.0852 43.5199 54.4375 43.196C54.7898 42.8665 55.2102 42.7017 55.6989 42.7017C56.1932 42.7017 56.6136 42.8665 56.9602 43.196C57.3125 43.5199 57.4886 43.9148 57.4886 44.3807C57.4886 44.8409 57.3125 45.2358 56.9602 45.5653C56.6136 45.8892 56.1932 46.0511 55.6989 46.0511ZM70.7521 51.3693L67.9396 51.6761C67.8601 51.392 67.7209 51.125 67.522 50.875C67.3288 50.625 67.0675 50.4233 66.7379 50.2699C66.4084 50.1165 66.005 50.0398 65.5277 50.0398C64.8857 50.0398 64.3459 50.179 63.9084 50.4574C63.4766 50.7358 63.2635 51.0966 63.2692 51.5398C63.2635 51.9205 63.4027 52.2301 63.6868 52.4688C63.9766 52.7074 64.4538 52.9034 65.1186 53.0568L67.3516 53.5341C68.5902 53.8011 69.5107 54.2244 70.1129 54.804C70.7209 55.3835 71.0277 56.142 71.0334 57.0795C71.0277 57.9034 70.7862 58.6307 70.3089 59.2614C69.8374 59.8864 69.1811 60.375 68.3402 60.7273C67.4993 61.0795 66.5334 61.2557 65.4425 61.2557C63.8402 61.2557 62.5504 60.9205 61.5732 60.25C60.5959 59.5739 60.0135 58.6335 59.826 57.429L62.8345 57.1392C62.9709 57.7301 63.2607 58.1761 63.7038 58.4773C64.147 58.7784 64.7237 58.929 65.4339 58.929C66.1669 58.929 66.755 58.7784 67.1982 58.4773C67.647 58.1761 67.8714 57.804 67.8714 57.3608C67.8714 56.9858 67.7266 56.6761 67.4368 56.4318C67.1527 56.1875 66.7095 56 66.1072 55.8693L63.8743 55.4006C62.6186 55.1392 61.6896 54.6989 61.0874 54.0795C60.4851 53.4545 60.1868 52.6648 60.1925 51.7102C60.1868 50.9034 60.4055 50.2045 60.8487 49.6136C61.2976 49.017 61.9197 48.5568 62.7152 48.233C63.5163 47.9034 64.4396 47.7386 65.4851 47.7386C67.0192 47.7386 68.2266 48.0653 69.1072 48.7188C69.9936 49.3722 70.5419 50.2557 70.7521 51.3693ZM79.5305 61V47.9091H82.6158V61H79.5305ZM81.0817 46.0511C80.593 46.0511 80.1726 45.8892 79.8203 45.5653C79.468 45.2358 79.2919 44.8409 79.2919 44.3807C79.2919 43.9148 79.468 43.5199 79.8203 43.196C80.1726 42.8665 80.593 42.7017 81.0817 42.7017C81.576 42.7017 81.9964 42.8665 82.343 43.196C82.6953 43.5199 82.8714 43.9148 82.8714 44.3807C82.8714 44.8409 82.6953 45.2358 82.343 45.5653C81.9964 45.8892 81.576 46.0511 81.0817 46.0511ZM96.1349 51.3693L93.3224 51.6761C93.2429 51.392 93.1037 51.125 92.9048 50.875C92.7116 50.625 92.4503 50.4233 92.1207 50.2699C91.7912 50.1165 91.3878 50.0398 90.9105 50.0398C90.2685 50.0398 89.7287 50.179 89.2912 50.4574C88.8594 50.7358 88.6463 51.0966 88.652 51.5398C88.6463 51.9205 88.7855 52.2301 89.0696 52.4688C89.3594 52.7074 89.8366 52.9034 90.5014 53.0568L92.7344 53.5341C93.973 53.8011 94.8935 54.2244 95.4957 54.804C96.1037 55.3835 96.4105 56.142 96.4162 57.0795C96.4105 57.9034 96.169 58.6307 95.6918 59.2614C95.2202 59.8864 94.5639 60.375 93.723 60.7273C92.8821 61.0795 91.9162 61.2557 90.8253 61.2557C89.223 61.2557 87.9332 60.9205 86.956 60.25C85.9787 59.5739 85.3963 58.6335 85.2088 57.429L88.2173 57.1392C88.3537 57.7301 88.6435 58.1761 89.0866 58.4773C89.5298 58.7784 90.1065 58.929 90.8168 58.929C91.5497 58.929 92.1378 58.7784 92.581 58.4773C93.0298 58.1761 93.2543 57.804 93.2543 57.3608C93.2543 56.9858 93.1094 56.6761 92.8196 56.4318C92.5355 56.1875 92.0923 56 91.4901 55.8693L89.2571 55.4006C88.0014 55.1392 87.0724 54.6989 86.4702 54.0795C85.8679 53.4545 85.5696 52.6648 85.5753 51.7102C85.5696 50.9034 85.7884 50.2045 86.2315 49.6136C86.6804 49.017 87.3026 48.5568 88.098 48.233C88.8991 47.9034 89.8224 47.7386 90.8679 47.7386C92.402 47.7386 93.6094 48.0653 94.4901 48.7188C95.3764 49.3722 95.9247 50.2557 96.1349 51.3693ZM111.45 47.9091V50.2955H103.925V47.9091H111.45ZM105.783 44.7727H108.868V57.0625C108.868 57.4773 108.93 57.7955 109.055 58.017C109.186 58.233 109.357 58.3807 109.567 58.4602C109.777 58.5398 110.01 58.5795 110.266 58.5795C110.459 58.5795 110.635 58.5653 110.794 58.5369C110.959 58.5085 111.084 58.483 111.169 58.4602L111.689 60.8722C111.524 60.929 111.288 60.9915 110.982 61.0597C110.68 61.1278 110.311 61.1676 109.874 61.179C109.101 61.2017 108.405 61.0852 107.786 60.8295C107.166 60.5682 106.675 60.1648 106.311 59.6193C105.953 59.0739 105.777 58.392 105.783 57.5739V44.7727ZM117.397 53.3295V61H114.312V43.5455H117.329V50.1335H117.482C117.789 49.3949 118.263 48.8125 118.906 48.3864C119.553 47.9545 120.377 47.7386 121.377 47.7386C122.286 47.7386 123.079 47.929 123.755 48.3097C124.431 48.6903 124.954 49.2472 125.323 49.9801C125.698 50.7131 125.886 51.608 125.886 52.6648V61H122.8V53.142C122.8 52.2614 122.573 51.5767 122.119 51.0881C121.67 50.5937 121.039 50.3466 120.227 50.3466C119.681 50.3466 119.192 50.4659 118.761 50.7045C118.335 50.9375 117.999 51.2756 117.755 51.7188C117.516 52.1619 117.397 52.6989 117.397 53.3295ZM134.826 61.2557C133.513 61.2557 132.38 60.983 131.425 60.4375C130.477 59.8864 129.746 59.108 129.235 58.1023C128.724 57.0909 128.468 55.9006 128.468 54.5312C128.468 53.1847 128.724 52.0028 129.235 50.9858C129.752 49.9631 130.474 49.1676 131.4 48.5994C132.326 48.0256 133.414 47.7386 134.664 47.7386C135.471 47.7386 136.232 47.8693 136.948 48.1307C137.67 48.3864 138.306 48.7841 138.857 49.3239C139.414 49.8636 139.852 50.5511 140.17 51.3864C140.488 52.2159 140.647 53.2045 140.647 54.3523V55.2983H129.917V53.2188H137.69C137.684 52.6278 137.556 52.1023 137.306 51.642C137.056 51.1761 136.707 50.8097 136.258 50.5426C135.815 50.2756 135.298 50.142 134.707 50.142C134.076 50.142 133.522 50.2955 133.045 50.6023C132.567 50.9034 132.195 51.3011 131.928 51.7955C131.667 52.2841 131.533 52.821 131.528 53.4062V55.2216C131.528 55.983 131.667 56.6364 131.945 57.1818C132.224 57.7216 132.613 58.1364 133.113 58.4261C133.613 58.7102 134.198 58.8523 134.869 58.8523C135.317 58.8523 135.724 58.7898 136.087 58.6648C136.451 58.5341 136.766 58.3438 137.033 58.0938C137.3 57.8438 137.502 57.5341 137.638 57.1648L140.519 57.4886C140.337 58.25 139.991 58.9148 139.479 59.483C138.974 60.0455 138.326 60.483 137.536 60.7955C136.746 61.1023 135.843 61.2557 134.826 61.2557ZM152.295 53.3295V61H149.21V43.5455H152.227V50.1335H152.381C152.688 49.3949 153.162 48.8125 153.804 48.3864C154.452 47.9545 155.276 47.7386 156.276 47.7386C157.185 47.7386 157.977 47.929 158.653 48.3097C159.33 48.6903 159.852 49.2472 160.222 49.9801C160.597 50.7131 160.784 51.608 160.784 52.6648V61H157.699V53.142C157.699 52.2614 157.472 51.5767 157.017 51.0881C156.568 50.5937 155.938 50.3466 155.125 50.3466C154.58 50.3466 154.091 50.4659 153.659 50.7045C153.233 50.9375 152.898 51.2756 152.653 51.7188C152.415 52.1619 152.295 52.6989 152.295 53.3295ZM169.724 61.2557C168.412 61.2557 167.278 60.983 166.324 60.4375C165.375 59.8864 164.645 59.108 164.134 58.1023C163.622 57.0909 163.366 55.9006 163.366 54.5312C163.366 53.1847 163.622 52.0028 164.134 50.9858C164.651 49.9631 165.372 49.1676 166.298 48.5994C167.224 48.0256 168.312 47.7386 169.562 47.7386C170.369 47.7386 171.131 47.8693 171.847 48.1307C172.568 48.3864 173.205 48.7841 173.756 49.3239C174.313 49.8636 174.75 50.5511 175.068 51.3864C175.386 52.2159 175.545 53.2045 175.545 54.3523V55.2983H164.815V53.2188H172.588C172.582 52.6278 172.455 52.1023 172.205 51.642C171.955 51.1761 171.605 50.8097 171.156 50.5426C170.713 50.2756 170.196 50.142 169.605 50.142C168.974 50.142 168.42 50.2955 167.943 50.6023C167.466 50.9034 167.094 51.3011 166.827 51.7955C166.565 52.2841 166.432 52.821 166.426 53.4062V55.2216C166.426 55.983 166.565 56.6364 166.844 57.1818C167.122 57.7216 167.511 58.1364 168.011 58.4261C168.511 58.7102 169.097 58.8523 169.767 58.8523C170.216 58.8523 170.622 58.7898 170.986 58.6648C171.349 58.5341 171.665 58.3438 171.932 58.0938C172.199 57.8438 172.401 57.5341 172.537 57.1648L175.418 57.4886C175.236 58.25 174.889 58.9148 174.378 59.483C173.872 60.0455 173.224 60.483 172.435 60.7955C171.645 61.1023 170.741 61.2557 169.724 61.2557ZM181.923 61.2642C181.093 61.2642 180.346 61.1165 179.681 60.821C179.022 60.5199 178.499 60.0767 178.113 59.4915C177.732 58.9062 177.542 58.1847 177.542 57.3267C177.542 56.5881 177.678 55.9773 177.951 55.4943C178.224 55.0114 178.596 54.625 179.067 54.3352C179.539 54.0455 180.07 53.8267 180.661 53.679C181.258 53.5256 181.874 53.4148 182.511 53.3466C183.278 53.267 183.9 53.196 184.377 53.1335C184.854 53.0653 185.201 52.9631 185.417 52.8267C185.638 52.6847 185.749 52.4659 185.749 52.1705V52.1193C185.749 51.4773 185.559 50.9801 185.178 50.6278C184.798 50.2756 184.249 50.0994 183.533 50.0994C182.778 50.0994 182.178 50.2642 181.735 50.5938C181.298 50.9233 181.002 51.3125 180.849 51.7614L177.968 51.3523C178.195 50.5568 178.57 49.892 179.093 49.358C179.616 48.8182 180.255 48.4148 181.011 48.1477C181.766 47.875 182.602 47.7386 183.516 47.7386C184.147 47.7386 184.775 47.8125 185.4 47.9602C186.025 48.108 186.596 48.3523 187.113 48.6932C187.63 49.0284 188.045 49.4858 188.357 50.0653C188.675 50.6449 188.835 51.3693 188.835 52.2386V61H185.869V59.2017H185.766C185.579 59.5653 185.315 59.9062 184.974 60.2244C184.638 60.5369 184.215 60.7898 183.704 60.983C183.198 61.1705 182.604 61.2642 181.923 61.2642ZM182.724 58.9972C183.343 58.9972 183.88 58.875 184.335 58.6307C184.789 58.3807 185.138 58.0511 185.383 57.642C185.633 57.233 185.758 56.7869 185.758 56.304V54.7614C185.661 54.8409 185.496 54.9148 185.263 54.983C185.036 55.0511 184.781 55.1108 184.496 55.1619C184.212 55.2131 183.931 55.2585 183.653 55.2983C183.374 55.3381 183.133 55.3722 182.928 55.4006C182.468 55.4631 182.056 55.5653 181.692 55.7074C181.329 55.8494 181.042 56.0483 180.832 56.304C180.621 56.554 180.516 56.8778 180.516 57.2756C180.516 57.8438 180.724 58.2727 181.138 58.5625C181.553 58.8523 182.082 58.9972 182.724 58.9972ZM196.795 61.2301C195.766 61.2301 194.846 60.9659 194.033 60.4375C193.221 59.9091 192.579 59.142 192.107 58.1364C191.636 57.1307 191.4 55.9091 191.4 54.4716C191.4 53.017 191.638 51.7898 192.116 50.7898C192.599 49.7841 193.249 49.0256 194.067 48.5142C194.886 47.9972 195.798 47.7386 196.803 47.7386C197.57 47.7386 198.201 47.8693 198.695 48.1307C199.19 48.3864 199.582 48.696 199.871 49.0597C200.161 49.4176 200.386 49.7557 200.545 50.0739H200.673V43.5455H203.766V61H200.732V58.9375H200.545C200.386 59.2557 200.156 59.5937 199.854 59.9517C199.553 60.304 199.156 60.6051 198.661 60.8551C198.167 61.1051 197.545 61.2301 196.795 61.2301ZM197.656 58.6989C198.309 58.6989 198.866 58.5227 199.326 58.1705C199.786 57.8125 200.136 57.3153 200.374 56.679C200.613 56.0426 200.732 55.3011 200.732 54.4545C200.732 53.608 200.613 52.8722 200.374 52.2472C200.141 51.6222 199.795 51.1364 199.335 50.7898C198.88 50.4432 198.32 50.2699 197.656 50.2699C196.968 50.2699 196.394 50.4489 195.934 50.8068C195.474 51.1648 195.127 51.6591 194.894 52.2898C194.661 52.9205 194.545 53.642 194.545 54.4545C194.545 55.2727 194.661 56.0028 194.894 56.6449C195.133 57.2812 195.482 57.7841 195.942 58.1534C196.408 58.517 196.979 58.6989 197.656 58.6989ZM210.139 43.5455V61H207.054V43.5455H210.139ZM213.312 61V47.9091H216.397V61H213.312ZM214.863 46.0511C214.374 46.0511 213.954 45.8892 213.602 45.5653C213.249 45.2358 213.073 44.8409 213.073 44.3807C213.073 43.9148 213.249 43.5199 213.602 43.196C213.954 42.8665 214.374 42.7017 214.863 42.7017C215.357 42.7017 215.778 42.8665 216.124 43.196C216.477 43.5199 216.653 43.9148 216.653 44.3807C216.653 44.8409 216.477 45.2358 216.124 45.5653C215.778 45.8892 215.357 46.0511 214.863 46.0511ZM222.655 53.3295V61H219.57V47.9091H222.518V50.1335H222.672C222.973 49.4006 223.453 48.8182 224.112 48.3864C224.777 47.9545 225.598 47.7386 226.575 47.7386C227.479 47.7386 228.266 47.9318 228.936 48.3182C229.612 48.7045 230.135 49.2642 230.504 49.9972C230.879 50.7301 231.064 51.6193 231.058 52.6648V61H227.973V53.142C227.973 52.267 227.746 51.5824 227.291 51.0881C226.842 50.5937 226.22 50.3466 225.425 50.3466C224.885 50.3466 224.405 50.4659 223.984 50.7045C223.57 50.9375 223.243 51.2756 223.004 51.7188C222.771 52.1619 222.655 52.6989 222.655 53.3295ZM239.99 61.2557C238.678 61.2557 237.544 60.983 236.589 60.4375C235.641 59.8864 234.911 59.108 234.399 58.1023C233.888 57.0909 233.632 55.9006 233.632 54.5312C233.632 53.1847 233.888 52.0028 234.399 50.9858C234.916 49.9631 235.638 49.1676 236.564 48.5994C237.49 48.0256 238.578 47.7386 239.828 47.7386C240.635 47.7386 241.396 47.8693 242.112 48.1307C242.834 48.3864 243.47 48.7841 244.021 49.3239C244.578 49.8636 245.016 50.5511 245.334 51.3864C245.652 52.2159 245.811 53.2045 245.811 54.3523V55.2983H235.081V53.2188H242.854C242.848 52.6278 242.72 52.1023 242.47 51.642C242.22 51.1761 241.871 50.8097 241.422 50.5426C240.979 50.2756 240.462 50.142 239.871 50.142C239.24 50.142 238.686 50.2955 238.209 50.6023C237.732 50.9034 237.359 51.3011 237.092 51.7955C236.831 52.2841 236.697 52.821 236.692 53.4062V55.2216C236.692 55.983 236.831 56.6364 237.109 57.1818C237.388 57.7216 237.777 58.1364 238.277 58.4261C238.777 58.7102 239.362 58.8523 240.033 58.8523C240.482 58.8523 240.888 58.7898 241.251 58.6648C241.615 58.5341 241.93 58.3438 242.197 58.0938C242.464 57.8438 242.666 57.5341 242.803 57.1648L245.683 57.4886C245.501 58.25 245.155 58.9148 244.643 59.483C244.138 60.0455 243.49 60.483 242.7 60.7955C241.911 61.1023 241.007 61.2557 239.99 61.2557Z" fill="#171717"/>
<path d="M23.3558 77H22.294L25.3651 68.6364H26.4105L29.4815 77H28.4197L25.9205 69.9595H25.8551L23.3558 77ZM23.7479 73.733H28.0277V74.6314H23.7479V73.733ZM33.658 79.3523V70.7273H34.5891V71.7237H34.7034C34.7742 71.6148 34.8722 71.476 34.9975 71.3072C35.1254 71.1357 35.3078 70.9832 35.5447 70.8498C35.7843 70.7137 36.1082 70.6456 36.5166 70.6456C37.0448 70.6456 37.5104 70.7776 37.9133 71.0417C38.3162 71.3058 38.6307 71.6802 38.8566 72.1648C39.0826 72.6494 39.1956 73.2211 39.1956 73.88C39.1956 74.5443 39.0826 75.1201 38.8566 75.6074C38.6307 76.092 38.3176 76.4677 37.9174 76.7346C37.5172 76.9986 37.0557 77.1307 36.533 77.1307C36.13 77.1307 35.8074 77.064 35.5651 76.9306C35.3228 76.7944 35.1363 76.6406 35.0056 76.4691C34.8749 76.2949 34.7742 76.1506 34.7034 76.0362H34.6217V79.3523H33.658ZM34.6054 73.8636C34.6054 74.3374 34.6748 74.7553 34.8137 75.1174C34.9525 75.4767 35.1554 75.7585 35.4222 75.9627C35.689 76.1642 36.0157 76.2649 36.4023 76.2649C36.8052 76.2649 37.1414 76.1587 37.411 75.9464C37.6832 75.7313 37.8874 75.4427 38.0236 75.0806C38.1624 74.7158 38.2318 74.3101 38.2318 73.8636C38.2318 73.4226 38.1638 73.0251 38.0276 72.6712C37.8942 72.3145 37.6914 72.0327 37.4191 71.8258C37.1496 71.6162 36.8107 71.5114 36.4023 71.5114C36.0102 71.5114 35.6808 71.6107 35.414 71.8095C35.1472 72.0055 34.9457 72.2805 34.8096 72.6344C34.6735 72.9856 34.6054 73.3954 34.6054 73.8636ZM42.3967 77.147C41.9992 77.147 41.6384 77.0721 41.3144 76.9224C40.9905 76.7699 40.7332 76.5508 40.5426 76.2649C40.352 75.9763 40.2567 75.6278 40.2567 75.2195C40.2567 74.8601 40.3275 74.5688 40.4691 74.3455C40.6107 74.1196 40.7999 73.9426 41.0367 73.8146C41.2736 73.6867 41.535 73.5914 41.8208 73.5288C42.1094 73.4634 42.3994 73.4117 42.6907 73.3736C43.0718 73.3246 43.3809 73.2878 43.6177 73.2633C43.8573 73.2361 44.0315 73.1912 44.1404 73.1286C44.2521 73.0659 44.3079 72.957 44.3079 72.8018V72.7692C44.3079 72.3662 44.1976 72.0531 43.9771 71.8299C43.7593 71.6067 43.4285 71.495 42.9847 71.495C42.5246 71.495 42.1639 71.5958 41.9025 71.7972C41.6412 71.9987 41.4574 72.2138 41.3512 72.4425L40.4364 72.1158C40.5998 71.7346 40.8176 71.4379 41.0898 71.2255C41.3648 71.0104 41.6643 70.8607 41.9883 70.7763C42.315 70.6892 42.6362 70.6456 42.9521 70.6456C43.1535 70.6456 43.3849 70.6701 43.6463 70.7191C43.9104 70.7654 44.1649 70.862 44.41 71.0091C44.6577 71.1561 44.8633 71.378 45.0266 71.6747C45.19 71.9715 45.2717 72.369 45.2717 72.8672V77H44.3079V76.1506H44.2589C44.1935 76.2867 44.0846 76.4324 43.9322 76.5875C43.7797 76.7427 43.5769 76.8748 43.3237 76.9837C43.0705 77.0926 42.7615 77.147 42.3967 77.147ZM42.5437 76.2812C42.9248 76.2812 43.2461 76.2064 43.5075 76.0566C43.7715 75.9069 43.9703 75.7136 44.1037 75.4767C44.2398 75.2399 44.3079 74.9908 44.3079 74.7294V73.8473C44.267 73.8963 44.1772 73.9412 44.0383 73.9821C43.9022 74.0202 43.7443 74.0542 43.5646 74.0842C43.3877 74.1114 43.2148 74.1359 43.046 74.1577C42.8799 74.1767 42.7451 74.1931 42.6417 74.2067C42.3912 74.2393 42.1571 74.2924 41.9393 74.3659C41.7242 74.4367 41.5499 74.5443 41.4165 74.6886C41.2859 74.8301 41.2205 75.0234 41.2205 75.2685C41.2205 75.6033 41.3444 75.8565 41.5921 76.0281C41.8426 76.1969 42.1598 76.2812 42.5437 76.2812ZM46.9158 77V70.7273H47.8469V71.6747H47.9122C48.0266 71.3643 48.2335 71.1125 48.5329 70.9192C48.8324 70.7259 49.17 70.6293 49.5457 70.6293C49.6165 70.6293 49.705 70.6306 49.8112 70.6333C49.9174 70.6361 49.9977 70.6402 50.0521 70.6456V71.6257C50.0194 71.6175 49.9446 71.6053 49.8275 71.589C49.7132 71.5699 49.592 71.5604 49.4641 71.5604C49.1591 71.5604 48.8869 71.6243 48.6473 71.7523C48.4104 71.8775 48.2226 72.0518 48.0837 72.275C47.9476 72.4956 47.8795 72.7474 47.8795 73.0305V77H46.9158ZM52.9254 77.147C52.528 77.147 52.1672 77.0721 51.8432 76.9224C51.5193 76.7699 51.262 76.5508 51.0714 76.2649C50.8808 75.9763 50.7855 75.6278 50.7855 75.2195C50.7855 74.8601 50.8563 74.5688 50.9979 74.3455C51.1395 74.1196 51.3287 73.9426 51.5655 73.8146C51.8024 73.6867 52.0638 73.5914 52.3496 73.5288C52.6382 73.4634 52.9282 73.4117 53.2195 73.3736C53.6006 73.3246 53.9096 73.2878 54.1465 73.2633C54.3861 73.2361 54.5603 73.1912 54.6692 73.1286C54.7809 73.0659 54.8367 72.957 54.8367 72.8018V72.7692C54.8367 72.3662 54.7264 72.0531 54.5059 71.8299C54.2881 71.6067 53.9573 71.495 53.5135 71.495C53.0534 71.495 52.6927 71.5958 52.4313 71.7972C52.1699 71.9987 51.9862 72.2138 51.88 72.4425L50.9652 72.1158C51.1286 71.7346 51.3464 71.4379 51.6186 71.2255C51.8936 71.0104 52.1931 70.8607 52.5171 70.7763C52.8438 70.6892 53.165 70.6456 53.4808 70.6456C53.6823 70.6456 53.9137 70.6701 54.1751 70.7191C54.4392 70.7654 54.6937 70.862 54.9388 71.0091C55.1865 71.1561 55.3921 71.378 55.5554 71.6747C55.7188 71.9715 55.8004 72.369 55.8004 72.8672V77H54.8367V76.1506H54.7877C54.7223 76.2867 54.6134 76.4324 54.461 76.5875C54.3085 76.7427 54.1057 76.8748 53.8525 76.9837C53.5993 77.0926 53.2903 77.147 52.9254 77.147ZM53.0725 76.2812C53.4536 76.2812 53.7749 76.2064 54.0362 76.0566C54.3003 75.9069 54.4991 75.7136 54.6325 75.4767C54.7686 75.2399 54.8367 74.9908 54.8367 74.7294V73.8473C54.7958 73.8963 54.706 73.9412 54.5671 73.9821C54.431 74.0202 54.2731 74.0542 54.0934 74.0842C53.9164 74.1114 53.7436 74.1359 53.5748 74.1577C53.4087 74.1767 53.2739 74.1931 53.1705 74.2067C52.92 74.2393 52.6859 74.2924 52.4681 74.3659C52.253 74.4367 52.0787 74.5443 51.9453 74.6886C51.8146 74.8301 51.7493 75.0234 51.7493 75.2685C51.7493 75.6033 51.8732 75.8565 52.1209 76.0281C52.3714 76.1969 52.6886 76.2812 53.0725 76.2812ZM59.9765 79.483C59.511 79.483 59.1107 79.4231 58.7759 79.3033C58.441 79.1862 58.1619 79.031 57.9387 78.8377C57.7182 78.6471 57.5426 78.4429 57.4119 78.2251L58.1796 77.6861C58.2668 77.8004 58.377 77.9311 58.5104 78.0781C58.6438 78.2279 58.8262 78.3572 59.0576 78.4661C59.2918 78.5777 59.5981 78.6335 59.9765 78.6335C60.4829 78.6335 60.9008 78.511 61.2302 78.266C61.5597 78.021 61.7244 77.6371 61.7244 77.1143V75.8402H61.6427C61.5719 75.9545 61.4712 76.0961 61.3405 76.2649C61.2125 76.431 61.0274 76.5794 60.7851 76.71C60.5455 76.838 60.2215 76.902 59.8132 76.902C59.3068 76.902 58.8521 76.7822 58.4492 76.5426C58.0489 76.303 57.7318 75.9545 57.4976 75.4972C57.2662 75.0398 57.1505 74.4844 57.1505 73.831C57.1505 73.1884 57.2635 72.629 57.4895 72.1525C57.7154 71.6734 58.0299 71.3031 58.4328 71.0417C58.8358 70.7776 59.3013 70.6456 59.8295 70.6456C60.2379 70.6456 60.5619 70.7137 60.8014 70.8498C61.0437 70.9832 61.2289 71.1357 61.3568 71.3072C61.4875 71.476 61.5882 71.6148 61.659 71.7237H61.757V70.7273H62.6882V77.1797C62.6882 77.7188 62.5656 78.1571 62.3206 78.4947C62.0783 78.835 61.7516 79.0841 61.3405 79.242C60.9321 79.4026 60.4775 79.483 59.9765 79.483ZM59.9438 76.0362C60.3304 76.0362 60.6571 75.9477 60.9239 75.7708C61.1908 75.5938 61.3936 75.3393 61.5324 75.0071C61.6713 74.675 61.7407 74.2775 61.7407 73.8146C61.7407 73.3627 61.6726 72.9638 61.5365 72.6181C61.4004 72.2723 61.1989 72.0014 60.9321 71.8054C60.6653 71.6094 60.3359 71.5114 59.9438 71.5114C59.5355 71.5114 59.1951 71.6148 58.9229 71.8217C58.6534 72.0286 58.4505 72.3063 58.3144 72.6548C58.181 73.0033 58.1143 73.3899 58.1143 73.8146C58.1143 74.2502 58.1824 74.6355 58.3185 74.9703C58.4573 75.3025 58.6615 75.5639 58.9311 75.7544C59.2033 75.9423 59.5409 76.0362 59.9438 76.0362ZM64.3374 77V70.7273H65.2685V71.6747H65.3338C65.4482 71.3643 65.6551 71.1125 65.9545 70.9192C66.254 70.7259 66.5916 70.6293 66.9673 70.6293C67.0381 70.6293 67.1266 70.6306 67.2328 70.6333C67.339 70.6361 67.4193 70.6402 67.4737 70.6456V71.6257C67.441 71.6175 67.3662 71.6053 67.2491 71.589C67.1348 71.5699 67.0136 71.5604 66.8857 71.5604C66.5807 71.5604 66.3085 71.6243 66.0689 71.7523C65.832 71.8775 65.6442 72.0518 65.5053 72.275C65.3692 72.4956 65.3011 72.7474 65.3011 73.0305V77H64.3374ZM70.347 77.147C69.9496 77.147 69.5888 77.0721 69.2648 76.9224C68.9409 76.7699 68.6836 76.5508 68.493 76.2649C68.3024 75.9763 68.2071 75.6278 68.2071 75.2195C68.2071 74.8601 68.2779 74.5688 68.4195 74.3455C68.5611 74.1196 68.7503 73.9426 68.9871 73.8146C69.224 73.6867 69.4854 73.5914 69.7712 73.5288C70.0598 73.4634 70.3498 73.4117 70.6411 73.3736C71.0222 73.3246 71.3312 73.2878 71.5681 73.2633C71.8077 73.2361 71.9819 73.1912 72.0908 73.1286C72.2025 73.0659 72.2583 72.957 72.2583 72.8018V72.7692C72.2583 72.3662 72.148 72.0531 71.9275 71.8299C71.7097 71.6067 71.3789 71.495 70.9351 71.495C70.475 71.495 70.1143 71.5958 69.8529 71.7972C69.5915 71.9987 69.4078 72.2138 69.3016 72.4425L68.3868 72.1158C68.5502 71.7346 68.768 71.4379 69.0402 71.2255C69.3152 71.0104 69.6147 70.8607 69.9387 70.7763C70.2654 70.6892 70.5866 70.6456 70.9024 70.6456C71.1039 70.6456 71.3353 70.6701 71.5967 70.7191C71.8608 70.7654 72.1153 70.862 72.3604 71.0091C72.6081 71.1561 72.8137 71.378 72.977 71.6747C73.1404 71.9715 73.222 72.369 73.222 72.8672V77H72.2583V76.1506H72.2093C72.1439 76.2867 72.035 76.4324 71.8826 76.5875C71.7301 76.7427 71.5273 76.8748 71.2741 76.9837C71.0209 77.0926 70.7119 77.147 70.347 77.147ZM70.4941 76.2812C70.8752 76.2812 71.1965 76.2064 71.4578 76.0566C71.7219 75.9069 71.9207 75.7136 72.0541 75.4767C72.1902 75.2399 72.2583 74.9908 72.2583 74.7294V73.8473C72.2174 73.8963 72.1276 73.9412 71.9887 73.9821C71.8526 74.0202 71.6947 74.0542 71.515 74.0842C71.3381 74.1114 71.1652 74.1359 70.9964 74.1577C70.8303 74.1767 70.6955 74.1931 70.5921 74.2067C70.3416 74.2393 70.1075 74.2924 69.8897 74.3659C69.6746 74.4367 69.5003 74.5443 69.3669 74.6886C69.2363 74.8301 69.1709 75.0234 69.1709 75.2685C69.1709 75.6033 69.2948 75.8565 69.5425 76.0281C69.793 76.1969 70.1102 76.2812 70.4941 76.2812ZM74.8661 79.3523V70.7273H75.7973V71.7237H75.9116C75.9824 71.6148 76.0804 71.476 76.2056 71.3072C76.3336 71.1357 76.516 70.9832 76.7529 70.8498C76.9924 70.7137 77.3164 70.6456 77.7248 70.6456C78.253 70.6456 78.7185 70.7776 79.1215 71.0417C79.5244 71.3058 79.8389 71.6802 80.0648 72.1648C80.2908 72.6494 80.4038 73.2211 80.4038 73.88C80.4038 74.5443 80.2908 75.1201 80.0648 75.6074C79.8389 76.092 79.5258 76.4677 79.1256 76.7346C78.7253 76.9986 78.2639 77.1307 77.7411 77.1307C77.3382 77.1307 77.0156 77.064 76.7733 76.9306C76.531 76.7944 76.3445 76.6406 76.2138 76.4691C76.0831 76.2949 75.9824 76.1506 75.9116 76.0362H75.8299V79.3523H74.8661ZM75.8136 73.8636C75.8136 74.3374 75.883 74.7553 76.0219 75.1174C76.1607 75.4767 76.3635 75.7585 76.6303 75.9627C76.8972 76.1642 77.2239 76.2649 77.6105 76.2649C78.0134 76.2649 78.3496 76.1587 78.6192 75.9464C78.8914 75.7313 79.0956 75.4427 79.2317 75.0806C79.3706 74.7158 79.44 74.3101 79.44 73.8636C79.44 73.4226 79.3719 73.0251 79.2358 72.6712C79.1024 72.3145 78.8996 72.0327 78.6273 71.8258C78.3578 71.6162 78.0188 71.5114 77.6105 71.5114C77.2184 71.5114 76.889 71.6107 76.6222 71.8095C76.3554 72.0055 76.1539 72.2805 76.0178 72.6344C75.8817 72.9856 75.8136 73.3954 75.8136 73.8636ZM82.7227 73.2266V77H81.759V68.6364H82.7227V71.7074H82.8044C82.9514 71.3834 83.172 71.1261 83.466 70.9355C83.7627 70.7422 84.1575 70.6456 84.6503 70.6456C85.0777 70.6456 85.4521 70.7314 85.7733 70.9029C86.0946 71.0717 86.3437 71.3317 86.5207 71.6829C86.7004 72.0314 86.7902 72.4751 86.7902 73.0142V77H85.8264V73.0795C85.8264 72.5813 85.6971 72.1961 85.4385 71.9238C85.1825 71.6489 84.8273 71.5114 84.3726 71.5114C84.0568 71.5114 83.7736 71.5781 83.5232 71.7115C83.2754 71.8449 83.0794 72.0395 82.9351 72.2955C82.7935 72.5514 82.7227 72.8617 82.7227 73.2266ZM93.4036 77.147C93.0062 77.147 92.6454 77.0721 92.3214 76.9224C91.9975 76.7699 91.7402 76.5508 91.5496 76.2649C91.359 75.9763 91.2637 75.6278 91.2637 75.2195C91.2637 74.8601 91.3345 74.5688 91.4761 74.3455C91.6177 74.1196 91.8069 73.9426 92.0437 73.8146C92.2806 73.6867 92.542 73.5914 92.8278 73.5288C93.1164 73.4634 93.4064 73.4117 93.6977 73.3736C94.0788 73.3246 94.3878 73.2878 94.6247 73.2633C94.8643 73.2361 95.0385 73.1912 95.1474 73.1286C95.2591 73.0659 95.3149 72.957 95.3149 72.8018V72.7692C95.3149 72.3662 95.2046 72.0531 94.9841 71.8299C94.7663 71.6067 94.4355 71.495 93.9917 71.495C93.5316 71.495 93.1709 71.5958 92.9095 71.7972C92.6481 71.9987 92.4644 72.2138 92.3582 72.4425L91.4434 72.1158C91.6068 71.7346 91.8246 71.4379 92.0968 71.2255C92.3718 71.0104 92.6713 70.8607 92.9953 70.7763C93.322 70.6892 93.6432 70.6456 93.959 70.6456C94.1605 70.6456 94.3919 70.6701 94.6533 70.7191C94.9174 70.7654 95.1719 70.862 95.417 71.0091C95.6647 71.1561 95.8703 71.378 96.0336 71.6747C96.197 71.9715 96.2787 72.369 96.2787 72.8672V77H95.3149V76.1506H95.2659C95.2005 76.2867 95.0916 76.4324 94.9392 76.5875C94.7867 76.7427 94.5839 76.8748 94.3307 76.9837C94.0775 77.0926 93.7685 77.147 93.4036 77.147ZM93.5507 76.2812C93.9318 76.2812 94.2531 76.2064 94.5144 76.0566C94.7785 75.9069 94.9773 75.7136 95.1107 75.4767C95.2468 75.2399 95.3149 74.9908 95.3149 74.7294V73.8473C95.274 73.8963 95.1842 73.9412 95.0453 73.9821C94.9092 74.0202 94.7513 74.0542 94.5716 74.0842C94.3947 74.1114 94.2218 74.1359 94.053 74.1577C93.8869 74.1767 93.7521 74.1931 93.6487 74.2067C93.3982 74.2393 93.1641 74.2924 92.9463 74.3659C92.7312 74.4367 92.5569 74.5443 92.4235 74.6886C92.2929 74.8301 92.2275 75.0234 92.2275 75.2685C92.2275 75.6033 92.3514 75.8565 92.5991 76.0281C92.8496 76.1969 93.1668 76.2812 93.5507 76.2812ZM102.366 72.1321L101.5 72.3771C101.446 72.2328 101.365 72.0926 101.259 71.9565C101.156 71.8176 101.014 71.7033 100.834 71.6135C100.655 71.5236 100.425 71.4787 100.144 71.4787C99.7605 71.4787 99.4406 71.5672 99.1846 71.7441C98.9314 71.9184 98.8048 72.1403 98.8048 72.4098C98.8048 72.6494 98.892 72.8386 99.0662 72.9775C99.2405 73.1163 99.5127 73.232 99.883 73.3246L100.814 73.5533C101.375 73.6894 101.793 73.8977 102.068 74.1781C102.343 74.4558 102.48 74.8138 102.48 75.2521C102.48 75.6115 102.377 75.9328 102.17 76.2159C101.966 76.4991 101.68 76.7223 101.312 76.8857C100.945 77.049 100.517 77.1307 100.03 77.1307C99.3902 77.1307 98.8607 76.9918 98.4414 76.7141C98.0221 76.4364 97.7567 76.0308 97.645 75.4972L98.5598 75.2685C98.6469 75.6061 98.8117 75.8593 99.054 76.0281C99.299 76.1969 99.6189 76.2812 100.014 76.2812C100.463 76.2812 100.82 76.186 101.084 75.9954C101.35 75.8021 101.484 75.5707 101.484 75.3011C101.484 75.0833 101.408 74.9009 101.255 74.7539C101.103 74.6042 100.869 74.4925 100.553 74.419L99.5073 74.174C98.9328 74.0379 98.5108 73.8269 98.2413 73.541C97.9745 73.2524 97.8411 72.8917 97.8411 72.4588C97.8411 72.1049 97.9404 71.7918 98.1392 71.5195C98.3407 71.2473 98.6143 71.0336 98.96 70.8784C99.3085 70.7232 99.7033 70.6456 100.144 70.6456C100.765 70.6456 101.252 70.7817 101.606 71.054C101.963 71.3262 102.216 71.6856 102.366 72.1321ZM111.379 72.1321L110.513 72.3771C110.458 72.2328 110.378 72.0926 110.272 71.9565C110.168 71.8176 110.027 71.7033 109.847 71.6135C109.667 71.5236 109.437 71.4787 109.157 71.4787C108.773 71.4787 108.453 71.5672 108.197 71.7441C107.944 71.9184 107.818 72.1403 107.818 72.4098C107.818 72.6494 107.905 72.8386 108.079 72.9775C108.253 73.1163 108.525 73.232 108.896 73.3246L109.827 73.5533C110.388 73.6894 110.806 73.8977 111.08 74.1781C111.355 74.4558 111.493 74.8138 111.493 75.2521C111.493 75.6115 111.389 75.9328 111.183 76.2159C110.978 76.4991 110.693 76.7223 110.325 76.8857C109.957 77.049 109.53 77.1307 109.043 77.1307C108.403 77.1307 107.873 76.9918 107.454 76.7141C107.035 76.4364 106.769 76.0308 106.658 75.4972L107.572 75.2685C107.66 75.6061 107.824 75.8593 108.067 76.0281C108.312 76.1969 108.632 76.2812 109.026 76.2812C109.476 76.2812 109.832 76.186 110.096 75.9954C110.363 75.8021 110.497 75.5707 110.497 75.3011C110.497 75.0833 110.42 74.9009 110.268 74.7539C110.115 74.6042 109.881 74.4925 109.565 74.419L108.52 74.174C107.945 74.0379 107.523 73.8269 107.254 73.541C106.987 73.2524 106.854 72.8917 106.854 72.4588C106.854 72.1049 106.953 71.7918 107.152 71.5195C107.353 71.2473 107.627 71.0336 107.973 70.8784C108.321 70.7232 108.716 70.6456 109.157 70.6456C109.778 70.6456 110.265 70.7817 110.619 71.054C110.976 71.3262 111.229 71.6856 111.379 72.1321ZM116.782 74.4354V70.7273H117.746V77H116.782V75.9382H116.717C116.569 76.2567 116.341 76.5276 116.03 76.7509C115.72 76.9714 115.328 77.0817 114.854 77.0817C114.462 77.0817 114.114 76.9959 113.809 76.8244C113.504 76.6502 113.264 76.3888 113.09 76.0403C112.916 75.6891 112.829 75.2467 112.829 74.7131V70.7273H113.793V74.6477C113.793 75.1051 113.92 75.4699 114.176 75.7422C114.435 76.0144 114.764 76.1506 115.165 76.1506C115.404 76.1506 115.648 76.0893 115.896 75.9668C116.146 75.8443 116.356 75.6564 116.525 75.4032C116.696 75.15 116.782 74.8274 116.782 74.4354ZM119.527 77V68.6364H120.49V71.7237H120.572C120.643 71.6148 120.741 71.476 120.866 71.3072C120.994 71.1357 121.176 70.9832 121.413 70.8498C121.653 70.7137 121.977 70.6456 122.385 70.6456C122.913 70.6456 123.379 70.7776 123.782 71.0417C124.185 71.3058 124.499 71.6802 124.725 72.1648C124.951 72.6494 125.064 73.2211 125.064 73.88C125.064 74.5443 124.951 75.1201 124.725 75.6074C124.499 76.092 124.186 76.4677 123.786 76.7346C123.386 76.9986 122.924 77.1307 122.402 77.1307C121.999 77.1307 121.676 77.064 121.434 76.9306C121.191 76.7944 121.005 76.6406 120.874 76.4691C120.744 76.2949 120.643 76.1506 120.572 76.0362H120.458V77H119.527ZM120.474 73.8636C120.474 74.3374 120.543 74.7553 120.682 75.1174C120.821 75.4767 121.024 75.7585 121.291 75.9627C121.558 76.1642 121.884 76.2649 122.271 76.2649C122.674 76.2649 123.01 76.1587 123.28 75.9464C123.552 75.7313 123.756 75.4427 123.892 75.0806C124.031 74.7158 124.1 74.3101 124.1 73.8636C124.1 73.4226 124.032 73.0251 123.896 72.6712C123.763 72.3145 123.56 72.0327 123.288 71.8258C123.018 71.6162 122.679 71.5114 122.271 71.5114C121.879 71.5114 121.549 71.6107 121.283 71.8095C121.016 72.0055 120.814 72.2805 120.678 72.6344C120.542 72.9856 120.474 73.3954 120.474 73.8636ZM127.387 73.2266V77H126.423V68.6364H127.387V71.7074H127.469C127.616 71.3834 127.836 71.1261 128.13 70.9355C128.427 70.7422 128.822 70.6456 129.315 70.6456C129.742 70.6456 130.117 70.7314 130.438 70.9029C130.759 71.0717 131.008 71.3317 131.185 71.6829C131.365 72.0314 131.455 72.4751 131.455 73.0142V77H130.491V73.0795C130.491 72.5813 130.362 72.1961 130.103 71.9238C129.847 71.6489 129.492 71.5114 129.037 71.5114C128.721 71.5114 128.438 71.5781 128.188 71.7115C127.94 71.8449 127.744 72.0395 127.6 72.2955C127.458 72.5514 127.387 72.8617 127.387 73.2266ZM135.733 77.1307C135.128 77.1307 134.607 76.9973 134.169 76.7305C133.733 76.4609 133.397 76.0852 133.16 75.6033C132.926 75.1187 132.809 74.5552 132.809 73.9126C132.809 73.2701 132.926 72.7038 133.16 72.2138C133.397 71.721 133.726 71.3371 134.148 71.0621C134.573 70.7844 135.069 70.6456 135.635 70.6456C135.962 70.6456 136.284 70.7 136.603 70.8089C136.921 70.9179 137.211 71.0948 137.473 71.3398C137.734 71.5821 137.942 71.9034 138.097 72.3036C138.253 72.7038 138.33 73.1966 138.33 73.782V74.1903H133.495V73.3572H137.35C137.35 73.0033 137.279 72.6875 137.138 72.4098C136.999 72.1321 136.8 71.9129 136.541 71.7523C136.286 71.5917 135.983 71.5114 135.635 71.5114C135.251 71.5114 134.919 71.6067 134.638 71.7972C134.361 71.9851 134.147 72.2301 133.997 72.5323C133.847 72.8345 133.773 73.1585 133.773 73.5043V74.0597C133.773 74.5334 133.854 74.935 134.018 75.2644C134.184 75.5911 134.414 75.8402 134.708 76.0117C135.002 76.1805 135.344 76.2649 135.733 76.2649C135.986 76.2649 136.215 76.2295 136.419 76.1587C136.626 76.0852 136.804 75.9763 136.954 75.832C137.104 75.685 137.219 75.5026 137.301 75.2848L138.232 75.5462C138.134 75.862 137.969 76.1397 137.738 76.3793C137.507 76.6161 137.221 76.8013 136.88 76.9347C136.54 77.0653 136.158 77.1307 135.733 77.1307ZM141.527 77.147C141.13 77.147 140.769 77.0721 140.445 76.9224C140.121 76.7699 139.864 76.5508 139.673 76.2649C139.482 75.9763 139.387 75.6278 139.387 75.2195C139.387 74.8601 139.458 74.5688 139.6 74.3455C139.741 74.1196 139.93 73.9426 140.167 73.8146C140.404 73.6867 140.665 73.5914 140.951 73.5288C141.24 73.4634 141.53 73.4117 141.821 73.3736C142.202 73.3246 142.511 73.2878 142.748 73.2633C142.988 73.2361 143.162 73.1912 143.271 73.1286C143.383 73.0659 143.438 72.957 143.438 72.8018V72.7692C143.438 72.3662 143.328 72.0531 143.108 71.8299C142.89 71.6067 142.559 71.495 142.115 71.495C141.655 71.495 141.294 71.5958 141.033 71.7972C140.772 71.9987 140.588 72.2138 140.482 72.4425L139.567 72.1158C139.73 71.7346 139.948 71.4379 140.22 71.2255C140.495 71.0104 140.795 70.8607 141.119 70.7763C141.445 70.6892 141.767 70.6456 142.082 70.6456C142.284 70.6456 142.515 70.6701 142.777 70.7191C143.041 70.7654 143.295 70.862 143.54 71.0091C143.788 71.1561 143.994 71.378 144.157 71.6747C144.32 71.9715 144.402 72.369 144.402 72.8672V77H143.438V76.1506H143.389C143.324 76.2867 143.215 76.4324 143.063 76.5875C142.91 76.7427 142.707 76.8748 142.454 76.9837C142.201 77.0926 141.892 77.147 141.527 77.147ZM141.674 76.2812C142.055 76.2812 142.377 76.2064 142.638 76.0566C142.902 75.9069 143.101 75.7136 143.234 75.4767C143.37 75.2399 143.438 74.9908 143.438 74.7294V73.8473C143.397 73.8963 143.308 73.9412 143.169 73.9821C143.033 74.0202 142.875 74.0542 142.695 74.0842C142.518 74.1114 142.345 74.1359 142.176 74.1577C142.01 74.1767 141.876 74.1931 141.772 74.2067C141.522 74.2393 141.288 74.2924 141.07 74.3659C140.855 74.4367 140.68 74.5443 140.547 74.6886C140.416 74.8301 140.351 75.0234 140.351 75.2685C140.351 75.6033 140.475 75.8565 140.723 76.0281C140.973 76.1969 141.29 76.2812 141.674 76.2812ZM148.415 77.1307C147.892 77.1307 147.431 76.9986 147.03 76.7346C146.63 76.4677 146.317 76.092 146.091 75.6074C145.865 75.1201 145.752 74.5443 145.752 73.88C145.752 73.2211 145.865 72.6494 146.091 72.1648C146.317 71.6802 146.632 71.3058 147.034 71.0417C147.437 70.7776 147.903 70.6456 148.431 70.6456C148.84 70.6456 149.162 70.7137 149.399 70.8498C149.639 70.9832 149.821 71.1357 149.946 71.3072C150.074 71.476 150.174 71.6148 150.244 71.7237H150.326V68.6364H151.29V77H150.359V76.0362H150.244C150.174 76.1506 150.073 76.2949 149.942 76.4691C149.811 76.6406 149.625 76.7944 149.383 76.9306C149.14 77.064 148.818 77.1307 148.415 77.1307ZM148.545 76.2649C148.932 76.2649 149.259 76.1642 149.526 75.9627C149.792 75.7585 149.995 75.4767 150.134 75.1174C150.273 74.7553 150.342 74.3374 150.342 73.8636C150.342 73.3954 150.274 72.9856 150.138 72.6344C150.002 72.2805 149.801 72.0055 149.534 71.8095C149.267 71.6107 148.938 71.5114 148.545 71.5114C148.137 71.5114 147.797 71.6162 147.525 71.8258C147.255 72.0327 147.052 72.3145 146.916 72.6712C146.783 73.0251 146.716 73.4226 146.716 73.8636C146.716 74.3101 146.784 74.7158 146.92 75.0806C147.059 75.4427 147.263 75.7313 147.533 75.9464C147.805 76.1587 148.143 76.2649 148.545 76.2649ZM154.038 68.6364V77H153.074V68.6364H154.038ZM155.688 77V70.7273H156.652V77H155.688ZM156.178 69.6818C155.99 69.6818 155.828 69.6178 155.692 69.4899C155.558 69.3619 155.492 69.2081 155.492 69.0284C155.492 68.8487 155.558 68.6949 155.692 68.5669C155.828 68.439 155.99 68.375 156.178 68.375C156.366 68.375 156.526 68.439 156.66 68.5669C156.796 68.6949 156.864 68.8487 156.864 69.0284C156.864 69.2081 156.796 69.3619 156.66 69.4899C156.526 69.6178 156.366 69.6818 156.178 69.6818ZM159.266 73.2266V77H158.302V70.7273H159.233V71.7074H159.315C159.462 71.3888 159.685 71.1329 159.984 70.9396C160.284 70.7436 160.67 70.6456 161.144 70.6456C161.569 70.6456 161.94 70.7327 162.259 70.907C162.578 71.0785 162.825 71.3398 163.002 71.6911C163.179 72.0395 163.268 72.4806 163.268 73.0142V77H162.304V73.0795C162.304 72.5868 162.176 72.2029 161.92 71.9279C161.664 71.6502 161.313 71.5114 160.866 71.5114C160.559 71.5114 160.284 71.5781 160.041 71.7115C159.802 71.8449 159.613 72.0395 159.474 72.2955C159.335 72.5514 159.266 72.8617 159.266 73.2266ZM167.544 77.1307C166.939 77.1307 166.418 76.9973 165.98 76.7305C165.544 76.4609 165.208 76.0852 164.971 75.6033C164.737 75.1187 164.62 74.5552 164.62 73.9126C164.62 73.2701 164.737 72.7038 164.971 72.2138C165.208 71.721 165.537 71.3371 165.959 71.0621C166.384 70.7844 166.88 70.6456 167.446 70.6456C167.773 70.6456 168.095 70.7 168.414 70.8089C168.732 70.9179 169.022 71.0948 169.284 71.3398C169.545 71.5821 169.753 71.9034 169.908 72.3036C170.064 72.7038 170.141 73.1966 170.141 73.782V74.1903H165.306V73.3572H169.161C169.161 73.0033 169.09 72.6875 168.949 72.4098C168.81 72.1321 168.611 71.9129 168.352 71.7523C168.096 71.5917 167.794 71.5114 167.446 71.5114C167.062 71.5114 166.73 71.6067 166.449 71.7972C166.172 71.9851 165.958 72.2301 165.808 72.5323C165.658 72.8345 165.584 73.1585 165.584 73.5043V74.0597C165.584 74.5334 165.665 74.935 165.829 75.2644C165.995 75.5911 166.225 75.8402 166.519 76.0117C166.813 76.1805 167.154 76.2649 167.544 76.2649C167.797 76.2649 168.026 76.2295 168.23 76.1587C168.437 76.0852 168.615 75.9763 168.765 75.832C168.915 75.685 169.03 75.5026 169.112 75.2848L170.043 75.5462C169.945 75.862 169.78 76.1397 169.549 76.3793C169.318 76.6161 169.032 76.8013 168.691 76.9347C168.351 77.0653 167.969 77.1307 167.544 77.1307Z" fill="#171717"/>
</svg>
