<svg width="40" height="40" viewBox="0 0 40 40" fill="none" xmlns="http://www.w3.org/2000/svg">
<rect width="40" height="40" fill="#006ACC"/>
<path d="M18.621 30H8V22.1998C8 19.328 8.62668 17.0617 9.88004 15.4007C11.1334 13.7398 13.282 12.2729 16.3259 11L18.621 15.1446C16.7491 15.9828 15.4551 16.8211 14.7389 17.6593C14.0226 18.482 13.6239 19.46 13.5425 20.5931H18.621V30ZM31 30H20.379V22.1998C20.379 19.328 21.0057 17.0617 22.259 15.4007C23.5124 13.7398 25.661 12.2729 28.7049 11L31 15.1446C29.1281 15.9828 27.834 16.8211 27.1178 17.6593C26.4016 18.482 26.0028 19.46 25.9214 20.5931H31V30Z" fill="#F5F5F5"/>
</svg>
