<svg width="40" height="40" viewBox="0 0 40 40" fill="none" xmlns="http://www.w3.org/2000/svg">
<g clip-path="url(#clip0_203_77)">
<rect width="40" height="40" fill="#006ACC"/>
<g filter="url(#filter0_di_203_77)">
<rect x="10" y="8" width="60" height="24" rx="2" fill="#EFEFEF"/>
<path d="M23.0128 24V15.6364H25.9368C26.5194 15.6364 26.9999 15.7371 27.3784 15.9386C27.7568 16.1373 28.0386 16.4055 28.2237 16.7431C28.4089 17.0779 28.5014 17.4496 28.5014 17.858C28.5014 18.2173 28.4374 18.5141 28.3095 18.7482C28.1842 18.9824 28.0182 19.1675 27.8113 19.3036C27.6071 19.4397 27.3852 19.5405 27.1456 19.6058V19.6875C27.4015 19.7038 27.6588 19.7937 27.9174 19.957C28.1761 20.1204 28.3925 20.3545 28.5668 20.6594C28.741 20.9644 28.8281 21.3374 28.8281 21.7784C28.8281 22.1977 28.7328 22.5748 28.5423 22.9096C28.3517 23.2445 28.0508 23.5099 27.6397 23.706C27.2286 23.902 26.6937 24 26.0348 24H23.0128ZM24.0256 23.1016H26.0348C26.6964 23.1016 27.166 22.9736 27.4437 22.7177C27.7241 22.459 27.8643 22.146 27.8643 21.7784C27.8643 21.4953 27.7922 21.2339 27.6479 20.9943C27.5036 20.752 27.2981 20.5587 27.0312 20.4144C26.7644 20.2674 26.4486 20.1939 26.0838 20.1939H24.0256V23.1016ZM24.0256 19.3118H25.9041C26.209 19.3118 26.484 19.2519 26.729 19.1321C26.9768 19.0123 27.1728 18.8435 27.3171 18.6257C27.4641 18.4079 27.5376 18.152 27.5376 17.858C27.5376 17.4904 27.4097 17.1787 27.1538 16.9228C26.8978 16.6641 26.4922 16.5348 25.9368 16.5348H24.0256V19.3118ZM34.1997 21.4354V17.7273H35.1635V24H34.1997V22.9382H34.1344C33.9874 23.2567 33.7587 23.5276 33.4483 23.7509C33.1379 23.9714 32.7459 24.0817 32.2722 24.0817C31.8801 24.0817 31.5316 23.9959 31.2267 23.8244C30.9218 23.6502 30.6822 23.3888 30.508 23.0403C30.3337 22.6891 30.2466 22.2467 30.2466 21.7131V17.7273H31.2104V21.6477C31.2104 22.1051 31.3383 22.4699 31.5943 22.7422C31.8529 23.0144 32.1823 23.1506 32.5825 23.1506C32.8221 23.1506 33.0658 23.0893 33.3135 22.9668C33.564 22.8443 33.7736 22.6564 33.9424 22.4032C34.114 22.15 34.1997 21.8274 34.1997 21.4354ZM39.5417 17.7273V18.544H36.291V17.7273H39.5417ZM37.2384 16.2244H38.2022V22.2031C38.2022 22.4754 38.2417 22.6796 38.3206 22.8157C38.4023 22.9491 38.5058 23.0389 38.631 23.0852C38.759 23.1288 38.8937 23.1506 39.0353 23.1506C39.1415 23.1506 39.2286 23.1451 39.2967 23.1342C39.3647 23.1206 39.4192 23.1097 39.46 23.1016L39.6561 23.9673C39.5907 23.9918 39.4995 24.0163 39.3824 24.0408C39.2654 24.0681 39.117 24.0817 38.9373 24.0817C38.665 24.0817 38.3982 24.0231 38.1369 23.9061C37.8782 23.789 37.6632 23.6107 37.4916 23.3711C37.3228 23.1315 37.2384 22.8293 37.2384 22.4645V16.2244ZM43.6044 17.7273V18.544H40.3537V17.7273H43.6044ZM41.3012 16.2244H42.265V22.2031C42.265 22.4754 42.3044 22.6796 42.3834 22.8157C42.4651 22.9491 42.5685 23.0389 42.6938 23.0852C42.8217 23.1288 42.9565 23.1506 43.098 23.1506C43.2042 23.1506 43.2913 23.1451 43.3594 23.1342C43.4275 23.1206 43.4819 23.1097 43.5228 23.1016L43.7188 23.9673C43.6534 23.9918 43.5622 24.0163 43.4452 24.0408C43.3281 24.0681 43.1797 24.0817 43 24.0817C42.7278 24.0817 42.461 24.0231 42.1996 23.9061C41.941 23.789 41.7259 23.6107 41.5544 23.3711C41.3856 23.1315 41.3012 22.8293 41.3012 22.4645V16.2244ZM47.4201 24.1307C46.8538 24.1307 46.357 23.9959 45.9295 23.7264C45.5048 23.4569 45.1727 23.0798 44.9331 22.5952C44.6962 22.1106 44.5778 21.5443 44.5778 20.8963C44.5778 20.2429 44.6962 19.6725 44.9331 19.1852C45.1727 18.6979 45.5048 18.3194 45.9295 18.0499C46.357 17.7804 46.8538 17.6456 47.4201 17.6456C47.9864 17.6456 48.4819 17.7804 48.9066 18.0499C49.3341 18.3194 49.6662 18.6979 49.9031 19.1852C50.1426 19.6725 50.2624 20.2429 50.2624 20.8963C50.2624 21.5443 50.1426 22.1106 49.9031 22.5952C49.6662 23.0798 49.3341 23.4569 48.9066 23.7264C48.4819 23.9959 47.9864 24.1307 47.4201 24.1307ZM47.4201 23.2649C47.8503 23.2649 48.2042 23.1547 48.4819 22.9341C48.7596 22.7136 48.9651 22.4237 49.0986 22.0643C49.232 21.7049 49.2987 21.3156 49.2987 20.8963C49.2987 20.477 49.232 20.0864 49.0986 19.7243C48.9651 19.3622 48.7596 19.0695 48.4819 18.8462C48.2042 18.623 47.8503 18.5114 47.4201 18.5114C46.9899 18.5114 46.636 18.623 46.3583 18.8462C46.0806 19.0695 45.8751 19.3622 45.7417 19.7243C45.6083 20.0864 45.5416 20.477 45.5416 20.8963C45.5416 21.3156 45.6083 21.7049 45.7417 22.0643C45.8751 22.4237 46.0806 22.7136 46.3583 22.9341C46.636 23.1547 46.9899 23.2649 47.4201 23.2649ZM52.5824 20.2266V24H51.6186V17.7273H52.5497V18.7074H52.6314C52.7784 18.3888 53.0017 18.1329 53.3012 17.9396C53.6006 17.7436 53.9872 17.6456 54.461 17.6456C54.8857 17.6456 55.2573 17.7327 55.5758 17.907C55.8944 18.0785 56.1421 18.3398 56.3191 18.6911C56.4961 19.0395 56.5845 19.4806 56.5845 20.0142V24H55.6208V20.0795C55.6208 19.5868 55.4928 19.2029 55.2369 18.9279C54.981 18.6502 54.6298 18.5114 54.1833 18.5114C53.8756 18.5114 53.6006 18.5781 53.3583 18.7115C53.1187 18.8449 52.9295 19.0395 52.7907 19.2955C52.6518 19.5514 52.5824 19.8617 52.5824 20.2266Z" fill="black"/>
</g>
</g>
<defs>
<filter id="filter0_di_203_77" x="9" y="7" width="62" height="26" filterUnits="userSpaceOnUse" color-interpolation-filters="sRGB">
<feFlood flood-opacity="0" result="BackgroundImageFix"/>
<feColorMatrix in="SourceAlpha" type="matrix" values="0 0 0 0 0 0 0 0 0 0 0 0 0 0 0 0 0 0 127 0" result="hardAlpha"/>
<feMorphology radius="1" operator="dilate" in="SourceAlpha" result="effect1_dropShadow_203_77"/>
<feOffset/>
<feComposite in2="hardAlpha" operator="out"/>
<feColorMatrix type="matrix" values="0 0 0 0 0.462745 0 0 0 0 0.462745 0 0 0 0 0.462745 0 0 0 1 0"/>
<feBlend mode="normal" in2="BackgroundImageFix" result="effect1_dropShadow_203_77"/>
<feBlend mode="normal" in="SourceGraphic" in2="effect1_dropShadow_203_77" result="shape"/>
<feColorMatrix in="SourceAlpha" type="matrix" values="0 0 0 0 0 0 0 0 0 0 0 0 0 0 0 0 0 0 127 0" result="hardAlpha"/>
<feOffset dy="1"/>
<feComposite in2="hardAlpha" operator="arithmetic" k2="-1" k3="1"/>
<feColorMatrix type="matrix" values="0 0 0 0 1 0 0 0 0 1 0 0 0 0 1 0 0 0 1 0"/>
<feBlend mode="normal" in2="shape" result="effect2_innerShadow_203_77"/>
</filter>
<clipPath id="clip0_203_77">
<rect width="40" height="40" fill="white"/>
</clipPath>
</defs>
</svg>
