<svg width="40" height="40" viewBox="0 0 40 40" fill="none" xmlns="http://www.w3.org/2000/svg">
<g clip-path="url(#clip0_203_80)">
<rect width="40" height="40" fill="#006ACC"/>
<rect x="11" y="10" width="40" height="20" rx="2" fill="#1E1E1E"/>
<path d="M20.5657 23.27C20.7528 23.27 20.9344 23.2401 21.1104 23.1802C21.29 23.1203 21.4491 23.0361 21.5876 22.9275C21.7262 22.8227 21.8366 22.6991 21.9189 22.5569C22.005 22.4109 22.05 22.2537 22.0537 22.0852H23.0364C23.0326 22.3547 22.9615 22.613 22.823 22.8601C22.6882 23.1034 22.5067 23.3168 22.2783 23.5002C22.05 23.6874 21.7879 23.8372 21.4922 23.9495C21.1965 24.058 20.8876 24.1123 20.5657 24.1123C20.1052 24.1123 19.7028 24.0299 19.3584 23.8652C19.014 23.7005 18.7276 23.4778 18.4993 23.197C18.2672 22.92 18.0931 22.5999 17.9771 22.2368C17.861 21.87 17.803 21.4844 17.803 21.0801V20.8442C17.803 20.4437 17.861 20.06 17.9771 19.6931C18.0931 19.3263 18.2672 19.0024 18.4993 18.7217C18.7276 18.4447 19.014 18.2238 19.3584 18.0591C19.7028 17.8944 20.1052 17.812 20.5657 17.812C20.925 17.812 21.2545 17.87 21.554 17.9861C21.8572 18.0984 22.1192 18.2519 22.3401 18.4465C22.5572 18.6449 22.7275 18.8789 22.8511 19.1484C22.9746 19.418 23.0364 19.7062 23.0364 20.0132H22.0537C22.05 19.8298 22.0088 19.6576 21.9302 19.4966C21.8553 19.3319 21.7524 19.1877 21.6213 19.0642C21.4903 18.9407 21.3331 18.8433 21.1497 18.7722C20.97 18.7011 20.7753 18.6655 20.5657 18.6655C20.2437 18.6655 19.9723 18.731 19.7515 18.8621C19.5343 18.9893 19.3584 19.1559 19.2236 19.3618C19.0889 19.5715 18.9915 19.8054 18.9316 20.0637C18.8755 20.322 18.8474 20.5822 18.8474 20.8442V21.0801C18.8474 21.3459 18.8755 21.6098 18.9316 21.8718C18.9915 22.1301 19.0889 22.3622 19.2236 22.5681C19.3547 22.7778 19.5287 22.9481 19.7458 23.0791C19.9667 23.2064 20.24 23.27 20.5657 23.27ZM24.5918 20.906C24.5918 20.468 24.6554 20.0618 24.7827 19.6875C24.91 19.3094 25.0934 18.9819 25.333 18.7048C25.5688 18.4278 25.8571 18.2107 26.1978 18.0535C26.5384 17.8925 26.9221 17.812 27.3489 17.812C27.7794 17.812 28.165 17.8925 28.5056 18.0535C28.85 18.2107 29.142 18.4278 29.3816 18.7048C29.6174 18.9819 29.799 19.3094 29.9263 19.6875C30.0535 20.0618 30.1172 20.468 30.1172 20.906V21.0295C30.1172 21.4675 30.0535 21.8737 29.9263 22.248C29.799 22.6224 29.6174 22.9481 29.3816 23.2251C29.142 23.5021 28.8519 23.7192 28.5112 23.8765C28.1706 24.0337 27.7869 24.1123 27.3601 24.1123C26.9296 24.1123 26.5422 24.0337 26.1978 23.8765C25.8571 23.7192 25.5688 23.5021 25.333 23.2251C25.0934 22.9481 24.91 22.6224 24.7827 22.248C24.6554 21.8737 24.5918 21.4675 24.5918 21.0295V20.906ZM25.6306 21.0295C25.6306 21.329 25.6662 21.6154 25.7373 21.8887C25.8084 22.1582 25.917 22.3959 26.063 22.6018C26.2052 22.8077 26.3849 22.9705 26.6021 23.0903C26.8192 23.2101 27.0719 23.27 27.3601 23.27C27.6446 23.27 27.8936 23.2101 28.1069 23.0903C28.3241 22.9705 28.5056 22.8077 28.6516 22.6018C28.7939 22.3959 28.9006 22.1582 28.9717 21.8887C29.0428 21.6154 29.0784 21.329 29.0784 21.0295V20.906C29.0784 20.6103 29.0409 20.3276 28.9661 20.0581C28.8949 19.7848 28.7882 19.5452 28.646 19.3394C28.5 19.1335 28.3184 18.9706 28.1013 18.8508C27.8879 18.7273 27.6371 18.6655 27.3489 18.6655C27.0606 18.6655 26.8098 18.7273 26.5964 18.8508C26.3831 18.9706 26.2052 19.1335 26.063 19.3394C25.917 19.5452 25.8084 19.7848 25.7373 20.0581C25.6662 20.3276 25.6306 20.6103 25.6306 20.906V21.0295ZM31.594 20.9116C31.594 20.4587 31.6501 20.0431 31.7625 19.665C31.8785 19.2832 32.0432 18.9556 32.2566 18.6824C32.4662 18.4091 32.7208 18.1957 33.0203 18.0422C33.3197 17.8888 33.6548 17.812 34.0254 17.812C34.3885 17.812 34.7048 17.8738 34.9744 17.9973C35.2476 18.1171 35.4835 18.2931 35.6819 18.5251V15.375H36.7207V24H35.7661L35.7212 23.3599C35.519 23.6069 35.2776 23.7941 34.9968 23.9214C34.7161 24.0487 34.3885 24.1123 34.0142 24.1123C33.6473 24.1123 33.3141 24.0337 33.0146 23.8765C32.7189 23.7192 32.4662 23.5021 32.2566 23.2251C32.047 22.9481 31.8841 22.6224 31.7681 22.248C31.652 21.87 31.594 21.4638 31.594 21.0295V20.9116ZM32.6328 21.0295C32.6328 21.3253 32.6646 21.606 32.7283 21.8718C32.7919 22.1376 32.8911 22.3716 33.0259 22.5737C33.1569 22.7759 33.3254 22.9368 33.5312 23.0566C33.7371 23.1727 33.9842 23.2307 34.2725 23.2307C34.6206 23.2307 34.9089 23.1521 35.1372 22.9949C35.3656 22.8376 35.5471 22.6261 35.6819 22.3604V19.5415C35.5471 19.2944 35.3656 19.0923 35.1372 18.9351C34.9089 18.7741 34.6243 18.6936 34.2837 18.6936C33.9917 18.6936 33.7409 18.7535 33.5312 18.8733C33.3254 18.9931 33.1569 19.1541 33.0259 19.3562C32.8911 19.5621 32.7919 19.7998 32.7283 20.0693C32.6646 20.3351 32.6328 20.6159 32.6328 20.9116V21.0295ZM41.3813 24.1123C40.9546 24.1123 40.5615 24.0393 40.2021 23.8933C39.8465 23.7473 39.5414 23.5433 39.2869 23.2812C39.0323 23.0192 38.8339 22.7085 38.6917 22.3491C38.5494 21.9897 38.4783 21.5986 38.4783 21.1755V20.9397C38.4783 20.4493 38.5569 20.0113 38.7141 19.6257C38.8713 19.2364 39.081 18.907 39.343 18.6375C39.6013 18.3717 39.8952 18.1676 40.2246 18.0254C40.5578 17.8831 40.8984 17.812 41.2466 17.812C41.6846 17.812 42.0664 17.8888 42.3921 18.0422C42.7215 18.192 42.9948 18.3997 43.2119 18.6655C43.429 18.9351 43.59 19.2514 43.6948 19.6145C43.8034 19.9776 43.8577 20.3707 43.8577 20.7937V21.2598H39.5171V21.2991C39.5433 21.5948 39.6013 21.855 39.6912 22.0796C39.7847 22.3042 39.912 22.5026 40.073 22.6748C40.2377 22.8582 40.4361 23.0024 40.6682 23.1072C40.9003 23.212 41.1567 23.2644 41.4375 23.2644C41.8081 23.2644 42.1375 23.1895 42.4258 23.0398C42.714 22.8901 42.9536 22.6917 43.1445 22.4446L43.7791 22.9387C43.5769 23.2457 43.2737 23.519 42.8694 23.7585C42.4688 23.9944 41.9728 24.1123 41.3813 24.1123ZM41.2466 18.6655C41.0369 18.6655 40.8385 18.7048 40.6514 18.7834C40.4642 18.8583 40.2957 18.9688 40.146 19.1147C39.9963 19.2645 39.869 19.4479 39.7642 19.665C39.6631 19.8784 39.592 20.1255 39.5508 20.4062H42.8188V20.3557C42.8188 20.1685 42.7833 19.9683 42.7122 19.7549C42.641 19.5378 42.5418 19.3506 42.4146 19.1934C42.2873 19.0361 42.1263 18.9089 41.9316 18.8115C41.7407 18.7142 41.5124 18.6655 41.2466 18.6655Z" fill="#DF640C"/>
</g>
<defs>
<clipPath id="clip0_203_80">
<rect width="40" height="40" fill="white"/>
</clipPath>
</defs>
</svg>
