<svg width="272" height="120" viewBox="0 0 272 120" fill="none" xmlns="http://www.w3.org/2000/svg">
<rect width="272" height="120" fill="#8AC2FF"/>
<rect x="36" y="44" width="200" height="32" rx="16" fill="#EFEFEF"/>
<path d="M54 60L46.5 64.3301L46.5 55.6699L54 60Z" fill="#171717"/>
<path d="M64.5852 63.0966C64.1364 63.0947 63.7528 62.9763 63.4347 62.7415C63.1165 62.5066 62.8731 62.1648 62.7045 61.7159C62.536 61.267 62.4517 60.7263 62.4517 60.0938C62.4517 59.4631 62.536 58.9242 62.7045 58.4773C62.875 58.0303 63.1193 57.6894 63.4375 57.4545C63.7576 57.2197 64.1402 57.1023 64.5852 57.1023C65.0303 57.1023 65.4119 57.2206 65.7301 57.4574C66.0483 57.6922 66.2917 58.0331 66.4602 58.4801C66.6307 58.9252 66.7159 59.4631 66.7159 60.0938C66.7159 60.7282 66.6316 61.2699 66.4631 61.7188C66.2945 62.1657 66.0511 62.5076 65.733 62.7443C65.4148 62.9792 65.0322 63.0966 64.5852 63.0966ZM64.5852 62.3381C64.9792 62.3381 65.2869 62.1458 65.5085 61.7614C65.732 61.3769 65.8438 60.821 65.8438 60.0938C65.8438 59.6108 65.7926 59.2027 65.6903 58.8693C65.59 58.5341 65.4451 58.2803 65.2557 58.108C65.0682 57.9337 64.8447 57.8466 64.5852 57.8466C64.1932 57.8466 63.8854 58.0398 63.6619 58.4261C63.4384 58.8125 63.3258 59.3684 63.3239 60.0938C63.3239 60.5786 63.3741 60.9886 63.4744 61.3239C63.5767 61.6572 63.7216 61.91 63.9091 62.0824C64.0966 62.2528 64.322 62.3381 64.5852 62.3381ZM69.7493 63.0966C69.3004 63.0947 68.9169 62.9763 68.5987 62.7415C68.2805 62.5066 68.0372 62.1648 67.8686 61.7159C67.7 61.267 67.6158 60.7263 67.6158 60.0938C67.6158 59.4631 67.7 58.9242 67.8686 58.4773C68.0391 58.0303 68.2834 57.6894 68.6016 57.4545C68.9216 57.2197 69.3042 57.1023 69.7493 57.1023C70.1944 57.1023 70.576 57.2206 70.8942 57.4574C71.2124 57.6922 71.4557 58.0331 71.6243 58.4801C71.7947 58.9252 71.88 59.4631 71.88 60.0938C71.88 60.7282 71.7957 61.2699 71.6271 61.7188C71.4586 62.1657 71.2152 62.5076 70.897 62.7443C70.5788 62.9792 70.1963 63.0966 69.7493 63.0966ZM69.7493 62.3381C70.1432 62.3381 70.451 62.1458 70.6726 61.7614C70.8961 61.3769 71.0078 60.821 71.0078 60.0938C71.0078 59.6108 70.9567 59.2027 70.8544 58.8693C70.754 58.5341 70.6091 58.2803 70.4197 58.108C70.2322 57.9337 70.0088 57.8466 69.7493 57.8466C69.3572 57.8466 69.0495 58.0398 68.826 58.4261C68.6025 58.8125 68.4898 59.3684 68.4879 60.0938C68.4879 60.5786 68.5381 60.9886 68.6385 61.3239C68.7408 61.6572 68.8857 61.91 69.0732 62.0824C69.2607 62.2528 69.486 62.3381 69.7493 62.3381ZM73.4588 62.2784C73.3035 62.2784 73.17 62.2235 73.0582 62.1136C72.9465 62.0019 72.8906 61.8674 72.8906 61.7102C72.8906 61.5549 72.9465 61.4223 73.0582 61.3125C73.17 61.2008 73.3035 61.1449 73.4588 61.1449C73.6141 61.1449 73.7476 61.2008 73.8594 61.3125C73.9711 61.4223 74.027 61.5549 74.027 61.7102C74.027 61.8144 74.0005 61.91 73.9474 61.9972C73.8963 62.0824 73.8281 62.1506 73.7429 62.2017C73.6577 62.2528 73.563 62.2784 73.4588 62.2784ZM73.4588 59.3636C73.3035 59.3636 73.17 59.3087 73.0582 59.1989C72.9465 59.0871 72.8906 58.9527 72.8906 58.7955C72.8906 58.6402 72.9465 58.5076 73.0582 58.3977C73.17 58.286 73.3035 58.2301 73.4588 58.2301C73.6141 58.2301 73.7476 58.286 73.8594 58.3977C73.9711 58.5076 74.027 58.6402 74.027 58.7955C74.027 58.8996 74.0005 58.9953 73.9474 59.0824C73.8963 59.1676 73.8281 59.2358 73.7429 59.2869C73.6577 59.3381 73.563 59.3636 73.4588 59.3636ZM77.179 63.0966C76.7301 63.0947 76.3466 62.9763 76.0284 62.7415C75.7102 62.5066 75.4669 62.1648 75.2983 61.7159C75.1297 61.267 75.0455 60.7263 75.0455 60.0938C75.0455 59.4631 75.1297 58.9242 75.2983 58.4773C75.4688 58.0303 75.7131 57.6894 76.0312 57.4545C76.3513 57.2197 76.7339 57.1023 77.179 57.1023C77.6241 57.1023 78.0057 57.2206 78.3239 57.4574C78.642 57.6922 78.8854 58.0331 79.054 58.4801C79.2244 58.9252 79.3097 59.4631 79.3097 60.0938C79.3097 60.7282 79.2254 61.2699 79.0568 61.7188C78.8883 62.1657 78.6449 62.5076 78.3267 62.7443C78.0085 62.9792 77.6259 63.0966 77.179 63.0966ZM77.179 62.3381C77.5729 62.3381 77.8807 62.1458 78.1023 61.7614C78.3258 61.3769 78.4375 60.821 78.4375 60.0938C78.4375 59.6108 78.3864 59.2027 78.2841 58.8693C78.1837 58.5341 78.0388 58.2803 77.8494 58.108C77.6619 57.9337 77.4384 57.8466 77.179 57.8466C76.7869 57.8466 76.4792 58.0398 76.2557 58.4261C76.0322 58.8125 75.9195 59.3684 75.9176 60.0938C75.9176 60.5786 75.9678 60.9886 76.0682 61.3239C76.1705 61.6572 76.3153 61.91 76.5028 62.0824C76.6903 62.2528 76.9157 62.3381 77.179 62.3381ZM82.343 63.0966C81.8942 63.0947 81.5107 62.9763 81.1925 62.7415C80.8743 62.5066 80.6309 62.1648 80.4624 61.7159C80.2938 61.267 80.2095 60.7263 80.2095 60.0938C80.2095 59.4631 80.2938 58.9242 80.4624 58.4773C80.6328 58.0303 80.8771 57.6894 81.1953 57.4545C81.5154 57.2197 81.898 57.1023 82.343 57.1023C82.7881 57.1023 83.1697 57.2206 83.4879 57.4574C83.8061 57.6922 84.0495 58.0331 84.218 58.4801C84.3885 58.9252 84.4737 59.4631 84.4737 60.0938C84.4737 60.7282 84.3894 61.2699 84.2209 61.7188C84.0523 62.1657 83.8089 62.5076 83.4908 62.7443C83.1726 62.9792 82.79 63.0966 82.343 63.0966ZM82.343 62.3381C82.737 62.3381 83.0447 62.1458 83.2663 61.7614C83.4898 61.3769 83.6016 60.821 83.6016 60.0938C83.6016 59.6108 83.5504 59.2027 83.4482 58.8693C83.3478 58.5341 83.2029 58.2803 83.0135 58.108C82.826 57.9337 82.6025 57.8466 82.343 57.8466C81.951 57.8466 81.6432 58.0398 81.4197 58.4261C81.1963 58.8125 81.0836 59.3684 81.0817 60.0938C81.0817 60.5786 81.1319 60.9886 81.2322 61.3239C81.3345 61.6572 81.4794 61.91 81.6669 62.0824C81.8544 62.2528 82.0798 62.3381 82.343 62.3381ZM89.826 56.9091L87.951 63.875H87.1925L89.0675 56.9091H89.826ZM94.679 63.0966C94.2301 63.0947 93.8466 62.9763 93.5284 62.7415C93.2102 62.5066 92.9669 62.1648 92.7983 61.7159C92.6297 61.267 92.5455 60.7263 92.5455 60.0938C92.5455 59.4631 92.6297 58.9242 92.7983 58.4773C92.9688 58.0303 93.2131 57.6894 93.5312 57.4545C93.8513 57.2197 94.2339 57.1023 94.679 57.1023C95.1241 57.1023 95.5057 57.2206 95.8239 57.4574C96.142 57.6922 96.3854 58.0331 96.554 58.4801C96.7244 58.9252 96.8097 59.4631 96.8097 60.0938C96.8097 60.7282 96.7254 61.2699 96.5568 61.7188C96.3883 62.1657 96.1449 62.5076 95.8267 62.7443C95.5085 62.9792 95.1259 63.0966 94.679 63.0966ZM94.679 62.3381C95.0729 62.3381 95.3807 62.1458 95.6023 61.7614C95.8258 61.3769 95.9375 60.821 95.9375 60.0938C95.9375 59.6108 95.8864 59.2027 95.7841 58.8693C95.6837 58.5341 95.5388 58.2803 95.3494 58.108C95.1619 57.9337 94.9384 57.8466 94.679 57.8466C94.2869 57.8466 93.9792 58.0398 93.7557 58.4261C93.5322 58.8125 93.4195 59.3684 93.4176 60.0938C93.4176 60.5786 93.4678 60.9886 93.5682 61.3239C93.6705 61.6572 93.8153 61.91 94.0028 62.0824C94.1903 62.2528 94.4157 62.3381 94.679 62.3381ZM97.8175 63V62.3636L99.7862 60.3239C99.9964 60.1023 100.17 59.9081 100.306 59.7415C100.444 59.5729 100.548 59.4129 100.616 59.2614C100.684 59.1098 100.718 58.9489 100.718 58.7784C100.718 58.5852 100.673 58.4186 100.582 58.2784C100.491 58.1364 100.367 58.0275 100.21 57.9517C100.052 57.8741 99.8752 57.8352 99.6783 57.8352C99.4699 57.8352 99.2881 57.8778 99.1328 57.9631C98.9775 58.0483 98.8582 58.1686 98.7749 58.3239C98.6915 58.4792 98.6499 58.661 98.6499 58.8693H97.8118C97.8118 58.5152 97.8932 58.2055 98.0561 57.9403C98.219 57.6752 98.4425 57.4697 98.7266 57.3239C99.0107 57.1761 99.3336 57.1023 99.6953 57.1023C100.061 57.1023 100.383 57.1752 100.661 57.321C100.942 57.465 101.16 57.6619 101.317 57.9119C101.475 58.16 101.553 58.4403 101.553 58.7528C101.553 58.9688 101.513 59.1799 101.431 59.3864C101.352 59.5928 101.212 59.8229 101.013 60.0767C100.815 60.3286 100.538 60.6345 100.184 60.9943L99.0277 62.2045V62.2472H101.647V63H97.8175ZM103.295 62.2784C103.139 62.2784 103.006 62.2235 102.894 62.1136C102.782 62.0019 102.727 61.8674 102.727 61.7102C102.727 61.5549 102.782 61.4223 102.894 61.3125C103.006 61.2008 103.139 61.1449 103.295 61.1449C103.45 61.1449 103.584 61.2008 103.695 61.3125C103.807 61.4223 103.863 61.5549 103.863 61.7102C103.863 61.8144 103.836 61.91 103.783 61.9972C103.732 62.0824 103.664 62.1506 103.579 62.2017C103.494 62.2528 103.399 62.2784 103.295 62.2784ZM103.295 59.3636C103.139 59.3636 103.006 59.3087 102.894 59.1989C102.782 59.0871 102.727 58.9527 102.727 58.7955C102.727 58.6402 102.782 58.5076 102.894 58.3977C103.006 58.286 103.139 58.2301 103.295 58.2301C103.45 58.2301 103.584 58.286 103.695 58.3977C103.807 58.5076 103.863 58.6402 103.863 58.7955C103.863 58.8996 103.836 58.9953 103.783 59.0824C103.732 59.1676 103.664 59.2358 103.579 59.2869C103.494 59.3381 103.399 59.3636 103.295 59.3636ZM107.015 63.0966C106.566 63.0947 106.183 62.9763 105.864 62.7415C105.546 62.5066 105.303 62.1648 105.134 61.7159C104.966 61.267 104.881 60.7263 104.881 60.0938C104.881 59.4631 104.966 58.9242 105.134 58.4773C105.305 58.0303 105.549 57.6894 105.867 57.4545C106.187 57.2197 106.57 57.1023 107.015 57.1023C107.46 57.1023 107.842 57.2206 108.16 57.4574C108.478 57.6922 108.721 58.0331 108.89 58.4801C109.06 58.9252 109.146 59.4631 109.146 60.0938C109.146 60.7282 109.061 61.2699 108.893 61.7188C108.724 62.1657 108.481 62.5076 108.163 62.7443C107.844 62.9792 107.462 63.0966 107.015 63.0966ZM107.015 62.3381C107.409 62.3381 107.717 62.1458 107.938 61.7614C108.162 61.3769 108.273 60.821 108.273 60.0938C108.273 59.6108 108.222 59.2027 108.12 58.8693C108.02 58.5341 107.875 58.2803 107.685 58.108C107.498 57.9337 107.274 57.8466 107.015 57.8466C106.623 57.8466 106.315 58.0398 106.092 58.4261C105.868 58.8125 105.755 59.3684 105.754 60.0938C105.754 60.5786 105.804 60.9886 105.904 61.3239C106.006 61.6572 106.151 61.91 106.339 62.0824C106.526 62.2528 106.752 62.3381 107.015 62.3381ZM112.179 63.0966C111.73 63.0947 111.347 62.9763 111.028 62.7415C110.71 62.5066 110.467 62.1648 110.298 61.7159C110.13 61.267 110.045 60.7263 110.045 60.0938C110.045 59.4631 110.13 58.9242 110.298 58.4773C110.469 58.0303 110.713 57.6894 111.031 57.4545C111.351 57.2197 111.734 57.1023 112.179 57.1023C112.624 57.1023 113.006 57.2206 113.324 57.4574C113.642 57.6922 113.885 58.0331 114.054 58.4801C114.224 58.9252 114.31 59.4631 114.31 60.0938C114.31 60.7282 114.225 61.2699 114.057 61.7188C113.888 62.1657 113.645 62.5076 113.327 62.7443C113.009 62.9792 112.626 63.0966 112.179 63.0966ZM112.179 62.3381C112.573 62.3381 112.881 62.1458 113.102 61.7614C113.326 61.3769 113.438 60.821 113.438 60.0938C113.438 59.6108 113.386 59.2027 113.284 58.8693C113.184 58.5341 113.039 58.2803 112.849 58.108C112.662 57.9337 112.438 57.8466 112.179 57.8466C111.787 57.8466 111.479 58.0398 111.256 58.4261C111.032 58.8125 110.92 59.3684 110.918 60.0938C110.918 60.5786 110.968 60.9886 111.068 61.3239C111.17 61.6572 111.315 61.91 111.503 62.0824C111.69 62.2528 111.916 62.3381 112.179 62.3381Z" fill="#171717"/>
<rect x="123" y="59" width="65" height="2" rx="1" fill="#A3A3A3"/>
<path d="M203 64.3625V63.3375C203.75 63.1208 204.354 62.7042 204.813 62.0875C205.271 61.4708 205.5 60.7708 205.5 59.9875C205.5 59.2042 205.271 58.5042 204.813 57.8875C204.354 57.2708 203.75 56.8542 203 56.6375V55.6125C204.033 55.8458 204.875 56.3687 205.525 57.1812C206.175 57.9937 206.5 58.9292 206.5 59.9875C206.5 61.0458 206.175 61.9812 205.525 62.7937C204.875 63.6062 204.033 64.1292 203 64.3625ZM197.5 61.5V58.5H199.5L202 56V64L199.5 61.5H197.5ZM203 62V57.975C203.392 58.1583 203.698 58.4333 203.919 58.8C204.14 59.1667 204.25 59.5667 204.25 60C204.25 60.425 204.14 60.8187 203.919 61.1812C203.698 61.5437 203.392 61.8167 203 62ZM201 58.425L199.925 59.5H198.5V60.5H199.925L201 61.575V58.425Z" fill="#171717"/>
<path d="M222 64C221.725 64 221.49 63.9021 221.294 63.7063C221.098 63.5104 221 63.275 221 63C221 62.725 221.098 62.4896 221.294 62.2938C221.49 62.0979 221.725 62 222 62C222.275 62 222.51 62.0979 222.706 62.2938C222.902 62.4896 223 62.725 223 63C223 63.275 222.902 63.5104 222.706 63.7063C222.51 63.9021 222.275 64 222 64ZM222 61C221.725 61 221.49 60.9021 221.294 60.7063C221.098 60.5104 221 60.275 221 60C221 59.725 221.098 59.4896 221.294 59.2938C221.49 59.0979 221.725 59 222 59C222.275 59 222.51 59.0979 222.706 59.2938C222.902 59.4896 223 59.725 223 60C223 60.275 222.902 60.5104 222.706 60.7063C222.51 60.9021 222.275 61 222 61ZM222 58C221.725 58 221.49 57.9021 221.294 57.7063C221.098 57.5104 221 57.275 221 57C221 56.725 221.098 56.4896 221.294 56.2938C221.49 56.0979 221.725 56 222 56C222.275 56 222.51 56.0979 222.706 56.2938C222.902 56.4896 223 56.725 223 57C223 57.275 222.902 57.5104 222.706 57.7063C222.51 57.9021 222.275 58 222 58Z" fill="black"/>
</svg>
