<svg width="272" height="120" viewBox="0 0 272 120" fill="none" xmlns="http://www.w3.org/2000/svg">
<rect width="272" height="120" fill="#8AC2FF"/>
<g filter="url(#filter0_di_228_82)">
<rect x="76.5" y="36" width="119" height="48" rx="4" fill="#EFEFEF"/>
<path d="M102.526 68V51.2727H108.374C109.539 51.2727 110.5 51.4742 111.257 51.8771C112.014 52.2746 112.577 52.811 112.947 53.4862C113.318 54.1559 113.503 54.8991 113.503 55.7159C113.503 56.4347 113.375 57.0282 113.119 57.4964C112.868 57.9647 112.536 58.335 112.123 58.6072C111.714 58.8795 111.27 59.081 110.791 59.2116V59.375C111.303 59.4077 111.818 59.5874 112.335 59.9141C112.852 60.2408 113.285 60.709 113.634 61.3189C113.982 61.9287 114.156 62.6747 114.156 63.5568C114.156 64.3954 113.966 65.1495 113.585 65.8192C113.203 66.489 112.602 67.0199 111.779 67.4119C110.957 67.804 109.887 68 108.57 68H102.526ZM104.551 66.2031H108.57C109.893 66.2031 110.832 65.9472 111.387 65.4354C111.948 64.9181 112.229 64.2919 112.229 63.5568C112.229 62.9905 112.084 62.4678 111.796 61.9886C111.507 61.504 111.096 61.1174 110.562 60.8288C110.029 60.5348 109.397 60.3878 108.668 60.3878H104.551V66.2031ZM104.551 58.6236H108.308C108.918 58.6236 109.468 58.5038 109.958 58.2642C110.454 58.0246 110.846 57.687 111.134 57.2514C111.428 56.8158 111.575 56.304 111.575 55.7159C111.575 54.9808 111.319 54.3574 110.808 53.8455C110.296 53.3282 109.484 53.0696 108.374 53.0696H104.551V58.6236ZM124.899 62.8707V55.4545H126.827V68H124.899V65.8764H124.769C124.475 66.5135 124.017 67.0553 123.397 67.5018C122.776 67.9428 121.992 68.1634 121.044 68.1634C120.26 68.1634 119.563 67.9918 118.953 67.6488C118.344 67.3003 117.864 66.7776 117.516 66.0806C117.167 65.3782 116.993 64.4934 116.993 63.4261V55.4545H118.921V63.2955C118.921 64.2102 119.177 64.9399 119.689 65.4844C120.206 66.0289 120.865 66.3011 121.665 66.3011C122.144 66.3011 122.632 66.1786 123.127 65.9336C123.628 65.6886 124.047 65.3129 124.385 64.8065C124.728 64.3001 124.899 63.6548 124.899 62.8707ZM135.583 55.4545V57.0881H129.082V55.4545H135.583ZM130.977 52.4489H132.904V64.4062C132.904 64.9508 132.983 65.3591 133.141 65.6314C133.305 65.8982 133.512 66.0779 133.762 66.1705C134.018 66.2576 134.287 66.3011 134.571 66.3011C134.783 66.3011 134.957 66.2902 135.093 66.2685C135.229 66.2412 135.338 66.2195 135.42 66.2031L135.812 67.9347C135.681 67.9837 135.499 68.0327 135.265 68.0817C135.031 68.1361 134.734 68.1634 134.375 68.1634C133.83 68.1634 133.296 68.0463 132.774 67.8121C132.256 67.578 131.826 67.2214 131.483 66.7422C131.146 66.263 130.977 65.6586 130.977 64.929V52.4489ZM143.709 55.4545V57.0881H137.207V55.4545H143.709ZM139.102 52.4489H141.03V64.4062C141.03 64.9508 141.109 65.3591 141.267 65.6314C141.43 65.8982 141.637 66.0779 141.888 66.1705C142.143 66.2576 142.413 66.3011 142.696 66.3011C142.908 66.3011 143.083 66.2902 143.219 66.2685C143.355 66.2412 143.464 66.2195 143.546 66.2031L143.938 67.9347C143.807 67.9837 143.624 68.0327 143.39 68.0817C143.156 68.1361 142.859 68.1634 142.5 68.1634C141.956 68.1634 141.422 68.0463 140.899 67.8121C140.382 67.578 139.952 67.2214 139.609 66.7422C139.271 66.263 139.102 65.6586 139.102 64.929V52.4489ZM151.34 68.2614C150.208 68.2614 149.214 67.9918 148.359 67.4528C147.51 66.9137 146.845 66.1596 146.366 65.1903C145.892 64.2211 145.656 63.0885 145.656 61.7926C145.656 60.4858 145.892 59.3451 146.366 58.3704C146.845 57.3957 147.51 56.6388 148.359 56.0998C149.214 55.5607 150.208 55.2912 151.34 55.2912C152.473 55.2912 153.464 55.5607 154.313 56.0998C155.168 56.6388 155.832 57.3957 156.306 58.3704C156.785 59.3451 157.025 60.4858 157.025 61.7926C157.025 63.0885 156.785 64.2211 156.306 65.1903C155.832 66.1596 155.168 66.9137 154.313 67.4528C153.464 67.9918 152.473 68.2614 151.34 68.2614ZM151.34 66.5298C152.201 66.5298 152.908 66.3093 153.464 65.8683C154.019 65.4272 154.43 64.8473 154.697 64.1286C154.964 63.4098 155.097 62.6312 155.097 61.7926C155.097 60.9541 154.964 60.1727 154.697 59.4485C154.43 58.7243 154.019 58.139 153.464 57.6925C152.908 57.246 152.201 57.0227 151.34 57.0227C150.48 57.0227 149.772 57.246 149.217 57.6925C148.661 58.139 148.25 58.7243 147.983 59.4485C147.717 60.1727 147.583 60.9541 147.583 61.7926C147.583 62.6312 147.717 63.4098 147.983 64.1286C148.25 64.8473 148.661 65.4272 149.217 65.8683C149.772 66.3093 150.48 66.5298 151.34 66.5298ZM161.665 60.4531V68H159.737V55.4545H161.599V57.4148H161.763C162.057 56.7777 162.503 56.2659 163.102 55.8793C163.701 55.4872 164.474 55.2912 165.422 55.2912C166.271 55.2912 167.015 55.4654 167.652 55.8139C168.289 56.157 168.784 56.6797 169.138 57.3821C169.492 58.0791 169.669 58.9612 169.669 60.0284V68H167.742V60.1591C167.742 59.1735 167.486 58.4058 166.974 57.8558C166.462 57.3004 165.76 57.0227 164.867 57.0227C164.251 57.0227 163.701 57.1561 163.217 57.4229C162.737 57.6897 162.359 58.0791 162.081 58.5909C161.804 59.1027 161.665 59.7235 161.665 60.4531Z" fill="black"/>
</g>
<defs>
<filter id="filter0_di_228_82" x="74.5" y="34" width="123" height="52" filterUnits="userSpaceOnUse" color-interpolation-filters="sRGB">
<feFlood flood-opacity="0" result="BackgroundImageFix"/>
<feColorMatrix in="SourceAlpha" type="matrix" values="0 0 0 0 0 0 0 0 0 0 0 0 0 0 0 0 0 0 127 0" result="hardAlpha"/>
<feMorphology radius="2" operator="dilate" in="SourceAlpha" result="effect1_dropShadow_228_82"/>
<feOffset/>
<feComposite in2="hardAlpha" operator="out"/>
<feColorMatrix type="matrix" values="0 0 0 0 0.462745 0 0 0 0 0.462745 0 0 0 0 0.462745 0 0 0 1 0"/>
<feBlend mode="normal" in2="BackgroundImageFix" result="effect1_dropShadow_228_82"/>
<feBlend mode="normal" in="SourceGraphic" in2="effect1_dropShadow_228_82" result="shape"/>
<feColorMatrix in="SourceAlpha" type="matrix" values="0 0 0 0 0 0 0 0 0 0 0 0 0 0 0 0 0 0 127 0" result="hardAlpha"/>
<feOffset dy="2"/>
<feComposite in2="hardAlpha" operator="arithmetic" k2="-1" k3="1"/>
<feColorMatrix type="matrix" values="0 0 0 0 1 0 0 0 0 1 0 0 0 0 1 0 0 0 1 0"/>
<feBlend mode="normal" in2="shape" result="effect2_innerShadow_228_82"/>
</filter>
</defs>
</svg>
