<svg width="272" height="120" viewBox="0 0 272 120" fill="none" xmlns="http://www.w3.org/2000/svg">
<rect width="272" height="120" fill="#8AC2FF"/>
<rect x="41" y="40" width="190" height="40" rx="4" fill="#1E1E1E"/>
<path d="M64.4326 66.7988L54.9092 62.5425V60.9028L64.4326 56.6577V58.8589L57.5596 61.5542L56.9644 61.7451L57.5596 61.9473L64.4326 64.5977V66.7988ZM73.9448 67.54C74.3192 67.54 74.6823 67.4801 75.0342 67.3604C75.3936 67.2406 75.7118 67.0721 75.9888 66.855C76.2658 66.6453 76.4867 66.3983 76.6514 66.1138C76.8236 65.8218 76.9134 65.5073 76.9209 65.1704H78.8862C78.8787 65.7095 78.7365 66.2261 78.4595 66.7202C78.1899 67.2069 77.8268 67.6336 77.3701 68.0005C76.9134 68.3748 76.3893 68.6743 75.7979 68.8989C75.2064 69.116 74.5887 69.2246 73.9448 69.2246C73.0239 69.2246 72.2191 69.0599 71.5303 68.7305C70.8415 68.401 70.2687 67.9556 69.812 67.394C69.3478 66.84 68.9997 66.1999 68.7676 65.4736C68.5355 64.7399 68.4194 63.9688 68.4194 63.1602V62.6885C68.4194 61.8874 68.5355 61.12 68.7676 60.3862C68.9997 59.6525 69.3478 59.0049 69.812 58.4434C70.2687 57.8893 70.8415 57.4476 71.5303 57.1182C72.2191 56.7887 73.0239 56.624 73.9448 56.624C74.6636 56.624 75.3224 56.7401 75.9214 56.9722C76.5278 57.1968 77.0519 57.5037 77.4937 57.8931C77.9279 58.2899 78.2686 58.7578 78.5156 59.2969C78.7627 59.8359 78.8862 60.4124 78.8862 61.0264H76.9209C76.9134 60.6595 76.8311 60.3151 76.6738 59.9932C76.5241 59.6637 76.3182 59.3755 76.0562 59.1284C75.7941 58.8813 75.4797 58.6867 75.1128 58.5444C74.7534 58.4022 74.3641 58.3311 73.9448 58.3311C73.3009 58.3311 72.7581 58.4621 72.3164 58.7241C71.8822 58.9787 71.5303 59.3118 71.2607 59.7236C70.9912 60.1429 70.7965 60.6108 70.6768 61.1274C70.5645 61.644 70.5083 62.1644 70.5083 62.6885V63.1602C70.5083 63.6917 70.5645 64.2196 70.6768 64.7437C70.7965 65.2603 70.9912 65.7244 71.2607 66.1362C71.5228 66.5555 71.8709 66.8962 72.3052 67.1582C72.7469 67.4128 73.2935 67.54 73.9448 67.54ZM81.9971 62.812C81.9971 61.936 82.1243 61.1237 82.3789 60.375C82.6335 59.6188 83.0003 58.9637 83.4795 58.4097C83.9512 57.8556 84.5277 57.4214 85.209 57.1069C85.8903 56.785 86.6577 56.624 87.5112 56.624C88.3722 56.624 89.1434 56.785 89.8247 57.1069C90.5135 57.4214 91.0975 57.8556 91.5767 58.4097C92.0483 58.9637 92.4115 59.6188 92.666 60.375C92.9206 61.1237 93.0479 61.936 93.0479 62.812V63.0591C93.0479 63.9351 92.9206 64.7474 92.666 65.4961C92.4115 66.2448 92.0483 66.8962 91.5767 67.4502C91.0975 68.0042 90.5173 68.4385 89.8359 68.7529C89.1546 69.0674 88.3872 69.2246 87.5337 69.2246C86.6727 69.2246 85.8978 69.0674 85.209 68.7529C84.5277 68.4385 83.9512 68.0042 83.4795 67.4502C83.0003 66.8962 82.6335 66.2448 82.3789 65.4961C82.1243 64.7474 81.9971 63.9351 81.9971 63.0591V62.812ZM84.0747 63.0591C84.0747 63.658 84.1458 64.2308 84.2881 64.7773C84.4303 65.3164 84.6475 65.7918 84.9395 66.2036C85.224 66.6154 85.5833 66.9411 86.0176 67.1807C86.4518 67.4202 86.9572 67.54 87.5337 67.54C88.1027 67.54 88.6006 67.4202 89.0273 67.1807C89.4616 66.9411 89.8247 66.6154 90.1167 66.2036C90.4012 65.7918 90.6146 65.3164 90.7568 64.7773C90.8991 64.2308 90.9702 63.658 90.9702 63.0591V62.812C90.9702 62.2205 90.8953 61.6553 90.7456 61.1162C90.6034 60.5697 90.39 60.0905 90.1055 59.6787C89.8135 59.2669 89.4504 58.9412 89.0161 58.7017C88.5894 58.4546 88.0877 58.3311 87.5112 58.3311C86.9347 58.3311 86.4331 58.4546 86.0063 58.7017C85.5796 58.9412 85.224 59.2669 84.9395 59.6787C84.6475 60.0905 84.4303 60.5697 84.2881 61.1162C84.1458 61.6553 84.0747 62.2205 84.0747 62.812V63.0591ZM96.0015 62.8232C96.0015 61.9173 96.1138 61.0863 96.3384 60.3301C96.5705 59.5664 96.8999 58.9113 97.3267 58.3647C97.7459 57.8182 98.255 57.3914 98.854 57.0845C99.453 56.7775 100.123 56.624 100.864 56.624C101.59 56.624 102.223 56.7476 102.762 56.9946C103.309 57.2342 103.78 57.5861 104.177 58.0503V51.75H106.255V69H104.346L104.256 67.7197C103.852 68.2139 103.369 68.5882 102.807 68.8428C102.246 69.0973 101.59 69.2246 100.842 69.2246C100.108 69.2246 99.4417 69.0674 98.8428 68.7529C98.2513 68.4385 97.7459 68.0042 97.3267 67.4502C96.9074 66.8962 96.5817 66.2448 96.3496 65.4961C96.1175 64.7399 96.0015 63.9276 96.0015 63.0591V62.8232ZM98.0791 63.0591C98.0791 63.6506 98.1427 64.2121 98.27 64.7437C98.3973 65.2752 98.5957 65.7432 98.8652 66.1475C99.1273 66.5518 99.4642 66.8737 99.876 67.1133C100.288 67.3454 100.782 67.4614 101.358 67.4614C102.055 67.4614 102.631 67.3042 103.088 66.9897C103.545 66.6753 103.908 66.2523 104.177 65.7207V60.083C103.908 59.5889 103.545 59.1846 103.088 58.8701C102.631 58.5482 102.062 58.3872 101.381 58.3872C100.797 58.3872 100.295 58.507 99.876 58.7466C99.4642 58.9862 99.1273 59.3081 98.8652 59.7124C98.5957 60.1242 98.3973 60.5996 98.27 61.1387C98.1427 61.6702 98.0791 62.2318 98.0791 62.8232V63.0591ZM115.576 69.2246C114.723 69.2246 113.937 69.0786 113.218 68.7866C112.507 68.4946 111.896 68.0866 111.387 67.5625C110.878 67.0384 110.481 66.417 110.197 65.6982C109.912 64.9795 109.77 64.1971 109.77 63.3511V62.8794C109.77 61.8986 109.927 61.0226 110.242 60.2515C110.556 59.4728 110.975 58.814 111.5 58.2749C112.016 57.7433 112.604 57.3353 113.263 57.0508C113.929 56.7663 114.61 56.624 115.307 56.624C116.183 56.624 116.946 56.7775 117.598 57.0845C118.257 57.384 118.803 57.7995 119.237 58.3311C119.672 58.8701 119.993 59.5028 120.203 60.229C120.42 60.9552 120.529 61.7414 120.529 62.5874V63.5195H111.848V63.5981C111.9 64.1896 112.016 64.71 112.196 65.1592C112.383 65.6084 112.638 66.0052 112.959 66.3496C113.289 66.7165 113.686 67.0047 114.15 67.2144C114.614 67.424 115.127 67.5288 115.688 67.5288C116.43 67.5288 117.089 67.3791 117.665 67.0796C118.242 66.7801 118.721 66.3833 119.103 65.8892L120.372 66.8774C119.967 67.4914 119.361 68.0379 118.552 68.5171C117.751 68.9888 116.759 69.2246 115.576 69.2246ZM115.307 58.3311C114.887 58.3311 114.491 58.4097 114.116 58.5669C113.742 58.7166 113.405 58.9375 113.105 59.2295C112.806 59.529 112.551 59.8958 112.342 60.3301C112.14 60.7568 111.997 61.251 111.915 61.8125H118.451V61.7114C118.451 61.3371 118.38 60.9365 118.238 60.5098C118.096 60.0755 117.897 59.7012 117.643 59.3867C117.388 59.0723 117.066 58.8177 116.677 58.623C116.295 58.4284 115.838 58.3311 115.307 58.3311ZM142.754 53.9062V56.8486H147.381V58.4546H142.754V65.0581C142.754 65.5298 142.814 65.9191 142.934 66.2261C143.053 66.533 143.218 66.7764 143.428 66.9561C143.637 67.1432 143.877 67.2743 144.146 67.3491C144.424 67.424 144.715 67.4614 145.022 67.4614C145.247 67.4614 145.479 67.4502 145.719 67.4277C145.958 67.3978 146.194 67.3641 146.426 67.3267C146.651 67.2892 146.861 67.2518 147.055 67.2144C147.257 67.1694 147.422 67.132 147.549 67.1021L147.841 68.5732C147.669 68.6781 147.459 68.7716 147.212 68.854C146.965 68.9289 146.696 68.9925 146.404 69.0449C146.112 69.1048 145.801 69.1497 145.472 69.1797C145.15 69.2096 144.828 69.2246 144.506 69.2246C143.967 69.2246 143.461 69.1497 142.99 69C142.526 68.8428 142.121 68.5957 141.777 68.2588C141.432 67.9294 141.159 67.5026 140.957 66.9785C140.762 66.4469 140.665 65.8068 140.665 65.0581V58.4546H137.476V56.8486H140.665V53.9062H142.754ZM159.633 69C159.551 68.8428 159.484 68.6481 159.431 68.416C159.386 68.1764 159.353 67.9294 159.33 67.6748C159.12 67.8844 158.885 68.0828 158.623 68.27C158.368 68.4572 158.087 68.6219 157.78 68.7642C157.466 68.9064 157.133 69.0187 156.781 69.1011C156.429 69.1834 156.055 69.2246 155.658 69.2246C155.014 69.2246 154.43 69.131 153.906 68.9438C153.389 68.7567 152.951 68.5021 152.592 68.1802C152.225 67.8657 151.94 67.4914 151.738 67.0571C151.544 66.6154 151.446 66.14 151.446 65.6309C151.446 64.9645 151.577 64.3805 151.839 63.8789C152.109 63.3773 152.487 62.958 152.974 62.6211C153.46 62.2917 154.044 62.0446 154.726 61.8799C155.414 61.7152 156.182 61.6328 157.028 61.6328H159.296V60.6782C159.296 60.3114 159.229 59.9819 159.094 59.6899C158.959 59.3979 158.769 59.1471 158.521 58.9375C158.274 58.7354 157.971 58.5781 157.612 58.4658C157.26 58.3535 156.863 58.2974 156.421 58.2974C156.01 58.2974 155.639 58.3498 155.31 58.4546C154.988 58.5594 154.714 58.6979 154.49 58.8701C154.265 59.0423 154.089 59.2482 153.962 59.4878C153.842 59.7199 153.782 59.9632 153.782 60.2178H151.693C151.701 59.776 151.813 59.3418 152.03 58.915C152.255 58.4883 152.577 58.1027 152.996 57.7583C153.408 57.4214 153.91 57.1481 154.501 56.9385C155.1 56.7288 155.778 56.624 156.534 56.624C157.222 56.624 157.863 56.7101 158.454 56.8823C159.046 57.047 159.558 57.2979 159.993 57.6348C160.419 57.9792 160.756 58.4059 161.003 58.915C161.25 59.4242 161.374 60.0194 161.374 60.7007V66.3496C161.374 66.7539 161.411 67.1844 161.486 67.6411C161.561 68.0903 161.666 68.4834 161.801 68.8203V69H159.633ZM155.961 67.4165C156.365 67.4165 156.743 67.3641 157.095 67.2593C157.447 67.1545 157.769 67.016 158.061 66.8438C158.346 66.6715 158.593 66.4769 158.802 66.2598C159.012 66.0352 159.177 65.8031 159.296 65.5635V63.104H157.365C156.646 63.104 156.017 63.1676 155.478 63.2949C154.946 63.4147 154.523 63.6019 154.209 63.8564C153.984 64.0361 153.812 64.2495 153.692 64.4966C153.58 64.7437 153.524 65.0244 153.524 65.3389C153.524 65.6383 153.573 65.9154 153.67 66.1699C153.775 66.4245 153.928 66.6416 154.13 66.8213C154.333 67.0085 154.587 67.1545 154.894 67.2593C155.201 67.3641 155.557 67.4165 155.961 67.4165ZM165.08 62.8232C165.08 61.9173 165.189 61.0863 165.406 60.3301C165.63 59.5664 165.952 58.9113 166.372 58.3647C166.791 57.8182 167.3 57.3914 167.899 57.0845C168.498 56.7775 169.175 56.624 169.932 56.624C170.418 56.624 170.864 56.6802 171.268 56.7925C171.68 56.9048 172.05 57.0695 172.38 57.2866C172.56 57.3989 172.728 57.5299 172.885 57.6797C173.05 57.8294 173.203 57.9941 173.346 58.1738L173.447 56.8486H175.333V68.7417C175.333 69.5428 175.206 70.2541 174.952 70.8755C174.705 71.4969 174.356 72.0247 173.907 72.459C173.451 72.8932 172.908 73.2227 172.279 73.4473C171.65 73.6719 170.954 73.7842 170.19 73.7842C169.875 73.7842 169.516 73.7467 169.112 73.6719C168.708 73.6045 168.299 73.4884 167.888 73.3237C167.468 73.1665 167.064 72.9531 166.675 72.6836C166.293 72.4141 165.964 72.0809 165.687 71.6841L166.765 70.4375C167.019 70.7445 167.281 71.0028 167.551 71.2124C167.82 71.4295 168.094 71.6017 168.371 71.729C168.648 71.8563 168.925 71.9461 169.202 71.9985C169.479 72.0584 169.756 72.0884 170.033 72.0884C170.527 72.0884 170.972 72.0173 171.369 71.875C171.766 71.7327 172.107 71.5231 172.391 71.2461C172.668 70.9766 172.882 70.6396 173.031 70.2354C173.181 69.8311 173.256 69.3669 173.256 68.8428V67.7983C173.099 67.978 172.93 68.1427 172.75 68.2925C172.578 68.4422 172.391 68.5732 172.189 68.6855C171.875 68.8577 171.526 68.9888 171.145 69.0786C170.763 69.1759 170.351 69.2246 169.909 69.2246C169.168 69.2246 168.498 69.0674 167.899 68.7529C167.3 68.4385 166.795 68.0042 166.383 67.4502C165.964 66.8962 165.642 66.2448 165.417 65.4961C165.192 64.7399 165.08 63.9276 165.08 63.0591V62.8232ZM167.158 63.0591C167.158 63.6506 167.218 64.2121 167.337 64.7437C167.465 65.2752 167.663 65.7432 167.933 66.1475C168.195 66.5518 168.532 66.8737 168.943 67.1133C169.355 67.3454 169.849 67.4614 170.426 67.4614C170.785 67.4614 171.107 67.4202 171.392 67.3379C171.684 67.248 171.946 67.1245 172.178 66.9673C172.402 66.8101 172.604 66.6229 172.784 66.4058C172.964 66.1886 173.121 65.9491 173.256 65.687V60.1167C173.121 59.8621 172.964 59.63 172.784 59.4204C172.604 59.2108 172.399 59.0273 172.167 58.8701C171.934 58.7204 171.676 58.6043 171.392 58.522C171.107 58.4321 170.793 58.3872 170.448 58.3872C169.864 58.3872 169.363 58.507 168.943 58.7466C168.532 58.9862 168.195 59.3081 167.933 59.7124C167.663 60.1242 167.465 60.5996 167.337 61.1387C167.218 61.6702 167.158 62.2318 167.158 62.8232V63.0591ZM195.829 70.4038H193.965L200.793 52.6484H202.646L195.829 70.4038ZM206.947 66.7876V64.6313L214.213 61.8911L214.887 61.7002L214.213 61.4868L206.947 58.7915V56.6465L216.864 60.8916V62.5312L206.947 66.7876Z" fill="#DF640C"/>
</svg>
