<svg width="40" height="40" viewBox="0 0 40 40" fill="none" xmlns="http://www.w3.org/2000/svg">
<g clip-path="url(#clip0_214_300)">
<rect width="40" height="40" fill="#006ACC"/>
<rect width="44" height="37" rx="4" transform="matrix(-1 0 0 1 48 13)" fill="#F5F5F5"/>
<path d="M20.866 4.5C20.4811 3.83333 19.5189 3.83333 19.134 4.5L13.9378 13.5C13.5529 14.1667 14.034 15 14.8038 15L25.1962 15C25.966 15 26.4471 14.1667 26.0622 13.5L20.866 4.5Z" fill="#F5F5F5"/>
<path d="M23.0696 30.8182C23.0696 31.7003 22.9103 32.4626 22.5918 33.1051C22.2733 33.7476 21.8363 34.2431 21.2809 34.5916C20.7255 34.9401 20.0911 35.1143 19.3778 35.1143C18.6645 35.1143 18.0302 34.9401 17.4748 34.5916C16.9194 34.2431 16.4824 33.7476 16.1639 33.1051C15.8453 32.4626 15.6861 31.7003 15.6861 30.8182C15.6861 29.9361 15.8453 29.1738 16.1639 28.5312C16.4824 27.8887 16.9194 27.3932 17.4748 27.0447C18.0302 26.6963 18.6645 26.522 19.3778 26.522C20.0911 26.522 20.7255 26.6963 21.2809 27.0447C21.8363 27.3932 22.2733 27.8887 22.5918 28.5312C22.9103 29.1738 23.0696 29.9361 23.0696 30.8182ZM22.0895 30.8182C22.0895 30.094 21.9683 29.4828 21.726 28.9846C21.4864 28.4863 21.1611 28.1093 20.75 27.8533C20.3416 27.5974 19.8842 27.4695 19.3778 27.4695C18.8714 27.4695 18.4127 27.5974 18.0016 27.8533C17.5932 28.1093 17.2679 28.4863 17.0256 28.9846C16.786 29.4828 16.6662 30.094 16.6662 30.8182C16.6662 31.5424 16.786 32.1536 17.0256 32.6518C17.2679 33.15 17.5932 33.5271 18.0016 33.783C18.4127 34.0389 18.8714 34.1669 19.3778 34.1669C19.8842 34.1669 20.3416 34.0389 20.75 33.783C21.1611 33.5271 21.4864 33.15 21.726 32.6518C21.9683 32.1536 22.0895 31.5424 22.0895 30.8182ZM24.5269 37.3523V28.7273H25.458V29.7237H25.5723C25.6431 29.6148 25.7411 29.476 25.8664 29.3072C25.9943 29.1357 26.1767 28.9832 26.4136 28.8498C26.6532 28.7137 26.9772 28.6456 27.3855 28.6456C27.9137 28.6456 28.3793 28.7776 28.7822 29.0417C29.1851 29.3058 29.4996 29.6802 29.7256 30.1648C29.9515 30.6494 30.0645 31.2211 30.0645 31.88C30.0645 32.5443 29.9515 33.1201 29.7256 33.6074C29.4996 34.092 29.1865 34.4677 28.7863 34.7346C28.3861 34.9986 27.9246 35.1307 27.4019 35.1307C26.9989 35.1307 26.6763 35.064 26.434 34.9306C26.1917 34.7944 26.0052 34.6406 25.8745 34.4691C25.7438 34.2949 25.6431 34.1506 25.5723 34.0362H25.4906V37.3523H24.5269ZM25.4743 31.8636C25.4743 32.3374 25.5437 32.7553 25.6826 33.1174C25.8214 33.4767 26.0243 33.7585 26.2911 33.9627C26.5579 34.1642 26.8846 34.2649 27.2712 34.2649C27.6741 34.2649 28.0104 34.1587 28.2799 33.9464C28.5521 33.7313 28.7563 33.4427 28.8925 33.0806C29.0313 32.7158 29.1007 32.3101 29.1007 31.8636C29.1007 31.4226 29.0327 31.0251 28.8965 30.6712C28.7631 30.3145 28.5603 30.0327 28.2881 29.8258C28.0185 29.6162 27.6796 29.5114 27.2712 29.5114C26.8791 29.5114 26.5497 29.6107 26.2829 29.8095C26.0161 30.0055 25.8146 30.2805 25.6785 30.6344C25.5424 30.9856 25.4743 31.3954 25.4743 31.8636ZM34.1477 28.7273V29.544H30.897V28.7273H34.1477ZM31.8444 27.2244H32.8082V33.2031C32.8082 33.4754 32.8477 33.6796 32.9266 33.8157C33.0083 33.9491 33.1117 34.0389 33.237 34.0852C33.3649 34.1288 33.4997 34.1506 33.6413 34.1506C33.7475 34.1506 33.8346 34.1451 33.9026 34.1342C33.9707 34.1206 34.0251 34.1097 34.066 34.1016L34.262 34.9673C34.1967 34.9918 34.1055 35.0163 33.9884 35.0408C33.8713 35.0681 33.7229 35.0817 33.5433 35.0817C33.271 35.0817 33.0042 35.0231 32.7428 34.9061C32.4842 34.789 32.2691 34.6107 32.0976 34.3711C31.9288 34.1315 31.8444 33.8293 31.8444 33.4645V27.2244ZM35.4824 35V28.7273H36.4462V35H35.4824ZM35.9725 27.6818C35.7846 27.6818 35.6226 27.6178 35.4865 27.4899C35.3531 27.3619 35.2864 27.2081 35.2864 27.0284C35.2864 26.8487 35.3531 26.6949 35.4865 26.5669C35.6226 26.439 35.7846 26.375 35.9725 26.375C36.1603 26.375 36.321 26.439 36.4544 26.5669C36.5905 26.6949 36.6586 26.8487 36.6586 27.0284C36.6586 27.2081 36.5905 27.3619 36.4544 27.4899C36.321 27.6178 36.1603 27.6818 35.9725 27.6818ZM40.6447 35.1307C40.0784 35.1307 39.5816 34.9959 39.1541 34.7264C38.7294 34.4569 38.3973 34.0798 38.1577 33.5952C37.9208 33.1106 37.8024 32.5443 37.8024 31.8963C37.8024 31.2429 37.9208 30.6725 38.1577 30.1852C38.3973 29.6979 38.7294 29.3194 39.1541 29.0499C39.5816 28.7804 40.0784 28.6456 40.6447 28.6456C41.211 28.6456 41.7065 28.7804 42.1312 29.0499C42.5587 29.3194 42.8908 29.6979 43.1277 30.1852C43.3673 30.6725 43.487 31.2429 43.487 31.8963C43.487 32.5443 43.3673 33.1106 43.1277 33.5952C42.8908 34.0798 42.5587 34.4569 42.1312 34.7264C41.7065 34.9959 41.211 35.1307 40.6447 35.1307ZM40.6447 34.2649C41.0749 34.2649 41.4288 34.1547 41.7065 33.9341C41.9842 33.7136 42.1898 33.4237 42.3232 33.0643C42.4566 32.7049 42.5233 32.3156 42.5233 31.8963C42.5233 31.477 42.4566 31.0864 42.3232 30.7243C42.1898 30.3622 41.9842 30.0695 41.7065 29.8462C41.4288 29.623 41.0749 29.5114 40.6447 29.5114C40.2146 29.5114 39.8606 29.623 39.5829 29.8462C39.3052 30.0695 39.0997 30.3622 38.9663 30.7243C38.8329 31.0864 38.7662 31.477 38.7662 31.8963C38.7662 32.3156 38.8329 32.7049 38.9663 33.0643C39.0997 33.4237 39.3052 33.7136 39.5829 33.9341C39.8606 34.1547 40.2146 34.2649 40.6447 34.2649ZM45.807 31.2266V35H44.8432V28.7273H45.7743V29.7074H45.856C46.003 29.3888 46.2263 29.1329 46.5258 28.9396C46.8252 28.7436 47.2118 28.6456 47.6856 28.6456C48.1103 28.6456 48.4819 28.7327 48.8004 28.907C49.119 29.0785 49.3667 29.3398 49.5437 29.6911C49.7207 30.0395 49.8091 30.4806 49.8091 31.0142V35H48.8454V31.0795C48.8454 30.5868 48.7174 30.2029 48.4615 29.9279C48.2056 29.6502 47.8544 29.5114 47.4079 29.5114C47.1002 29.5114 46.8252 29.5781 46.5829 29.7115C46.3434 29.8449 46.1541 30.0395 46.0153 30.2955C45.8764 30.5514 45.807 30.8617 45.807 31.2266Z" fill="black"/>
</g>
<defs>
<clipPath id="clip0_214_300">
<rect width="40" height="40" fill="white"/>
</clipPath>
</defs>
</svg>
