<svg width="272" height="120" viewBox="0 0 272 120" fill="none" xmlns="http://www.w3.org/2000/svg">
<g clip-path="url(#clip0_228_399)">
<rect width="272" height="120" fill="#8AC2FF"/>
<g clip-path="url(#clip1_228_399)">
<path d="M60 35.5325C60 33.5815 61.5815 32 63.5325 32H207.481C209.431 32 211.013 33.5815 211.013 35.5325V50.5325C211.013 52.4834 209.431 54.0649 207.481 54.0649H63.5325C61.5815 54.0649 60 52.4834 60 50.5325V35.5325Z" fill="white"/>
<path d="M65.7685 46.5325L63.7489 39.1464H64.6577L66.2013 45.162H66.2734L67.8458 39.1464H68.8556L70.4281 45.162H70.5002L72.0438 39.1464H72.9526L70.933 46.5325H70.0097L68.3796 40.6467H68.3219L66.6917 46.5325H65.7685ZM75.6569 46.6479C75.1231 46.6479 74.6627 46.5301 74.2756 46.2944C73.8909 46.0564 73.594 45.7246 73.3848 45.2991C73.178 44.8711 73.0746 44.3734 73.0746 43.806C73.0746 43.2386 73.178 42.7385 73.3848 42.3057C73.594 41.8705 73.8849 41.5315 74.2576 41.2887C74.6326 41.0434 75.0702 40.9208 75.5703 40.9208C75.8588 40.9208 76.1438 40.9689 76.4251 41.065C76.7064 41.1612 76.9624 41.3175 77.1932 41.5339C77.4241 41.7479 77.608 42.0316 77.745 42.385C77.8821 42.7385 77.9506 43.1736 77.9506 43.6906V44.0512H73.6805V43.3155H77.085C77.085 43.0029 77.0225 42.724 76.8975 42.4788C76.7749 42.2335 76.5994 42.04 76.371 41.8981C76.145 41.7563 75.8781 41.6854 75.5703 41.6854C75.2313 41.6854 74.938 41.7695 74.6903 41.9378C74.4451 42.1037 74.2564 42.3201 74.1241 42.587C73.9919 42.8539 73.9258 43.14 73.9258 43.4453V43.9358C73.9258 44.3542 73.9979 44.7088 74.1422 44.9997C74.2888 45.2882 74.492 45.5082 74.7516 45.6597C75.0113 45.8088 75.3131 45.8833 75.6569 45.8833C75.8805 45.8833 76.0824 45.852 76.2628 45.7895C76.4455 45.7246 76.603 45.6284 76.7352 45.501C76.8675 45.3712 76.9696 45.2101 77.0418 45.0177L77.864 45.2486C77.7775 45.5275 77.632 45.7727 77.4277 45.9843C77.2233 46.1935 76.9708 46.357 76.6703 46.4748C76.3698 46.5902 76.0319 46.6479 75.6569 46.6479ZM79.2592 46.5325V39.1464H80.1103V41.8729H80.1824C80.2449 41.7767 80.3315 41.6541 80.4421 41.505C80.5551 41.3536 80.7162 41.2189 80.9254 41.1011C81.1369 40.9809 81.4231 40.9208 81.7837 40.9208C82.2501 40.9208 82.6613 41.0374 83.0171 41.2706C83.373 41.5038 83.6507 41.8344 83.8502 42.2624C84.0498 42.6904 84.1496 43.1953 84.1496 43.7771C84.1496 44.3638 84.0498 44.8723 83.8502 45.3027C83.6507 45.7306 83.3742 46.0624 83.0207 46.298C82.6673 46.5313 82.2598 46.6479 81.7981 46.6479C81.4423 46.6479 81.1574 46.589 80.9434 46.4712C80.7294 46.3509 80.5647 46.2151 80.4493 46.0636C80.3339 45.9098 80.2449 45.7823 80.1824 45.6813H80.0814V46.5325H79.2592ZM80.0959 43.7627C80.0959 44.181 80.1572 44.5501 80.2798 44.8699C80.4024 45.1873 80.5815 45.4361 80.8172 45.6164C81.0528 45.7943 81.3413 45.8833 81.6827 45.8833C82.0386 45.8833 82.3355 45.7895 82.5735 45.602C82.814 45.4121 82.9943 45.1572 83.1145 44.8374C83.2371 44.5152 83.2984 44.157 83.2984 43.7627C83.2984 43.3732 83.2383 43.0222 83.1181 42.7096C83.0003 42.3946 82.8212 42.1458 82.5807 41.9631C82.3427 41.7779 82.0434 41.6854 81.6827 41.6854C81.3365 41.6854 81.0456 41.7731 80.81 41.9486C80.5743 42.1217 80.3964 42.3646 80.2762 42.6771C80.156 42.9873 80.0959 43.3492 80.0959 43.7627ZM86.5906 36.7661V48.9127H85.8693V36.7661H86.5906Z" fill="#171717"/>
</g>
<path d="M63.5325 32.4416H207.481C209.188 32.4416 210.571 33.8254 210.571 35.5325V50.5325C210.571 52.2395 209.188 53.6234 207.481 53.6234H63.5325C61.8254 53.6234 60.4416 52.2395 60.4416 50.5325V35.5325C60.4416 33.8254 61.8254 32.4416 63.5325 32.4416Z" stroke="#A3A3A3" stroke-width="0.883117"/>
<rect x="123" y="68" width="88" height="60" rx="4" fill="#F5F5F5"/>
<path d="M137.532 90L135.245 81.6364H136.274L138.022 88.4482H138.104L139.884 81.6364H141.028L142.808 88.4482H142.89L144.638 81.6364H145.667L143.38 90H142.335L140.489 83.3352H140.423L138.577 90H137.532ZM148.729 90.1307C148.125 90.1307 147.603 89.9973 147.165 89.7305C146.729 89.4609 146.393 89.0852 146.156 88.6033C145.922 88.1187 145.805 87.5552 145.805 86.9126C145.805 86.2701 145.922 85.7038 146.156 85.2138C146.393 84.721 146.723 84.3371 147.145 84.0621C147.569 83.7844 148.065 83.6456 148.631 83.6456C148.958 83.6456 149.28 83.7 149.599 83.8089C149.917 83.9179 150.207 84.0948 150.469 84.3398C150.73 84.5821 150.938 84.9034 151.094 85.3036C151.249 85.7038 151.326 86.1966 151.326 86.782V87.1903H146.491V86.3572H150.346C150.346 86.0033 150.276 85.6875 150.134 85.4098C149.995 85.1321 149.796 84.9129 149.538 84.7523C149.282 84.5917 148.98 84.5114 148.631 84.5114C148.247 84.5114 147.915 84.6067 147.635 84.7972C147.357 84.9851 147.143 85.2301 146.993 85.5323C146.844 85.8345 146.769 86.1585 146.769 86.5043V87.0597C146.769 87.5334 146.851 87.935 147.014 88.2644C147.18 88.5911 147.41 88.8402 147.704 89.0117C147.998 89.1805 148.34 89.2649 148.729 89.2649C148.982 89.2649 149.211 89.2295 149.415 89.1587C149.622 89.0852 149.8 88.9763 149.95 88.832C150.1 88.685 150.216 88.5026 150.297 88.2848L151.228 88.5462C151.13 88.862 150.966 89.1397 150.734 89.3793C150.503 89.6161 150.217 89.8013 149.877 89.9347C149.536 90.0653 149.154 90.1307 148.729 90.1307ZM152.808 90V81.6364H153.772V84.7237H153.854C153.924 84.6148 154.022 84.476 154.148 84.3072C154.276 84.1357 154.458 83.9832 154.695 83.8498C154.934 83.7137 155.258 83.6456 155.667 83.6456C156.195 83.6456 156.661 83.7776 157.064 84.0417C157.466 84.3058 157.781 84.6802 158.007 85.1648C158.233 85.6494 158.346 86.2211 158.346 86.88C158.346 87.5443 158.233 88.1201 158.007 88.6074C157.781 89.092 157.468 89.4677 157.068 89.7346C156.667 89.9986 156.206 90.1307 155.683 90.1307C155.28 90.1307 154.958 90.064 154.715 89.9306C154.473 89.7944 154.287 89.6406 154.156 89.4691C154.025 89.2949 153.924 89.1506 153.854 89.0362H153.739V90H152.808ZM153.756 86.8636C153.756 87.3374 153.825 87.7553 153.964 88.1174C154.103 88.4767 154.306 88.7585 154.572 88.9627C154.839 89.1642 155.166 89.2649 155.552 89.2649C155.955 89.2649 156.292 89.1587 156.561 88.9464C156.833 88.7313 157.038 88.4427 157.174 88.0806C157.313 87.7158 157.382 87.3101 157.382 86.8636C157.382 86.4226 157.314 86.0251 157.178 85.6712C157.044 85.3145 156.842 85.0327 156.569 84.8258C156.3 84.6162 155.961 84.5114 155.552 84.5114C155.16 84.5114 154.831 84.6107 154.564 84.8095C154.297 85.0055 154.096 85.2805 153.96 85.6344C153.824 85.9856 153.756 86.3954 153.756 86.8636ZM162.498 83.7273V84.544H159.117V83.7273H162.498ZM160.13 90V82.8615C160.13 82.5021 160.214 82.2027 160.383 81.9631C160.552 81.7235 160.771 81.5438 161.04 81.424C161.31 81.3042 161.595 81.2443 161.894 81.2443C162.131 81.2443 162.324 81.2634 162.474 81.3015C162.624 81.3396 162.735 81.375 162.809 81.4077L162.531 82.2408C162.482 82.2244 162.414 82.204 162.327 82.1795C162.242 82.155 162.131 82.1428 161.992 82.1428C161.673 82.1428 161.443 82.2231 161.302 82.3837C161.163 82.5443 161.094 82.7798 161.094 83.0902V90H160.13ZM164.698 81.6364V90H163.734V81.6364H164.698ZM168.896 90.1307C168.33 90.1307 167.833 89.9959 167.406 89.7264C166.981 89.4569 166.649 89.0798 166.409 88.5952C166.173 88.1106 166.054 87.5443 166.054 86.8963C166.054 86.2429 166.173 85.6725 166.409 85.1852C166.649 84.6979 166.981 84.3194 167.406 84.0499C167.833 83.7804 168.33 83.6456 168.896 83.6456C169.463 83.6456 169.958 83.7804 170.383 84.0499C170.81 84.3194 171.143 84.6979 171.379 85.1852C171.619 85.6725 171.739 86.2429 171.739 86.8963C171.739 87.5443 171.619 88.1106 171.379 88.5952C171.143 89.0798 170.81 89.4569 170.383 89.7264C169.958 89.9959 169.463 90.1307 168.896 90.1307ZM168.896 89.2649C169.327 89.2649 169.681 89.1547 169.958 88.9341C170.236 88.7136 170.441 88.4237 170.575 88.0643C170.708 87.7049 170.775 87.3156 170.775 86.8963C170.775 86.477 170.708 86.0864 170.575 85.7243C170.441 85.3622 170.236 85.0695 169.958 84.8462C169.681 84.623 169.327 84.5114 168.896 84.5114C168.466 84.5114 168.112 84.623 167.835 84.8462C167.557 85.0695 167.351 85.3622 167.218 85.7243C167.085 86.0864 167.018 86.477 167.018 86.8963C167.018 87.3156 167.085 87.7049 167.218 88.0643C167.351 88.4237 167.557 88.7136 167.835 88.9341C168.112 89.1547 168.466 89.2649 168.896 89.2649ZM174.303 90L172.391 83.7273H173.404L174.76 88.5298H174.825L176.165 83.7273H177.194L178.517 88.5135H178.583L179.938 83.7273H180.951L179.04 90H178.092L176.72 85.1811H176.622L175.25 90H174.303Z" fill="black"/>
<path d="M137.532 114L135.245 105.636H136.274L138.022 112.448H138.104L139.884 105.636H141.028L142.808 112.448H142.89L144.638 105.636H145.667L143.38 114H142.335L140.489 107.335H140.423L138.577 114H137.532ZM148.729 114.131C148.125 114.131 147.603 113.997 147.165 113.73C146.729 113.461 146.393 113.085 146.156 112.603C145.922 112.119 145.805 111.555 145.805 110.913C145.805 110.27 145.922 109.704 146.156 109.214C146.393 108.721 146.723 108.337 147.145 108.062C147.569 107.784 148.065 107.646 148.631 107.646C148.958 107.646 149.28 107.7 149.599 107.809C149.917 107.918 150.207 108.095 150.469 108.34C150.73 108.582 150.938 108.903 151.094 109.304C151.249 109.704 151.326 110.197 151.326 110.782V111.19H146.491V110.357H150.346C150.346 110.003 150.276 109.687 150.134 109.41C149.995 109.132 149.796 108.913 149.538 108.752C149.282 108.592 148.98 108.511 148.631 108.511C148.247 108.511 147.915 108.607 147.635 108.797C147.357 108.985 147.143 109.23 146.993 109.532C146.844 109.835 146.769 110.158 146.769 110.504V111.06C146.769 111.533 146.851 111.935 147.014 112.264C147.18 112.591 147.41 112.84 147.704 113.012C147.998 113.181 148.34 113.265 148.729 113.265C148.982 113.265 149.211 113.23 149.415 113.159C149.622 113.085 149.8 112.976 149.95 112.832C150.1 112.685 150.216 112.503 150.297 112.285L151.228 112.546C151.13 112.862 150.966 113.14 150.734 113.379C150.503 113.616 150.217 113.801 149.877 113.935C149.536 114.065 149.154 114.131 148.729 114.131ZM152.808 114V105.636H153.772V108.724H153.854C153.924 108.615 154.022 108.476 154.148 108.307C154.276 108.136 154.458 107.983 154.695 107.85C154.934 107.714 155.258 107.646 155.667 107.646C156.195 107.646 156.661 107.778 157.064 108.042C157.466 108.306 157.781 108.68 158.007 109.165C158.233 109.649 158.346 110.221 158.346 110.88C158.346 111.544 158.233 112.12 158.007 112.607C157.781 113.092 157.468 113.468 157.068 113.735C156.667 113.999 156.206 114.131 155.683 114.131C155.28 114.131 154.958 114.064 154.715 113.931C154.473 113.794 154.287 113.641 154.156 113.469C154.025 113.295 153.924 113.151 153.854 113.036H153.739V114H152.808ZM153.756 110.864C153.756 111.337 153.825 111.755 153.964 112.117C154.103 112.477 154.306 112.759 154.572 112.963C154.839 113.164 155.166 113.265 155.552 113.265C155.955 113.265 156.292 113.159 156.561 112.946C156.833 112.731 157.038 112.443 157.174 112.081C157.313 111.716 157.382 111.31 157.382 110.864C157.382 110.423 157.314 110.025 157.178 109.671C157.044 109.315 156.842 109.033 156.569 108.826C156.3 108.616 155.961 108.511 155.552 108.511C155.16 108.511 154.831 108.611 154.564 108.809C154.297 109.006 154.096 109.28 153.96 109.634C153.824 109.986 153.756 110.395 153.756 110.864ZM165.536 114H162.955V105.636H165.65C166.462 105.636 167.156 105.804 167.733 106.139C168.31 106.471 168.753 106.949 169.06 107.572C169.368 108.193 169.522 108.936 169.522 109.802C169.522 110.673 169.367 111.423 169.056 112.052C168.746 112.678 168.294 113.16 167.701 113.498C167.107 113.833 166.386 114 165.536 114ZM163.968 113.102H165.471C166.162 113.102 166.735 112.968 167.19 112.701C167.645 112.435 167.984 112.055 168.207 111.562C168.43 111.069 168.542 110.482 168.542 109.802C168.542 109.127 168.432 108.545 168.211 108.058C167.99 107.568 167.661 107.192 167.223 106.931C166.784 106.667 166.239 106.535 165.585 106.535H163.968V113.102ZM173.605 114.131C173.001 114.131 172.479 113.997 172.041 113.73C171.605 113.461 171.269 113.085 171.032 112.603C170.798 112.119 170.681 111.555 170.681 110.913C170.681 110.27 170.798 109.704 171.032 109.214C171.269 108.721 171.599 108.337 172.021 108.062C172.445 107.784 172.941 107.646 173.507 107.646C173.834 107.646 174.156 107.7 174.475 107.809C174.793 107.918 175.083 108.095 175.345 108.34C175.606 108.582 175.814 108.903 175.97 109.304C176.125 109.704 176.202 110.197 176.202 110.782V111.19H171.367V110.357H175.222C175.222 110.003 175.151 109.687 175.01 109.41C174.871 109.132 174.672 108.913 174.414 108.752C174.158 108.592 173.856 108.511 173.507 108.511C173.123 108.511 172.791 108.607 172.511 108.797C172.233 108.985 172.019 109.23 171.869 109.532C171.72 109.835 171.645 110.158 171.645 110.504V111.06C171.645 111.533 171.726 111.935 171.89 112.264C172.056 112.591 172.286 112.84 172.58 113.012C172.874 113.181 173.216 113.265 173.605 113.265C173.858 113.265 174.087 113.23 174.291 113.159C174.498 113.085 174.676 112.976 174.826 112.832C174.976 112.685 175.092 112.503 175.173 112.285L176.104 112.546C176.006 112.862 175.842 113.14 175.61 113.379C175.379 113.616 175.093 113.801 174.753 113.935C174.412 114.065 174.03 114.131 173.605 114.131ZM181.997 109.132L181.131 109.377C181.076 109.233 180.996 109.093 180.89 108.956C180.786 108.818 180.645 108.703 180.465 108.613C180.285 108.524 180.055 108.479 179.775 108.479C179.391 108.479 179.071 108.567 178.815 108.744C178.562 108.918 178.436 109.14 178.436 109.41C178.436 109.649 178.523 109.839 178.697 109.977C178.871 110.116 179.143 110.232 179.514 110.325L180.445 110.553C181.006 110.689 181.424 110.898 181.698 111.178C181.973 111.456 182.111 111.814 182.111 112.252C182.111 112.612 182.008 112.933 181.801 113.216C181.596 113.499 181.311 113.722 180.943 113.886C180.575 114.049 180.148 114.131 179.661 114.131C179.021 114.131 178.491 113.992 178.072 113.714C177.653 113.436 177.387 113.031 177.276 112.497L178.191 112.268C178.278 112.606 178.442 112.859 178.685 113.028C178.93 113.197 179.25 113.281 179.644 113.281C180.094 113.281 180.45 113.186 180.714 112.995C180.981 112.802 181.115 112.571 181.115 112.301C181.115 112.083 181.038 111.901 180.886 111.754C180.733 111.604 180.499 111.493 180.183 111.419L179.138 111.174C178.563 111.038 178.141 110.827 177.872 110.541C177.605 110.252 177.472 109.892 177.472 109.459C177.472 109.105 177.571 108.792 177.77 108.52C177.971 108.247 178.245 108.034 178.591 107.878C178.939 107.723 179.334 107.646 179.775 107.646C180.396 107.646 180.883 107.782 181.237 108.054C181.594 108.326 181.847 108.686 181.997 109.132ZM183.447 114V107.727H184.411V114H183.447ZM183.937 106.682C183.749 106.682 183.587 106.618 183.451 106.49C183.317 106.362 183.251 106.208 183.251 106.028C183.251 105.849 183.317 105.695 183.451 105.567C183.587 105.439 183.749 105.375 183.937 105.375C184.125 105.375 184.285 105.439 184.419 105.567C184.555 105.695 184.623 105.849 184.623 106.028C184.623 106.208 184.555 106.362 184.419 106.49C184.285 106.618 184.125 106.682 183.937 106.682ZM188.593 116.483C188.127 116.483 187.727 116.423 187.392 116.303C187.057 116.186 186.778 116.031 186.555 115.838C186.334 115.647 186.159 115.443 186.028 115.225L186.796 114.686C186.883 114.8 186.993 114.931 187.127 115.078C187.26 115.228 187.442 115.357 187.674 115.466C187.908 115.578 188.214 115.634 188.593 115.634C189.099 115.634 189.517 115.511 189.846 115.266C190.176 115.021 190.341 114.637 190.341 114.114V112.84H190.259C190.188 112.955 190.087 113.096 189.957 113.265C189.829 113.431 189.644 113.579 189.401 113.71C189.162 113.838 188.838 113.902 188.429 113.902C187.923 113.902 187.468 113.782 187.065 113.543C186.665 113.303 186.348 112.955 186.114 112.497C185.882 112.04 185.767 111.484 185.767 110.831C185.767 110.188 185.88 109.629 186.106 109.153C186.332 108.673 186.646 108.303 187.049 108.042C187.452 107.778 187.918 107.646 188.446 107.646C188.854 107.646 189.178 107.714 189.418 107.85C189.66 107.983 189.845 108.136 189.973 108.307C190.104 108.476 190.204 108.615 190.275 108.724H190.373V107.727H191.304V114.18C191.304 114.719 191.182 115.157 190.937 115.495C190.694 115.835 190.368 116.084 189.957 116.242C189.548 116.403 189.094 116.483 188.593 116.483ZM188.56 113.036C188.947 113.036 189.273 112.948 189.54 112.771C189.807 112.594 190.01 112.339 190.149 112.007C190.287 111.675 190.357 111.277 190.357 110.815C190.357 110.363 190.289 109.964 190.153 109.618C190.017 109.272 189.815 109.001 189.548 108.805C189.281 108.609 188.952 108.511 188.56 108.511C188.152 108.511 187.811 108.615 187.539 108.822C187.27 109.029 187.067 109.306 186.931 109.655C186.797 110.003 186.73 110.39 186.73 110.815C186.73 111.25 186.799 111.635 186.935 111.97C187.074 112.302 187.278 112.564 187.547 112.754C187.819 112.942 188.157 113.036 188.56 113.036ZM193.917 110.227V114H192.954V107.727H193.885V108.707H193.966C194.113 108.389 194.337 108.133 194.636 107.94C194.936 107.744 195.322 107.646 195.796 107.646C196.221 107.646 196.592 107.733 196.911 107.907C197.229 108.078 197.477 108.34 197.654 108.691C197.831 109.04 197.919 109.481 197.919 110.014V114H196.956V110.08C196.956 109.587 196.828 109.203 196.572 108.928C196.316 108.65 195.965 108.511 195.518 108.511C195.211 108.511 194.936 108.578 194.693 108.711C194.454 108.845 194.264 109.04 194.126 109.295C193.987 109.551 193.917 109.862 193.917 110.227Z" fill="black"/>
<path d="M140.634 59.5C141.019 58.8333 141.981 58.8333 142.366 59.5L147.562 68.5C147.947 69.1667 147.466 70 146.696 70L136.304 70C135.534 70 135.053 69.1667 135.438 68.5L140.634 59.5Z" fill="#F5F5F5"/>
</g>
<defs>
<clipPath id="clip0_228_399">
<rect width="272" height="120" fill="white"/>
</clipPath>
<clipPath id="clip1_228_399">
<path d="M60 35.5325C60 33.5815 61.5815 32 63.5325 32H207.481C209.431 32 211.013 33.5815 211.013 35.5325V50.5325C211.013 52.4834 209.431 54.0649 207.481 54.0649H63.5325C61.5815 54.0649 60 52.4834 60 50.5325V35.5325Z" fill="white"/>
</clipPath>
</defs>
</svg>
