<svg width="40" height="40" viewBox="0 0 40 40" fill="none" xmlns="http://www.w3.org/2000/svg">
<g clip-path="url(#clip0_217_308)">
<rect width="40" height="40" fill="#006ACC"/>
<path d="M9.49716 9.2896V7.90909H16.7504V9.2896H13.9405V17H12.307V9.2896H9.49716ZM20.1073 17.1332C19.4237 17.1332 18.8333 16.9911 18.3362 16.707C17.842 16.42 17.4617 16.0146 17.1954 15.4908C16.929 14.964 16.7959 14.344 16.7959 13.6309C16.7959 12.9295 16.929 12.314 17.1954 11.7843C17.4647 11.2516 17.8405 10.8373 18.3228 10.5414C18.8052 10.2425 19.3719 10.093 20.0229 10.093C20.4432 10.093 20.8397 10.1611 21.2126 10.2972C21.5884 10.4304 21.9198 10.6375 22.2069 10.9187C22.4969 11.1998 22.7248 11.5579 22.8905 11.9929C23.0562 12.425 23.1391 12.9399 23.1391 13.5376V14.0304H17.5505V12.9473H21.5988C21.5958 12.6395 21.5292 12.3658 21.399 12.1261C21.2688 11.8834 21.0868 11.6925 20.853 11.5534C20.6222 11.4144 20.3529 11.3448 20.0451 11.3448C19.7167 11.3448 19.4281 11.4247 19.1796 11.5845C18.931 11.7414 18.7371 11.9485 18.5981 12.206C18.4619 12.4605 18.3924 12.7401 18.3894 13.0449V13.9904C18.3894 14.387 18.4619 14.7273 18.6069 15.0114C18.7519 15.2925 18.9546 15.5085 19.2151 15.6594C19.4755 15.8074 19.7803 15.8814 20.1295 15.8814C20.3633 15.8814 20.5749 15.8488 20.7642 15.7837C20.9536 15.7157 21.1179 15.6165 21.257 15.4863C21.3961 15.3561 21.5011 15.1948 21.5721 15.0025L23.0725 15.1712C22.9778 15.5677 22.7973 15.9139 22.5309 16.2099C22.2676 16.5028 21.9302 16.7307 21.5189 16.8935C21.1075 17.0533 20.637 17.1332 20.1073 17.1332ZM24.4985 17V10.1818H26.0566V11.3182H26.1276C26.2519 10.9246 26.4649 10.6213 26.7668 10.4082C27.0716 10.1922 27.4193 10.0842 27.8099 10.0842C27.8987 10.0842 27.9978 10.0886 28.1073 10.0975C28.2198 10.1034 28.313 10.1138 28.387 10.1286V11.6067C28.3189 11.583 28.2109 11.5623 28.0629 11.5446C27.9179 11.5239 27.7774 11.5135 27.6412 11.5135C27.3483 11.5135 27.0849 11.5771 26.8511 11.7044C26.6203 11.8287 26.4383 12.0018 26.3051 12.2237C26.172 12.4457 26.1054 12.7016 26.1054 12.9917V17H24.4985ZM29.4545 17V10.1818H30.9904V11.3404H31.0703C31.2124 10.9498 31.4476 10.6449 31.7761 10.426C32.1046 10.204 32.4967 10.093 32.9524 10.093C33.4141 10.093 33.8032 10.2055 34.1199 10.4304C34.4395 10.6523 34.6644 10.9557 34.7946 11.3404H34.8656C35.0165 10.9616 35.271 10.6597 35.6291 10.4348C35.9901 10.207 36.4177 10.093 36.9119 10.093C37.5393 10.093 38.0513 10.2913 38.4478 10.6879C38.8443 11.0844 39.0426 11.6629 39.0426 12.4235V17H37.4313V12.6721C37.4313 12.2489 37.3188 11.9396 37.0939 11.7443C36.869 11.546 36.5938 11.4469 36.2683 11.4469C35.8806 11.4469 35.5773 11.5682 35.3583 11.8109C35.1423 12.0506 35.0343 12.3628 35.0343 12.7475V17H33.4585V12.6055C33.4585 12.2533 33.3519 11.9722 33.1388 11.7621C32.9287 11.552 32.6535 11.4469 32.3132 11.4469C32.0824 11.4469 31.8723 11.5061 31.6829 11.6245C31.4935 11.7399 31.3426 11.9041 31.2301 12.1172C31.1177 12.3273 31.0614 12.5729 31.0614 12.854V17H29.4545Z" fill="#F5F5F5"/>
<path d="M23.5938 32H21.0128V23.6364H23.7081C24.5194 23.6364 25.2137 23.8038 25.7908 24.1387C26.368 24.4708 26.8104 24.9486 27.1181 25.5721C27.4257 26.1928 27.5795 26.9361 27.5795 27.8018C27.5795 28.6731 27.4244 29.4231 27.114 30.052C26.8036 30.6782 26.3517 31.1601 25.7582 31.4977C25.1647 31.8326 24.4432 32 23.5938 32ZM22.0256 31.1016H23.5284C24.2199 31.1016 24.793 30.9682 25.2477 30.7013C25.7024 30.4345 26.0413 30.0547 26.2646 29.562C26.4878 29.0692 26.5994 28.4825 26.5994 27.8018C26.5994 27.1267 26.4892 26.5454 26.2686 26.0581C26.0481 25.568 25.7187 25.1923 25.2804 24.9309C24.842 24.6668 24.2962 24.5348 23.6428 24.5348H22.0256V31.1016ZM31.6627 32.1307C31.0583 32.1307 30.5369 31.9973 30.0986 31.7305C29.663 31.4609 29.3268 31.0852 29.0899 30.6033C28.8558 30.1187 28.7387 29.5552 28.7387 28.9126C28.7387 28.2701 28.8558 27.7038 29.0899 27.2138C29.3268 26.721 29.6562 26.3371 30.0782 26.0621C30.5029 25.7844 30.9984 25.6456 31.5647 25.6456C31.8914 25.6456 32.214 25.7 32.5326 25.8089C32.8511 25.9179 33.141 26.0948 33.4024 26.3398C33.6638 26.5821 33.872 26.9034 34.0272 27.3036C34.1824 27.7038 34.26 28.1966 34.26 28.782V29.1903H29.4248V28.3572H33.2799C33.2799 28.0033 33.2091 27.6875 33.0675 27.4098C32.9287 27.1321 32.7299 26.9129 32.4713 26.7523C32.2154 26.5917 31.9132 26.5114 31.5647 26.5114C31.1808 26.5114 30.8487 26.6067 30.5682 26.7972C30.2905 26.9851 30.0768 27.2301 29.9271 27.5323C29.7773 27.8345 29.7025 28.1585 29.7025 28.5043V29.0597C29.7025 29.5334 29.7841 29.935 29.9475 30.2644C30.1136 30.5911 30.3436 30.8402 30.6377 31.0117C30.9317 31.1805 31.2734 31.2649 31.6627 31.2649C31.9159 31.2649 32.1446 31.2295 32.3488 31.1587C32.5557 31.0852 32.734 30.9763 32.8838 30.832C33.0335 30.685 33.1492 30.5026 33.2309 30.2848L34.162 30.5462C34.064 30.862 33.8993 31.1397 33.6678 31.3793C33.4364 31.6161 33.1506 31.8013 32.8102 31.9347C32.4699 32.0653 32.0874 32.1307 31.6627 32.1307ZM40.0543 27.1321L39.1885 27.3771C39.1341 27.2328 39.0537 27.0926 38.9476 26.9565C38.8441 26.8176 38.7025 26.7033 38.5228 26.6135C38.3432 26.5236 38.1131 26.4787 37.8327 26.4787C37.4488 26.4787 37.1289 26.5672 36.873 26.7441C36.6198 26.9184 36.4932 27.1403 36.4932 27.4098C36.4932 27.6494 36.5803 27.8386 36.7546 27.9775C36.9288 28.1163 37.201 28.232 37.5713 28.3246L38.5024 28.5533C39.0633 28.6894 39.4812 28.8977 39.7562 29.1781C40.0311 29.4558 40.1686 29.8138 40.1686 30.2521C40.1686 30.6115 40.0652 30.9328 39.8582 31.2159C39.6541 31.4991 39.3682 31.7223 39.0006 31.8857C38.6331 32.049 38.2057 32.1307 37.7183 32.1307C37.0785 32.1307 36.549 31.9918 36.1297 31.7141C35.7105 31.4364 35.445 31.0308 35.3334 30.4972L36.2482 30.2685C36.3353 30.6061 36.5 30.8593 36.7423 31.0281C36.9873 31.1969 37.3072 31.2812 37.702 31.2812C38.1512 31.2812 38.5079 31.186 38.772 30.9954C39.0388 30.8021 39.1722 30.5707 39.1722 30.3011C39.1722 30.0833 39.0959 29.9009 38.9435 29.7539C38.791 29.6042 38.5569 29.4925 38.2411 29.419L37.1956 29.174C36.6211 29.0379 36.1992 28.8269 35.9296 28.541C35.6628 28.2524 35.5294 27.8917 35.5294 27.4588C35.5294 27.1049 35.6288 26.7918 35.8275 26.5195C36.029 26.2473 36.3026 26.0336 36.6484 25.8784C36.9969 25.7232 37.3916 25.6456 37.8327 25.6456C38.4534 25.6456 38.9408 25.7817 39.2947 26.054C39.6513 26.3262 39.9045 26.6856 40.0543 27.1321ZM44.0527 32.1307C43.4646 32.1307 42.9582 31.9918 42.5335 31.7141C42.1088 31.4364 41.7821 31.0539 41.5534 30.5666C41.3247 30.0792 41.2104 29.5225 41.2104 28.8963C41.2104 28.2592 41.3274 27.697 41.5616 27.2097C41.7984 26.7196 42.1278 26.3371 42.5498 26.0621C42.9746 25.7844 43.4701 25.6456 44.0363 25.6456C44.4774 25.6456 44.8749 25.7273 45.2288 25.8906C45.5827 26.054 45.8727 26.2827 46.0987 26.5767C46.3246 26.8707 46.4649 27.2138 46.5193 27.6058H45.5555C45.482 27.32 45.3187 27.0668 45.0655 26.8462C44.815 26.623 44.4774 26.5114 44.0527 26.5114C43.677 26.5114 43.3475 26.6094 43.0644 26.8054C42.784 26.9987 42.5648 27.2723 42.4069 27.6262C42.2517 27.9775 42.1741 28.3899 42.1741 28.8636C42.1741 29.3482 42.2504 29.7702 42.4028 30.1296C42.558 30.489 42.7758 30.7681 43.0562 30.9668C43.3394 31.1655 43.6715 31.2649 44.0527 31.2649C44.3032 31.2649 44.5305 31.2214 44.7347 31.1342C44.9389 31.0471 45.1118 30.9219 45.2533 30.7585C45.3949 30.5952 45.4956 30.3991 45.5555 30.1705H46.5193C46.4649 30.5407 46.3301 30.8742 46.115 31.171C45.9026 31.465 45.6209 31.6992 45.2697 31.8734C44.9212 32.0449 44.5155 32.1307 44.0527 32.1307ZM47.8132 32V25.7273H48.7443V26.6747H48.8097C48.924 26.3643 49.1309 26.1125 49.4304 25.9192C49.7299 25.7259 50.0675 25.6293 50.4432 25.6293C50.514 25.6293 50.6025 25.6306 50.7086 25.6333C50.8148 25.6361 50.8951 25.6402 50.9496 25.6456V26.6257C50.9169 26.6175 50.842 26.6053 50.725 26.589C50.6106 26.5699 50.4895 26.5604 50.3615 26.5604C50.0566 26.5604 49.7843 26.6243 49.5448 26.7523C49.3079 26.8775 49.12 27.0518 48.9812 27.275C48.8451 27.4956 48.777 27.7474 48.777 28.0305V32H47.8132Z" fill="#F5F5F5"/>
<path d="M13 21V27.5H17.5" stroke="#8AC2FF"/>
</g>
<defs>
<clipPath id="clip0_217_308">
<rect width="40" height="40" fill="white"/>
</clipPath>
</defs>
</svg>
