<svg width="40" height="40" viewBox="0 0 40 40" fill="none" xmlns="http://www.w3.org/2000/svg">
<g clip-path="url(#clip0_218_314)">
<rect width="40" height="40" fill="#006ACC"/>
<path d="M9.89666 19V9.90909H11.5435V13.7576H15.756V9.90909H17.4073V19H15.756V15.1381H11.5435V19H9.89666ZM22.8073 9.90909V19H21.1604V11.5115H21.1072L18.9809 12.8699V11.3606L21.2403 9.90909H22.8073Z" fill="#F5F5F5"/>
<path d="M9.70455 30V24.1818H11.6705C12.1269 24.1818 12.5 24.2642 12.7898 24.429C13.0814 24.5919 13.2973 24.8125 13.4375 25.0909C13.5777 25.3693 13.6477 25.6799 13.6477 26.0227C13.6477 26.3655 13.5777 26.6771 13.4375 26.9574C13.2992 27.2377 13.0852 27.4612 12.7955 27.6278C12.5057 27.7926 12.1345 27.875 11.6818 27.875H10.2727V27.25H11.6591C11.9716 27.25 12.2225 27.196 12.4119 27.0881C12.6013 26.9801 12.7386 26.8343 12.8239 26.6506C12.911 26.465 12.9545 26.2557 12.9545 26.0227C12.9545 25.7898 12.911 25.5814 12.8239 25.3977C12.7386 25.214 12.6004 25.0701 12.4091 24.9659C12.2178 24.8598 11.964 24.8068 11.6477 24.8068H10.4091V30H9.70455ZM15.8959 30.1023C15.6193 30.1023 15.3684 30.0502 15.143 29.946C14.9176 29.84 14.7387 29.6875 14.6061 29.4886C14.4735 29.2879 14.4072 29.0455 14.4072 28.7614C14.4072 28.5114 14.4565 28.3087 14.5549 28.1534C14.6534 27.9962 14.7851 27.8731 14.9498 27.7841C15.1146 27.6951 15.2964 27.6288 15.4953 27.5852C15.696 27.5398 15.8977 27.5038 16.1004 27.4773C16.3655 27.4432 16.5805 27.4176 16.7453 27.4006C16.912 27.3816 17.0332 27.3504 17.1089 27.3068C17.1866 27.2633 17.2254 27.1875 17.2254 27.0795V27.0568C17.2254 26.7765 17.1487 26.5587 16.9953 26.4034C16.8438 26.2481 16.6137 26.1705 16.3049 26.1705C15.9849 26.1705 15.7339 26.2405 15.5521 26.3807C15.3703 26.5208 15.2424 26.6705 15.1686 26.8295L14.5322 26.6023C14.6459 26.3371 14.7974 26.1307 14.9868 25.983C15.178 25.8333 15.3864 25.7292 15.6118 25.6705C15.839 25.6098 16.0625 25.5795 16.2822 25.5795C16.4224 25.5795 16.5834 25.5966 16.7652 25.6307C16.9489 25.6629 17.126 25.7301 17.2964 25.8324C17.4688 25.9347 17.6118 26.089 17.7254 26.2955C17.839 26.5019 17.8959 26.7784 17.8959 27.125V30H17.2254V29.4091H17.1913C17.1459 29.5038 17.0701 29.6051 16.964 29.7131C16.858 29.821 16.7169 29.9129 16.5407 29.9886C16.3646 30.0644 16.1496 30.1023 15.8959 30.1023ZM15.9981 29.5C16.2633 29.5 16.4868 29.4479 16.6686 29.3438C16.8523 29.2396 16.9905 29.1051 17.0834 28.9403C17.178 28.7756 17.2254 28.6023 17.2254 28.4205V27.8068C17.197 27.8409 17.1345 27.8722 17.0379 27.9006C16.9432 27.9271 16.8334 27.9508 16.7084 27.9716C16.5852 27.9905 16.465 28.0076 16.3476 28.0227C16.232 28.036 16.1383 28.0473 16.0663 28.0568C15.8921 28.0795 15.7292 28.1165 15.5777 28.1676C15.428 28.2169 15.3068 28.2917 15.214 28.392C15.1231 28.4905 15.0777 28.625 15.0777 28.7955C15.0777 29.0284 15.1638 29.2045 15.3362 29.3239C15.5104 29.4413 15.7311 29.5 15.9981 29.5ZM19.0396 30V25.6364H19.6873V26.2955H19.7328C19.8123 26.0795 19.9562 25.9044 20.1646 25.7699C20.3729 25.6354 20.6078 25.5682 20.8691 25.5682C20.9184 25.5682 20.9799 25.5691 21.0538 25.571C21.1276 25.5729 21.1835 25.5758 21.2214 25.5795V26.2614C21.1987 26.2557 21.1466 26.2472 21.0651 26.2358C20.9856 26.2225 20.9013 26.2159 20.8123 26.2159C20.6002 26.2159 20.4108 26.2604 20.2441 26.3494C20.0793 26.4366 19.9487 26.5578 19.8521 26.7131C19.7574 26.8665 19.71 27.0417 19.71 27.2386V30H19.0396ZM23.2202 30.1023C22.9437 30.1023 22.6928 30.0502 22.4674 29.946C22.242 29.84 22.063 29.6875 21.9305 29.4886C21.7979 29.2879 21.7316 29.0455 21.7316 28.7614C21.7316 28.5114 21.7808 28.3087 21.8793 28.1534C21.9778 27.9962 22.1094 27.8731 22.2742 27.7841C22.439 27.6951 22.6208 27.6288 22.8197 27.5852C23.0204 27.5398 23.2221 27.5038 23.4248 27.4773C23.6899 27.4432 23.9049 27.4176 24.0697 27.4006C24.2363 27.3816 24.3575 27.3504 24.4333 27.3068C24.5109 27.2633 24.5498 27.1875 24.5498 27.0795V27.0568C24.5498 26.7765 24.4731 26.5587 24.3197 26.4034C24.1681 26.2481 23.938 26.1705 23.6293 26.1705C23.3092 26.1705 23.0583 26.2405 22.8765 26.3807C22.6947 26.5208 22.5668 26.6705 22.493 26.8295L21.8566 26.6023C21.9702 26.3371 22.1217 26.1307 22.3111 25.983C22.5024 25.8333 22.7108 25.7292 22.9361 25.6705C23.1634 25.6098 23.3869 25.5795 23.6066 25.5795C23.7467 25.5795 23.9077 25.5966 24.0895 25.6307C24.2733 25.6629 24.4503 25.7301 24.6208 25.8324C24.7931 25.9347 24.9361 26.089 25.0498 26.2955C25.1634 26.5019 25.2202 26.7784 25.2202 27.125V30H24.5498V29.4091H24.5157C24.4702 29.5038 24.3945 29.6051 24.2884 29.7131C24.1823 29.821 24.0413 29.9129 23.8651 29.9886C23.689 30.0644 23.474 30.1023 23.2202 30.1023ZM23.3225 29.5C23.5877 29.5 23.8111 29.4479 23.993 29.3438C24.1767 29.2396 24.3149 29.1051 24.4077 28.9403C24.5024 28.7756 24.5498 28.6023 24.5498 28.4205V27.8068C24.5214 27.8409 24.4589 27.8722 24.3623 27.9006C24.2676 27.9271 24.1577 27.9508 24.0327 27.9716C23.9096 27.9905 23.7894 28.0076 23.6719 28.0227C23.5564 28.036 23.4627 28.0473 23.3907 28.0568C23.2164 28.0795 23.0536 28.1165 22.902 28.1676C22.7524 28.2169 22.6312 28.2917 22.5384 28.392C22.4475 28.4905 22.402 28.625 22.402 28.7955C22.402 29.0284 22.4882 29.2045 22.6606 29.3239C22.8348 29.4413 23.0555 29.5 23.3225 29.5ZM28.1253 31.7273C27.8014 31.7273 27.523 31.6856 27.2901 31.6023C27.0571 31.5208 26.863 31.4129 26.7077 31.2784C26.5543 31.1458 26.4321 31.0038 26.3412 30.8523L26.8753 30.4773C26.9359 30.5568 27.0126 30.6477 27.1054 30.75C27.1982 30.8542 27.3251 30.9441 27.4861 31.0199C27.649 31.0975 27.8621 31.1364 28.1253 31.1364C28.4776 31.1364 28.7683 31.0511 28.9975 30.8807C29.2266 30.7102 29.3412 30.4432 29.3412 30.0795V29.1932H29.2844C29.2352 29.2727 29.1651 29.3712 29.0742 29.4886C28.9852 29.6042 28.8564 29.7074 28.6878 29.7983C28.5211 29.8873 28.2958 29.9318 28.0117 29.9318C27.6594 29.9318 27.3431 29.8485 27.0628 29.6818C26.7844 29.5152 26.5638 29.2727 26.4009 28.9545C26.2399 28.6364 26.1594 28.25 26.1594 27.7955C26.1594 27.3485 26.238 26.9593 26.3952 26.6278C26.5524 26.2945 26.7711 26.0369 27.0514 25.8551C27.3318 25.6714 27.6556 25.5795 28.023 25.5795C28.3071 25.5795 28.5325 25.6269 28.6992 25.7216C28.8677 25.8144 28.9965 25.9205 29.0855 26.0398C29.1764 26.1572 29.2465 26.2538 29.2958 26.3295H29.3639V25.6364H30.0117V30.125C30.0117 30.5 29.9264 30.8049 29.756 31.0398C29.5874 31.2765 29.3602 31.4498 29.0742 31.5597C28.7901 31.6714 28.4738 31.7273 28.1253 31.7273ZM28.1026 29.3295C28.3715 29.3295 28.5988 29.268 28.7844 29.1449C28.97 29.0218 29.1111 28.8447 29.2077 28.6136C29.3043 28.3826 29.3526 28.1061 29.3526 27.7841C29.3526 27.4697 29.3052 27.1922 29.2105 26.9517C29.1158 26.7112 28.9757 26.5227 28.7901 26.3864C28.6045 26.25 28.3753 26.1818 28.1026 26.1818C27.8185 26.1818 27.5818 26.2538 27.3924 26.3977C27.2049 26.5417 27.0638 26.7348 26.9691 26.9773C26.8763 27.2197 26.8299 27.4886 26.8299 27.7841C26.8299 28.0871 26.8772 28.3551 26.9719 28.5881C27.0685 28.8191 27.2105 29.0009 27.398 29.1335C27.5874 29.2642 27.8223 29.3295 28.1026 29.3295ZM31.1589 30V25.6364H31.8067V26.2955H31.8521C31.9317 26.0795 32.0756 25.9044 32.2839 25.7699C32.4923 25.6354 32.7271 25.5682 32.9885 25.5682C33.0377 25.5682 33.0993 25.5691 33.1732 25.571C33.247 25.5729 33.3029 25.5758 33.3408 25.5795V26.2614C33.318 26.2557 33.266 26.2472 33.1845 26.2358C33.105 26.2225 33.0207 26.2159 32.9317 26.2159C32.7196 26.2159 32.5302 26.2604 32.3635 26.3494C32.1987 26.4366 32.068 26.5578 31.9714 26.7131C31.8768 26.8665 31.8294 27.0417 31.8294 27.2386V30H31.1589ZM35.3396 30.1023C35.0631 30.1023 34.8121 30.0502 34.5868 29.946C34.3614 29.84 34.1824 29.6875 34.0498 29.4886C33.9173 29.2879 33.851 29.0455 33.851 28.7614C33.851 28.5114 33.9002 28.3087 33.9987 28.1534C34.0972 27.9962 34.2288 27.8731 34.3936 27.7841C34.5584 27.6951 34.7402 27.6288 34.939 27.5852C35.1398 27.5398 35.3415 27.5038 35.5441 27.4773C35.8093 27.4432 36.0243 27.4176 36.189 27.4006C36.3557 27.3816 36.4769 27.3504 36.5527 27.3068C36.6303 27.2633 36.6691 27.1875 36.6691 27.0795V27.0568C36.6691 26.7765 36.5924 26.5587 36.439 26.4034C36.2875 26.2481 36.0574 26.1705 35.7487 26.1705C35.4286 26.1705 35.1777 26.2405 34.9959 26.3807C34.814 26.5208 34.6862 26.6705 34.6123 26.8295L33.976 26.6023C34.0896 26.3371 34.2411 26.1307 34.4305 25.983C34.6218 25.8333 34.8301 25.7292 35.0555 25.6705C35.2828 25.6098 35.5063 25.5795 35.726 25.5795C35.8661 25.5795 36.0271 25.5966 36.2089 25.6307C36.3926 25.6629 36.5697 25.7301 36.7402 25.8324C36.9125 25.9347 37.0555 26.089 37.1691 26.2955C37.2828 26.5019 37.3396 26.7784 37.3396 27.125V30H36.6691V29.4091H36.6351C36.5896 29.5038 36.5138 29.6051 36.4078 29.7131C36.3017 29.821 36.1606 29.9129 35.9845 29.9886C35.8084 30.0644 35.5934 30.1023 35.3396 30.1023ZM35.4419 29.5C35.707 29.5 35.9305 29.4479 36.1123 29.3438C36.296 29.2396 36.4343 29.1051 36.5271 28.9403C36.6218 28.7756 36.6691 28.6023 36.6691 28.4205V27.8068C36.6407 27.8409 36.5782 27.8722 36.4816 27.9006C36.387 27.9271 36.2771 27.9508 36.1521 27.9716C36.029 27.9905 35.9087 28.0076 35.7913 28.0227C35.6758 28.036 35.582 28.0473 35.5101 28.0568C35.3358 28.0795 35.1729 28.1165 35.0214 28.1676C34.8718 28.2169 34.7506 28.2917 34.6578 28.392C34.5669 28.4905 34.5214 28.625 34.5214 28.7955C34.5214 29.0284 34.6076 29.2045 34.7799 29.3239C34.9542 29.4413 35.1748 29.5 35.4419 29.5Z" fill="#F5F5F5"/>
<rect x="5.5" y="6.5" width="41" height="28" stroke="#8AC2FF"/>
</g>
<defs>
<clipPath id="clip0_218_314">
<rect width="40" height="40" fill="white"/>
</clipPath>
</defs>
</svg>
