<svg width="272" height="120" viewBox="0 0 272 120" fill="none" xmlns="http://www.w3.org/2000/svg">
<g clip-path="url(#clip0_228_341)">
<rect width="272" height="120" fill="#8AC2FF"/>
<path d="M24.7116 68H22.5881L28.7301 51.2727H30.821L36.9631 68H34.8395L29.8409 53.919H29.7102L24.7116 68ZM25.4957 61.4659H34.0554V63.2628H25.4957V61.4659ZM54.2023 58.2642L52.4708 58.7543C52.3619 58.4657 52.2012 58.1853 51.9889 57.913C51.782 57.6353 51.4988 57.4066 51.1394 57.2269C50.7801 57.0472 50.3199 56.9574 49.7591 56.9574C48.9914 56.9574 48.3516 57.1344 47.8397 57.4883C47.3333 57.8368 47.0801 58.2805 47.0801 58.8196C47.0801 59.2988 47.2544 59.6772 47.6029 59.9549C47.9513 60.2326 48.4958 60.464 49.2364 60.6491L51.0986 61.1065C52.2203 61.3788 53.0561 61.7953 53.6061 62.3562C54.156 62.9116 54.431 63.6276 54.431 64.5043C54.431 65.223 54.2241 65.8655 53.8102 66.4318C53.4019 66.9981 52.8301 67.4446 52.095 67.7713C51.36 68.098 50.5051 68.2614 49.5304 68.2614C48.2508 68.2614 47.1918 67.9837 46.3532 67.4283C45.5147 66.8729 44.9838 66.0616 44.7605 64.9943L46.5901 64.5369C46.7643 65.2121 47.0937 65.7185 47.5784 66.0561C48.0684 66.3937 48.7082 66.5625 49.4977 66.5625C50.3962 66.5625 51.1095 66.3719 51.6377 65.9908C52.1713 65.6042 52.4381 65.1413 52.4381 64.6023C52.4381 64.1667 52.2856 63.8018 51.9807 63.5078C51.6758 63.2083 51.2075 62.9851 50.5759 62.8381L48.485 62.348C47.336 62.0758 46.4921 61.6538 45.953 61.082C45.4194 60.5049 45.1526 59.7834 45.1526 58.9176C45.1526 58.2098 45.3513 57.5836 45.7488 57.0391C46.1517 56.4946 46.699 56.0671 47.3905 55.7567C48.0875 55.4464 48.877 55.2912 49.7591 55.2912C51.0006 55.2912 51.9753 55.5634 52.6831 56.108C53.3964 56.6525 53.9028 57.3712 54.2023 58.2642ZM57.1025 68V55.4545H59.0301V68H57.1025ZM58.0826 53.3636C57.7069 53.3636 57.3829 53.2357 57.1107 52.9798C56.8439 52.7238 56.7105 52.4162 56.7105 52.0568C56.7105 51.6974 56.8439 51.3898 57.1107 51.1339C57.3829 50.878 57.7069 50.75 58.0826 50.75C58.4584 50.75 58.7796 50.878 59.0464 51.1339C59.3187 51.3898 59.4548 51.6974 59.4548 52.0568C59.4548 52.4162 59.3187 52.7238 59.0464 52.9798C58.7796 53.2357 58.4584 53.3636 58.0826 53.3636ZM64.2581 60.4531V68H62.3305V55.4545H64.1928V57.4148H64.3561C64.6501 56.7777 65.0966 56.2659 65.6956 55.8793C66.2945 55.4872 67.0678 55.2912 68.0152 55.2912C68.8646 55.2912 69.6079 55.4654 70.245 55.8139C70.882 56.157 71.3775 56.6797 71.7315 57.3821C72.0854 58.0791 72.2624 58.9612 72.2624 60.0284V68H70.3348V60.1591C70.3348 59.1735 70.0789 58.4058 69.567 57.8558C69.0552 57.3004 68.3528 57.0227 67.4598 57.0227C66.8445 57.0227 66.2945 57.1561 65.8099 57.4229C65.3308 57.6897 64.9523 58.0791 64.6746 58.5909C64.3969 59.1027 64.2581 59.7235 64.2581 60.4531ZM80.6186 72.9659C79.6874 72.9659 78.887 72.8461 78.2173 72.6065C77.5475 72.3724 76.9894 72.062 76.5429 71.6754C76.1019 71.2943 75.7507 70.8859 75.4893 70.4503L77.0248 69.3722C77.199 69.6009 77.4196 69.8622 77.6864 70.1562C77.9532 70.4557 78.318 70.7144 78.7808 70.9322C79.2491 71.1554 79.8617 71.267 80.6186 71.267C81.6313 71.267 82.4672 71.022 83.126 70.532C83.7849 70.0419 84.1143 69.2741 84.1143 68.2287V65.6804H83.9509C83.8094 65.9091 83.6079 66.1922 83.3465 66.5298C83.0906 66.862 82.7204 67.1587 82.2357 67.4201C81.7566 67.676 81.1086 67.804 80.2918 67.804C79.2791 67.804 78.3697 67.5644 77.5639 67.0852C76.7634 66.6061 76.1291 65.9091 75.6608 64.9943C75.198 64.0795 74.9666 62.9687 74.9666 61.6619C74.9666 60.3769 75.1925 59.2579 75.6445 58.305C76.0964 57.3467 76.7253 56.6062 77.5312 56.0835C78.3371 55.5553 79.2682 55.2912 80.3245 55.2912C81.1413 55.2912 81.7892 55.4273 82.2684 55.6996C82.753 55.9664 83.1233 56.2713 83.3792 56.6143C83.6406 56.9519 83.842 57.2296 83.9836 57.4474H84.1796V55.4545H86.0418V68.3594C86.0418 69.4375 85.7968 70.3142 85.3068 70.9893C84.8222 71.67 84.1687 72.1682 83.3465 72.484C82.5298 72.8053 81.6204 72.9659 80.6186 72.9659ZM80.5532 66.0724C81.3264 66.0724 81.9798 65.8955 82.5134 65.5415C83.0471 65.1876 83.4527 64.6785 83.7304 64.0142C84.0081 63.3499 84.147 62.5549 84.147 61.6293C84.147 60.7254 84.0108 59.9277 83.7386 59.2362C83.4663 58.5446 83.0634 58.0028 82.5298 57.6108C81.9962 57.2187 81.3373 57.0227 80.5532 57.0227C79.7365 57.0227 79.0558 57.2296 78.5113 57.6435C77.9722 58.0573 77.5666 58.6127 77.2943 59.3097C77.0275 60.0066 76.8941 60.7798 76.8941 61.6293C76.8941 62.5005 77.0302 63.271 77.3025 63.9407C77.5802 64.605 77.9886 65.1277 78.5276 65.5089C79.0722 65.8846 79.7473 66.0724 80.5532 66.0724ZM91.2678 51.2727V68H89.3403V51.2727H91.2678ZM99.8282 68.2614C98.6194 68.2614 97.5767 67.9946 96.7 67.4609C95.8288 66.9219 95.1563 66.1705 94.6826 65.2067C94.2143 64.2375 93.9802 63.1103 93.9802 61.8253C93.9802 60.5402 94.2143 59.4077 94.6826 58.4276C95.1563 57.442 95.8152 56.6742 96.6592 56.1243C97.5086 55.5689 98.4996 55.2912 99.6322 55.2912C100.286 55.2912 100.931 55.4001 101.568 55.6179C102.205 55.8357 102.785 56.1896 103.308 56.6797C103.83 57.1643 104.247 57.8068 104.557 58.6072C104.868 59.4077 105.023 60.3932 105.023 61.5639V62.3807H95.3524V60.7145H103.063C103.063 60.0066 102.921 59.375 102.638 58.8196C102.36 58.2642 101.963 57.8259 101.445 57.5046C100.934 57.1834 100.329 57.0227 99.6322 57.0227C98.8644 57.0227 98.2001 57.2133 97.6393 57.5945C97.0839 57.9702 96.6565 58.4602 96.357 59.0646C96.0575 59.669 95.9078 60.317 95.9078 61.0085V62.1193C95.9078 63.0668 96.0711 63.8699 96.3978 64.5288C96.73 65.1822 97.1901 65.6804 97.7781 66.0234C98.3662 66.361 99.0496 66.5298 99.8282 66.5298C100.335 66.5298 100.792 66.459 101.2 66.3175C101.614 66.1705 101.971 65.9527 102.27 65.6641C102.57 65.37 102.801 65.0052 102.965 64.5696L104.827 65.0923C104.631 65.724 104.301 66.2794 103.839 66.7585C103.376 67.2322 102.804 67.6025 102.123 67.8693C101.443 68.1307 100.678 68.2614 99.8282 68.2614ZM122.85 58.2642L121.119 58.7543C121.01 58.4657 120.849 58.1853 120.637 57.913C120.43 57.6353 120.147 57.4066 119.787 57.2269C119.428 57.0472 118.968 56.9574 118.407 56.9574C117.639 56.9574 116.999 57.1344 116.488 57.4883C115.981 57.8368 115.728 58.2805 115.728 58.8196C115.728 59.2988 115.902 59.6772 116.251 59.9549C116.599 60.2326 117.144 60.464 117.884 60.6491L119.746 61.1065C120.868 61.3788 121.704 61.7953 122.254 62.3562C122.804 62.9116 123.079 63.6276 123.079 64.5043C123.079 65.223 122.872 65.8655 122.458 66.4318C122.05 66.9981 121.478 67.4446 120.743 67.7713C120.008 68.098 119.153 68.2614 118.178 68.2614C116.899 68.2614 115.84 67.9837 115.001 67.4283C114.162 66.8729 113.632 66.0616 113.408 64.9943L115.238 64.5369C115.412 65.2121 115.742 65.7185 116.226 66.0561C116.716 66.3937 117.356 66.5625 118.146 66.5625C119.044 66.5625 119.757 66.3719 120.285 65.9908C120.819 65.6042 121.086 65.1413 121.086 64.6023C121.086 64.1667 120.933 63.8018 120.629 63.5078C120.324 63.2083 119.855 62.9851 119.224 62.8381L117.133 62.348C115.984 62.0758 115.14 61.6538 114.601 61.082C114.067 60.5049 113.8 59.7834 113.8 58.9176C113.8 58.2098 113.999 57.5836 114.397 57.0391C114.8 56.4946 115.347 56.0671 116.038 55.7567C116.735 55.4464 117.525 55.2912 118.407 55.2912C119.648 55.2912 120.623 55.5634 121.331 56.108C122.044 56.6525 122.551 57.3712 122.85 58.2642ZM125.75 72.7045V55.4545H127.613V57.4474H127.841C127.983 57.2296 128.179 56.9519 128.429 56.6143C128.685 56.2713 129.05 55.9664 129.524 55.6996C130.003 55.4273 130.651 55.2912 131.468 55.2912C132.524 55.2912 133.455 55.5553 134.261 56.0835C135.067 56.6116 135.696 57.3603 136.148 58.3295C136.6 59.2988 136.826 60.4422 136.826 61.7599C136.826 63.0885 136.6 64.2402 136.148 65.2148C135.696 66.1841 135.07 66.9355 134.269 67.4691C133.469 67.9973 132.546 68.2614 131.5 68.2614C130.694 68.2614 130.049 68.128 129.565 67.8612C129.08 67.5889 128.707 67.2812 128.446 66.9382C128.184 66.5897 127.983 66.3011 127.841 66.0724H127.678V72.7045H125.75ZM127.645 61.7273C127.645 62.6747 127.784 63.5105 128.062 64.2347C128.339 64.9535 128.745 65.517 129.279 65.9254C129.812 66.3284 130.466 66.5298 131.239 66.5298C132.045 66.5298 132.717 66.3175 133.256 65.8928C133.801 65.4626 134.209 64.8854 134.482 64.1612C134.759 63.4316 134.898 62.6203 134.898 61.7273C134.898 60.8452 134.762 60.0502 134.49 59.3423C134.223 58.629 133.817 58.0655 133.273 57.6516C132.734 57.2324 132.056 57.0227 131.239 57.0227C130.455 57.0227 129.796 57.2215 129.262 57.619C128.729 58.011 128.326 58.561 128.054 59.2688C127.781 59.9712 127.645 60.7907 127.645 61.7273ZM143.228 68.294C142.433 68.294 141.711 68.1443 141.063 67.8448C140.415 67.5399 139.901 67.1016 139.52 66.5298C139.138 65.9527 138.948 65.2557 138.948 64.4389C138.948 63.7202 139.089 63.1375 139.373 62.6911C139.656 62.2391 140.034 61.8852 140.508 61.6293C140.982 61.3733 141.504 61.1828 142.076 61.0575C142.653 60.9268 143.233 60.8234 143.816 60.7472C144.578 60.6491 145.196 60.5756 145.67 60.5266C146.149 60.4722 146.497 60.3823 146.715 60.2571C146.939 60.1319 147.05 59.9141 147.05 59.6037V59.5384C147.05 58.7325 146.83 58.1063 146.389 57.6598C145.953 57.2133 145.291 56.9901 144.404 56.9901C143.484 56.9901 142.762 57.1915 142.239 57.5945C141.717 57.9974 141.349 58.4276 141.137 58.8849L139.307 58.2315C139.634 57.4692 140.07 56.8757 140.614 56.451C141.164 56.0208 141.763 55.7214 142.411 55.5526C143.064 55.3783 143.707 55.2912 144.339 55.2912C144.741 55.2912 145.204 55.3402 145.727 55.4382C146.255 55.5308 146.764 55.7241 147.254 56.0181C147.75 56.3121 148.161 56.7559 148.488 57.3494C148.814 57.9429 148.978 58.7379 148.978 59.7344V68H147.05V66.3011H146.952C146.821 66.5734 146.604 66.8647 146.299 67.1751C145.994 67.4854 145.588 67.7495 145.082 67.9673C144.575 68.1851 143.957 68.294 143.228 68.294ZM143.522 66.5625C144.284 66.5625 144.927 66.4128 145.449 66.1133C145.977 65.8138 146.375 65.4272 146.642 64.9535C146.914 64.4798 147.05 63.9815 147.05 63.4588V61.6946C146.968 61.7926 146.789 61.8825 146.511 61.9641C146.239 62.0404 145.923 62.1084 145.564 62.1683C145.21 62.2228 144.864 62.2718 144.526 62.3153C144.194 62.3535 143.925 62.3861 143.718 62.4134C143.217 62.4787 142.749 62.5849 142.313 62.7319C141.883 62.8735 141.534 63.0885 141.267 63.3771C141.006 63.6603 140.875 64.0469 140.875 64.5369C140.875 65.2067 141.123 65.7131 141.619 66.0561C142.12 66.3937 142.754 66.5625 143.522 66.5625ZM154.193 60.4531V68H152.266V55.4545H154.128V57.4148H154.291C154.586 56.7777 155.032 56.2659 155.631 55.8793C156.23 55.4872 157.003 55.2912 157.951 55.2912C158.8 55.2912 159.543 55.4654 160.18 55.8139C160.817 56.157 161.313 56.6797 161.667 57.3821C162.021 58.0791 162.198 58.9612 162.198 60.0284V68H160.27V60.1591C160.27 59.1735 160.014 58.4058 159.502 57.8558C158.991 57.3004 158.288 57.0227 157.395 57.0227C156.78 57.0227 156.23 57.1561 155.745 57.4229C155.266 57.6897 154.888 58.0791 154.61 58.5909C154.332 59.1027 154.193 59.7235 154.193 60.4531ZM171.729 68V55.4545H173.656V68H171.729ZM172.709 53.3636C172.333 53.3636 172.009 53.2357 171.737 52.9798C171.47 52.7238 171.337 52.4162 171.337 52.0568C171.337 51.6974 171.47 51.3898 171.737 51.1339C172.009 50.878 172.333 50.75 172.709 50.75C173.085 50.75 173.406 50.878 173.673 51.1339C173.945 51.3898 174.081 51.6974 174.081 52.0568C174.081 52.4162 173.945 52.7238 173.673 52.9798C173.406 53.2357 173.085 53.3636 172.709 53.3636ZM178.884 60.4531V68H176.957V55.4545H178.819V57.4148H178.982C179.276 56.7777 179.723 56.2659 180.322 55.8793C180.921 55.4872 181.694 55.2912 182.641 55.2912C183.491 55.2912 184.234 55.4654 184.871 55.8139C185.508 56.157 186.004 56.6797 186.358 57.3821C186.712 58.0791 186.889 58.9612 186.889 60.0284V68H184.961V60.1591C184.961 59.1735 184.705 58.4058 184.193 57.8558C183.681 57.3004 182.979 57.0227 182.086 57.0227C181.471 57.0227 180.921 57.1561 180.436 57.4229C179.957 57.6897 179.579 58.0791 179.301 58.5909C179.023 59.1027 178.884 59.7235 178.884 60.4531ZM199.067 58.2642L197.336 58.7543C197.227 58.4657 197.066 58.1853 196.854 57.913C196.647 57.6353 196.364 57.4066 196.004 57.2269C195.645 57.0472 195.185 56.9574 194.624 56.9574C193.856 56.9574 193.217 57.1344 192.705 57.4883C192.198 57.8368 191.945 58.2805 191.945 58.8196C191.945 59.2988 192.119 59.6772 192.468 59.9549C192.816 60.2326 193.361 60.464 194.101 60.6491L195.964 61.1065C197.085 61.3788 197.921 61.7953 198.471 62.3562C199.021 62.9116 199.296 63.6276 199.296 64.5043C199.296 65.223 199.089 65.8655 198.675 66.4318C198.267 66.9981 197.695 67.4446 196.96 67.7713C196.225 68.098 195.37 68.2614 194.395 68.2614C193.116 68.2614 192.057 67.9837 191.218 67.4283C190.38 66.8729 189.849 66.0616 189.625 64.9943L191.455 64.5369C191.629 65.2121 191.959 65.7185 192.443 66.0561C192.933 66.3937 193.573 66.5625 194.363 66.5625C195.261 66.5625 195.974 66.3719 196.503 65.9908C197.036 65.6042 197.303 65.1413 197.303 64.6023C197.303 64.1667 197.151 63.8018 196.846 63.5078C196.541 63.2083 196.072 62.9851 195.441 62.8381L193.35 62.348C192.201 62.0758 191.357 61.6538 190.818 61.082C190.284 60.5049 190.018 59.7834 190.018 58.9176C190.018 58.2098 190.216 57.5836 190.614 57.0391C191.017 56.4946 191.564 56.0671 192.255 55.7567C192.952 55.4464 193.742 55.2912 194.624 55.2912C195.866 55.2912 196.84 55.5634 197.548 56.108C198.261 56.6525 198.768 57.3712 199.067 58.2642ZM201.967 68V55.4545H203.895V68H201.967ZM202.948 53.3636C202.572 53.3636 202.248 53.2357 201.976 52.9798C201.709 52.7238 201.575 52.4162 201.575 52.0568C201.575 51.6974 201.709 51.3898 201.976 51.1339C202.248 50.878 202.572 50.75 202.948 50.75C203.323 50.75 203.645 50.878 203.911 51.1339C204.184 51.3898 204.32 51.6974 204.32 52.0568C204.32 52.4162 204.184 52.7238 203.911 52.9798C203.645 53.2357 203.323 53.3636 202.948 53.3636ZM211.933 68.2614C210.887 68.2614 209.964 67.9973 209.164 67.4691C208.363 66.9355 207.737 66.1841 207.285 65.2148C206.833 64.2402 206.607 63.0885 206.607 61.7599C206.607 60.4422 206.833 59.2988 207.285 58.3295C207.737 57.3603 208.366 56.6116 209.172 56.0835C209.978 55.5553 210.909 55.2912 211.965 55.2912C212.782 55.2912 213.427 55.4273 213.901 55.6996C214.38 55.9664 214.745 56.2713 214.996 56.6143C215.251 56.9519 215.45 57.2296 215.592 57.4474H215.755V51.2727H217.683V68H215.82V66.0724H215.592C215.45 66.3011 215.249 66.5897 214.987 66.9382C214.726 67.2812 214.353 67.5889 213.868 67.8612C213.384 68.128 212.739 68.2614 211.933 68.2614ZM212.194 66.5298C212.967 66.5298 213.621 66.3284 214.154 65.9254C214.688 65.517 215.094 64.9535 215.371 64.2347C215.649 63.5105 215.788 62.6747 215.788 61.7273C215.788 60.7907 215.652 59.9712 215.379 59.2688C215.107 58.561 214.704 58.011 214.171 57.619C213.637 57.2215 212.978 57.0227 212.194 57.0227C211.377 57.0227 210.697 57.2324 210.152 57.6516C209.613 58.0655 209.207 58.629 208.935 59.3423C208.668 60.0502 208.535 60.8452 208.535 61.7273C208.535 62.6203 208.671 63.4316 208.943 64.1612C209.221 64.8854 209.629 65.4626 210.169 65.8928C210.713 66.3175 211.388 66.5298 212.194 66.5298ZM226.511 68.2614C225.302 68.2614 224.259 67.9946 223.382 67.4609C222.511 66.9219 221.839 66.1705 221.365 65.2067C220.897 64.2375 220.663 63.1103 220.663 61.8253C220.663 60.5402 220.897 59.4077 221.365 58.4276C221.839 57.442 222.498 56.6742 223.342 56.1243C224.191 55.5689 225.182 55.2912 226.315 55.2912C226.968 55.2912 227.613 55.4001 228.25 55.6179C228.887 55.8357 229.467 56.1896 229.99 56.6797C230.513 57.1643 230.929 57.8068 231.24 58.6072C231.55 59.4077 231.705 60.3932 231.705 61.5639V62.3807H222.035V60.7145H229.745C229.745 60.0066 229.603 59.375 229.32 58.8196C229.043 58.2642 228.645 57.8259 228.128 57.5046C227.616 57.1834 227.012 57.0227 226.315 57.0227C225.547 57.0227 224.883 57.2133 224.322 57.5945C223.766 57.9702 223.339 58.4602 223.039 59.0646C222.74 59.669 222.59 60.317 222.59 61.0085V62.1193C222.59 63.0668 222.753 63.8699 223.08 64.5288C223.412 65.1822 223.872 65.6804 224.461 66.0234C225.049 66.361 225.732 66.5298 226.511 66.5298C227.017 66.5298 227.474 66.459 227.883 66.3175C228.297 66.1705 228.653 65.9527 228.953 65.6641C229.252 65.37 229.484 65.0052 229.647 64.5696L231.509 65.0923C231.313 65.724 230.984 66.2794 230.521 66.7585C230.058 67.2322 229.486 67.6025 228.806 67.8693C228.125 68.1307 227.36 68.2614 226.511 68.2614ZM244.338 68.294C243.543 68.294 242.821 68.1443 242.173 67.8448C241.525 67.5399 241.011 67.1016 240.63 66.5298C240.249 65.9527 240.058 65.2557 240.058 64.4389C240.058 63.7202 240.2 63.1375 240.483 62.6911C240.766 62.2391 241.144 61.8852 241.618 61.6293C242.092 61.3733 242.615 61.1828 243.186 61.0575C243.763 60.9268 244.343 60.8234 244.926 60.7472C245.688 60.6491 246.306 60.5756 246.78 60.5266C247.259 60.4722 247.608 60.3823 247.825 60.2571C248.049 60.1319 248.16 59.9141 248.16 59.6037V59.5384C248.16 58.7325 247.94 58.1063 247.499 57.6598C247.063 57.2133 246.402 56.9901 245.514 56.9901C244.594 56.9901 243.872 57.1915 243.35 57.5945C242.827 57.9974 242.459 58.4276 242.247 58.8849L240.417 58.2315C240.744 57.4692 241.18 56.8757 241.724 56.451C242.274 56.0208 242.873 55.7214 243.521 55.5526C244.175 55.3783 244.817 55.2912 245.449 55.2912C245.852 55.2912 246.314 55.3402 246.837 55.4382C247.365 55.5308 247.874 55.7241 248.365 56.0181C248.86 56.3121 249.271 56.7559 249.598 57.3494C249.925 57.9429 250.088 58.7379 250.088 59.7344V68H248.16V66.3011H248.062C247.932 66.5734 247.714 66.8647 247.409 67.1751C247.104 67.4854 246.698 67.7495 246.192 67.9673C245.686 68.1851 245.068 68.294 244.338 68.294ZM244.632 66.5625C245.394 66.5625 246.037 66.4128 246.559 66.1133C247.088 65.8138 247.485 65.4272 247.752 64.9535C248.024 64.4798 248.16 63.9815 248.16 63.4588V61.6946C248.079 61.7926 247.899 61.8825 247.621 61.9641C247.349 62.0404 247.033 62.1084 246.674 62.1683C246.32 62.2228 245.974 62.2718 245.637 62.3153C245.304 62.3535 245.035 62.3861 244.828 62.4134C244.327 62.4787 243.859 62.5849 243.423 62.7319C242.993 62.8735 242.644 63.0885 242.378 63.3771C242.116 63.6603 241.986 64.0469 241.986 64.5369C241.986 65.2067 242.233 65.7131 242.729 66.0561C243.23 66.3937 243.864 66.5625 244.632 66.5625ZM259.876 68V51.2727H261.804V57.4474H261.967C262.109 57.2296 262.305 56.9519 262.555 56.6143C262.811 56.2713 263.176 55.9664 263.65 55.6996C264.129 55.4273 264.777 55.2912 265.594 55.2912C266.65 55.2912 267.581 55.5553 268.387 56.0835C269.193 56.6116 269.822 57.3603 270.274 58.3295C270.726 59.2988 270.951 60.4422 270.951 61.7599C270.951 63.0885 270.726 64.2402 270.274 65.2148C269.822 66.1841 269.195 66.9355 268.395 67.4691C267.595 67.9973 266.672 68.2614 265.626 68.2614C264.82 68.2614 264.175 68.128 263.69 67.8612C263.206 67.5889 262.833 67.2812 262.572 66.9382C262.31 66.5897 262.109 66.3011 261.967 66.0724H261.738V68H259.876ZM261.771 61.7273C261.771 62.6747 261.91 63.5105 262.188 64.2347C262.465 64.9535 262.871 65.517 263.405 65.9254C263.938 66.3284 264.592 66.5298 265.365 66.5298C266.171 66.5298 266.843 66.3175 267.382 65.8928C267.927 65.4626 268.335 64.8854 268.607 64.1612C268.885 63.4316 269.024 62.6203 269.024 61.7273C269.024 60.8452 268.888 60.0502 268.616 59.3423C268.349 58.629 267.943 58.0655 267.399 57.6516C266.86 57.2324 266.182 57.0227 265.365 57.0227C264.581 57.0227 263.922 57.2215 263.388 57.619C262.855 58.011 262.452 58.561 262.179 59.2688C261.907 59.9712 261.771 60.7907 261.771 61.7273ZM273.67 68V55.4545H275.598V68H273.67ZM274.65 53.3636C274.274 53.3636 273.95 53.2357 273.678 52.9798C273.411 52.7238 273.278 52.4162 273.278 52.0568C273.278 51.6974 273.411 51.3898 273.678 51.1339C273.95 50.878 274.274 50.75 274.65 50.75C275.026 50.75 275.347 50.878 275.614 51.1339C275.886 51.3898 276.022 51.6974 276.022 52.0568C276.022 52.4162 275.886 52.7238 275.614 52.9798C275.347 53.2357 275.026 53.3636 274.65 53.3636ZM283.962 72.9659C283.031 72.9659 282.23 72.8461 281.561 72.6065C280.891 72.3724 280.333 72.062 279.886 71.6754C279.445 71.2943 279.094 70.8859 278.833 70.4503L280.368 69.3722C280.542 69.6009 280.763 69.8622 281.03 70.1562C281.297 70.4557 281.661 70.7144 282.124 70.9322C282.592 71.1554 283.205 71.267 283.962 71.267C284.975 71.267 285.811 71.022 286.469 70.532C287.128 70.0419 287.458 69.2741 287.458 68.2287V65.6804H287.294C287.153 65.9091 286.951 66.1922 286.69 66.5298C286.434 66.862 286.064 67.1587 285.579 67.4201C285.1 67.676 284.452 67.804 283.635 67.804C282.622 67.804 281.713 67.5644 280.907 67.0852C280.107 66.6061 279.472 65.9091 279.004 64.9943C278.541 64.0795 278.31 62.9687 278.31 61.6619C278.31 60.3769 278.536 59.2579 278.988 58.305C279.44 57.3467 280.069 56.6062 280.875 56.0835C281.68 55.5553 282.612 55.2912 283.668 55.2912C284.485 55.2912 285.133 55.4273 285.612 55.6996C286.096 55.9664 286.467 56.2713 286.723 56.6143C286.984 56.9519 287.185 57.2296 287.327 57.4474H287.523V55.4545H289.385V68.3594C289.385 69.4375 289.14 70.3142 288.65 70.9893C288.166 71.67 287.512 72.1682 286.69 72.484C285.873 72.8053 284.964 72.9659 283.962 72.9659ZM283.897 66.0724C284.67 66.0724 285.323 65.8955 285.857 65.5415C286.39 65.1876 286.796 64.6785 287.074 64.0142C287.351 63.3499 287.49 62.5549 287.49 61.6293C287.49 60.7254 287.354 59.9277 287.082 59.2362C286.81 58.5446 286.407 58.0028 285.873 57.6108C285.34 57.2187 284.681 57.0227 283.897 57.0227C283.08 57.0227 282.399 57.2296 281.855 57.6435C281.316 58.0573 280.91 58.6127 280.638 59.3097C280.371 60.0066 280.237 60.7798 280.237 61.6293C280.237 62.5005 280.374 63.271 280.646 63.9407C280.924 64.605 281.332 65.1277 281.871 65.5089C282.416 65.8846 283.091 66.0724 283.897 66.0724ZM297.748 72.9659C296.816 72.9659 296.016 72.8461 295.346 72.6065C294.677 72.3724 294.118 72.062 293.672 71.6754C293.231 71.2943 292.88 70.8859 292.618 70.4503L294.154 69.3722C294.328 69.6009 294.549 69.8622 294.815 70.1562C295.082 70.4557 295.447 70.7144 295.91 70.9322C296.378 71.1554 296.991 71.267 297.748 71.267C298.76 71.267 299.596 71.022 300.255 70.532C300.914 70.0419 301.243 69.2741 301.243 68.2287V65.6804H301.08C300.938 65.9091 300.737 66.1922 300.476 66.5298C300.22 66.862 299.849 67.1587 299.365 67.4201C298.886 67.676 298.238 67.804 297.421 67.804C296.408 67.804 295.499 67.5644 294.693 67.0852C293.892 66.6061 293.258 65.9091 292.79 64.9943C292.327 64.0795 292.096 62.9687 292.096 61.6619C292.096 60.3769 292.322 59.2579 292.773 58.305C293.225 57.3467 293.854 56.6062 294.66 56.0835C295.466 55.5553 296.397 55.2912 297.453 55.2912C298.27 55.2912 298.918 55.4273 299.397 55.6996C299.882 55.9664 300.252 56.2713 300.508 56.6143C300.77 56.9519 300.971 57.2296 301.113 57.4474H301.309V55.4545H303.171V68.3594C303.171 69.4375 302.926 70.3142 302.436 70.9893C301.951 71.67 301.298 72.1682 300.476 72.484C299.659 72.8053 298.749 72.9659 297.748 72.9659ZM297.682 66.0724C298.455 66.0724 299.109 65.8955 299.642 65.5415C300.176 65.1876 300.582 64.6785 300.859 64.0142C301.137 63.3499 301.276 62.5549 301.276 61.6293C301.276 60.7254 301.14 59.9277 300.868 59.2362C300.595 58.5446 300.192 58.0028 299.659 57.6108C299.125 57.2187 298.466 57.0227 297.682 57.0227C296.865 57.0227 296.185 57.2296 295.64 57.6435C295.101 58.0573 294.696 58.6127 294.423 59.3097C294.157 60.0066 294.023 60.7798 294.023 61.6293C294.023 62.5005 294.159 63.271 294.431 63.9407C294.709 64.605 295.118 65.1277 295.657 65.5089C296.201 65.8846 296.876 66.0724 297.682 66.0724ZM311.729 68.2614C310.52 68.2614 309.478 67.9946 308.601 67.4609C307.73 66.9219 307.057 66.1705 306.584 65.2067C306.115 64.2375 305.881 63.1103 305.881 61.8253C305.881 60.5402 306.115 59.4077 306.584 58.4276C307.057 57.442 307.716 56.6742 308.56 56.1243C309.41 55.5689 310.401 55.2912 311.533 55.2912C312.187 55.2912 312.832 55.4001 313.469 55.6179C314.106 55.8357 314.686 56.1896 315.209 56.6797C315.731 57.1643 316.148 57.8068 316.458 58.6072C316.769 59.4077 316.924 60.3932 316.924 61.5639V62.3807H307.253V60.7145H314.964C314.964 60.0066 314.822 59.375 314.539 58.8196C314.261 58.2642 313.864 57.8259 313.346 57.5046C312.835 57.1834 312.23 57.0227 311.533 57.0227C310.765 57.0227 310.101 57.2133 309.54 57.5945C308.985 57.9702 308.557 58.4602 308.258 59.0646C307.958 59.669 307.809 60.317 307.809 61.0085V62.1193C307.809 63.0668 307.972 63.8699 308.299 64.5288C308.631 65.1822 309.091 65.6804 309.679 66.0234C310.267 66.361 310.951 66.5298 311.729 66.5298C312.236 66.5298 312.693 66.459 313.101 66.3175C313.515 66.1705 313.872 65.9527 314.171 65.6641C314.471 65.37 314.702 65.0052 314.866 64.5696L316.728 65.0923C316.532 65.724 316.202 66.2794 315.739 66.7585C315.277 67.2322 314.705 67.6025 314.024 67.8693C313.344 68.1307 312.579 68.2614 311.729 68.2614ZM319.626 68V55.4545H321.488V57.3494H321.619C321.848 56.7287 322.261 56.225 322.86 55.8384C323.459 55.4518 324.134 55.2585 324.886 55.2585C325.027 55.2585 325.204 55.2612 325.417 55.2667C325.629 55.2721 325.79 55.2803 325.899 55.2912V57.2514C325.833 57.2351 325.684 57.2106 325.449 57.1779C325.221 57.1398 324.978 57.1207 324.723 57.1207C324.113 57.1207 323.568 57.2487 323.089 57.5046C322.615 57.7551 322.24 58.1036 321.962 58.5501C321.69 58.9911 321.554 59.4948 321.554 60.0611V68H319.626ZM343.079 58.2642L341.347 58.7543C341.238 58.4657 341.078 58.1853 340.865 57.913C340.658 57.6353 340.375 57.4066 340.016 57.2269C339.656 57.0472 339.196 56.9574 338.636 56.9574C337.868 56.9574 337.228 57.1344 336.716 57.4883C336.21 57.8368 335.957 58.2805 335.957 58.8196C335.957 59.2988 336.131 59.6772 336.479 59.9549C336.828 60.2326 337.372 60.464 338.113 60.6491L339.975 61.1065C341.097 61.3788 341.933 61.7953 342.482 62.3562C343.032 62.9116 343.307 63.6276 343.307 64.5043C343.307 65.223 343.1 65.8655 342.687 66.4318C342.278 66.9981 341.707 67.4446 340.971 67.7713C340.236 68.098 339.381 68.2614 338.407 68.2614C337.127 68.2614 336.068 67.9837 335.23 67.4283C334.391 66.8729 333.86 66.0616 333.637 64.9943L335.466 64.5369C335.641 65.2121 335.97 65.7185 336.455 66.0561C336.945 66.3937 337.585 66.5625 338.374 66.5625C339.273 66.5625 339.986 66.3719 340.514 65.9908C341.048 65.6042 341.314 65.1413 341.314 64.6023C341.314 64.1667 341.162 63.8018 340.857 63.5078C340.552 63.2083 340.084 62.9851 339.452 62.8381L337.361 62.348C336.212 62.0758 335.368 61.6538 334.829 61.082C334.296 60.5049 334.029 59.7834 334.029 58.9176C334.029 58.2098 334.228 57.5836 334.625 57.0391C335.028 56.4946 335.575 56.0671 336.267 55.7567C336.964 55.4464 337.753 55.2912 338.636 55.2912C339.877 55.2912 340.852 55.5634 341.56 56.108C342.273 56.6525 342.779 57.3712 343.079 58.2642ZM351.239 68.2614C350.03 68.2614 348.987 67.9946 348.111 67.4609C347.239 66.9219 346.567 66.1705 346.093 65.2067C345.625 64.2375 345.391 63.1103 345.391 61.8253C345.391 60.5402 345.625 59.4077 346.093 58.4276C346.567 57.442 347.226 56.6742 348.07 56.1243C348.919 55.5689 349.91 55.2912 351.043 55.2912C351.696 55.2912 352.341 55.4001 352.979 55.6179C353.616 55.8357 354.196 56.1896 354.718 56.6797C355.241 57.1643 355.658 57.8068 355.968 58.6072C356.278 59.4077 356.433 60.3932 356.433 61.5639V62.3807H346.763V60.7145H354.473C354.473 60.0066 354.332 59.375 354.049 58.8196C353.771 58.2642 353.373 57.8259 352.856 57.5046C352.344 57.1834 351.74 57.0227 351.043 57.0227C350.275 57.0227 349.611 57.2133 349.05 57.5945C348.495 57.9702 348.067 58.4602 347.768 59.0646C347.468 59.669 347.318 60.317 347.318 61.0085V62.1193C347.318 63.0668 347.482 63.8699 347.808 64.5288C348.141 65.1822 348.601 65.6804 349.189 66.0234C349.777 66.361 350.46 66.5298 351.239 66.5298C351.745 66.5298 352.203 66.459 352.611 66.3175C353.025 66.1705 353.382 65.9527 353.681 65.6641C353.98 65.37 354.212 65.0052 354.375 64.5696L356.237 65.0923C356.041 65.724 355.712 66.2794 355.249 66.7585C354.786 67.2322 354.215 67.6025 353.534 67.8693C352.853 68.1307 352.088 68.2614 351.239 68.2614ZM361.063 60.4531V68H359.136V55.4545H360.998V57.4148H361.161C361.455 56.7777 361.902 56.2659 362.501 55.8793C363.1 55.4872 363.873 55.2912 364.82 55.2912C365.67 55.2912 366.413 55.4654 367.05 55.8139C367.687 56.157 368.183 56.6797 368.537 57.3821C368.891 58.0791 369.067 58.9612 369.067 60.0284V68H367.14V60.1591C367.14 59.1735 366.884 58.4058 366.372 57.8558C365.86 57.3004 365.158 57.0227 364.265 57.0227C363.65 57.0227 363.1 57.1561 362.615 57.4229C362.136 57.6897 361.757 58.0791 361.48 58.5909C361.202 59.1027 361.063 59.7235 361.063 60.4531ZM377.816 55.4545V57.0881H371.314V55.4545H377.816ZM373.209 52.4489H375.137V64.4062C375.137 64.9508 375.216 65.3591 375.374 65.6314C375.537 65.8982 375.744 66.0779 375.994 66.1705C376.25 66.2576 376.52 66.3011 376.803 66.3011C377.015 66.3011 377.19 66.2902 377.326 66.2685C377.462 66.2412 377.571 66.2195 377.652 66.2031L378.044 67.9347C377.914 67.9837 377.731 68.0327 377.497 68.0817C377.263 68.1361 376.966 68.1634 376.607 68.1634C376.062 68.1634 375.529 68.0463 375.006 67.8121C374.489 67.578 374.059 67.2214 373.716 66.7422C373.378 66.263 373.209 65.6586 373.209 64.929V52.4489ZM385.61 68.2614C384.402 68.2614 383.359 67.9946 382.482 67.4609C381.611 66.9219 380.939 66.1705 380.465 65.2067C379.997 64.2375 379.762 63.1103 379.762 61.8253C379.762 60.5402 379.997 59.4077 380.465 58.4276C380.939 57.442 381.597 56.6742 382.441 56.1243C383.291 55.5689 384.282 55.2912 385.414 55.2912C386.068 55.2912 386.713 55.4001 387.35 55.6179C387.987 55.8357 388.567 56.1896 389.09 56.6797C389.613 57.1643 390.029 57.8068 390.339 58.6072C390.65 59.4077 390.805 60.3932 390.805 61.5639V62.3807H381.135V60.7145H388.845C388.845 60.0066 388.703 59.375 388.42 58.8196C388.142 58.2642 387.745 57.8259 387.228 57.5046C386.716 57.1834 386.111 57.0227 385.414 57.0227C384.647 57.0227 383.982 57.2133 383.421 57.5945C382.866 57.9702 382.439 58.4602 382.139 59.0646C381.84 59.669 381.69 60.317 381.69 61.0085V62.1193C381.69 63.0668 381.853 63.8699 382.18 64.5288C382.512 65.1822 382.972 65.6804 383.56 66.0234C384.148 66.361 384.832 66.5298 385.61 66.5298C386.117 66.5298 386.574 66.459 386.983 66.3175C387.396 66.1705 387.753 65.9527 388.053 65.6641C388.352 65.37 388.583 65.0052 388.747 64.5696L390.609 65.0923C390.413 65.724 390.084 66.2794 389.621 66.7585C389.158 67.2322 388.586 67.6025 387.905 67.8693C387.225 68.1307 386.46 68.2614 385.61 68.2614ZM395.435 60.4531V68H393.507V55.4545H395.369V57.4148H395.533C395.827 56.7777 396.273 56.2659 396.872 55.8793C397.471 55.4872 398.244 55.2912 399.192 55.2912C400.041 55.2912 400.785 55.4654 401.422 55.8139C402.059 56.157 402.554 56.6797 402.908 57.3821C403.262 58.0791 403.439 58.9612 403.439 60.0284V68H401.511V60.1591C401.511 59.1735 401.256 58.4058 400.744 57.8558C400.232 57.3004 399.529 57.0227 398.636 57.0227C398.021 57.0227 397.471 57.1561 396.987 57.4229C396.507 57.6897 396.129 58.0791 395.851 58.5909C395.574 59.1027 395.435 59.7235 395.435 60.4531ZM411.828 68.2614C410.652 68.2614 409.639 67.9837 408.79 67.4283C407.94 66.8729 407.287 66.1078 406.829 65.1332C406.372 64.1585 406.143 63.045 406.143 61.7926C406.143 60.5185 406.377 59.3941 406.846 58.4194C407.319 57.4393 407.978 56.6742 408.822 56.1243C409.672 55.5689 410.663 55.2912 411.795 55.2912C412.677 55.2912 413.472 55.4545 414.18 55.7812C414.888 56.108 415.468 56.5653 415.92 57.1534C416.372 57.7415 416.652 58.4276 416.761 59.2116H414.834C414.687 58.6399 414.36 58.1335 413.853 57.6925C413.352 57.246 412.677 57.0227 411.828 57.0227C411.076 57.0227 410.418 57.2187 409.851 57.6108C409.29 57.9974 408.852 58.5446 408.536 59.2525C408.226 59.9549 408.071 60.7798 408.071 61.7273C408.071 62.6965 408.223 63.5405 408.528 64.2592C408.839 64.978 409.274 65.5361 409.835 65.9336C410.401 66.3311 411.066 66.5298 411.828 66.5298C412.329 66.5298 412.783 66.4427 413.192 66.2685C413.6 66.0942 413.946 65.8438 414.229 65.517C414.512 65.1903 414.714 64.7983 414.834 64.3409H416.761C416.652 65.0814 416.383 65.7485 415.953 66.342C415.528 66.93 414.964 67.3983 414.262 67.7468C413.565 68.0898 412.754 68.2614 411.828 68.2614ZM424.609 68.2614C423.4 68.2614 422.357 67.9946 421.481 67.4609C420.609 66.9219 419.937 66.1705 419.463 65.2067C418.995 64.2375 418.761 63.1103 418.761 61.8253C418.761 60.5402 418.995 59.4077 419.463 58.4276C419.937 57.442 420.596 56.6742 421.44 56.1243C422.289 55.5689 423.28 55.2912 424.413 55.2912C425.066 55.2912 425.711 55.4001 426.349 55.6179C426.986 55.8357 427.566 56.1896 428.088 56.6797C428.611 57.1643 429.028 57.8068 429.338 58.6072C429.648 59.4077 429.803 60.3932 429.803 61.5639V62.3807H420.133V60.7145H427.843C427.843 60.0066 427.702 59.375 427.419 58.8196C427.141 58.2642 426.743 57.8259 426.226 57.5046C425.714 57.1834 425.11 57.0227 424.413 57.0227C423.645 57.0227 422.981 57.2133 422.42 57.5945C421.865 57.9702 421.437 58.4602 421.138 59.0646C420.838 59.669 420.688 60.317 420.688 61.0085V62.1193C420.688 63.0668 420.852 63.8699 421.178 64.5288C421.511 65.1822 421.971 65.6804 422.559 66.0234C423.147 66.361 423.83 66.5298 424.609 66.5298C425.115 66.5298 425.573 66.459 425.981 66.3175C426.395 66.1705 426.752 65.9527 427.051 65.6641C427.35 65.37 427.582 65.0052 427.745 64.5696L429.607 65.0923C429.411 65.724 429.082 66.2794 428.619 66.7585C428.156 67.2322 427.585 67.6025 426.904 67.8693C426.223 68.1307 425.458 68.2614 424.609 68.2614Z" fill="#171717"/>
<rect x="109.5" y="44.5" width="58" height="32" stroke="#006ACC"/>
<rect width="31" height="12" transform="translate(109 32)" fill="#006ACC"/>
<path d="M114.387 36.1973H113.068V40H112.541V36.1973H111.223V35.7344H114.387V36.1973Z" fill="white"/>
<path d="M121.812 36.7102C121.782 36.4413 121.657 36.233 121.438 36.0852C121.218 35.9356 120.941 35.8608 120.608 35.8608C120.369 35.8608 120.163 35.8987 119.989 35.9744C119.814 36.0483 119.679 36.1506 119.582 36.2812C119.488 36.41 119.44 36.5568 119.44 36.7216C119.44 36.8598 119.473 36.9792 119.537 37.0795C119.603 37.1799 119.689 37.2642 119.795 37.3324C119.903 37.3987 120.019 37.4545 120.142 37.5C120.265 37.5436 120.384 37.5795 120.497 37.608L121.065 37.7557C121.251 37.8011 121.441 37.8627 121.636 37.9403C121.831 38.018 122.012 38.1203 122.179 38.2472C122.346 38.3741 122.48 38.5312 122.582 38.7188C122.687 38.9062 122.739 39.1307 122.739 39.392C122.739 39.7216 122.653 40.0142 122.483 40.2699C122.314 40.5256 122.069 40.7273 121.747 40.875C121.427 41.0227 121.04 41.0966 120.585 41.0966C120.15 41.0966 119.773 41.0275 119.455 40.8892C119.136 40.7509 118.887 40.5549 118.707 40.3011C118.527 40.0455 118.428 39.7424 118.409 39.392H119.29C119.307 39.6023 119.375 39.7775 119.494 39.9176C119.616 40.0559 119.77 40.1591 119.957 40.2273C120.147 40.2936 120.354 40.3267 120.58 40.3267C120.828 40.3267 121.048 40.2879 121.241 40.2102C121.437 40.1307 121.59 40.0208 121.702 39.8807C121.813 39.7386 121.869 39.5729 121.869 39.3835C121.869 39.2112 121.82 39.0701 121.722 38.9602C121.625 38.8504 121.493 38.7595 121.327 38.6875C121.162 38.6155 120.975 38.5521 120.767 38.4972L120.08 38.3097C119.614 38.1828 119.244 37.9962 118.972 37.75C118.701 37.5038 118.565 37.178 118.565 36.7727C118.565 36.4375 118.656 36.1449 118.838 35.8949C119.02 35.6449 119.266 35.4508 119.577 35.3125C119.887 35.1723 120.238 35.1023 120.628 35.1023C121.022 35.1023 121.369 35.1714 121.67 35.3097C121.973 35.4479 122.212 35.6383 122.386 35.8807C122.561 36.1212 122.652 36.3977 122.659 36.7102H121.812ZM123.639 42.6364V36.6364H124.469V37.3438H124.54C124.589 37.2528 124.66 37.1477 124.753 37.0284C124.846 36.9091 124.975 36.8049 125.139 36.7159C125.304 36.625 125.522 36.5795 125.793 36.5795C126.145 36.5795 126.46 36.6686 126.736 36.8466C127.013 37.0246 127.229 37.2812 127.387 37.6165C127.546 37.9517 127.625 38.3551 127.625 38.8267C127.625 39.2983 127.547 39.7027 127.389 40.0398C127.232 40.375 127.016 40.6335 126.742 40.8153C126.467 40.9953 126.154 41.0852 125.801 41.0852C125.536 41.0852 125.319 41.0407 125.151 40.9517C124.984 40.8627 124.853 40.7585 124.759 40.6392C124.664 40.5199 124.591 40.4138 124.54 40.321H124.489V42.6364H123.639ZM124.472 38.8182C124.472 39.125 124.516 39.3939 124.605 39.625C124.694 39.8561 124.823 40.0369 124.992 40.1676C125.16 40.2964 125.367 40.3608 125.611 40.3608C125.865 40.3608 126.077 40.2936 126.247 40.1591C126.418 40.0227 126.547 39.8381 126.634 39.6051C126.723 39.3722 126.767 39.1098 126.767 38.8182C126.767 38.5303 126.724 38.2718 126.637 38.0426C126.551 37.8134 126.423 37.6326 126.25 37.5C126.08 37.3674 125.867 37.3011 125.611 37.3011C125.365 37.3011 125.157 37.3646 124.986 37.4915C124.817 37.6184 124.69 37.7955 124.603 38.0227C124.515 38.25 124.472 38.5152 124.472 38.8182ZM129.767 41.0966C129.49 41.0966 129.24 41.0455 129.017 40.9432C128.793 40.839 128.616 40.6884 128.486 40.4915C128.357 40.2945 128.292 40.053 128.292 39.767C128.292 39.5208 128.34 39.3182 128.434 39.1591C128.529 39 128.657 38.8741 128.818 38.7812C128.979 38.6884 129.159 38.6184 129.358 38.571C129.557 38.5237 129.759 38.4877 129.966 38.4631C130.227 38.4328 130.439 38.4081 130.602 38.3892C130.765 38.3684 130.883 38.3352 130.957 38.2898C131.031 38.2443 131.068 38.1705 131.068 38.0682V38.0483C131.068 37.8002 130.998 37.608 130.858 37.4716C130.719 37.3352 130.513 37.267 130.238 37.267C129.952 37.267 129.727 37.3305 129.562 37.4574C129.399 37.5824 129.287 37.7216 129.224 37.875L128.426 37.6932C128.521 37.428 128.659 37.214 128.841 37.0511C129.024 36.8864 129.236 36.767 129.474 36.6932C129.713 36.6174 129.964 36.5795 130.227 36.5795C130.401 36.5795 130.586 36.6004 130.781 36.642C130.978 36.6818 131.162 36.7557 131.332 36.8636C131.505 36.9716 131.646 37.1259 131.755 37.3267C131.865 37.5256 131.92 37.7841 131.92 38.1023V41H131.091V40.4034H131.057C131.002 40.5133 130.919 40.6212 130.809 40.7273C130.7 40.8333 130.559 40.9214 130.386 40.9915C130.214 41.0616 130.007 41.0966 129.767 41.0966ZM129.952 40.4148C130.186 40.4148 130.387 40.3684 130.554 40.2756C130.722 40.1828 130.85 40.0616 130.937 39.9119C131.026 39.7604 131.071 39.5985 131.071 39.4261V38.8636C131.041 38.8939 130.982 38.9223 130.895 38.9489C130.809 38.9735 130.712 38.9953 130.602 39.0142C130.492 39.0312 130.385 39.0473 130.281 39.0625C130.177 39.0758 130.09 39.0871 130.02 39.0966C129.855 39.1174 129.704 39.1525 129.568 39.2017C129.434 39.2509 129.326 39.322 129.244 39.4148C129.165 39.5057 129.125 39.6269 129.125 39.7784C129.125 39.9886 129.202 40.1477 129.358 40.2557C129.513 40.3617 129.711 40.4148 129.952 40.4148ZM133.821 38.4091V41H132.972V36.6364H133.787V37.3466H133.841C133.941 37.1155 134.099 36.9299 134.313 36.7898C134.528 36.6496 134.8 36.5795 135.128 36.5795C135.425 36.5795 135.686 36.642 135.909 36.767C136.133 36.8902 136.306 37.0739 136.429 37.3182C136.552 37.5625 136.614 37.8646 136.614 38.2244V41H135.764V38.3267C135.764 38.0104 135.682 37.7633 135.517 37.5852C135.352 37.4053 135.126 37.3153 134.838 37.3153C134.641 37.3153 134.466 37.358 134.313 37.4432C134.161 37.5284 134.041 37.6534 133.952 37.8182C133.865 37.9811 133.821 38.178 133.821 38.4091Z" fill="white"/>
</g>
<defs>
<clipPath id="clip0_228_341">
<rect width="272" height="120" fill="white"/>
</clipPath>
</defs>
</svg>
