<svg width="40" height="40" viewBox="0 0 40 40" fill="none" xmlns="http://www.w3.org/2000/svg">
<g clip-path="url(#clip0_203_83)">
<rect width="40" height="40" fill="#006ACC"/>
<path d="M11.7163 22.8994L6.95459 20.7712V19.9514L11.7163 17.8289V18.9294L8.27979 20.2771L7.98218 20.3726L8.27979 20.4736L11.7163 21.7988V22.8994ZM17.9211 22.3884C17.9211 22.2649 17.8968 22.1545 17.8481 22.0571C17.7995 21.9561 17.7171 21.8643 17.6011 21.782C17.485 21.6996 17.3315 21.6248 17.1406 21.5574C16.9497 21.4862 16.712 21.4226 16.4275 21.3665C16.0793 21.2953 15.7611 21.2092 15.4729 21.1082C15.1884 21.0071 14.9451 20.8854 14.7429 20.7432C14.537 20.6047 14.3779 20.4418 14.2656 20.2546C14.1533 20.0637 14.0972 19.8429 14.0972 19.592C14.0972 19.345 14.1552 19.1147 14.2712 18.9014C14.3873 18.6842 14.5501 18.4952 14.7598 18.3342C14.9694 18.1733 15.2183 18.046 15.5066 17.9524C15.7986 17.8588 16.1187 17.812 16.4668 17.812C16.8411 17.812 17.1781 17.8607 17.4775 17.958C17.777 18.0553 18.0316 18.1901 18.2412 18.3623C18.4508 18.5345 18.6118 18.7367 18.7241 18.9688C18.8402 19.1971 18.8982 19.4442 18.8982 19.71H17.8594C17.8594 19.5789 17.8257 19.4517 17.7583 19.3281C17.6909 19.2008 17.5973 19.0885 17.4775 18.9912C17.3577 18.8939 17.2118 18.8153 17.0396 18.7554C16.8711 18.6955 16.6802 18.6655 16.4668 18.6655C16.2459 18.6655 16.0513 18.6899 15.8828 18.7385C15.7181 18.7872 15.5815 18.8527 15.4729 18.9351C15.3606 19.0174 15.2764 19.1129 15.2202 19.2214C15.1641 19.33 15.136 19.4423 15.136 19.5583C15.136 19.6781 15.1584 19.7848 15.2034 19.8784C15.2483 19.972 15.3269 20.0562 15.4392 20.1311C15.5478 20.206 15.6938 20.2734 15.8772 20.3333C16.0644 20.3931 16.3002 20.4512 16.5847 20.5073C16.9591 20.5859 17.2941 20.6777 17.5898 20.7825C17.8856 20.8835 18.1345 21.0052 18.3367 21.1475C18.5388 21.2935 18.6923 21.4619 18.7971 21.6528C18.9057 21.8438 18.96 22.0646 18.96 22.3154C18.96 22.585 18.8982 22.8302 18.7747 23.051C18.6549 23.2719 18.4864 23.4609 18.2693 23.6182C18.0522 23.7754 17.792 23.8971 17.4888 23.9832C17.1855 24.0693 16.8542 24.1123 16.4949 24.1123C16.0831 24.1123 15.7162 24.058 15.3943 23.9495C15.0723 23.8372 14.8009 23.6893 14.5801 23.5059C14.3555 23.3262 14.1833 23.1165 14.0635 22.877C13.9474 22.6374 13.8894 22.3884 13.8894 22.1301H14.9282C14.9432 22.3435 14.9993 22.5232 15.0967 22.6692C15.1978 22.8152 15.3232 22.9331 15.4729 23.0229C15.6189 23.1128 15.7817 23.1764 15.9614 23.2139C16.1411 23.2513 16.3189 23.27 16.4949 23.27C16.7719 23.27 17.0133 23.2382 17.2192 23.1746C17.4251 23.1072 17.5861 23.0155 17.7021 22.8994C17.7733 22.8283 17.8276 22.7497 17.865 22.6636C17.9024 22.5775 17.9211 22.4858 17.9211 22.3884ZM20.7849 26.3359V17.9243H21.7339L21.7844 18.5869C21.8668 18.4821 21.9566 18.3885 22.054 18.3062C22.1513 18.2201 22.2561 18.1471 22.3684 18.0872C22.5256 17.9973 22.6997 17.9299 22.8906 17.885C23.0853 17.8363 23.2931 17.812 23.5139 17.812C23.9032 17.812 24.2476 17.8888 24.5471 18.0422C24.8466 18.1957 25.0974 18.4091 25.2996 18.6824C25.5017 18.9556 25.6552 19.2832 25.76 19.665C25.8648 20.0431 25.9172 20.4587 25.9172 20.9116V21.0295C25.9172 21.4638 25.8648 21.87 25.76 22.248C25.6552 22.6224 25.5017 22.9481 25.2996 23.2251C25.0974 23.5021 24.8466 23.7192 24.5471 23.8765C24.2514 24.0337 23.9126 24.1123 23.5308 24.1123C23.2987 24.1123 23.0815 24.088 22.8794 24.0393C22.681 23.9906 22.5013 23.9214 22.3403 23.8315C22.243 23.7754 22.1513 23.7136 22.0652 23.6462C21.9791 23.5751 21.8986 23.4984 21.8237 23.416V26.3359H20.7849ZM24.8784 20.9116C24.8784 20.6159 24.8447 20.3351 24.7773 20.0693C24.7137 19.7998 24.6145 19.5621 24.4797 19.3562C24.3412 19.1541 24.1672 18.9931 23.9575 18.8733C23.7479 18.7535 23.4971 18.6936 23.2051 18.6936C23.0441 18.6936 22.8944 18.7123 22.7559 18.7498C22.6211 18.7872 22.4994 18.8415 22.3909 18.9126C22.2711 18.9837 22.1644 19.0717 22.0708 19.1765C21.9772 19.2813 21.8949 19.3974 21.8237 19.5247V22.4502C21.8874 22.5625 21.9604 22.6673 22.0427 22.7646C22.1251 22.862 22.2187 22.9443 22.3235 23.0117C22.4433 23.0903 22.5762 23.1521 22.7222 23.197C22.8719 23.2419 23.0366 23.2644 23.2163 23.2644C23.5046 23.2644 23.7535 23.2045 23.9631 23.0847C24.1728 22.9612 24.345 22.7965 24.4797 22.5906C24.6145 22.3847 24.7137 22.147 24.7773 21.8774C24.8447 21.6079 24.8784 21.3253 24.8784 21.0295V20.9116ZM31.6897 24C31.6485 23.9214 31.6148 23.8241 31.5886 23.708C31.5662 23.5882 31.5493 23.4647 31.5381 23.3374C31.4333 23.4422 31.3153 23.5414 31.1843 23.635C31.057 23.7286 30.9167 23.811 30.7632 23.8821C30.606 23.9532 30.4394 24.0094 30.2634 24.0505C30.0875 24.0917 29.9003 24.1123 29.7019 24.1123C29.38 24.1123 29.088 24.0655 28.8259 23.9719C28.5676 23.8783 28.3486 23.7511 28.1689 23.5901C27.9855 23.4329 27.8433 23.2457 27.7422 23.0286C27.6449 22.8077 27.5962 22.57 27.5962 22.3154C27.5962 21.9823 27.6617 21.6903 27.7927 21.4395C27.9275 21.1886 28.1165 20.979 28.3599 20.8105C28.6032 20.6458 28.8952 20.5223 29.2358 20.4399C29.5802 20.3576 29.9639 20.3164 30.387 20.3164H31.5212V19.8391C31.5212 19.6557 31.4875 19.491 31.4202 19.345C31.3528 19.199 31.2573 19.0736 31.1338 18.9688C31.0103 18.8677 30.8586 18.7891 30.679 18.7329C30.503 18.6768 30.3046 18.6487 30.0837 18.6487C29.8778 18.6487 29.6925 18.6749 29.5278 18.7273C29.3669 18.7797 29.2302 18.849 29.1179 18.9351C29.0056 19.0212 28.9176 19.1241 28.854 19.2439C28.7941 19.3599 28.7642 19.4816 28.7642 19.6089H27.7197C27.7235 19.388 27.7796 19.1709 27.8882 18.9575C28.0005 18.7441 28.1615 18.5514 28.3711 18.3792C28.577 18.2107 28.8278 18.0741 29.1235 17.9692C29.423 17.8644 29.7618 17.812 30.1399 17.812C30.4843 17.812 30.8044 17.8551 31.1001 17.9412C31.3958 18.0235 31.6523 18.1489 31.8694 18.3174C32.0828 18.4896 32.2512 18.703 32.3748 18.9575C32.4983 19.2121 32.5601 19.5097 32.5601 19.8503V22.6748C32.5601 22.877 32.5788 23.0922 32.6162 23.3206C32.6536 23.5452 32.7061 23.7417 32.7734 23.9102V24H31.6897ZM29.8535 23.2083C30.0557 23.2083 30.2447 23.182 30.4207 23.1296C30.5966 23.0772 30.7576 23.008 30.9036 22.9219C31.0458 22.8358 31.1694 22.7384 31.2742 22.6299C31.379 22.5176 31.4613 22.4015 31.5212 22.2817V21.052H30.5554C30.196 21.052 29.8816 21.0838 29.6121 21.1475C29.3463 21.2074 29.1348 21.3009 28.9775 21.4282C28.8652 21.5181 28.7791 21.6248 28.7192 21.7483C28.6631 21.8718 28.635 22.0122 28.635 22.1694C28.635 22.3192 28.6593 22.4577 28.708 22.585C28.7604 22.7122 28.8372 22.8208 28.9382 22.9106C29.0393 23.0042 29.1666 23.0772 29.3201 23.1296C29.4736 23.182 29.6514 23.2083 29.8535 23.2083ZM34.604 24V17.9243H35.5361L35.6091 18.8228C35.699 18.6955 35.7963 18.5794 35.9011 18.4746C36.0097 18.366 36.1239 18.2725 36.2437 18.1938C36.4233 18.0741 36.618 17.9823 36.8276 17.9187C37.041 17.8513 37.2656 17.8158 37.5015 17.812C37.8197 17.812 38.1079 17.8569 38.3662 17.9468C38.6283 18.0366 38.851 18.177 39.0344 18.3679C39.2179 18.5588 39.3582 18.8022 39.4556 19.0979C39.5566 19.3899 39.6072 19.738 39.6072 20.1423V24H38.5684V20.1648C38.5684 19.8953 38.5384 19.6669 38.4785 19.4797C38.4186 19.2926 38.3306 19.141 38.2146 19.0249C38.0948 18.9089 37.9488 18.8246 37.7766 18.7722C37.6082 18.7198 37.4135 18.6936 37.1926 18.6936C37.0017 18.6936 36.8239 18.7217 36.6592 18.7778C36.4945 18.8302 36.3429 18.9032 36.2043 18.9968C36.092 19.0792 35.9872 19.1746 35.8899 19.2832C35.7963 19.3918 35.7139 19.5116 35.6428 19.6426V24H34.604ZM41.5332 22.8938V21.8157L45.1663 20.4456L45.5032 20.3501L45.1663 20.2434L41.5332 18.8958V17.8232L46.4915 19.9458V20.7656L41.5332 22.8938Z" fill="white"/>
</g>
<defs>
<clipPath id="clip0_203_83">
<rect width="40" height="40" fill="white"/>
</clipPath>
</defs>
</svg>
