<svg width="272" height="120" viewBox="0 0 272 120" fill="none" xmlns="http://www.w3.org/2000/svg">
<rect width="272" height="120" fill="#8AC2FF"/>
<rect x="55.5" y="14.5" width="161" height="91" fill="#1E1E1E"/>
<path d="M74 79L66.5 83.3301L66.5 74.6699L74 79Z" fill="#F5F5F5"/>
<path d="M84.5852 82.0966C84.1364 82.0947 83.7528 81.9763 83.4347 81.7415C83.1165 81.5066 82.8731 81.1648 82.7045 80.7159C82.536 80.267 82.4517 79.7263 82.4517 79.0938C82.4517 78.4631 82.536 77.9242 82.7045 77.4773C82.875 77.0303 83.1193 76.6894 83.4375 76.4545C83.7576 76.2197 84.1402 76.1023 84.5852 76.1023C85.0303 76.1023 85.4119 76.2206 85.7301 76.4574C86.0483 76.6922 86.2917 77.0331 86.4602 77.4801C86.6307 77.9252 86.7159 78.4631 86.7159 79.0938C86.7159 79.7282 86.6316 80.2699 86.4631 80.7188C86.2945 81.1657 86.0511 81.5076 85.733 81.7443C85.4148 81.9792 85.0322 82.0966 84.5852 82.0966ZM84.5852 81.3381C84.9792 81.3381 85.2869 81.1458 85.5085 80.7614C85.732 80.3769 85.8438 79.821 85.8438 79.0938C85.8438 78.6108 85.7926 78.2027 85.6903 77.8693C85.59 77.5341 85.4451 77.2803 85.2557 77.108C85.0682 76.9337 84.8447 76.8466 84.5852 76.8466C84.1932 76.8466 83.8854 77.0398 83.6619 77.4261C83.4384 77.8125 83.3258 78.3684 83.3239 79.0938C83.3239 79.5786 83.3741 79.9886 83.4744 80.3239C83.5767 80.6572 83.7216 80.91 83.9091 81.0824C84.0966 81.2528 84.322 81.3381 84.5852 81.3381ZM89.7493 82.0966C89.3004 82.0947 88.9169 81.9763 88.5987 81.7415C88.2805 81.5066 88.0372 81.1648 87.8686 80.7159C87.7 80.267 87.6158 79.7263 87.6158 79.0938C87.6158 78.4631 87.7 77.9242 87.8686 77.4773C88.0391 77.0303 88.2834 76.6894 88.6016 76.4545C88.9216 76.2197 89.3042 76.1023 89.7493 76.1023C90.1944 76.1023 90.576 76.2206 90.8942 76.4574C91.2124 76.6922 91.4557 77.0331 91.6243 77.4801C91.7947 77.9252 91.88 78.4631 91.88 79.0938C91.88 79.7282 91.7957 80.2699 91.6271 80.7188C91.4586 81.1657 91.2152 81.5076 90.897 81.7443C90.5788 81.9792 90.1963 82.0966 89.7493 82.0966ZM89.7493 81.3381C90.1432 81.3381 90.451 81.1458 90.6726 80.7614C90.8961 80.3769 91.0078 79.821 91.0078 79.0938C91.0078 78.6108 90.9567 78.2027 90.8544 77.8693C90.754 77.5341 90.6091 77.2803 90.4197 77.108C90.2322 76.9337 90.0088 76.8466 89.7493 76.8466C89.3572 76.8466 89.0495 77.0398 88.826 77.4261C88.6025 77.8125 88.4898 78.3684 88.4879 79.0938C88.4879 79.5786 88.5381 79.9886 88.6385 80.3239C88.7408 80.6572 88.8857 80.91 89.0732 81.0824C89.2607 81.2528 89.486 81.3381 89.7493 81.3381ZM93.4588 81.2784C93.3035 81.2784 93.17 81.2235 93.0582 81.1136C92.9465 81.0019 92.8906 80.8674 92.8906 80.7102C92.8906 80.5549 92.9465 80.4223 93.0582 80.3125C93.17 80.2008 93.3035 80.1449 93.4588 80.1449C93.6141 80.1449 93.7476 80.2008 93.8594 80.3125C93.9711 80.4223 94.027 80.5549 94.027 80.7102C94.027 80.8144 94.0005 80.91 93.9474 80.9972C93.8963 81.0824 93.8281 81.1506 93.7429 81.2017C93.6577 81.2528 93.563 81.2784 93.4588 81.2784ZM93.4588 78.3636C93.3035 78.3636 93.17 78.3087 93.0582 78.1989C92.9465 78.0871 92.8906 77.9527 92.8906 77.7955C92.8906 77.6402 92.9465 77.5076 93.0582 77.3977C93.17 77.286 93.3035 77.2301 93.4588 77.2301C93.6141 77.2301 93.7476 77.286 93.8594 77.3977C93.9711 77.5076 94.027 77.6402 94.027 77.7955C94.027 77.8996 94.0005 77.9953 93.9474 78.0824C93.8963 78.1676 93.8281 78.2358 93.7429 78.2869C93.6577 78.3381 93.563 78.3636 93.4588 78.3636ZM97.179 82.0966C96.7301 82.0947 96.3466 81.9763 96.0284 81.7415C95.7102 81.5066 95.4669 81.1648 95.2983 80.7159C95.1297 80.267 95.0455 79.7263 95.0455 79.0938C95.0455 78.4631 95.1297 77.9242 95.2983 77.4773C95.4688 77.0303 95.7131 76.6894 96.0312 76.4545C96.3513 76.2197 96.7339 76.1023 97.179 76.1023C97.6241 76.1023 98.0057 76.2206 98.3239 76.4574C98.642 76.6922 98.8854 77.0331 99.054 77.4801C99.2244 77.9252 99.3097 78.4631 99.3097 79.0938C99.3097 79.7282 99.2254 80.2699 99.0568 80.7188C98.8883 81.1657 98.6449 81.5076 98.3267 81.7443C98.0085 81.9792 97.6259 82.0966 97.179 82.0966ZM97.179 81.3381C97.5729 81.3381 97.8807 81.1458 98.1023 80.7614C98.3258 80.3769 98.4375 79.821 98.4375 79.0938C98.4375 78.6108 98.3864 78.2027 98.2841 77.8693C98.1837 77.5341 98.0388 77.2803 97.8494 77.108C97.6619 76.9337 97.4384 76.8466 97.179 76.8466C96.7869 76.8466 96.4792 77.0398 96.2557 77.4261C96.0322 77.8125 95.9195 78.3684 95.9176 79.0938C95.9176 79.5786 95.9678 79.9886 96.0682 80.3239C96.1705 80.6572 96.3153 80.91 96.5028 81.0824C96.6903 81.2528 96.9157 81.3381 97.179 81.3381ZM102.343 82.0966C101.894 82.0947 101.511 81.9763 101.192 81.7415C100.874 81.5066 100.631 81.1648 100.462 80.7159C100.294 80.267 100.21 79.7263 100.21 79.0938C100.21 78.4631 100.294 77.9242 100.462 77.4773C100.633 77.0303 100.877 76.6894 101.195 76.4545C101.515 76.2197 101.898 76.1023 102.343 76.1023C102.788 76.1023 103.17 76.2206 103.488 76.4574C103.806 76.6922 104.049 77.0331 104.218 77.4801C104.388 77.9252 104.474 78.4631 104.474 79.0938C104.474 79.7282 104.389 80.2699 104.221 80.7188C104.052 81.1657 103.809 81.5076 103.491 81.7443C103.173 81.9792 102.79 82.0966 102.343 82.0966ZM102.343 81.3381C102.737 81.3381 103.045 81.1458 103.266 80.7614C103.49 80.3769 103.602 79.821 103.602 79.0938C103.602 78.6108 103.55 78.2027 103.448 77.8693C103.348 77.5341 103.203 77.2803 103.013 77.108C102.826 76.9337 102.603 76.8466 102.343 76.8466C101.951 76.8466 101.643 77.0398 101.42 77.4261C101.196 77.8125 101.084 78.3684 101.082 79.0938C101.082 79.5786 101.132 79.9886 101.232 80.3239C101.335 80.6572 101.479 80.91 101.667 81.0824C101.854 81.2528 102.08 81.3381 102.343 81.3381Z" fill="#F5F5F5"/>
<path d="M183 83.3625V82.3375C183.75 82.1208 184.354 81.7042 184.813 81.0875C185.271 80.4708 185.5 79.7708 185.5 78.9875C185.5 78.2042 185.271 77.5042 184.813 76.8875C184.354 76.2708 183.75 75.8542 183 75.6375V74.6125C184.033 74.8458 184.875 75.3687 185.525 76.1812C186.175 76.9937 186.5 77.9292 186.5 78.9875C186.5 80.0458 186.175 80.9812 185.525 81.7937C184.875 82.6062 184.033 83.1292 183 83.3625ZM177.5 80.5V77.5H179.5L182 75V83L179.5 80.5H177.5ZM183 81V76.975C183.392 77.1583 183.698 77.4333 183.919 77.8C184.14 78.1667 184.25 78.5667 184.25 79C184.25 79.425 184.14 79.8187 183.919 80.1812C183.698 80.5437 183.392 80.8167 183 81ZM181 77.425L179.925 78.5H178.5V79.5H179.925L181 80.575V77.425Z" fill="#F5F5F5"/>
<path d="M202 83C201.725 83 201.49 82.9021 201.294 82.7063C201.098 82.5104 201 82.275 201 82C201 81.725 201.098 81.4896 201.294 81.2938C201.49 81.0979 201.725 81 202 81C202.275 81 202.51 81.0979 202.706 81.2938C202.902 81.4896 203 81.725 203 82C203 82.275 202.902 82.5104 202.706 82.7063C202.51 82.9021 202.275 83 202 83ZM202 80C201.725 80 201.49 79.9021 201.294 79.7063C201.098 79.5104 201 79.275 201 79C201 78.725 201.098 78.4896 201.294 78.2938C201.49 78.0979 201.725 78 202 78C202.275 78 202.51 78.0979 202.706 78.2938C202.902 78.4896 203 78.725 203 79C203 79.275 202.902 79.5104 202.706 79.7063C202.51 79.9021 202.275 80 202 80ZM202 77C201.725 77 201.49 76.9021 201.294 76.7063C201.098 76.5104 201 76.275 201 76C201 75.725 201.098 75.4896 201.294 75.2938C201.49 75.0979 201.725 75 202 75C202.275 75 202.51 75.0979 202.706 75.2938C202.902 75.4896 203 75.725 203 76C203 76.275 202.902 76.5104 202.706 76.7063C202.51 76.9021 202.275 77 202 77Z" fill="#F5F5F5"/>
<rect width="144" height="2" transform="translate(64 95)" fill="white" fill-opacity="0.19"/>
<rect width="55" height="2" transform="translate(64 95)" fill="white"/>
<rect x="55.5" y="14.5" width="161" height="91" stroke="#6D6D6D" style="mix-blend-mode:multiply"/>
</svg>
